<?xml version="1.0" encoding="utf-8"?>
<!-- Generator: Adobe Illustrator 18.1.1, SVG Export Plug-In . SVG Version: 6.00 Build 0)  -->
<svg version="1.1" id="Layer_1" xmlns="http://www.w3.org/2000/svg" xmlns:xlink="http://www.w3.org/1999/xlink" x="0px" y="0px"
	 viewBox="0 0 1440 576" enable-background="new 0 0 1440 576" xml:space="preserve">
<g>
	<path fill="#A3550B" d="M801.8,171.7c-0.5-21.1-12.4-34.8-22.6-63c-2.8-7.6,3.4-19.8-4.9-46.8c-9.8-32.2-38.5-40.2-58.6-40.2
		c-26.6,0-53.1,13.5-59.5,39.9c-7,28.7-3.1,39.3-5.5,48.1c-3,11.2-25,45.9-22.3,66.9c2.4,18.8,9.2,24.4,9.2,24.4s0.9-23.7,7.3-33.3
		c1.1-1.6-1,12.3,0.9,24.8c2.4,16.1,15,16.5,15,16.5s-2.5-4.7-2.6-7.9c-0.2-7.9,3-12.3,3-12.3s2.9,8.2,3.8,9.9
		c7.3,13.6,10.1,10.6,10.1,10.6s-3-12.5,0-13.2s79.1,1,79.1,1s3.4,9,1.5,12.9c-1,2,4.8-1.1,8.7-6.5c3.6-4.9,5.3-12,5.3-12
		s2.5,6.6,2.7,8.8c0.2,2.5-0.8,10.1-0.8,10.1s11-3.8,13.1-17.7c1.3-8.4,0.6-25.7,0.6-25.7c7,12.9,7.3,34.7,7.3,34.7
		S802.2,189.2,801.8,171.7z M765.5,115.8c-9.1,22.8-37.5,33.4-50.2,33.4c-17.3,0-45.4-15.6-50.8-33.8c0,0-10.9-1.4-10.9-11.8
		c0-12.1,8.5-12.4,8.5-12.4c-0.3,7.8,2.7,10.3,2.7,10.3s-0.5-3.2,2.7-6.8c3.7-4.1,10-5.7,18.2-12.4c8.2-6.8,11.8-21,11.8-21
		s1.8,7.8,14.2,19.2s25.4,5,25.4,5s-4.2-0.3-8.8-3.9c-4.6-3.5-5.5-9.2-5.5-9.2s1.2,6.4,12.7,10.3s17.8,3.2,22.4,6.4
		c4.6,3.2,4.6,16.2,4.6,16.2s2.6-3.4,4.3-6.7c0.7-1.4,1.7-7,1.7-7s7.3,1.1,7.3,12.6C775.7,113.7,765.5,115.8,765.5,115.8z"/>
	<path fill="#FFDFBE" d="M768.5,91.6c0,0-1,5.6-1.7,7c-1.7,3.3-4.3,6.7-4.3,6.7s0-13-4.6-16.2c-4.6-3.2-10.9-2.5-22.4-6.4
		s-12.7-10.2-12.7-10.2s0.9,5.7,5.5,9.2s8.8,3.9,8.8,3.9s-13,6.4-25.4-5s-14.2-19.2-14.2-19.2s-3.7,14.2-11.8,21
		s-14.5,8.3-18.2,12.4c-3.2,3.5-2.7,6.8-2.7,6.8s-3-2.5-2.7-10.3c0,0-8.5,0.3-8.5,12.4c0,10.3,10.9,11.8,10.9,11.8
		c5.5,18.1,33.6,33.8,50.8,33.8c12.7,0,41.2-10.7,50.2-33.4c0,0,10.3-2.1,10.3-11.6C775.7,92.6,768.5,91.6,768.5,91.6z"/>
	<g>
		<path fill="#FFFFFF" stroke="#FFFFFF" stroke-width="0.25" stroke-miterlimit="10" d="M742.5,97.4c0,0-4.9,5.6-11.2,4.5
			c-6.2-1.1-8.1-7.3-8.1-7.3s2.2-8.7,9.7-8.7C738.6,86,742.6,90.7,742.5,97.4z"/>
		<path fill="#29ABE2" stroke="#29ABE2" stroke-miterlimit="10" d="M732.9,99.9L732.9,99.9c3.8,0,7-3.1,7-7l0,0c0-3.8-3.1-7-7-7l0,0
			c-3.8,0-7,3.1-7,7l0,0C725.9,96.8,729,99.9,732.9,99.9z"/>
		<path stroke="#000000" stroke-width="0.5" stroke-miterlimit="10" d="M732.6,96.1L732.6,96.1c2.5,0,4.6-2.1,4.6-4.6l0,0
			c0-2.5-2.1-4.6-4.6-4.6l0,0c-2.5,0-4.6,2.1-4.6,4.6l0,0C728,94.1,730.1,96.1,732.6,96.1z"/>
		<path fill="#FFFFFF" d="M736,96.6L736,96.6c0.7,0,1.4-0.6,1.4-1.3l0,0c0-0.7-0.6-1.3-1.4-1.3l0,0c-0.7,0-1.3,0.6-1.3,1.3l0,0
			C734.7,96.1,735.2,96.6,736,96.6z"/>
		<g>
			<path d="M746.8,92.2c-0.1,0-2.9,0.6-4.6-1.2c-0.4-0.4-0.8-0.9-1.2-1.4c-1.6-2.1-3.7-4.6-8.2-4.6c-5.6,0-7.9,4.8-9.4,8l-0.2,0.7
				l0.1-0.2c1.5-3.2,4.6-7.4,9.5-7.4c4,0,5.7,2.2,7.3,4.2c0.5,0.6,0.8,1.1,1.2,1.5C743.5,94,746.8,92.1,746.8,92.2"/>
		</g>
	</g>
	<g>
		<path fill="#FFFFFF" stroke="#FFFFFF" stroke-width="0.25" stroke-miterlimit="10" d="M687.8,97.4c0,0,4.9,5.6,11.2,4.5
			c6.2-1.1,8.1-7.3,8.1-7.3s-2.2-8.7-9.7-8.7C691.7,86,687.8,90.7,687.8,97.4z"/>
		<path fill="#29ABE2" stroke="#29ABE2" stroke-miterlimit="10" d="M697.5,99.9L697.5,99.9c-3.8,0-7-3.1-7-7l0,0c0-3.8,3.1-7,7-7
			l0,0c3.8,0,7,3.1,7,7l0,0C704.5,96.8,701.4,99.9,697.5,99.9z"/>
		<path stroke="#000000" stroke-width="0.5" stroke-miterlimit="10" d="M697.8,96.1L697.8,96.1c-2.5,0-4.6-2.1-4.6-4.6l0,0
			c0-2.5,2.1-4.6,4.6-4.6l0,0c2.5,0,4.6,2.1,4.6,4.6l0,0C702.3,94.1,700.3,96.1,697.8,96.1z"/>
		<path fill="#FFFFFF" d="M694.4,96.6L694.4,96.6c-0.7,0-1.3-0.6-1.3-1.3l0,0c0-0.7,0.6-1.3,1.3-1.3l0,0c0.7,0,1.3,0.6,1.3,1.3l0,0
			C695.7,96.1,695.1,96.6,694.4,96.6z"/>
		<g>
			<path d="M683.5,92.2c0.1,0,2.9,0.6,4.6-1.2c0.4-0.4,0.8-0.9,1.2-1.4c1.6-2.1,3.7-4.6,8.2-4.6c5.6,0,7.9,4.8,9.4,8l0.2,0.7
				l-0.1-0.2c-1.5-3.2-4.6-7.4-9.5-7.4c-4,0-5.7,2.2-7.3,4.2c-0.5,0.6-0.8,1.1-1.2,1.5C686.8,94,683.5,92.1,683.5,92.2"/>
		</g>
	</g>
</g>
<path fill="none" d="M718.4,196.7c-0.2,0-0.3,0.1-0.5,0.1C718.1,196.7,718.3,196.7,718.4,196.7z"/>
<path fill="none" d="M717.7,196.7c-0.6,0.1-1.1,0.1-1.7,0.1C716.6,196.8,717.1,196.8,717.7,196.7z"/>
<path fill="none" d="M722.1,195.9c4-1.1,7.6-3.3,10.6-6.7C729.8,192.2,726.3,194.6,722.1,195.9z"/>
<path fill="none" d="M714,196.7L714,196.7L714,196.7z"/>
<path fill="none" d="M713.3,196.5c-15.8-2.9-19-31.2-19-31.2c1.5,16.3,6.4,22.4,10.1,26.3C706.8,194.3,709.9,196,713.3,196.5z"/>
<path fill="#ED93A4" d="M670.5,466.8c1.3,31.9,1.2,73,2.8,72.6c2.6-0.6,17.7,1,22,1.7c3.3,0.5,7-53.9,8.6-72.7
	c1.1-12.3,3-41.5,2.6-87.5c-13.8-1.4-29.5-8-36.6-12.5C668.4,399.3,669.8,447.3,670.5,466.8z"/>
<path fill="#ED93A4" d="M756.4,368.5c-7.2,4.4-22.9,10.9-36.7,12.2c-0.8,46,0.9,75.2,1.9,87.5c1.4,18.7,4.7,73.2,8,72.7
	c4.3-0.6,19.4-2.1,22-1.5c1.6,0.4,1.9-40.7,3.5-72.5C755.9,447.5,757.8,399.4,756.4,368.5z"/>
<path fill="#A40062" d="M717.9,196.7c-0.1,0-0.1,0-0.2,0C717.8,196.7,717.9,196.7,717.9,196.7z"/>
<path fill="#A40062" d="M714,196.7c-0.2-0.1-0.5-0.1-0.7-0.1C713.5,196.6,713.8,196.6,714,196.7z"/>
<path fill="#A40062" d="M718.4,196.7c1.3-0.2,2.5-0.4,3.7-0.8c-1,0.3-1.9,0.5-2.9,0.6C719,196.5,718.7,196.6,718.4,196.7z"/>
<path fill="#A40062" d="M716,196.8L716,196.8c-0.6,0-1.3-0.1-1.9-0.1C714.7,196.7,715.3,196.8,716,196.8z"/>
<path fill="#A40062" d="M732.7,189.2c8-8,11.5-19.6,11.5-19.6s-0.1-0.1-0.2-0.1c-1,2-6.4,13.1-9.9,17.9
	C733.7,188,733.2,188.7,732.7,189.2z"/>
<path fill="#F5D6CB" stroke="#F5D6CB" stroke-width="3" stroke-miterlimit="10" d="M749.6,284.6"/>
<path fill="#FFDFBE" d="M869.7,211.6l-2.5,1.9c-33.8,35.7-44.8,34.8-46.6,34.8l0,0c-8.4,0.2-38.8-23.3-46.7-35
	c-5-7.3-19-27.1-15.1-34.2l3.4,1.1c5.5,3.1,15.6,9.7,19.1,13.2c3.6,3.5,7.6,7.1,10.9,8.2c1,0.3,2,0.6,3,0.7
	c12,14.3,22.4,29,24.5,27.1c3.2-1.2,26.8-15.6,37.3-24.4c1.6-1.3,2.9-2.4,4-3.3"/>
<line fill="none" stroke="#F9AE5C" stroke-width="4" stroke-linecap="round" stroke-miterlimit="10" x1="854.8" y1="206.3" x2="860.8" y2="221.3"/>
<g>
	<path fill="#FFDFBE" d="M725.7,147.7c0.1-0.1,0.2-0.1,0.2-0.1l0,0l-17.4,0.7v0.2c1.5,0.2,5,0.6,8.3,0.6
		C721.7,149.2,725.7,147.7,725.7,147.7z"/>
	<path fill="#FFDFBE" d="M725.8,159.8v-10.7c-1,0.3-4.6,1.5-8.9,1.5c-0.1,0-0.1,0-0.1,0c-3.3,0-6.5-0.4-8.1-0.6v9.4
		c-3.9,0.9-15.2,5.9-15.6,6c-1.5,0.7,2.1,10.2,2.5,11.4c2.3,6.9,6,14.7,12.7,18.3c17.3,9.3,29.8-13.1,35.4-28
		C742.3,166.2,731.9,162.1,725.8,159.8z"/>
	<path fill="#EFD0B4" d="M716.8,150.8c4.3,0,7.7-1.3,8.8-1.7v-1.5c0,0-0.1,0-0.2,0.1c-0.1,0-3.9,1.5-8.6,1.5c-3.4,0-7-0.4-8.2-0.6
		v1.4c1.7,0.2,4.7,0.8,8,0.8C716.8,150.8,716.8,150.8,716.8,150.8z"/>
</g>
<path fill="#FFDFBE" d="M561,208.1l2.5,2c32.9,36.8,43.9,36.3,45.8,36.3l0,0c8.4,0.4,40.1-22,48.6-33.4c5.3-7.1,20.2-26.5,16.5-33.7
	l-3.4,1c-5.7,3-16.1,9.1-19.9,12.5c-3.8,3.3-7.9,6.8-11.4,7.8c-1,0.3-2,0.5-3.2,0.6c-12.7,13.9-23.8,28.3-25.8,26.2
	c-3.2-1.3-26.5-16.5-36.8-25.6c-1.5-1.3-2.9-2.5-3.9-3.4"/>
<line fill="none" stroke="#F9AE5C" stroke-width="4" stroke-linecap="round" stroke-miterlimit="10" x1="576.2" y1="203.3" x2="569.6" y2="218.2"/>
<path fill="#DD3858" d="M766.7,173.2c-3-2.7-5.1-4.2-11.8-6.1c-1.2-0.3-2.9-1.7-14.2-1.8v0.7c0,0-1.2,6.5-3.7,9.3
	c-3.5,4-9.7,7.1-16.5,7.5c-8.3,0.4-13.4-2.4-16.6-4.7c-5.3-3.7-10-11.1-10.9-12.7l0.1-0.2c-0.1,0-0.2,0-0.2,0
	c-0.1-0.1-0.1-0.1-0.1-0.1s-0.2,0.1-0.7,0.1c-8.9-0.1-10.3,0-17.7,1.4c-5.8,1.1-9.8,3.1-12.7,6.1c-2.8,2.9-19.2,18.6-26,28.6
	c3.1,7.2,12.9,12.2,21.3,14.3l4.7-4.8c1.2,16.8,6.4,25.2,7.2,28.7c0.8,3.8,1.5,4.3,2.6,19.9c0.3,3.8-0.9,29-2.6,34.1
	s-1.6,14.5-2.5,20.4c-0.8,6-3,28.1-3,28.1s19.6,6,35.7,7.2c16.1,1.3,53.2-1.2,59.6-2.5c6.4-1.3,8.9-5.5,9.4-7.3
	c0.5-6-4.3-41.3-7.2-48.9c-3-7.6-1.6-24.5-1-30.9c1-11,1.7-12.9,3.6-18.8c0.8-2.5,5.6-10,7.5-28l3.2,2.9c8.2-2.6,17.7-8.2,20.4-15.6
	C787,190.6,769.7,175.9,766.7,173.2z"/>
<path fill="#FFFFFF" d="M746.8,200.1h-57.9c-5.2,5.3-10.5,10.6-15.8,16c14.9,17.2,29.8,34.3,44.7,51.5
	c14.9-17.2,29.8-34.3,44.7-51.5C757.2,210.8,752,205.5,746.8,200.1 M675.4,216.2c4.7-4.8,9.5-9.6,14.2-14.4h56.5
	c4.7,4.8,9.4,9.6,14.2,14.4c-14.1,16.3-28.2,32.5-42.4,48.8C703.7,248.7,689.6,232.5,675.4,216.2"/>
<path fill="#FFFFFF" d="M695.1,218.5c0-1.7,0.5-2.8,1.7-4.1l7.8-7.8c0.8-0.8,1.5-1.2,2.4-1.5h-15.7L680.6,216l14.6,16.6
	c0-0.1,0-0.3,0-0.4L695.1,218.5L695.1,218.5z"/>
<path fill="#FFFFFF" d="M706,245.2l11.8,13.4l11.4-12.9h-20.6C707.6,245.7,706.8,245.5,706,245.2"/>
<path fill="#FFFFFF" d="M738.4,210.4c1.2,1.2,1.2,2.1,0,3.4l-6.1,6.1c-1.2,1.2-2.1,1.3-3.3,0l-2.8-3h-13.9l-3.7,3.7v9.6l3.7,3.6
	h14.1l2.7-2.8c1.3-1.3,2.1-1.3,3.3-0.1l5.3,5.3l17.7-20.1l-10.9-10.9h-12c0.8,0.2,1.6,0.7,2.4,1.5L738.4,210.4z"/>
<path fill="#DD3858" d="M783.4,375.1c-0.4-51.2-21.2-79.5-21.2-79.5l-46.7,2.6v-0.1h-0.1h0.1v0.1l-46.4-3.7c0,0-20.9,29.4-21.3,80.6
	c-0.1,12.7,33.4,21.4,67.7,21.7l0,0c0,0,0.2,0,0.3,0s0.3,0,0.3,0l0,0C749.8,396.5,783.5,387.8,783.4,375.1z"/>
<polygon fill="#F9AE5C" points="668.2,295.6 717.8,316 762.2,295.6 759.1,279.4 718.1,299.2 670.7,279.4 "/>
<path fill="#FFDFBE" d="M571,199c-0.1-0.1-0.4-0.3-0.8-0.7c-0.2-0.2-0.5-0.5-0.7-0.7c-0.2-0.3-0.6-0.7-0.9-1.4
	c-1.9-3.4-3.2-5.6-3.9-6.7c-0.4-0.6-1.9-1.7-4.5-3.3c-2.3-1.5-3.7-2.2-4.2-2.4c-0.6-0.2-1-0.1-1.1,0.5c-0.1,0.2-0.1,0.5-0.1,0.8
	c0,1,0.1,1.6,0.3,2c0.5,0.6,1.4,1.5,2.6,2.6s2.1,2,2.6,2.5c0.2,0.2,0.2,0.4,0.2,0.5c-0.2,0.6-0.9,1-2,1.1c-1,0.1-1.7,0.1-2.4-0.2
	l-13.2-4.8c-0.3-0.1-0.6,0-1,0.3c-0.3,0.3-0.6,0.6-0.6,0.8c-0.1,0.3-0.1,0.7,0,1.1c0.1,0.4,0.3,0.7,0.6,0.8l11.4,4.2
	c0.3,0.1,0.4,0.4,0.2,1c-0.2,0.5-0.5,0.7-0.7,0.6l-13.2-4.8c-0.3-0.1-0.7,0-1.1,0.3c-0.4,0.3-0.7,0.6-0.8,1
	c-0.1,0.3-0.1,0.7-0.1,1.2c0.1,0.5,0.3,0.8,0.6,0.9l13.6,4.9c0.2,0.1,0.3,0.2,0.3,0.4c0.1,0.2,0.1,0.4,0.1,0.6
	c-0.2,0.6-0.5,0.8-0.8,0.7l-11.8-4.2c-0.3-0.1-0.7-0.1-1.1,0.2c-0.4,0.2-0.7,0.5-0.8,0.8s-0.1,0.7,0.1,1.1s0.4,0.7,0.7,0.8L551,206
	c0.3,0.1,0.4,0.4,0.2,1c-0.2,0.5-0.4,0.7-0.7,0.6l-7.9-2.9c-0.3-0.1-0.6,0-1,0.3s-0.6,0.6-0.7,0.8c0,0.1-0.1,0.2-0.1,0.4
	c0,0.1,0.1,0.3,0.2,0.8c0.2,0.4,0.3,0.6,0.5,0.7l17.8,6.5c0.5,0.2,1.5,0.1,2.9-0.2c1.2-0.3,2.1-0.6,2.8-1s1.3-0.5,1.6-0.4"/>
<line fill="none" stroke="#F9AE5C" stroke-width="4" stroke-linecap="round" stroke-miterlimit="10" x1="571.4" y1="198.8" x2="564.4" y2="214.4"/>
<path fill="#FFDFBE" d="M860.1,202.1c0.1-0.1,0.4-0.3,0.8-0.7c0.2-0.2,0.5-0.4,0.7-0.7c0.2-0.2,0.6-0.7,0.9-1.3
	c2-3.3,3.3-5.5,4.2-6.6c0.5-0.6,2-1.6,4.6-3.1c2.4-1.4,3.8-2.1,4.2-2.3c0.6-0.2,1,0,1.1,0.6c0.1,0.2,0.1,0.5,0.1,0.8
	c0,1-0.2,1.6-0.4,1.9c-0.6,0.6-1.5,1.4-2.7,2.5s-2.1,1.9-2.6,2.5c-0.2,0.2-0.2,0.4-0.2,0.5c0.2,0.6,0.8,1,1.9,1.2
	c1,0.1,1.7,0.1,2.4-0.1l13.2-4.2c0.3-0.1,0.6,0,1,0.3c0.3,0.3,0.6,0.6,0.6,0.8c0.1,0.3,0.1,0.7-0.1,1.1c-0.1,0.4-0.3,0.7-0.6,0.8
	l-11.5,3.8c-0.3,0.1-0.4,0.4-0.3,1c0.2,0.5,0.4,0.7,0.7,0.7l13.2-4.3c0.3-0.1,0.7,0,1,0.3c0.4,0.3,0.6,0.6,0.7,1
	c0.1,0.3,0.1,0.7,0,1.2s-0.3,0.8-0.6,0.9l-13.6,4.4c-0.2,0.1-0.3,0.2-0.3,0.4c-0.1,0.2-0.1,0.4-0.1,0.6c0.2,0.6,0.4,0.8,0.7,0.7
	l11.9-3.9c0.3-0.1,0.7-0.1,1.1,0.2c0.4,0.2,0.7,0.5,0.7,0.9c0.1,0.3,0.1,0.7-0.1,1.1c-0.2,0.4-0.5,0.7-0.7,0.8l-12.4,4.1
	c-0.3,0.1-0.4,0.4-0.2,1c0.2,0.5,0.4,0.7,0.7,0.6l7.9-2.6c0.3-0.1,0.6,0.1,0.9,0.3c0.3,0.3,0.6,0.6,0.6,0.8c0,0.1,0.1,0.2,0.1,0.5
	c0,0.1-0.1,0.3-0.3,0.7s-0.3,0.6-0.5,0.7l-17.8,5.8c-0.5,0.2-1.4,0.1-2.8-0.3c-1.2-0.3-2.1-0.7-2.8-1.1c-0.7-0.4-1.2-0.6-1.5-0.4"/>
<line fill="none" stroke="#F9AE5C" stroke-width="4" stroke-linecap="round" stroke-miterlimit="10" x1="859.7" y1="201.9" x2="866.1" y2="217.7"/>
<path fill="none" stroke="#EFD0B4" stroke-width="2" stroke-miterlimit="10" d="M716.3,101.6c2.2,8.7,4.7,10.9,0.2,10.9
	s-6.1,0-6.1,0"/>
<g>
	<path fill="#F9AE5C" stroke="#F9AE5C" stroke-miterlimit="10" d="M763,347l-20.1,9.6l-13.5-28.2l25.1-12L763,347z M743.6,354.5
		l17.5-8.4l-7.7-27.6l-22,10.5L743.6,354.5z"/>
</g>
<circle fill="#F9AE5C" stroke="#F9AE5C" stroke-miterlimit="10" cx="741.2" cy="332.1" r="1.2"/>
<circle fill="#F9AE5C" stroke="#F9AE5C" stroke-miterlimit="10" cx="743.6" cy="338.5" r="1.2"/>
<circle fill="#F9AE5C" stroke="#F9AE5C" stroke-miterlimit="10" cx="745.9" cy="345.5" r="1.2"/>
<circle fill="#F9AE5C" stroke="#F9AE5C" stroke-miterlimit="10" cx="748.3" cy="328.7" r="1.3"/>
<circle fill="#F9AE5C" stroke="#F9AE5C" stroke-miterlimit="10" cx="750.5" cy="335.2" r="1.3"/>
<circle fill="#F9AE5C" stroke="#F9AE5C" stroke-miterlimit="10" cx="752.6" cy="342.3" r="1.3"/>
<g>
	<path fill="#F26E7B" d="M730.2,124.4c0,0-7.2,11.2-15.3,10.5c-8.3-0.7-13.4-12.9-13.4-12.9s7.8,3.9,14.1,4.4
		C721.5,126.9,730.2,124.4,730.2,124.4z"/>
</g>
<g>
	<g>
		<line fill="#ED93A4" x1="730" y1="556.4" x2="729.7" y2="556.4"/>
		<path fill="#ED93A4" d="M730,556.4c10.3,0.1,66.1,0,66.1,0H730z"/>
		<path fill="#ED93A4" d="M800.7,551.5c0,1.1-0.5,2.3-1.1,3.2c-1.3,1.8-3.3,1.8-3.3,1.8h-66.1c-1.1,0-2.4-1.9-3.3-3.6
			c-1.3-2.7-1.2-5.8-1.2-8.7c0-6.2,2-10.4,2.1-10.5c0.4-0.9,1.5-1.3,2.4-1.1c0.1,0,7.9,2.1,14.9,2.1c1.6,0,2.1-0.5,2.1-0.6
			c0-0.6-0.5-1.1-1.2-2c-0.8-0.9-1.9-2.1-1.9-3.7c0-2.1,1.6-4.7,6.2-4.7c3.8,0,0.7,0.9,3.5,2.8c2,1.3,3.9,2.6,6.6,3.7
			c11.8,4.8,25.5,8.5,29.6,9.4C792.7,540.3,800.7,542.1,800.7,551.5z"/>
	</g>
</g>
<g>
	<g>
		<line fill="#ED93A4" x1="695.9" y1="556.4" x2="695.5" y2="556.4"/>
		<path fill="#ED93A4" d="M629.2,556.4c0,0,56,0.1,66.3,0H629.2z"/>
		<path fill="#ED93A4" d="M624.7,551.5c0,1.1,0.5,2.3,1.1,3.2c1.3,1.8,3.3,1.8,3.3,1.8h66.3c1.1,0,2.5-1.9,3.3-3.6
			c1.3-2.7,1.2-5.8,1.2-8.7c0-6.2-2-10.4-2.1-10.5c-0.4-0.9-1.5-1.3-2.5-1.1c-0.1,0-8,2.1-14.9,2.1c-1.6,0-2.1-0.5-2.1-0.6
			c0-0.6,0.5-1.1,1.2-2c0.8-0.9,1.9-2.1,1.9-3.7c0-2.1-1.6-4.7-6.2-4.7c-3.8,0-6.6,1.9-9.4,3.7c-2,1.3-3.9,2.6-6.6,3.7
			c-11.9,4.8-19.6,7.6-23.8,8.5C632.7,540.3,624.7,542.1,624.7,551.5z"/>
	</g>
</g>
</svg>
