<?xml version="1.0" encoding="utf-8"?>
<!-- Generator: Adobe Illustrator 18.1.1, SVG Export Plug-In . SVG Version: 6.00 Build 0)  -->
<svg version="1.1" id="Layer_1" xmlns="http://www.w3.org/2000/svg" xmlns:xlink="http://www.w3.org/1999/xlink" x="0px" y="0px"
	 viewBox="0 0 1440 576" enable-background="new 0 0 1440 576" xml:space="preserve">
<pattern  width="28.8" height="28.8" patternUnits="userSpaceOnUse" id="Unnamed_Pattern_2" viewBox="3.6 -32.4 28.8 28.8" overflow="visible">
	<g>
		<polygon fill="none" points="3.6,-32.4 32.4,-32.4 32.4,-3.6 3.6,-3.6 		"/>
		<path fill="#FFA9C2" d="M32.4-36c2,0,3.6,1.6,3.6,3.6c0,2-1.6,3.6-3.6,3.6s-3.6-1.6-3.6-3.6C28.8-34.4,30.4-36,32.4-36z"/>
		<path fill="#FFA9C2" d="M18-36c2,0,3.6,1.6,3.6,3.6c0,2-1.6,3.6-3.6,3.6c-2,0-3.6-1.6-3.6-3.6C14.4-34.4,16-36,18-36z"/>
		<path fill="#FFA9C2" d="M32.4-21.6c2,0,3.6,1.6,3.6,3.6c0,2-1.6,3.6-3.6,3.6S28.8-16,28.8-18C28.8-20,30.4-21.6,32.4-21.6z"/>
		<path fill="#FFA9C2" d="M18-21.6c2,0,3.6,1.6,3.6,3.6c0,2-1.6,3.6-3.6,3.6c-2,0-3.6-1.6-3.6-3.6C14.4-20,16-21.6,18-21.6z"/>
		<path fill="#FFA9C2" d="M10.8-28.8c2,0,3.6,1.6,3.6,3.6c0,2-1.6,3.6-3.6,3.6c-2,0-3.6-1.6-3.6-3.6C7.2-27.2,8.8-28.8,10.8-28.8z"
			/>
		<path fill="#FFA9C2" d="M25.2-28.8c2,0,3.6,1.6,3.6,3.6c0,2-1.6,3.6-3.6,3.6s-3.6-1.6-3.6-3.6C21.6-27.2,23.2-28.8,25.2-28.8z"/>
		<path fill="#FFA9C2" d="M10.8-14.4c2,0,3.6,1.6,3.6,3.6c0,2-1.6,3.6-3.6,3.6c-2,0-3.6-1.6-3.6-3.6C7.2-12.8,8.8-14.4,10.8-14.4z"
			/>
		<path fill="#FFA9C2" d="M25.2-14.4c2,0,3.6,1.6,3.6,3.6c0,2-1.6,3.6-3.6,3.6s-3.6-1.6-3.6-3.6C21.6-12.8,23.2-14.4,25.2-14.4z"/>
		<path fill="#FFA9C2" d="M3.6-36c2,0,3.6,1.6,3.6,3.6c0,2-1.6,3.6-3.6,3.6S0-30.4,0-32.4C0-34.4,1.6-36,3.6-36z"/>
		<path fill="#FFA9C2" d="M3.6-21.6c2,0,3.6,1.6,3.6,3.6c0,2-1.6,3.6-3.6,3.6S0-16,0-18C0-20,1.6-21.6,3.6-21.6z"/>
		<path fill="#FFA9C2" d="M32.4-7.2c2,0,3.6,1.6,3.6,3.6c0,2-1.6,3.6-3.6,3.6s-3.6-1.6-3.6-3.6C28.8-5.6,30.4-7.2,32.4-7.2z"/>
		<path fill="#FFA9C2" d="M18-7.2c2,0,3.6,1.6,3.6,3.6C21.6-1.6,20,0,18,0c-2,0-3.6-1.6-3.6-3.6C14.4-5.6,16-7.2,18-7.2z"/>
		<path fill="#FFA9C2" d="M3.6-7.2c2,0,3.6,1.6,3.6,3.6c0,2-1.6,3.6-3.6,3.6S0-1.6,0-3.6C0-5.6,1.6-7.2,3.6-7.2z"/>
	</g>
</pattern>
<rect fill="#F46D7B" width="1440" height="576"/>
<g>
	<g>
		<pattern  id="SVGID_1_" xlink:href="#Unnamed_Pattern_2" patternTransform="matrix(1 0 0 -1 0 1087.2031)">
		</pattern>
		<polygon fill="url(#SVGID_1_)" points="1339.8,461.2 1152.6,333.1 1378.1,308.7 1151,258 1333.2,151.4 1111.1,188 1214,20.4 
			1041,137.1 1044,-58.3 954.4,115.4 857.1,-69.2 868.5,127.1 690.1,-10 800.4,170 576.2,107.4 763.5,235.5 537.9,259.9 
			765.1,310.6 582.9,417.2 804.9,380.6 702.1,548.2 875.1,431.4 872,626.9 961.6,453.2 1059,637.8 1047.5,441.5 1225.9,578.6 
			1115.7,398.6 		"/>
	</g>
	<polygon fill="#FFFFFF" points="1364.6,441.3 1171.8,321.8 1396,287.2 1166.8,246.7 1344.1,132.1 1123.9,178.7 1219.1,6.6 
		1051.5,131 1045.8,-64.4 964.1,113.2 858.5,-66.9 878.8,128.7 694.4,-0.3 812.7,174.6 585.9,122.2 778.7,241.7 554.5,276.2 
		783.7,316.7 606.5,431.3 826.6,384.8 731.5,556.8 899,432.4 904.7,627.9 986.5,450.3 1092,630.3 1071.7,434.7 1256.1,563.7 
		1137.9,388.8 	"/>
</g>
<g>
	<path fill="#A5A5A5" stroke="#A5A5A5" stroke-width="1.3104" stroke-miterlimit="10" d="M874.1,457.8c2.4,31.8,14,45,14,45
		s-27.2,18-20.2,21c5.1,2.2,45.6,3.2,57.8,0c5.8-1.5-19.7-22.7-19.7-22.7c1.1-15.7,4.4-47.4,1-52.6
		C902.7,441.7,874.1,457.5,874.1,457.8z"/>
	<path fill="#A5A5A5" stroke="#A5A5A5" stroke-width="1.3104" stroke-miterlimit="10" d="M986.4,453.5c-3.7,8.9,0.4,46.6,0.4,46.6
		s-25.8,23.1-18.3,24c16.7,2,46.5,0.9,53.9,0.2c7.1-0.6-19.3-21.1-18.1-22.6c13.2-14.8,16.7-44.3,16.7-44.3S990.4,444,986.4,453.5z"
		/>
	
		<image display="none" overflow="visible" enable-background="new    " width="215" height="234" xlink:href="450583283CB67BA3.jpg"  transform="matrix(0.7975 0 0 0.7975 864.3672 168.426)">
	</image>
	<path fill="#DD3858" stroke="#DD3858" stroke-width="1.3104" stroke-miterlimit="10" d="M896.6,82.6c-1.3,2.1-5.2,4-6.5,0.8
		c-1.6-3.9,3.3-7.7,6.3-9.2c0.2-0.1,0.4-0.2,0.7-0.3C898.7,76.9,898.4,79.8,896.6,82.6z M912.7,75.7c-3.2-4.9-8.7-6.8-14.1-6
		c-2-2.3-4.7-4.1-7.3-5.4c-3.6-1.9-7.8-3.3-11.9-3.1c-2.5,0.1-2.5,4,0,3.9c5.1-0.2,11.1,2.2,15,5.9c-1.1,0.5-2.1,1.1-3,1.8
		c-3.2,2.4-6.2,6.4-5.4,10.7c0.6,3.2,3.2,5.3,6.4,5.6c3.8,0.3,6.9-3,8.5-6.1c1.6-3.1,1.5-6.5,0.1-9.6c2.3,0,4.6,0.7,6.3,2.1
		c4,3.1,4.6,8.6,4.3,13.3c-0.2,5.1-1.7,10-2.9,15c-0.6,2.4,3.2,3.5,3.7,1C914.7,95.6,918.3,84.3,912.7,75.7z"/>
	<path fill="#DD3858" stroke="#DD3858" stroke-width="1.3104" stroke-miterlimit="10" d="M978.5,57.5c-2.8-0.4-5.2,1.9-6.9,3.8
		c-0.9,1-1.7,2-2.5,3.2c-0.8-0.6-1.5-1.5-1.8-2.5c-1.4-3.9,0.4-8.4,2.2-11.8c1.8-3.6,4.3-7.1,7.4-9.7c1.9-1.6-0.8-4.3-2.7-2.7
		c-6,5.1-11.1,13.7-11.2,21.7c0,3.7,1.7,6.5,4.2,8.3c0,0.1-0.1,0.2-0.1,0.2c-1,1.9-1.2,4.3-1.4,6.4c-0.4,3-0.2,6,0.1,8.9
		c0.8,5.8,2.8,11.4,5.8,16.4c1.3,2.1,4.6,0.2,3.3-2c-2.7-4.4-4.4-9.2-5.2-14.3c-0.4-2.6-0.5-5.2-0.3-7.8c0.1-2,0.6-4.8,1.2-6.1
		c0-0.1,0.1-0.1,0.1-0.2c1.8,0.5,3.8,0.7,5.7,0.3c2.8-0.4,5.3-2.4,5.8-5.2C982.7,61.9,981.6,57.9,978.5,57.5z M973.9,66
		c-0.3,0-0.7,0-1-0.1c0.7-1,1.5-1.9,2.3-2.7c0.7-0.7,1.6-1.6,2.6-1.9c0.2-0.1,0.2,0,0.2,0c0.4,0.4,0.6,1.2,0.6,1.7
		C978.7,65.5,975.8,66.1,973.9,66z"/>
	<path fill="#A5A5A5" stroke="#A5A5A5" stroke-width="1.3104" stroke-miterlimit="10" d="M856.4,217.7l200.3-5
		c0,0-1.7-125.8-106.6-120.6C843.5,97.5,856.4,217.7,856.4,217.7z"/>
	<g id="Tools_-_Orange_1_">
		<path fill="#A5A5A5" stroke="#A5A5A5" stroke-width="1.3104" stroke-miterlimit="10" d="M845.2,242.1c-0.6-4.3-4.7-7.3-8.9-6.6
			c-1.3,0.2-32.2,5-54,34.4c-18.6,25.1-24.7,59.7-18.2,102.9c0,0.2,0.1,0.4,0.2,0.6l-7.8,4.5c-1.8,1-3.1,3.6-3,5.6l0.9,11.7
			c0.1,2,1.9,4.4,3.8,5.1l4.9,2c0.8,0.3,1.5,0.3,2,0c0.5-0.3,0.7-1,0.6-1.9l-0.6-7.5c-0.2-2.7,1.9-5,4.6-5.2l8.2-0.6
			c1.3-0.1,2.6,0.3,3.6,1.2c1,0.9,1.6,2,1.7,3.3l0.6,7.5c0.1,0.9,0.4,1.5,0.9,1.7c0.5,0.3,1.2,0.2,2-0.3l4.6-2.7
			c1.8-1,3.1-3.6,3-5.6l-0.9-11.7c-0.1-2-1.9-4.3-3.8-5.1l-9.8-3.9c0-0.4,0-0.7-0.1-1.1c-16-106.5,55.8-119,58.9-119.5
			C842.9,250.4,845.8,246.4,845.2,242.1z"/>
		<g id="Tools_1_">
			<path fill="#A5A5A5" stroke="#A5A5A5" stroke-width="1.3104" stroke-miterlimit="10" d="M1133.1,176.9c-0.6-0.8-1.3-1.5-2.1-2.1
				l3.7-10c0.7-2,0.1-4.9-1.3-6.3l-8.3-8.3c-1.4-1.4-4.3-2-6.3-1.3l-5.2,1.9c-0.8,0.3-1.4,0.8-1.6,1.4c-0.2,0.6,0.1,1.3,0.7,1.9
				l5.3,5.3c1.9,1.9,1.8,5.1-0.2,7.1l-6.1,6.1c-1,1-2.2,1.5-3.6,1.6c-1.3,0-2.6-0.4-3.5-1.4l-5.3-5.3c-0.6-0.6-1.3-0.9-1.9-0.7
				c-0.6,0.2-1.1,0.7-1.4,1.6l-1.9,5.2c-0.7,2-0.1,4.9,1.3,6.3l8.3,8.3c1.4,1.4,4.3,2,6.3,1.3l10.1-3.7c23,34.1,31,59.7,22.5,72
				c-11.5,16.8-52.1,11.8-66.7,8.4c-4.2-1-8.4,1.7-9.4,5.9c-1,4.2,1.7,8.4,5.9,9.4c3.1,0.7,17.7,3.9,34.3,3.9
				c18.2,0,38.7-3.8,48.9-18.7C1168.6,247.8,1161.2,218.4,1133.1,176.9z"/>
		</g>
	</g>
	<polygon fill="#DD3858" stroke="#DD3858" stroke-width="1.3104" stroke-miterlimit="10" points="841.8,218 801.6,455.6 1103,464.8 
		1065.4,212.7 	"/>
	<g>
		<path fill="#FFFFFF" d="M1041.4,409.3h-74.7V304.4h93.1L1041.4,409.3z M972,404h65.1l16.5-94.3H972V404z"/>
	</g>
	
		<ellipse transform="matrix(-5.460042e-02 -0.9985 0.9985 -5.460042e-02 905.4892 1145.3994)" fill="#FDFEFF" stroke="#FDFEFF" stroke-width="1.3104" stroke-miterlimit="10" cx="995" cy="144" rx="23.9" ry="18.7"/>
	
		<ellipse transform="matrix(-5.460042e-02 -0.9985 0.9985 -5.460042e-02 826.1414 1074.1981)" fill="#FDFEFF" stroke="#FDFEFF" stroke-width="1.3104" stroke-miterlimit="10" cx="921.6" cy="146" rx="23.9" ry="18.7"/>
	
		<ellipse transform="matrix(-5.460042e-02 -0.9985 0.9985 -5.460042e-02 835.5757 1074.6133)" stroke="#000000" stroke-width="0.3448" stroke-miterlimit="10" cx="926.5" cy="141.7" rx="6.3" ry="4.9"/>
	
		<ellipse transform="matrix(-5.460042e-02 -0.9985 0.9985 -5.460042e-02 917.1802 1147.9512)" stroke="#000000" stroke-width="0.3786" stroke-miterlimit="10" cx="1002" cy="139.8" rx="6.9" ry="5.4"/>
	<path fill="#FDFEFF" stroke="#FDFEFF" stroke-width="1.379" stroke-miterlimit="10" d="M926.3,179.7c0,0,4.4,22.3,31.2,22.3
		s31.2-19,31.2-19s-8.7,7.2-31.2,7.2S926.3,179.7,926.3,179.7z"/>
	<ellipse cx="871.1" cy="58.8" rx="11" ry="11.7"/>
	<ellipse cx="985" cy="32" rx="11" ry="11.7"/>
	<circle fill="#FFFFFF" cx="997.1" cy="332.7" r="4.1"/>
	<circle fill="#FFFFFF" cx="995.1" cy="355.5" r="4.1"/>
	<circle fill="#FFFFFF" cx="992" cy="380" r="4.1"/>
	<circle fill="#FFFFFF" cx="1023.5" cy="332.7" r="4.4"/>
	<circle fill="#FFFFFF" cx="1020.9" cy="355.5" r="4.4"/>
	<circle fill="#FFFFFF" cx="1016.9" cy="380" r="4.4"/>
	<g id="Gear_1_">
		<g>
			<path fill="#FDFEFF" d="M908.2,334.4c2.3,0,4.1-1.8,4.1-4.1c-0.1-2.3-1.8-4.1-4.1-4.1h-4.1c-0.2-1.4-0.4-2.7-0.8-4l3.8-1.6
				c2.1-0.8,3.1-3.2,2.2-5.3c-0.8-2.1-3.2-3.1-5.3-2.2l-3.8,1.6c-0.7-1.2-1.5-2.4-2.3-3.5l2.9-2.9c1.6-1.6,1.6-4.2,0-5.8
				c-1.6-1.6-4.2-1.6-5.8,0l-2.9,2.9c-1.1-0.9-2.3-1.6-3.5-2.3l1.6-3.8c0.8-2-0.2-4.5-2.2-5.3c-2.1-0.8-4.5,0.2-5.3,2.2l-1.6,3.8
				c-1.4-0.4-2.7-0.6-4.1-0.8V295c0-2.3-1.8-4.1-4.1-4.1s-4.1,1.8-4.1,4.1v4.1c-1.4,0.2-2.7,0.4-4.1,0.8l-1.6-3.8
				c-0.8-2-3.2-3-5.3-2.2c-2,0.9-3,3.3-2.2,5.3l1.6,3.8c-1.2,0.7-2.4,1.4-3.5,2.3l-2.9-2.9c-1.6-1.6-4.2-1.6-5.8,0
				c-1.6,1.6-1.6,4.2,0,5.8l2.9,2.9c-0.8,1.1-1.6,2.3-2.3,3.5l-3.8-1.6c-2.1-0.9-4.5,0.1-5.3,2.2c-0.9,2.1,0.1,4.5,2.2,5.3l3.8,1.6
				c-0.4,1.3-0.6,2.7-0.8,4h-4.1c-2.3,0-4.1,1.8-4.1,4.1c0,2.3,1.8,4.1,4.1,4.1h4.1c0.2,1.4,0.4,2.7,0.8,4l-3.8,1.6
				c-2.1,0.9-3.1,3.2-2.2,5.3c0.8,2.1,3.2,3.1,5.3,2.2l3.8-1.5c0.7,1.2,1.5,2.3,2.3,3.4l-2.9,2.9c-1.6,1.6-1.6,4.2,0,5.8
				c1.6,1.6,4.2,1.6,5.8,0l2.9-2.9c1.1,0.9,2.3,1.6,3.5,2.3l-1.6,3.8c-0.8,2.1,0.2,4.5,2.2,5.3c2.1,0.8,4.5-0.2,5.3-2.2l1.6-3.8
				c1.4,0.4,2.7,0.6,4.1,0.8v4.1c0,2.3,1.8,4.1,4.1,4.1s4.1-1.8,4.1-4.1v-4.1c1.4-0.2,2.7-0.4,4.1-0.8l1.6,3.8c0.8,2,3.2,3,5.3,2.2
				c2-0.9,3-3.2,2.2-5.3l-1.6-3.8c1.2-0.7,2.4-1.4,3.5-2.3l2.9,2.9c1.6,1.6,4.2,1.6,5.8,0c1.6-1.6,1.6-4.2,0-5.8l-2.9-2.9
				c0.8-1.1,1.6-2.3,2.3-3.5l3.8,1.6c2.1,0.9,4.5-0.1,5.3-2.2c0.9-2.1-0.1-4.5-2.2-5.3l-3.8-1.6c0.4-1.3,0.6-2.7,0.8-4H908.2
				L908.2,334.4z M873,344.2c-7.7,0-13.9-6.2-13.9-13.9c0-7.7,6.2-13.9,13.9-13.9c7.7,0,13.9,6.2,13.9,13.9
				C886.9,338,880.7,344.2,873,344.2z"/>
			<path d="M888.1,330.3c0,8.3-6.8,15-15.1,15c-8.3,0-15-6.8-15-15c0-8.3,6.8-15.1,15-15.1C881.3,315.2,888.1,322,888.1,330.3z"/>
		</g>
		<g>
			<path fill="#FDFEFF" d="M942.1,276.1c1,0,1.8-0.8,1.8-1.8c0-1-0.8-1.8-1.8-1.8h-1.8c-0.1-0.6-0.2-1.2-0.3-1.8l1.7-0.7
				c0.9-0.4,1.4-1.4,1-2.4c-0.4-0.9-1.4-1.4-2.4-1l-1.7,0.7c-0.3-0.5-0.7-1-1-1.5l1.3-1.3c0.7-0.7,0.7-1.9,0-2.6
				c-0.7-0.7-1.9-0.7-2.6,0l-1.3,1.3c-0.5-0.4-1-0.7-1.5-1l0.7-1.7c0.4-0.9-0.1-2-1-2.4c-0.9-0.4-2,0.1-2.4,1l-0.7,1.7
				c-0.6-0.2-1.2-0.3-1.8-0.3v-1.8c0-1-0.8-1.8-1.8-1.8c-1,0-1.8,0.8-1.8,1.8v1.8c-0.6,0.1-1.2,0.2-1.8,0.3l-0.7-1.7
				c-0.4-0.9-1.4-1.3-2.4-1c-0.9,0.4-1.3,1.5-1,2.4l0.7,1.7c-0.5,0.3-1,0.6-1.5,1l-1.3-1.3c-0.7-0.7-1.9-0.7-2.6,0
				c-0.7,0.7-0.7,1.9,0,2.6l1.3,1.3c-0.4,0.5-0.7,1-1,1.5l-1.7-0.7c-0.9-0.4-2,0-2.4,1c-0.4,0.9,0,2,1,2.4l1.7,0.7
				c-0.2,0.6-0.3,1.2-0.3,1.8h-1.8c-1,0-1.8,0.8-1.8,1.8c0,1,0.8,1.8,1.8,1.8h1.8c0.1,0.6,0.2,1.2,0.3,1.8l-1.7,0.7
				c-0.9,0.4-1.4,1.4-1,2.4c0.4,0.9,1.4,1.4,2.4,1l1.7-0.7c0.3,0.5,0.7,1,1,1.5l-1.3,1.3c-0.7,0.7-0.7,1.9,0,2.6
				c0.7,0.7,1.9,0.7,2.6,0l1.3-1.3c0.5,0.4,1,0.7,1.5,1l-0.7,1.7c-0.4,0.9,0.1,2,1,2.4c1,0.4,2-0.1,2.4-1l0.7-1.7
				c0.6,0.2,1.2,0.3,1.8,0.3v1.8c0,1,0.8,1.8,1.8,1.8c1,0,1.8-0.8,1.8-1.8v-1.8c0.6-0.1,1.2-0.2,1.8-0.3l0.7,1.7
				c0.4,0.9,1.4,1.3,2.4,1c0.9-0.4,1.3-1.4,1-2.4l-0.7-1.7c0.5-0.3,1-0.6,1.5-1l1.3,1.3c0.7,0.7,1.9,0.7,2.6,0
				c0.7-0.7,0.7-1.9,0-2.6l-1.3-1.3c0.4-0.5,0.7-1,1-1.5l1.7,0.7c0.9,0.4,2,0,2.4-1c0.4-0.9,0-2-1-2.4l-1.7-0.7
				c0.2-0.6,0.3-1.2,0.3-1.8H942.1z M926.5,280.5c-3.4,0-6.2-2.8-6.2-6.2c0-3.4,2.8-6.2,6.2-6.2c3.4,0,6.2,2.8,6.2,6.2
				C932.7,277.7,929.9,280.5,926.5,280.5z"/>
			<path d="M933.2,274.3c0,3.7-3,6.7-6.7,6.7c-3.7,0-6.7-3-6.7-6.7c0-3.7,3-6.7,6.7-6.7C930.2,267.6,933.2,270.6,933.2,274.3z"/>
		</g>
		<g>
			<path fill="#FDFEFF" d="M906.9,412.3c0.8,0,1.4-0.6,1.4-1.4c0-0.8-0.6-1.4-1.4-1.4h-1.4c-0.1-0.5-0.1-0.9-0.3-1.4l1.3-0.5
				c0.7-0.3,1-1.1,0.7-1.8c-0.3-0.7-1.1-1-1.8-0.7l-1.3,0.5c-0.2-0.4-0.5-0.8-0.8-1.2l1-1c0.5-0.6,0.5-1.4,0-2c-0.5-0.5-1.4-0.5-2,0
				l-1,1c-0.4-0.3-0.8-0.5-1.2-0.8l0.5-1.3c0.3-0.7-0.1-1.5-0.7-1.8c-0.7-0.3-1.5,0.1-1.8,0.7l-0.5,1.3c-0.5-0.1-0.9-0.2-1.4-0.3
				v-1.4c0-0.8-0.6-1.4-1.4-1.4c-0.8,0-1.4,0.6-1.4,1.4v1.4c-0.5,0.1-0.9,0.1-1.4,0.3l-0.5-1.3c-0.3-0.7-1.1-1-1.8-0.7
				c-0.7,0.3-1,1.1-0.7,1.8l0.5,1.3c-0.4,0.2-0.8,0.5-1.2,0.8l-1-1c-0.5-0.5-1.4-0.5-2,0c-0.5,0.5-0.5,1.4,0,2l1,1
				c-0.3,0.4-0.5,0.8-0.8,1.2l-1.3-0.5c-0.7-0.3-1.5,0-1.8,0.7c-0.3,0.7,0,1.5,0.7,1.8l1.3,0.5c-0.1,0.4-0.2,0.9-0.3,1.4H883
				c-0.8,0-1.4,0.6-1.4,1.4c0,0.8,0.6,1.4,1.4,1.4h1.4c0.1,0.5,0.1,0.9,0.3,1.4l-1.3,0.5c-0.7,0.3-1,1.1-0.7,1.8
				c0.3,0.7,1.1,1,1.8,0.7l1.3-0.5c0.2,0.4,0.5,0.8,0.8,1.2l-1,1c-0.5,0.5-0.5,1.4,0,2c0.5,0.5,1.4,0.5,2,0l1-1
				c0.4,0.3,0.8,0.5,1.2,0.8l-0.5,1.3c-0.3,0.7,0.1,1.5,0.7,1.8c0.7,0.3,1.5-0.1,1.8-0.7l0.5-1.3c0.5,0.1,0.9,0.2,1.4,0.3v1.4
				c0,0.8,0.6,1.4,1.4,1.4c0.8,0,1.4-0.6,1.4-1.4v-1.4c0.5-0.1,0.9-0.1,1.4-0.3l0.5,1.3c0.3,0.7,1.1,1,1.8,0.7
				c0.7-0.3,1-1.1,0.7-1.8l-0.5-1.3c0.4-0.2,0.8-0.5,1.2-0.8l1,1c0.5,0.5,1.4,0.5,2,0c0.5-0.5,0.5-1.4,0-2l-1-1
				c0.3-0.4,0.5-0.8,0.8-1.2l1.3,0.5c0.7,0.3,1.5,0,1.8-0.7c0.3-0.7,0-1.5-0.7-1.8l-1.3-0.5c0.1-0.4,0.2-0.9,0.3-1.4L906.9,412.3
				L906.9,412.3z M894.9,415.6c-2.6,0-4.7-2.1-4.7-4.7c0-2.6,2.1-4.7,4.7-4.7c2.6,0,4.7,2.1,4.7,4.7
				C899.6,413.5,897.5,415.6,894.9,415.6z"/>
			<path d="M900,410.9c0,2.8-2.3,5.1-5.1,5.1c-2.8,0-5.1-2.3-5.1-5.1c0-2.8,2.3-5.1,5.1-5.1C897.7,405.8,900,408.1,900,410.9z"/>
		</g>
		
			<line fill="none" stroke="#DD3858" stroke-width="5.2415" stroke-linecap="round" stroke-miterlimit="10" x1="1122.2" y1="200.5" x2="1143.2" y2="181.3"/>
		
			<line fill="none" stroke="#DD3858" stroke-width="5.2415" stroke-linecap="round" stroke-miterlimit="10" x1="1131.2" y1="216.1" x2="1156.9" y2="204.1"/>
		
			<line fill="none" stroke="#DD3858" stroke-width="5.2415" stroke-linecap="round" stroke-miterlimit="10" x1="1137.9" y1="230.9" x2="1165.9" y2="226"/>
		
			<line fill="none" stroke="#DD3858" stroke-width="5.2415" stroke-linecap="round" stroke-miterlimit="10" x1="783.7" y1="352.6" x2="756.6" y2="361.1"/>
		
			<line fill="none" stroke="#DD3858" stroke-width="5.2415" stroke-linecap="round" stroke-miterlimit="10" x1="783.4" y1="338.1" x2="755.1" y2="340.7"/>
		
			<line fill="none" stroke="#DD3858" stroke-width="5.2415" stroke-linecap="round" stroke-miterlimit="10" x1="784" y1="322.6" x2="756.3" y2="316"/>
	</g>
	<ellipse fill="#FDFEFF" cx="987.3" cy="27.5" rx="3.6" ry="3.8"/>
	<ellipse fill="#FDFEFF" cx="868" cy="56.1" rx="3.6" ry="3.8"/>
	<polyline fill="none" stroke="#FFFFFF" stroke-width="5.2415" stroke-miterlimit="10" points="986.4,283.6 1000.3,249.9 
		1013.2,273.2 1026.2,253.4 1034.9,266.3 	"/>
</g>
</svg>
