<?xml version="1.0" encoding="utf-8"?>
<!-- Generator: Adobe Illustrator 18.1.1, SVG Export Plug-In . SVG Version: 6.00 Build 0)  -->
<svg version="1.1" id="Layer_1" xmlns="http://www.w3.org/2000/svg" xmlns:xlink="http://www.w3.org/1999/xlink" x="0px" y="0px"
	 viewBox="0 0 1440 576" enable-background="new 0 0 1440 576" xml:space="preserve">
<pattern  y="576" width="28.8" height="28.8" patternUnits="userSpaceOnUse" id="SVGID_1_" viewBox="3.6 -32.4 28.8 28.8" overflow="visible">
	<g>
		<polygon fill="none" points="3.6,-3.6 32.4,-3.6 32.4,-32.4 3.6,-32.4 		"/>
		<g>
			<polygon fill="none" points="3.6,-3.6 32.4,-3.6 32.4,-32.4 3.6,-32.4 			"/>
			<path fill="#FFA9C2" d="M32.4,0c2,0,3.6-1.6,3.6-3.6s-1.6-3.6-3.6-3.6s-3.6,1.6-3.6,3.6C28.8-1.6,30.4,0,32.4,0z"/>
			<path fill="#FFA9C2" d="M18,0c2,0,3.6-1.6,3.6-3.6S20-7.2,18-7.2s-3.6,1.6-3.6,3.6S16,0,18,0z"/>
			<path fill="#FFA9C2" d="M32.4-14.4c2,0,3.6-1.6,3.6-3.6s-1.6-3.6-3.6-3.6S28.8-20,28.8-18S30.4-14.4,32.4-14.4z"/>
			<path fill="#FFA9C2" d="M18-14.4c2,0,3.6-1.6,3.6-3.6S20-21.6,18-21.6S14.4-20,14.4-18S16-14.4,18-14.4z"/>
			<path fill="#FFA9C2" d="M10.8-7.2c2,0,3.6-1.6,3.6-3.6s-1.6-3.6-3.6-3.6s-3.6,1.6-3.6,3.6C7.2-8.8,8.8-7.2,10.8-7.2z"/>
			<path fill="#FFA9C2" d="M25.2-7.2c2,0,3.6-1.6,3.6-3.6s-1.6-3.6-3.6-3.6s-3.6,1.6-3.6,3.6S23.2-7.2,25.2-7.2z"/>
			<path fill="#FFA9C2" d="M10.8-21.6c2,0,3.6-1.6,3.6-3.6s-1.6-3.6-3.6-3.6s-3.6,1.6-3.6,3.6C7.2-23.2,8.8-21.6,10.8-21.6z"/>
			<path fill="#FFA9C2" d="M25.2-21.6c2,0,3.6-1.6,3.6-3.6s-1.6-3.6-3.6-3.6s-3.6,1.6-3.6,3.6S23.2-21.6,25.2-21.6z"/>
			<path fill="#FFA9C2" d="M3.6,0c2,0,3.6-1.6,3.6-3.6S5.6-7.2,3.6-7.2S0-5.6,0-3.6S1.6,0,3.6,0z"/>
			<path fill="#FFA9C2" d="M3.6-14.4c2,0,3.6-1.6,3.6-3.6s-1.6-3.6-3.6-3.6S0-20,0-18S1.6-14.4,3.6-14.4z"/>
			<path fill="#FFA9C2" d="M32.4-28.8c2,0,3.6-1.6,3.6-3.6S34.4-36,32.4-36s-3.6,1.6-3.6,3.6C28.8-30.4,30.4-28.8,32.4-28.8z"/>
			<path fill="#FFA9C2" d="M18-28.8c2,0,3.6-1.6,3.6-3.6S20-36,18-36s-3.6,1.6-3.6,3.6S16-28.8,18-28.8z"/>
			<path fill="#FFA9C2" d="M3.6-28.8c2,0,3.6-1.6,3.6-3.6S5.6-36,3.6-36S0-34.4,0-32.4S1.6-28.8,3.6-28.8z"/>
		</g>
	</g>
</pattern>
<rect fill="#F46D7B" width="1440" height="576"/>
<g>
	<g>
		<pattern  id="SVGID_6_" xlink:href="#SVGID_1_" patternTransform="matrix(1 0 0 1 -3.6 -543.6031)">
		</pattern>
		<polygon fill="url(#SVGID_6_)" points="1393.2,461.2 1206,333.1 1431.5,308.7 1204.4,258 1386.6,151.4 1164.5,188 1267.4,20.4 
			1094.4,137.1 1097.4,-58.3 1007.8,115.4 910.5,-69.2 921.9,127.1 743.5,-10 853.8,170 629.6,107.4 816.9,235.5 591.3,259.9 
			818.5,310.6 636.3,417.2 858.3,380.6 755.5,548.2 928.5,431.4 925.4,626.9 1015,453.2 1112.4,637.8 1100.9,441.5 1279.3,578.6 
			1169.1,398.6 		"/>
	</g>
	<polygon fill="#FFFFFF" points="1418,441.3 1225.2,321.8 1449.4,287.2 1220.2,246.7 1397.5,132.1 1177.3,178.7 1272.5,6.6 
		1104.9,131 1099.2,-64.4 1017.5,113.2 911.9,-66.9 932.2,128.7 747.8,-0.3 866.1,174.6 639.3,122.2 832.1,241.7 607.9,276.2 
		837.1,316.7 659.9,431.3 880,384.8 784.9,556.8 952.4,432.4 958.1,627.9 1039.9,450.3 1145.4,630.3 1125.1,434.7 1309.5,563.7 
		1191.3,388.8 	"/>
</g>
<g>
	<path fill="#A5A5A5" stroke="#A5A5A5" stroke-width="1.3104" stroke-miterlimit="10" d="M927.5,457.8c2.4,31.8,14,45,14,45
		s-27.2,18-20.2,21c5.1,2.2,45.6,3.2,57.8,0c5.8-1.5-19.7-22.7-19.7-22.7c1.1-15.7,4.4-47.4,1-52.6
		C956.1,441.7,927.5,457.5,927.5,457.8z"/>
	<path fill="#A5A5A5" stroke="#A5A5A5" stroke-width="1.3104" stroke-miterlimit="10" d="M1039.8,453.5c-3.7,8.9,0.4,46.6,0.4,46.6
		s-25.8,23.1-18.3,24c16.7,2,46.5,0.9,53.9,0.2c7.1-0.6-19.3-21.1-18.1-22.6c13.2-14.8,16.7-44.3,16.7-44.3S1043.8,444,1039.8,453.5
		z"/>
	<path fill="#DD3858" stroke="#DD3858" stroke-width="1.3104" stroke-miterlimit="10" d="M950,82.6c-1.3,2.1-5.2,4-6.5,0.8
		c-1.6-3.9,3.3-7.7,6.3-9.2c0.2-0.1,0.4-0.2,0.7-0.3C952.1,76.9,951.8,79.8,950,82.6z M966.1,75.7c-3.2-4.9-8.7-6.8-14.1-6
		c-2-2.3-4.7-4.1-7.3-5.4c-3.6-1.9-7.8-3.3-11.9-3.1c-2.5,0.1-2.5,4,0,3.9c5.1-0.2,11.1,2.2,15,5.9c-1.1,0.5-2.1,1.1-3,1.8
		c-3.2,2.4-6.2,6.4-5.4,10.7c0.6,3.2,3.2,5.3,6.4,5.6c3.8,0.3,6.9-3,8.5-6.1s1.5-6.5,0.1-9.6c2.3,0,4.6,0.7,6.3,2.1
		c4,3.1,4.6,8.6,4.3,13.3c-0.2,5.1-1.7,10-2.9,15c-0.6,2.4,3.2,3.5,3.7,1C968.1,95.6,971.7,84.3,966.1,75.7z"/>
	<path fill="#DD3858" stroke="#DD3858" stroke-width="1.3104" stroke-miterlimit="10" d="M1031.9,57.5c-2.8-0.4-5.2,1.9-6.9,3.8
		c-0.9,1-1.7,2-2.5,3.2c-0.8-0.6-1.5-1.5-1.8-2.5c-1.4-3.9,0.4-8.4,2.2-11.8c1.8-3.6,4.3-7.1,7.4-9.7c1.9-1.6-0.8-4.3-2.7-2.7
		c-6,5.1-11.1,13.7-11.2,21.7c0,3.7,1.7,6.5,4.2,8.3c0,0.1-0.1,0.2-0.1,0.2c-1,1.9-1.2,4.3-1.4,6.4c-0.4,3-0.2,6,0.1,8.9
		c0.8,5.8,2.8,11.4,5.8,16.4c1.3,2.1,4.6,0.2,3.3-2c-2.7-4.4-4.4-9.2-5.2-14.3c-0.4-2.6-0.5-5.2-0.3-7.8c0.1-2,0.6-4.8,1.2-6.1
		c0-0.1,0.1-0.1,0.1-0.2c1.8,0.5,3.8,0.7,5.7,0.3c2.8-0.4,5.3-2.4,5.8-5.2C1036.1,61.9,1035,57.9,1031.9,57.5z M1027.3,66
		c-0.3,0-0.7,0-1-0.1c0.7-1,1.5-1.9,2.3-2.7c0.7-0.7,1.6-1.6,2.6-1.9c0.2-0.1,0.2,0,0.2,0c0.4,0.4,0.6,1.2,0.6,1.7
		C1032.1,65.5,1029.2,66.1,1027.3,66z"/>
	<path fill="#A5A5A5" stroke="#A5A5A5" stroke-width="1.3104" stroke-miterlimit="10" d="M909.8,217.7l200.3-5
		c0,0-1.7-125.8-106.6-120.6C896.9,97.5,909.8,217.7,909.8,217.7z"/>
	<g id="Tools_-_Orange_1_">
		<path fill="#A5A5A5" stroke="#A5A5A5" stroke-width="1.3104" stroke-miterlimit="10" d="M898.6,242.1c-0.6-4.3-4.7-7.3-8.9-6.6
			c-1.3,0.2-32.2,5-54,34.4c-18.6,25.1-24.7,59.7-18.2,102.9c0,0.2,0.1,0.4,0.2,0.6l-7.8,4.5c-1.8,1-3.1,3.6-3,5.6l0.9,11.7
			c0.1,2,1.9,4.4,3.8,5.1l4.9,2c0.8,0.3,1.5,0.3,2,0s0.7-1,0.6-1.9l-0.6-7.5c-0.2-2.7,1.9-5,4.6-5.2l8.2-0.6
			c1.3-0.1,2.6,0.3,3.6,1.2c1,0.9,1.6,2,1.7,3.3l0.6,7.5c0.1,0.9,0.4,1.5,0.9,1.7c0.5,0.3,1.2,0.2,2-0.3l4.6-2.7
			c1.8-1,3.1-3.6,3-5.6l-0.9-11.7c-0.1-2-1.9-4.3-3.8-5.1l-9.8-3.9c0-0.4,0-0.7-0.1-1.1c-16-106.5,55.8-119,58.9-119.5
			C896.3,250.4,899.2,246.4,898.6,242.1z"/>
		<g id="Tools_1_">
			<path fill="#A5A5A5" stroke="#A5A5A5" stroke-width="1.3104" stroke-miterlimit="10" d="M1186.5,176.9c-0.6-0.8-1.3-1.5-2.1-2.1
				l3.7-10c0.7-2,0.1-4.9-1.3-6.3l-8.3-8.3c-1.4-1.4-4.3-2-6.3-1.3l-5.2,1.9c-0.8,0.3-1.4,0.8-1.6,1.4c-0.2,0.6,0.1,1.3,0.7,1.9
				l5.3,5.3c1.9,1.9,1.8,5.1-0.2,7.1l-6.1,6.1c-1,1-2.2,1.5-3.6,1.6c-1.3,0-2.6-0.4-3.5-1.4l-5.3-5.3c-0.6-0.6-1.3-0.9-1.9-0.7
				s-1.1,0.7-1.4,1.6l-1.9,5.2c-0.7,2-0.1,4.9,1.3,6.3l8.3,8.3c1.4,1.4,4.3,2,6.3,1.3l10.1-3.7c23,34.1,31,59.7,22.5,72
				c-11.5,16.8-52.1,11.8-66.7,8.4c-4.2-1-8.4,1.7-9.4,5.9c-1,4.2,1.7,8.4,5.9,9.4c3.1,0.7,17.7,3.9,34.3,3.9
				c18.2,0,38.7-3.8,48.9-18.7C1222,247.8,1214.6,218.4,1186.5,176.9z"/>
		</g>
	</g>
	<polygon fill="#DD3858" stroke="#DD3858" stroke-width="1.3104" stroke-miterlimit="10" points="895.2,218 855,455.6 1156.4,464.8 
		1118.8,212.7 	"/>
	<g>
		<path fill="#FFFFFF" d="M1094.8,409.3h-74.7V304.4h93.1L1094.8,409.3z M1025.4,404h65.1l16.5-94.3h-81.6V404z"/>
	</g>
	
		<ellipse transform="matrix(-0.9985 5.460088e-02 -5.460088e-02 -0.9985 2102.9919 230.6034)" fill="#FDFEFF" stroke="#FDFEFF" stroke-width="1.3104" stroke-miterlimit="10" cx="1048.3" cy="144" rx="18.7" ry="23.9"/>
	
		<ellipse transform="matrix(-0.9985 5.460088e-02 -5.460088e-02 -0.9985 1956.5232 238.5639)" fill="#FDFEFF" stroke="#FDFEFF" stroke-width="1.3104" stroke-miterlimit="10" cx="975" cy="146" rx="18.7" ry="23.9"/>
	
		<ellipse transform="matrix(-0.9985 5.460088e-02 -5.460088e-02 -0.9985 1966.0305 229.8188)" stroke="#000000" stroke-width="0.3448" stroke-miterlimit="10" cx="979.9" cy="141.8" rx="4.9" ry="6.3"/>
	
		<ellipse transform="matrix(-0.9985 5.460088e-02 -5.460088e-02 -0.9985 2116.9817 221.8044)" stroke="#000000" stroke-width="0.3786" stroke-miterlimit="10" cx="1055.5" cy="139.8" rx="5.4" ry="6.9"/>
	<path fill="#FDFEFF" stroke="#FDFEFF" stroke-width="1.379" stroke-miterlimit="10" d="M979.7,179.7c0,0,4.4,22.3,31.2,22.3
		c26.8,0,31.2-19,31.2-19s-8.7,7.2-31.2,7.2S979.7,179.7,979.7,179.7z"/>
	<ellipse cx="924.5" cy="58.8" rx="11" ry="11.7"/>
	<ellipse cx="1038.4" cy="32" rx="11" ry="11.7"/>
	<circle fill="#FFFFFF" cx="1050.5" cy="332.7" r="4.1"/>
	<circle fill="#FFFFFF" cx="1048.5" cy="355.5" r="4.1"/>
	<circle fill="#FFFFFF" cx="1045.4" cy="380" r="4.1"/>
	<circle fill="#FFFFFF" cx="1076.9" cy="332.7" r="4.4"/>
	<circle fill="#FFFFFF" cx="1074.3" cy="355.5" r="4.4"/>
	<circle fill="#FFFFFF" cx="1070.3" cy="380" r="4.4"/>
	<g id="Gear_1_">
		<g>
			<path fill="#FDFEFF" d="M961.6,334.4c2.3,0,4.1-1.8,4.1-4.1c-0.1-2.3-1.8-4.1-4.1-4.1h-4.1c-0.2-1.4-0.4-2.7-0.8-4l3.8-1.6
				c2.1-0.8,3.1-3.2,2.2-5.3c-0.8-2.1-3.2-3.1-5.3-2.2l-3.8,1.6c-0.7-1.2-1.5-2.4-2.3-3.5l2.9-2.9c1.6-1.6,1.6-4.2,0-5.8
				c-1.6-1.6-4.2-1.6-5.8,0l-2.9,2.9c-1.1-0.9-2.3-1.6-3.5-2.3l1.6-3.8c0.8-2-0.2-4.5-2.2-5.3c-2.1-0.8-4.5,0.2-5.3,2.2l-1.6,3.8
				c-1.4-0.4-2.7-0.6-4.1-0.8V295c0-2.3-1.8-4.1-4.1-4.1s-4.1,1.8-4.1,4.1v4.1c-1.4,0.2-2.7,0.4-4.1,0.8l-1.6-3.8
				c-0.8-2-3.2-3-5.3-2.2c-2,0.9-3,3.3-2.2,5.3l1.6,3.8c-1.2,0.7-2.4,1.4-3.5,2.3l-2.9-2.9c-1.6-1.6-4.2-1.6-5.8,0s-1.6,4.2,0,5.8
				l2.9,2.9c-0.8,1.1-1.6,2.3-2.3,3.5l-3.8-1.6c-2.1-0.9-4.5,0.1-5.3,2.2c-0.9,2.1,0.1,4.5,2.2,5.3l3.8,1.6c-0.4,1.3-0.6,2.7-0.8,4
				H891c-2.3,0-4.1,1.8-4.1,4.1c0,2.3,1.8,4.1,4.1,4.1h4.1c0.2,1.4,0.4,2.7,0.8,4l-3.8,1.6c-2.1,0.9-3.1,3.2-2.2,5.3
				c0.8,2.1,3.2,3.1,5.3,2.2l3.8-1.5c0.7,1.2,1.5,2.3,2.3,3.4l-2.9,2.9c-1.6,1.6-1.6,4.2,0,5.8c1.6,1.6,4.2,1.6,5.8,0l2.9-2.9
				c1.1,0.9,2.3,1.6,3.5,2.3l-1.6,3.8c-0.8,2.1,0.2,4.5,2.2,5.3c2.1,0.8,4.5-0.2,5.3-2.2l1.6-3.8c1.4,0.4,2.7,0.6,4.1,0.8v4.1
				c0,2.3,1.8,4.1,4.1,4.1s4.1-1.8,4.1-4.1v-4.1c1.4-0.2,2.7-0.4,4.1-0.8l1.6,3.8c0.8,2,3.2,3,5.3,2.2c2-0.9,3-3.2,2.2-5.3l-1.6-3.8
				c1.2-0.7,2.4-1.4,3.5-2.3l2.9,2.9c1.6,1.6,4.2,1.6,5.8,0s1.6-4.2,0-5.8l-2.9-2.9c0.8-1.1,1.6-2.3,2.3-3.5l3.8,1.6
				c2.1,0.9,4.5-0.1,5.3-2.2c0.9-2.1-0.1-4.5-2.2-5.3l-3.8-1.6c0.4-1.3,0.6-2.7,0.8-4h4.1V334.4z M926.4,344.2
				c-7.7,0-13.9-6.2-13.9-13.9c0-7.7,6.2-13.9,13.9-13.9s13.9,6.2,13.9,13.9S934.1,344.2,926.4,344.2z"/>
			<path d="M941.5,330.3c0,8.3-6.8,15-15.1,15s-15-6.8-15-15c0-8.3,6.8-15.1,15-15.1C934.7,315.2,941.5,322,941.5,330.3z"/>
		</g>
		<g>
			<path fill="#FDFEFF" d="M995.5,276.1c1,0,1.8-0.8,1.8-1.8s-0.8-1.8-1.8-1.8h-1.8c-0.1-0.6-0.2-1.2-0.3-1.8l1.7-0.7
				c0.9-0.4,1.4-1.4,1-2.4c-0.4-0.9-1.4-1.4-2.4-1l-1.7,0.7c-0.3-0.5-0.7-1-1-1.5l1.3-1.3c0.7-0.7,0.7-1.9,0-2.6s-1.9-0.7-2.6,0
				l-1.3,1.3c-0.5-0.4-1-0.7-1.5-1l0.7-1.7c0.4-0.9-0.1-2-1-2.4s-2,0.1-2.4,1l-0.7,1.7c-0.6-0.2-1.2-0.3-1.8-0.3v-1.8
				c0-1-0.8-1.8-1.8-1.8s-1.8,0.8-1.8,1.8v1.8c-0.6,0.1-1.2,0.2-1.8,0.3l-0.7-1.7c-0.4-0.9-1.4-1.3-2.4-1c-0.9,0.4-1.3,1.5-1,2.4
				l0.7,1.7c-0.5,0.3-1,0.6-1.5,1l-1.3-1.3c-0.7-0.7-1.9-0.7-2.6,0c-0.7,0.7-0.7,1.9,0,2.6l1.3,1.3c-0.4,0.5-0.7,1-1,1.5l-1.7-0.7
				c-0.9-0.4-2,0-2.4,1c-0.4,0.9,0,2,1,2.4l1.7,0.7c-0.2,0.6-0.3,1.2-0.3,1.8h-1.8c-1,0-1.8,0.8-1.8,1.8s0.8,1.8,1.8,1.8h1.8
				c0.1,0.6,0.2,1.2,0.3,1.8l-1.7,0.7c-0.9,0.4-1.4,1.4-1,2.4c0.4,0.9,1.4,1.4,2.4,1l1.7-0.7c0.3,0.5,0.7,1,1,1.5l-1.3,1.3
				c-0.7,0.7-0.7,1.9,0,2.6s1.9,0.7,2.6,0l1.3-1.3c0.5,0.4,1,0.7,1.5,1l-0.7,1.7c-0.4,0.9,0.1,2,1,2.4c1,0.4,2-0.1,2.4-1l0.7-1.7
				c0.6,0.2,1.2,0.3,1.8,0.3v1.8c0,1,0.8,1.8,1.8,1.8s1.8-0.8,1.8-1.8v-1.8c0.6-0.1,1.2-0.2,1.8-0.3l0.7,1.7c0.4,0.9,1.4,1.3,2.4,1
				c0.9-0.4,1.3-1.4,1-2.4l-0.7-1.7c0.5-0.3,1-0.6,1.5-1l1.3,1.3c0.7,0.7,1.9,0.7,2.6,0c0.7-0.7,0.7-1.9,0-2.6l-1.3-1.3
				c0.4-0.5,0.7-1,1-1.5l1.7,0.7c0.9,0.4,2,0,2.4-1c0.4-0.9,0-2-1-2.4l-1.7-0.7c0.2-0.6,0.3-1.2,0.3-1.8H995.5z M979.9,280.5
				c-3.4,0-6.2-2.8-6.2-6.2c0-3.4,2.8-6.2,6.2-6.2s6.2,2.8,6.2,6.2S983.3,280.5,979.9,280.5z"/>
			<path d="M986.6,274.3c0,3.7-3,6.7-6.7,6.7s-6.7-3-6.7-6.7s3-6.7,6.7-6.7C983.6,267.6,986.6,270.6,986.6,274.3z"/>
		</g>
		<g>
			<path fill="#FDFEFF" d="M960.3,412.3c0.8,0,1.4-0.6,1.4-1.4s-0.6-1.4-1.4-1.4h-1.4c-0.1-0.5-0.1-0.9-0.3-1.4l1.3-0.5
				c0.7-0.3,1-1.1,0.7-1.8c-0.3-0.7-1.1-1-1.8-0.7l-1.3,0.5c-0.2-0.4-0.5-0.8-0.8-1.2l1-1c0.5-0.6,0.5-1.4,0-2c-0.5-0.5-1.4-0.5-2,0
				l-1,1c-0.4-0.3-0.8-0.5-1.2-0.8l0.5-1.3c0.3-0.7-0.1-1.5-0.7-1.8c-0.7-0.3-1.5,0.1-1.8,0.7l-0.5,1.3c-0.5-0.1-0.9-0.2-1.4-0.3
				v-1.4c0-0.8-0.6-1.4-1.4-1.4c-0.8,0-1.4,0.6-1.4,1.4v1.4c-0.5,0.1-0.9,0.1-1.4,0.3l-0.5-1.3c-0.3-0.7-1.1-1-1.8-0.7
				s-1,1.1-0.7,1.8l0.5,1.3c-0.4,0.2-0.8,0.5-1.2,0.8l-1-1c-0.5-0.5-1.4-0.5-2,0c-0.5,0.5-0.5,1.4,0,2l1,1c-0.3,0.4-0.5,0.8-0.8,1.2
				l-1.3-0.5c-0.7-0.3-1.5,0-1.8,0.7s0,1.5,0.7,1.8l1.3,0.5c-0.1,0.4-0.2,0.9-0.3,1.4h-1.1c-0.8,0-1.4,0.6-1.4,1.4s0.6,1.4,1.4,1.4
				h1.4c0.1,0.5,0.1,0.9,0.3,1.4l-1.3,0.5c-0.7,0.3-1,1.1-0.7,1.8c0.3,0.7,1.1,1,1.8,0.7l1.3-0.5c0.2,0.4,0.5,0.8,0.8,1.2l-1,1
				c-0.5,0.5-0.5,1.4,0,2c0.5,0.5,1.4,0.5,2,0l1-1c0.4,0.3,0.8,0.5,1.2,0.8l-0.5,1.3c-0.3,0.7,0.1,1.5,0.7,1.8
				c0.7,0.3,1.5-0.1,1.8-0.7l0.5-1.3c0.5,0.1,0.9,0.2,1.4,0.3v1.4c0,0.8,0.6,1.4,1.4,1.4c0.8,0,1.4-0.6,1.4-1.4v-1.4
				c0.5-0.1,0.9-0.1,1.4-0.3l0.5,1.3c0.3,0.7,1.1,1,1.8,0.7s1-1.1,0.7-1.8l-0.5-1.3c0.4-0.2,0.8-0.5,1.2-0.8l1,1
				c0.5,0.5,1.4,0.5,2,0c0.5-0.5,0.5-1.4,0-2l-1-1c0.3-0.4,0.5-0.8,0.8-1.2l1.3,0.5c0.7,0.3,1.5,0,1.8-0.7s0-1.5-0.7-1.8l-1.3-0.5
				c0.1-0.4,0.2-0.9,0.3-1.4H960.3L960.3,412.3z M948.3,415.6c-2.6,0-4.7-2.1-4.7-4.7s2.1-4.7,4.7-4.7c2.6,0,4.7,2.1,4.7,4.7
				C953,413.5,950.9,415.6,948.3,415.6z"/>
			<path d="M953.4,410.9c0,2.8-2.3,5.1-5.1,5.1s-5.1-2.3-5.1-5.1c0-2.8,2.3-5.1,5.1-5.1S953.4,408.1,953.4,410.9z"/>
		</g>
		
			<line fill="none" stroke="#DD3858" stroke-width="5.2415" stroke-linecap="round" stroke-miterlimit="10" x1="1175.6" y1="200.5" x2="1196.6" y2="181.3"/>
		
			<line fill="none" stroke="#DD3858" stroke-width="5.2415" stroke-linecap="round" stroke-miterlimit="10" x1="1184.6" y1="216.1" x2="1210.3" y2="204.1"/>
		
			<line fill="none" stroke="#DD3858" stroke-width="5.2415" stroke-linecap="round" stroke-miterlimit="10" x1="1191.3" y1="230.9" x2="1219.3" y2="226"/>
		
			<line fill="none" stroke="#DD3858" stroke-width="5.2415" stroke-linecap="round" stroke-miterlimit="10" x1="837.1" y1="352.6" x2="810" y2="361.1"/>
		
			<line fill="none" stroke="#DD3858" stroke-width="5.2415" stroke-linecap="round" stroke-miterlimit="10" x1="836.8" y1="338.1" x2="808.5" y2="340.7"/>
		
			<line fill="none" stroke="#DD3858" stroke-width="5.2415" stroke-linecap="round" stroke-miterlimit="10" x1="837.4" y1="322.6" x2="809.7" y2="316"/>
	</g>
	<ellipse fill="#FDFEFF" cx="1040.7" cy="27.5" rx="3.6" ry="3.8"/>
	<ellipse fill="#FDFEFF" cx="921.4" cy="56.1" rx="3.6" ry="3.8"/>
	<polyline fill="none" stroke="#FFFFFF" stroke-width="5.2415" stroke-miterlimit="10" points="1039.8,283.6 1053.7,249.9 
		1066.6,273.2 1079.6,253.4 1088.3,266.3 	"/>
</g>
<g>
	
		<text transform="matrix(1 0 0 1 215.9422 253.96)" fill="url(#SVGID_1_)" stroke="url(#SVGID_1_)" stroke-width="1.2932" stroke-miterlimit="10" font-family="'MadreScript'" font-size="93.1095">Ada</text>
	
		<text transform="matrix(1 0 0 1 144.6827 425.4515)" fill="url(#SVGID_1_)" stroke="url(#SVGID_1_)" stroke-miterlimit="10" font-family="'MashineRounded-Light'" font-size="62.073">sidekick</text>
</g>
<g>
	<text transform="matrix(1 0 0 1 256.9933 137.3802)" fill="#FFFFFF" font-family="'MashineRounded-Light'" font-size="46.5547">and</text>
	
		<text transform="matrix(1 0 0 1 213.0934 249.1112)" fill="#FFFFFF" stroke="#FFFFFF" stroke-width="1.2932" stroke-miterlimit="10" font-family="'MadreScript'" font-size="93.1095">Ada</text>
	<text transform="matrix(1 0 0 1 259.7164 330.5969)" fill="#FFFFFF" font-family="'MashineRounded-Light'" font-size="46.5547">her</text>
	<text transform="matrix(1 0 0 1 141.8339 420.6026)" fill="#FFFFFF" font-family="'MashineRounded-Light'" font-size="62.073">sidekick</text>
</g>
</svg>
