<?xml version="1.0" encoding="utf-8"?>
<!-- Generator: Adobe Illustrator 18.1.1, SVG Export Plug-In . SVG Version: 6.00 Build 0)  -->
<svg version="1.1" id="Layer_1" xmlns="http://www.w3.org/2000/svg" xmlns:xlink="http://www.w3.org/1999/xlink" x="0px" y="0px"
	 viewBox="0 0 1440 576" enable-background="new 0 0 1440 576" xml:space="preserve">
<pattern  y="576" width="28.8" height="28.8" patternUnits="userSpaceOnUse" id="SVGID_1_" viewBox="3.6 -32.4 28.8 28.8" overflow="visible">
	<g>
		<polygon fill="none" points="3.6,-3.6 32.4,-3.6 32.4,-32.4 3.6,-32.4 		"/>
		<g>
			<polygon fill="none" points="3.6,-3.6 32.4,-3.6 32.4,-32.4 3.6,-32.4 			"/>
			<path fill="#A6DBDA" d="M32.4,0c2,0,3.6-1.6,3.6-3.6s-1.6-3.6-3.6-3.6s-3.6,1.6-3.6,3.6C28.8-1.6,30.4,0,32.4,0z"/>
			<path fill="#A6DBDA" d="M18,0c2,0,3.6-1.6,3.6-3.6S20-7.2,18-7.2s-3.6,1.6-3.6,3.6S16,0,18,0z"/>
			<path fill="#A6DBDA" d="M32.4-14.4c2,0,3.6-1.6,3.6-3.6s-1.6-3.6-3.6-3.6S28.8-20,28.8-18S30.4-14.4,32.4-14.4z"/>
			<path fill="#A6DBDA" d="M18-14.4c2,0,3.6-1.6,3.6-3.6S20-21.6,18-21.6S14.4-20,14.4-18S16-14.4,18-14.4z"/>
			<path fill="#A6DBDA" d="M10.8-7.2c2,0,3.6-1.6,3.6-3.6s-1.6-3.6-3.6-3.6s-3.6,1.6-3.6,3.6C7.2-8.8,8.8-7.2,10.8-7.2z"/>
			<path fill="#A6DBDA" d="M25.2-7.2c2,0,3.6-1.6,3.6-3.6s-1.6-3.6-3.6-3.6s-3.6,1.6-3.6,3.6S23.2-7.2,25.2-7.2z"/>
			<path fill="#A6DBDA" d="M10.8-21.6c2,0,3.6-1.6,3.6-3.6s-1.6-3.6-3.6-3.6s-3.6,1.6-3.6,3.6C7.2-23.2,8.8-21.6,10.8-21.6z"/>
			<path fill="#A6DBDA" d="M25.2-21.6c2,0,3.6-1.6,3.6-3.6s-1.6-3.6-3.6-3.6s-3.6,1.6-3.6,3.6S23.2-21.6,25.2-21.6z"/>
			<path fill="#A6DBDA" d="M3.6,0c2,0,3.6-1.6,3.6-3.6S5.6-7.2,3.6-7.2S0-5.6,0-3.6S1.6,0,3.6,0z"/>
			<path fill="#A6DBDA" d="M3.6-14.4c2,0,3.6-1.6,3.6-3.6s-1.6-3.6-3.6-3.6S0-20,0-18S1.6-14.4,3.6-14.4z"/>
			<path fill="#A6DBDA" d="M32.4-28.8c2,0,3.6-1.6,3.6-3.6S34.4-36,32.4-36s-3.6,1.6-3.6,3.6C28.8-30.4,30.4-28.8,32.4-28.8z"/>
			<path fill="#A6DBDA" d="M18-28.8c2,0,3.6-1.6,3.6-3.6S20-36,18-36s-3.6,1.6-3.6,3.6S16-28.8,18-28.8z"/>
			<path fill="#A6DBDA" d="M3.6-28.8c2,0,3.6-1.6,3.6-3.6S5.6-36,3.6-36S0-34.4,0-32.4S1.6-28.8,3.6-28.8z"/>
		</g>
	</g>
</pattern>
<rect fill="#7AC9C8" width="1440" height="576"/>
<g>
	<g>
		<pattern  id="SVGID_6_" xlink:href="#SVGID_1_" patternTransform="matrix(1 0 0 1 -3.6 -543.6031)">
		</pattern>
		<polygon fill="url(#SVGID_6_)" points="1393.8,461.2 1206.6,333.1 1432.1,308.7 1205,258 1387.2,151.4 1165.1,188 1268,20.4 
			1095,137.1 1098,-58.3 1008.4,115.4 911.1,-69.2 922.5,127.1 744.1,-10 854.4,170 630.2,107.4 817.5,235.5 591.9,259.9 
			819.1,310.6 636.9,417.2 858.9,380.6 756.1,548.2 929.1,431.4 926,626.9 1015.6,453.2 1113,637.8 1101.5,441.5 1279.9,578.6 
			1169.7,398.6 		"/>
	</g>
	<polygon fill="#FFFFFF" points="1418.6,441.3 1225.8,321.8 1450,287.2 1220.8,246.7 1398.1,132.1 1177.9,178.7 1273.1,6.6 
		1105.5,131 1099.8,-64.4 1018.1,113.2 912.5,-66.9 932.8,128.7 748.4,-0.3 866.7,174.6 639.9,122.2 832.7,241.7 608.5,276.2 
		837.7,316.7 660.5,431.3 880.6,384.8 785.5,556.8 953,432.4 958.7,627.9 1040.5,450.3 1146,630.3 1125.7,434.7 1310.1,563.7 
		1191.9,388.8 	"/>
</g>
<g>
	<path fill="#A6DBDA" d="M1229.2,253.1c-4.8,55.8-62.9,79-94.7,80c-33.8,1-83.1-1.3-100.2-53.6c-4-4.1-9-6.5-14.5-6.6
		c-5.4-0.1-10.4,2.1-14.6,5.9c-19,51.9-68.6,52.4-102.3,50.2c-31.8-2.1-87.2-26.7-91.4-81.4c-17.1-30-34.5-77.8-19.6-115.7
		c23.4,39.2,68.2,48.7,103.4,54.9l0,0c6.5,0,13.1,0.5,19.9,1.5c26.1,3.8,49.2,13.9,65.9,28.1l0,0l0.1,0.1c3.3,2.8,6.4,5.8,9.1,8.9
		c8.7,7.2,19,12.4,30.3,12.6c11.2,0.2,21.8-4.6,30.8-11.5c2.9-3,6-5.9,9.4-8.6c0-0.1,0.1-0.1,0.1-0.1l0,0c17.2-13.6,40.7-23,67-25.8
		c6.8-0.7,13.5-1,19.9-0.8c34.8-5.1,80.5-12.8,104.6-51.1C1264.9,182.3,1245.5,217.8,1229.2,253.1z M952.6,263.3
		c-2.2-5.7-16.7-19-41.9-22.6c-25.3-3.6-41.8,5.3-44.9,10.3c1.7,6,15.7,22,41.7,25.7C933.5,280.3,949.8,268.7,952.6,263.3z
		 M1173.6,256.5c-2.9-5.1-19-14.6-44.4-11.9c-25.4,2.7-40.4,15.5-42.8,21.1c2.5,5.5,18.3,17.7,44.5,14.9
		C1157.1,277.8,1171.6,262.4,1173.6,256.5z"/>
	<path fill="#43949B" d="M794,144.6c27.1,34.8,72.3,43.2,100.3,48.2l0.5,0.1h0.4c6.3,0,12.8,0.5,19.2,1.4
		c24.5,3.5,46.9,13,63.2,26.9c3,2.6,5.9,5.4,8.5,8.4l0.3,0.3l0.3,0.3c10.6,8.8,22.3,13.6,33.6,13.8c11.4,0.2,23.2-4.2,34.2-12.7
		l0.4-0.2l0.3-0.3c2.7-2.8,5.6-5.5,8.9-8.1c16.8-13.3,39.6-22,64.2-24.6c6.3-0.7,12.8-0.9,19.2-0.7h0.4l0.5-0.1
		c29.9-4.4,73.6-11,101-43.9c0.9,5.5,1.4,10.9,1.3,16.3c-0.5,25.2-11.4,48.4-22.7,72.6l-4.3,9.3l-0.1,1.1
		c-4.7,53.9-63.3,73.7-89.3,74.5c-38.5,1.1-79.9-3.9-94.8-49.6l-0.5-1.4l-1-1c-5.2-5.3-11.5-8.1-18.3-8.2c-6.6-0.1-13,2.4-18.3,7.4
		l-1.1,1l-0.5,1.4c-16.6,45.4-58.2,48.9-96.7,46.4c-26.3-1.7-82-22.5-86.2-76l-0.1-1.4l-0.7-1.2c-6.8-12.1-25.1-47.7-24.4-82.8
		C791.9,155.9,792.8,150.2,794,144.6z M956,265.3l0.9-1.7l-0.7-1.8c-3-8-19.4-21.5-45-25.2c-25.7-3.7-44.2,5-48.7,12.1l-1,1.7
		l0.6,1.9c2.3,8.1,17.9,24.7,44.9,28.6C934.1,284.6,952.3,272.6,956,265.3z M1131.2,284.8c27.2-2.9,43.4-18.9,46.1-26.9l0.6-1.9
		l-1-1.7c-4.1-7.2-22.3-16.6-48.1-13.8c-25.7,2.7-42.7,15.7-46,23.5l-0.8,1.8l0.8,1.8C1086.2,275,1103.9,287.7,1131.2,284.8z"/>
	<path fill="#7AC9C8" d="M816.6,228.6c0,0,17.1-33.5,46.5-33c0,0-56-18.5-66-43.8C797.1,151.8,797.7,207.6,816.6,228.6z"/>
	<path fill="#FFFFFF" d="M816.3,218.3c5-7.3,14.1-18,26.8-24c-12.3-5.4-28.1-13.6-39.2-23.9C805.4,185.1,808.8,205.3,816.3,218.3z"
		/>
	<path fill="#7AC9C8" d="M1222.6,236c0,0-15.7-34.1-45.1-34.7c0,0,56.7-16.5,67.8-41.4C1245.3,159.9,1242.4,215.6,1222.6,236z"/>
	<path fill="#FFFFFF" d="M1197.5,200.6c12.4,6.5,21.1,17.5,25.8,25c8-12.7,12.3-32.7,14.4-47.4
		C1226.1,188.1,1210.1,195.7,1197.5,200.6z"/>
	<path fill="#A6DBDA" d="M854.7,223.1c-0.1,4.8-3.3,8.7-7.2,8.6c-3.9-0.1-7-4.1-6.9-8.9c0.1-4.9,3.3-8.7,7.2-8.7
		C851.8,214.2,854.8,218.2,854.7,223.1z"/>
	<path fill="#A6DBDA" d="M918.8,211.7c-0.1,4.9-3.3,8.7-7.2,8.6c-3.9-0.1-7-4-6.9-8.9c0.1-4.8,3.3-8.7,7.2-8.6
		S918.9,206.8,918.8,211.7z"/>
	<path fill="#A6DBDA" d="M978.7,239.1c-0.1,4.8-3.3,8.7-7.2,8.6c-3.9-0.1-7-4.1-6.9-8.9c0.1-4.8,3.3-8.7,7.2-8.6
		C975.8,230.3,978.8,234.2,978.7,239.1z"/>
	<path fill="#A6DBDA" d="M1184.7,229c-0.1,4.8,3,8.8,6.9,8.9c3.9,0.1,7.1-3.8,7.2-8.6c0.1-4.9-3-8.8-6.9-8.9
		C1188,220.3,1184.8,224.2,1184.7,229z"/>
	<path fill="#A6DBDA" d="M1121.2,215.3c-0.1,4.8,3,8.8,6.9,8.9c3.9,0.1,7.1-3.8,7.2-8.7c0.1-4.8-3-8.8-6.9-8.9
		C1124.6,206.6,1121.3,210.5,1121.2,215.3z"/>
	<path fill="#A6DBDA" d="M1060.1,240.6c-0.1,4.9,3,8.8,6.9,8.9c3.9,0.1,7.1-3.8,7.2-8.7c0.1-4.8-3-8.8-6.9-8.9
		C1063.5,231.8,1060.3,235.7,1060.1,240.6z"/>
</g>
<g>
	<pattern  id="SVGID_7_" xlink:href="#SVGID_1_" patternTransform="matrix(1 0 0 1 -3.6 -543.6031)">
	</pattern>
	
		<text transform="matrix(1 0 0 1 90.5844 228.901)" fill="url(#SVGID_7_)" stroke="url(#SVGID_1_)" stroke-miterlimit="10" font-family="'MashineRounded-Light'" font-size="62.073">	<pattern  id="SVGID_8_" xlink:href="#SVGID_1_" patternTransform="matrix(1 0 0 1 -3.6 -543.6031)">
	</pattern>
challenges</text>
	<pattern  id="SVGID_9_" xlink:href="#SVGID_1_" patternTransform="matrix(1 0 0 1 -3.6 -543.6031)">
	</pattern>
	
		<text transform="matrix(1 0 0 1 126.6328 430.1247)" fill="url(#SVGID_9_)" stroke="url(#SVGID_1_)" stroke-miterlimit="10" font-family="'MadreScript'" font-size="93.1095">	<pattern  id="SVGID_10_" xlink:href="#SVGID_1_" patternTransform="matrix(1 0 0 1 -3.6 -543.6031)">
	</pattern>
Superhero</text>
</g>
<g>
	<text transform="matrix(1 0 0 1 183.8505 137.3802)" fill="#FFFFFF" font-family="'MashineRounded-Light'" font-size="46.5547">complete</text>
	<text transform="matrix(1 0 0 1 87.5844 224.901)" fill="#FFFFFF" font-family="'MashineRounded-Light'" font-size="62.073">challenges</text>
	<text transform="matrix(1 0 0 1 271.2797 306.1207)" fill="#FFFFFF" font-family="'MashineRounded-Light'" font-size="46.5547">be a</text>
	
		<text transform="matrix(1 0 0 1 123.6328 426.1247)" fill="#FFFFFF" stroke="#FFFFFF" stroke-width="1.2932" stroke-miterlimit="10" font-family="'MadreScript'" font-size="93.1095">Superhero</text>
</g>
</svg>
