<?xml version="1.0" encoding="utf-8"?>
<!-- Generator: Adobe Illustrator 18.1.1, SVG Export Plug-In . SVG Version: 6.00 Build 0)  -->
<svg version="1.1" id="Layer_1" xmlns="http://www.w3.org/2000/svg" xmlns:xlink="http://www.w3.org/1999/xlink" x="0px" y="0px"
	 viewBox="0 0 1440 576" enable-background="new 0 0 1440 576" xml:space="preserve">
<pattern  width="28.8" height="28.8" patternUnits="userSpaceOnUse" id="Unnamed_Pattern_3" viewBox="3.6 -32.4 28.8 28.8" overflow="visible">
	<g>
		<polygon fill="none" points="3.6,-32.4 32.4,-32.4 32.4,-3.6 3.6,-3.6 		"/>
		<path fill="#A6DBDA" d="M32.4-36c2,0,3.6,1.6,3.6,3.6c0,2-1.6,3.6-3.6,3.6s-3.6-1.6-3.6-3.6C28.8-34.4,30.4-36,32.4-36z"/>
		<path fill="#A6DBDA" d="M18-36c2,0,3.6,1.6,3.6,3.6c0,2-1.6,3.6-3.6,3.6c-2,0-3.6-1.6-3.6-3.6C14.4-34.4,16-36,18-36z"/>
		<path fill="#A6DBDA" d="M32.4-21.6c2,0,3.6,1.6,3.6,3.6c0,2-1.6,3.6-3.6,3.6S28.8-16,28.8-18C28.8-20,30.4-21.6,32.4-21.6z"/>
		<path fill="#A6DBDA" d="M18-21.6c2,0,3.6,1.6,3.6,3.6c0,2-1.6,3.6-3.6,3.6c-2,0-3.6-1.6-3.6-3.6C14.4-20,16-21.6,18-21.6z"/>
		<path fill="#A6DBDA" d="M10.8-28.8c2,0,3.6,1.6,3.6,3.6c0,2-1.6,3.6-3.6,3.6c-2,0-3.6-1.6-3.6-3.6C7.2-27.2,8.8-28.8,10.8-28.8z"
			/>
		<path fill="#A6DBDA" d="M25.2-28.8c2,0,3.6,1.6,3.6,3.6c0,2-1.6,3.6-3.6,3.6s-3.6-1.6-3.6-3.6C21.6-27.2,23.2-28.8,25.2-28.8z"/>
		<path fill="#A6DBDA" d="M10.8-14.4c2,0,3.6,1.6,3.6,3.6c0,2-1.6,3.6-3.6,3.6c-2,0-3.6-1.6-3.6-3.6C7.2-12.8,8.8-14.4,10.8-14.4z"
			/>
		<path fill="#A6DBDA" d="M25.2-14.4c2,0,3.6,1.6,3.6,3.6c0,2-1.6,3.6-3.6,3.6s-3.6-1.6-3.6-3.6C21.6-12.8,23.2-14.4,25.2-14.4z"/>
		<path fill="#A6DBDA" d="M3.6-36c2,0,3.6,1.6,3.6,3.6c0,2-1.6,3.6-3.6,3.6S0-30.4,0-32.4C0-34.4,1.6-36,3.6-36z"/>
		<path fill="#A6DBDA" d="M3.6-21.6c2,0,3.6,1.6,3.6,3.6c0,2-1.6,3.6-3.6,3.6S0-16,0-18C0-20,1.6-21.6,3.6-21.6z"/>
		<path fill="#A6DBDA" d="M32.4-7.2c2,0,3.6,1.6,3.6,3.6c0,2-1.6,3.6-3.6,3.6s-3.6-1.6-3.6-3.6C28.8-5.6,30.4-7.2,32.4-7.2z"/>
		<path fill="#A6DBDA" d="M18-7.2c2,0,3.6,1.6,3.6,3.6C21.6-1.6,20,0,18,0c-2,0-3.6-1.6-3.6-3.6C14.4-5.6,16-7.2,18-7.2z"/>
		<path fill="#A6DBDA" d="M3.6-7.2c2,0,3.6,1.6,3.6,3.6c0,2-1.6,3.6-3.6,3.6S0-1.6,0-3.6C0-5.6,1.6-7.2,3.6-7.2z"/>
	</g>
</pattern>
<rect fill="#7AC9C8" width="1440" height="576"/>
<g>
	<g>
		<pattern  id="SVGID_1_" xlink:href="#Unnamed_Pattern_3" patternTransform="matrix(1 0 0 -1 0 1087.2031)">
		</pattern>
		<polygon fill="url(#SVGID_1_)" points="1339.8,461.2 1152.6,333.1 1378.1,308.7 1151,258 1333.2,151.4 1111.1,188 1214,20.4 
			1041,137.1 1044,-58.3 954.4,115.4 857.1,-69.2 868.5,127.1 690.1,-10 800.4,170 576.2,107.4 763.5,235.5 537.9,259.9 
			765.1,310.6 582.9,417.2 804.9,380.6 702.1,548.2 875.1,431.4 872,626.9 961.6,453.2 1059,637.8 1047.5,441.5 1225.9,578.6 
			1115.7,398.6 		"/>
	</g>
	<polygon fill="#FFFFFF" points="1364.6,441.3 1171.8,321.8 1396,287.2 1166.8,246.7 1344.1,132.1 1123.9,178.7 1219.1,6.6 
		1051.5,131 1045.8,-64.4 964.1,113.2 858.5,-66.9 878.8,128.7 694.4,-0.3 812.7,174.6 585.9,122.2 778.7,241.7 554.5,276.2 
		783.7,316.7 606.5,431.3 826.6,384.8 731.5,556.8 899,432.4 904.7,627.9 986.5,450.3 1092,630.3 1071.7,434.7 1256.1,563.7 
		1137.9,388.8 	"/>
</g>
<g>
	<path fill="#A6DBDA" d="M1175.2,253.1c-4.8,55.8-62.9,79-94.7,80c-33.8,1-83.1-1.3-100.2-53.6c-4-4.1-9-6.5-14.5-6.6
		c-5.4-0.1-10.4,2.1-14.6,5.9c-19,51.9-68.6,52.4-102.3,50.2c-31.8-2.1-87.2-26.7-91.4-81.4c-17.1-30-34.5-77.8-19.6-115.7
		c23.4,39.2,68.2,48.7,103.4,54.9l0,0c6.5,0,13.1,0.5,19.9,1.5c26.1,3.8,49.2,13.9,65.9,28.1c0,0,0,0,0,0c0,0,0.1,0.1,0.1,0.1
		c3.3,2.8,6.4,5.8,9.1,8.9c8.7,7.2,19,12.4,30.3,12.6c11.2,0.2,21.8-4.6,30.8-11.5c2.9-3,6-5.9,9.4-8.6c0-0.1,0.1-0.1,0.1-0.1
		c0,0,0,0,0,0c17.2-13.6,40.7-23,67-25.8c6.8-0.7,13.5-1,19.9-0.8c34.8-5.1,80.5-12.8,104.6-51.1
		C1210.9,182.3,1191.5,217.8,1175.2,253.1z M898.6,263.3c-2.2-5.7-16.7-19-41.9-22.6c-25.3-3.6-41.8,5.3-44.9,10.3
		c1.7,6,15.7,22,41.7,25.7C879.5,280.3,895.8,268.7,898.6,263.3z M1119.6,256.5c-2.9-5.1-19-14.6-44.4-11.9
		c-25.4,2.7-40.4,15.5-42.8,21.1c2.5,5.5,18.3,17.7,44.5,14.9C1103.1,277.8,1117.6,262.4,1119.6,256.5z"/>
	<path fill="#43949B" d="M740,144.6c27.1,34.8,72.3,43.2,100.3,48.2l0.5,0.1l0.4,0c6.3,0,12.8,0.5,19.2,1.4
		c24.5,3.5,46.9,13,63.2,26.9c3,2.6,5.9,5.4,8.5,8.4l0.3,0.3l0.3,0.3c10.6,8.8,22.3,13.6,33.6,13.8c11.4,0.2,23.2-4.2,34.2-12.7
		l0.4-0.2l0.3-0.3c2.7-2.8,5.6-5.5,8.9-8.1c16.8-13.3,39.6-22,64.2-24.6c6.3-0.7,12.8-0.9,19.2-0.7l0.4,0l0.5-0.1
		c29.9-4.4,73.6-11,101-43.9c0.9,5.5,1.4,10.9,1.3,16.3c-0.5,25.2-11.4,48.4-22.7,72.6l-4.3,9.3l-0.1,1.1
		c-4.7,53.9-63.3,73.7-89.3,74.5c-38.5,1.1-79.9-3.9-94.8-49.6l-0.5-1.4l-1-1c-5.2-5.3-11.5-8.1-18.3-8.2c-6.6-0.1-13,2.4-18.3,7.4
		l-1.1,1l-0.5,1.4c-16.6,45.4-58.2,48.9-96.7,46.4c-26.3-1.7-82-22.5-86.2-76l-0.1-1.4l-0.7-1.2c-6.8-12.1-25.1-47.7-24.4-82.8
		C737.9,155.9,738.8,150.2,740,144.6z M902,265.3l0.9-1.7l-0.7-1.8c-3-8-19.4-21.5-45-25.2c-25.7-3.7-44.2,5-48.7,12.1l-1,1.7
		l0.6,1.9c2.3,8.1,17.9,24.7,44.9,28.6C880.1,284.6,898.3,272.6,902,265.3z M1077.2,284.8c27.2-2.9,43.4-18.9,46.1-26.9l0.6-1.9
		l-1-1.7c-4.1-7.2-22.3-16.6-48.1-13.8c-25.7,2.7-42.7,15.7-46,23.5l-0.8,1.8l0.8,1.8C1032.2,275,1049.9,287.7,1077.2,284.8z"/>
	<path fill="#7AC9C8" d="M762.6,228.6c0,0,17.1-33.5,46.5-33c0,0-56-18.5-66-43.8C743.1,151.8,743.7,207.6,762.6,228.6z"/>
	<path fill="#FFFFFF" d="M762.3,218.3c5-7.3,14.1-18,26.8-24c-12.3-5.4-28.1-13.6-39.2-23.9C751.4,185.1,754.8,205.3,762.3,218.3z"
		/>
	<path fill="#7AC9C8" d="M1168.6,236c0,0-15.7-34.1-45.1-34.7c0,0,56.7-16.5,67.8-41.4C1191.3,159.9,1188.4,215.6,1168.6,236z"/>
	<path fill="#FFFFFF" d="M1143.5,200.6c12.4,6.5,21.1,17.5,25.8,25c8-12.7,12.3-32.7,14.4-47.4
		C1172.1,188.1,1156.1,195.7,1143.5,200.6z"/>
	<path fill="#A6DBDA" d="M800.7,223.1c-0.1,4.8-3.3,8.7-7.2,8.6c-3.9-0.1-7-4.1-6.9-8.9c0.1-4.9,3.3-8.7,7.2-8.7
		C797.8,214.2,800.8,218.2,800.7,223.1z"/>
	<path fill="#A6DBDA" d="M864.8,211.7c-0.1,4.9-3.3,8.7-7.2,8.6c-3.9-0.1-7-4-6.9-8.9c0.1-4.8,3.3-8.7,7.2-8.6
		C861.8,202.9,864.9,206.8,864.8,211.7z"/>
	<path fill="#A6DBDA" d="M924.7,239.1c-0.1,4.8-3.3,8.7-7.2,8.6c-3.9-0.1-7-4.1-6.9-8.9c0.1-4.8,3.3-8.7,7.2-8.6
		C921.8,230.3,924.8,234.2,924.7,239.1z"/>
	<path fill="#A6DBDA" d="M1130.7,229c-0.1,4.8,3,8.8,6.9,8.9c3.9,0.1,7.1-3.8,7.2-8.6c0.1-4.9-3-8.8-6.9-8.9
		C1134,220.3,1130.8,224.2,1130.7,229z"/>
	<path fill="#A6DBDA" d="M1067.2,215.3c-0.1,4.8,3,8.8,6.9,8.9c3.9,0.1,7.1-3.8,7.2-8.7c0.1-4.8-3-8.8-6.9-8.9
		C1070.6,206.6,1067.3,210.5,1067.2,215.3z"/>
	<path fill="#A6DBDA" d="M1006.1,240.6c-0.1,4.9,3,8.8,6.9,8.9c3.9,0.1,7.1-3.8,7.2-8.7c0.1-4.8-3-8.8-6.9-8.9
		C1009.5,231.8,1006.3,235.7,1006.1,240.6z"/>
</g>
</svg>
