<?xml version="1.0" encoding="utf-8"?>
<!-- Generator: Adobe Illustrator 18.1.1, SVG Export Plug-In . SVG Version: 6.00 Build 0)  -->
<svg version="1.1" id="Layer_1" xmlns="http://www.w3.org/2000/svg" xmlns:xlink="http://www.w3.org/1999/xlink" x="0px" y="0px"
	 viewBox="0 0 1440 576" enable-background="new 0 0 1440 576" xml:space="preserve">
<pattern  y="576" width="28.8" height="28.8" patternUnits="userSpaceOnUse" id="SVGID_1_" viewBox="3.6 -32.4 28.8 28.8" overflow="visible">
	<g>
		<polygon fill="none" points="3.6,-3.6 32.4,-3.6 32.4,-32.4 3.6,-32.4 		"/>
		<g>
			<polygon fill="none" points="3.6,-32.4 32.4,-32.4 32.4,-3.6 3.6,-3.6 			"/>
			<g>
				<polygon fill="none" points="3.6,-32.4 32.4,-32.4 32.4,-3.6 3.6,-3.6 				"/>
				<path fill="#FCD6AD" d="M32.4-36c2,0,3.6,1.6,3.6,3.6s-1.6,3.6-3.6,3.6s-3.6-1.6-3.6-3.6C28.8-34.4,30.4-36,32.4-36z"/>
				<path fill="#FCD6AD" d="M18-36c2,0,3.6,1.6,3.6,3.6S20-28.8,18-28.8s-3.6-1.6-3.6-3.6S16-36,18-36z"/>
				<path fill="#FCD6AD" d="M32.4-21.6c2,0,3.6,1.6,3.6,3.6s-1.6,3.6-3.6,3.6S28.8-16,28.8-18S30.4-21.6,32.4-21.6z"/>
				<path fill="#FCD6AD" d="M18-21.6c2,0,3.6,1.6,3.6,3.6S20-14.4,18-14.4S14.4-16,14.4-18S16-21.6,18-21.6z"/>
				<path fill="#FCD6AD" d="M10.8-28.8c2,0,3.6,1.6,3.6,3.6s-1.6,3.6-3.6,3.6s-3.6-1.6-3.6-3.6C7.2-27.2,8.8-28.8,10.8-28.8z"/>
				<path fill="#FCD6AD" d="M25.2-28.8c2,0,3.6,1.6,3.6,3.6s-1.6,3.6-3.6,3.6s-3.6-1.6-3.6-3.6S23.2-28.8,25.2-28.8z"/>
				<path fill="#FCD6AD" d="M10.8-14.4c2,0,3.6,1.6,3.6,3.6s-1.6,3.6-3.6,3.6s-3.6-1.6-3.6-3.6C7.2-12.8,8.8-14.4,10.8-14.4z"/>
				<path fill="#FCD6AD" d="M25.2-14.4c2,0,3.6,1.6,3.6,3.6s-1.6,3.6-3.6,3.6s-3.6-1.6-3.6-3.6S23.2-14.4,25.2-14.4z"/>
				<path fill="#FCD6AD" d="M3.6-36c2,0,3.6,1.6,3.6,3.6s-1.6,3.6-3.6,3.6S0-30.4,0-32.4S1.6-36,3.6-36z"/>
				<path fill="#FCD6AD" d="M3.6-21.6c2,0,3.6,1.6,3.6,3.6s-1.6,3.6-3.6,3.6S0-16,0-18S1.6-21.6,3.6-21.6z"/>
				<path fill="#FCD6AD" d="M32.4-7.2c2,0,3.6,1.6,3.6,3.6S34.4,0,32.4,0s-3.6-1.6-3.6-3.6C28.8-5.6,30.4-7.2,32.4-7.2z"/>
				<path fill="#FCD6AD" d="M18-7.2c2,0,3.6,1.6,3.6,3.6S20,0,18,0s-3.6-1.6-3.6-3.6S16-7.2,18-7.2z"/>
				<path fill="#FCD6AD" d="M3.6-7.2c2,0,3.6,1.6,3.6,3.6S5.6,0,3.6,0S0-1.6,0-3.6S1.6-7.2,3.6-7.2z"/>
			</g>
		</g>
	</g>
</pattern>
<pattern  y="576" width="28.8" height="28.8" patternUnits="userSpaceOnUse" id="SVGID_1_2" viewBox="3.6 -32.4 28.8 28.8" overflow="visible">
	<g>
		<polygon fill="none" points="3.6,-3.6 32.4,-3.6 32.4,-32.4 3.6,-32.4 		"/>
		<g>
			<polygon fill="none" points="3.6,-32.4 32.4,-32.4 32.4,-3.6 3.6,-3.6 			"/>
			<g>
				<polygon fill="none" points="3.6,-32.4 32.4,-32.4 32.4,-3.6 3.6,-3.6 				"/>
				<path fill="#FCD6AD" d="M32.4-36c2,0,3.6,1.6,3.6,3.6s-1.6,3.6-3.6,3.6s-3.6-1.6-3.6-3.6C28.8-34.4,30.4-36,32.4-36z"/>
				<path fill="#FCD6AD" d="M18-36c2,0,3.6,1.6,3.6,3.6S20-28.8,18-28.8s-3.6-1.6-3.6-3.6S16-36,18-36z"/>
				<path fill="#FCD6AD" d="M32.4-21.6c2,0,3.6,1.6,3.6,3.6s-1.6,3.6-3.6,3.6S28.8-16,28.8-18S30.4-21.6,32.4-21.6z"/>
				<path fill="#FCD6AD" d="M18-21.6c2,0,3.6,1.6,3.6,3.6S20-14.4,18-14.4S14.4-16,14.4-18S16-21.6,18-21.6z"/>
				<path fill="#FCD6AD" d="M10.8-28.8c2,0,3.6,1.6,3.6,3.6s-1.6,3.6-3.6,3.6s-3.6-1.6-3.6-3.6C7.2-27.2,8.8-28.8,10.8-28.8z"/>
				<path fill="#FCD6AD" d="M25.2-28.8c2,0,3.6,1.6,3.6,3.6s-1.6,3.6-3.6,3.6s-3.6-1.6-3.6-3.6S23.2-28.8,25.2-28.8z"/>
				<path fill="#FCD6AD" d="M10.8-14.4c2,0,3.6,1.6,3.6,3.6s-1.6,3.6-3.6,3.6s-3.6-1.6-3.6-3.6C7.2-12.8,8.8-14.4,10.8-14.4z"/>
				<path fill="#FCD6AD" d="M25.2-14.4c2,0,3.6,1.6,3.6,3.6s-1.6,3.6-3.6,3.6s-3.6-1.6-3.6-3.6S23.2-14.4,25.2-14.4z"/>
				<path fill="#FCD6AD" d="M3.6-36c2,0,3.6,1.6,3.6,3.6s-1.6,3.6-3.6,3.6S0-30.4,0-32.4S1.6-36,3.6-36z"/>
				<path fill="#FCD6AD" d="M3.6-21.6c2,0,3.6,1.6,3.6,3.6s-1.6,3.6-3.6,3.6S0-16,0-18S1.6-21.6,3.6-21.6z"/>
				<path fill="#FCD6AD" d="M32.4-7.2c2,0,3.6,1.6,3.6,3.6S34.4,0,32.4,0s-3.6-1.6-3.6-3.6C28.8-5.6,30.4-7.2,32.4-7.2z"/>
				<path fill="#FCD6AD" d="M18-7.2c2,0,3.6,1.6,3.6,3.6S20,0,18,0s-3.6-1.6-3.6-3.6S16-7.2,18-7.2z"/>
				<path fill="#FCD6AD" d="M3.6-7.2c2,0,3.6,1.6,3.6,3.6S5.6,0,3.6,0S0-1.6,0-3.6S1.6-7.2,3.6-7.2z"/>
			</g>
		</g>
	</g>
</pattern>
<rect fill="#FF9559" width="1440" height="576"/>
<g>
	<g>
		<pattern  id="SVGID_4_" xlink:href="#SVGID_1_" patternTransform="matrix(1 0 0 -1 -7.2 -16513.5977)">
		</pattern>
		<polygon fill="url(#SVGID_4_)" points="649.3,461.2 836.7,333.1 611.2,308.7 838.2,258 656,151.4 878,188 775.2,20.4 948.2,137.1 
			945.2,-58.3 1034.8,115.4 1132.2,-69.2 1120.7,127.1 1299.2,-10 1188.8,170 1413.1,107.4 1225.8,235.5 1451.2,259.9 1224.2,310.6 
			1406.3,417.2 1184.3,380.6 1287.2,548.2 1114.2,431.4 1117.2,626.9 1027.6,453.2 930.2,637.8 941.8,441.5 763.2,578.6 
			873.5,398.6 		"/>
	</g>
	<polygon fill="#FFFFFF" points="624.5,441.3 817.3,321.8 593.2,287.2 822.3,246.7 645.2,132.1 865.3,178.7 770.2,6.6 937.7,131 
		943.5,-64.4 1025.2,113.2 1130.7,-66.9 1110.4,128.7 1294.8,-0.3 1176.6,174.6 1403.3,122.2 1210.4,241.7 1434.8,276.2 
		1205.6,316.7 1382.8,431.3 1162.6,384.8 1257.8,556.8 1090.2,432.4 1084.4,627.9 1002.8,450.3 897.2,630.3 917.5,434.7 733,563.7 
		851.3,388.8 	"/>
</g>
<g>
	
		<text transform="matrix(1 0 0 1 199.5807 252.3499)" fill="url(#SVGID_1_2)" stroke="url(#SVGID_1_)" stroke-width="1.2932" stroke-miterlimit="10" font-family="'MadreScript'" font-size="93.1095">Grace</text>
	
		<text transform="matrix(1 0 0 1 199.5807 252.3499)" fill="url(#SVGID_1_2)" stroke="url(#SVGID_1_)" stroke-width="1.2932" stroke-miterlimit="10" font-family="'MadreScript'" font-size="93.1095">Grace</text>
</g>
<g>
	<g>
		<path fill="#A3550B" d="M1097.7,165.4c-0.6-21.8-12.8-36-23.4-65.1c-2.8-7.8,3.5-20.5-5.1-48.5c-10.1-33.2-39.8-41.6-60.6-41.6
			c-27.5,0-54.9,13.9-61.6,41.2c-7.2,29.7-3.2,40.7-5.7,49.8c-3.1,11.6-25.8,47.5-23,69.2c2.5,19.4,9.5,25.2,9.5,25.2
			s1-24.6,7.6-34.4c1.1-1.7-1,12.8,1,25.5c2.5,16.7,15.5,17.1,15.5,17.1s-2.5-4.9-2.6-8.2c-0.2-8.2,3.1-12.7,3.1-12.7s3,8.5,4,10.2
			c7.5,14,10.4,10.9,10.4,10.9s-3.1-13,0-13.6s81.8,1,81.8,1s3.5,9.4,1.6,13.4c-1,2.1,5-1.2,9-6.7c3.7-5.1,5.6-12.4,5.6-12.4
			s2.5,6.8,2.7,9.2c0.3,2.6-0.9,10.5-0.9,10.5s11.4-3.9,13.6-18.2c1.4-8.8,0.6-26.6,0.6-26.6c7.2,13.3,7.6,35.8,7.6,35.8
			S1098.2,183.4,1097.7,165.4z M1060.1,107.5c-9.4,23.5-38.8,34.6-52,34.6c-17.8,0-46.9-16.2-52.5-34.9c0,0-11.3-1.5-11.3-12.2
			c0-12.5,8.8-12.9,8.8-12.9c-0.3,8.1,2.8,10.6,2.8,10.6s-0.5-3.3,2.8-7c3.8-4.2,10.3-5.8,18.8-12.9c8.5-7,12.2-21.7,12.2-21.7
			s1.9,8.1,14.7,19.9c12.9,11.8,26.3,5.2,26.3,5.2s-4.4-0.4-9.1-4.1s-5.7-9.6-5.7-9.6s1.3,6.6,13.2,10.6c11.9,4.1,18.4,3.3,23.1,6.6
			c4.7,3.3,4.7,16.8,4.7,16.8s2.7-3.6,4.5-6.9c0.8-1.5,1.8-7.2,1.8-7.2s7.5,1.1,7.5,13.1C1070.8,105.3,1060.1,107.5,1060.1,107.5z"
			/>
		<path fill="#FFDFBE" d="M1063.2,82.5c0,0-1,5.8-1.8,7.2c-1.8,3.4-4.5,6.9-4.5,6.9s0-13.5-4.7-16.8c-4.7-3.3-11.3-2.5-23.1-6.6
			c-11.9-4.1-13.2-10.6-13.2-10.6s1,5.8,5.7,9.6c4.7,3.7,9.1,4.1,9.1,4.1s-13.5,6.6-26.3-5.2c-12.9-11.8-14.7-19.9-14.7-19.9
			s-3.8,14.7-12.2,21.7c-8.5,7-14.9,8.7-18.8,12.9c-3.3,3.7-2.8,7-2.8,7s-3.1-2.5-2.8-10.6c0,0-8.8,0.4-8.8,12.9
			c0,10.6,11.3,12.2,11.3,12.2c5.7,18.7,34.7,35,52.5,34.9c13.2,0,42.5-11,52-34.6c0,0,10.6-2.2,10.6-12
			C1070.8,83.7,1063.2,82.5,1063.2,82.5z"/>
		<g>
			<path fill="#FFFFFF" stroke="#FFFFFF" stroke-width="0.2539" stroke-miterlimit="10" d="M1036.2,88.5c0,0-5.1,5.8-11.6,4.7
				c-6.4-1.2-8.4-7.5-8.4-7.5s2.3-9.1,10-9C1032.3,76.6,1036.2,81.6,1036.2,88.5z"/>
			<path fill="#29ABE2" stroke="#29ABE2" stroke-width="1.0155" stroke-miterlimit="10" d="M1026.3,91.1L1026.3,91.1
				c4,0,7.2-3.2,7.2-7.2l0,0c0-4-3.2-7.2-7.2-7.2l0,0c-4,0-7.2,3.2-7.2,7.2l0,0C1019.2,87.9,1022.3,91.1,1026.3,91.1z"/>
			<path stroke="#000000" stroke-width="0.5077" stroke-miterlimit="10" d="M1026.1,87.3L1026.1,87.3c2.6,0,4.8-2.1,4.8-4.8l0,0
				c0-2.6-2.1-4.8-4.8-4.8l0,0c-2.6,0-4.8,2.1-4.8,4.8l0,0C1021.2,85.1,1023.5,87.3,1026.1,87.3z"/>
			<path fill="#FFFFFF" d="M1029.6,87.8L1029.6,87.8c0.8,0,1.4-0.6,1.4-1.4l0,0c0-0.8-0.6-1.4-1.4-1.4l0,0c-0.8,0-1.4,0.6-1.4,1.4
				l0,0C1028.2,87.1,1028.8,87.8,1029.6,87.8z"/>
			<g>
				<path d="M1040.8,83.2c0,0-2.9,0.7-4.8-1.2c-0.4-0.4-0.8-0.9-1.3-1.5c-1.7-2.1-3.8-4.8-8.5-4.8c-5.8,0-8.2,5.1-9.7,8.4l-0.2,0.8
					l0.1-0.2c1.6-3.2,4.8-7.7,9.8-7.7c4.1,0,5.9,2.3,7.5,4.4c0.5,0.6,0.9,1.1,1.3,1.6C1037.2,85.3,1040.7,83.4,1040.8,83.2"/>
			</g>
		</g>
		<g>
			<path fill="#FFFFFF" stroke="#FFFFFF" stroke-width="0.2539" stroke-miterlimit="10" d="M979.8,88.5c0,0,5.1,5.8,11.6,4.7
				c6.4-1.2,8.4-7.5,8.4-7.5s-2.3-9.1-10-9C983.8,76.6,979.8,81.6,979.8,88.5z"/>
			<path fill="#29ABE2" stroke="#29ABE2" stroke-width="1.0155" stroke-miterlimit="10" d="M989.8,91.1L989.8,91.1
				c-4,0-7.2-3.2-7.2-7.2l0,0c0-4,3.2-7.2,7.2-7.2l0,0c4,0,7.2,3.2,7.2,7.2l0,0C997,87.9,993.8,91.1,989.8,91.1z"/>
			<path stroke="#000000" stroke-width="0.5077" stroke-miterlimit="10" d="M990,87.3L990,87.3c-2.6,0-4.8-2.1-4.8-4.8l0,0
				c0-2.6,2.1-4.8,4.8-4.8l0,0c2.6,0,4.8,2.1,4.8,4.8l0,0C994.8,85.1,992.7,87.3,990,87.3z"/>
			<path fill="#FFFFFF" d="M986.5,87.8L986.5,87.8c-0.8,0-1.4-0.6-1.4-1.4l0,0c0-0.8,0.6-1.4,1.4-1.4l0,0c0.8,0,1.4,0.6,1.4,1.4l0,0
				C988,87.1,987.2,87.8,986.5,87.8z"/>
			<g>
				<path d="M975.2,83.2c0,0,2.9,0.7,4.8-1.2c0.4-0.4,0.8-0.9,1.3-1.5c1.7-2.1,3.8-4.8,8.5-4.8c5.8,0,8.2,5.1,9.7,8.4l0.2,0.8
					l-0.1-0.2c-1.6-3.2-4.8-7.7-9.8-7.7c-4.1,0-5.9,2.3-7.5,4.4c-0.5,0.6-0.9,1.1-1.3,1.6C978.8,85.3,975.3,83.4,975.2,83.2"/>
			</g>
		</g>
	</g>
	<path fill="none" d="M1011.5,191.1c-0.2,0-0.4,0-0.6,0.1C1011,191.2,1011.2,191.2,1011.5,191.1z"/>
	<path fill="none" d="M1010.7,191.2c-0.6,0-1.2,0.1-1.8,0.1C1009.5,191.3,1010,191.3,1010.7,191.2z"/>
	<path fill="none" d="M1015.2,190.3c4.1-1.2,7.9-3.4,10.9-6.9C1023.2,186.5,1019.5,189,1015.2,190.3z"/>
	<path fill="none" d="M1006.8,191.2C1006.8,191.1,1006.8,191.1,1006.8,191.2C1006.8,191.1,1006.8,191.1,1006.8,191.2z"/>
	<path fill="none" d="M1006.2,191c-16.4-2.9-19.6-32.2-19.6-32.2c1.5,16.9,6.6,23.1,10.4,27.2C999.5,188.7,1002.5,190.4,1006.2,191z
		"/>
	<path fill="#ED93A4" d="M961.8,470.5c1.6-1.3,4.4-2.2,6.1-2.6c2.7-0.7,15.2-0.9,19.7-0.3c3.4,0.5,7,2.2,8.9,4.5
		c1.2-12.7,3.1-42.9,2.7-90.5c-14.3-1.5-30.4-8.3-37.8-13C959.7,400.7,961.2,450.3,961.8,470.5z"/>
	<path fill="none" stroke="#F9AE5C" stroke-width="10.1548" stroke-linecap="round" stroke-miterlimit="10" d="M996.8,467
		c-0.1-0.5-0.5-1-1-1.5c-1.8-1.4-5.3-2.5-8.6-2.8c-4.6-0.4-16.2-0.3-19.2,0.2c-1.7,0.3-4.4,0.9-5.9,1.7c-0.6,0.3-1.1,0.6-1.2,1"/>
	<path fill="#ED93A4" d="M1014,380.1c0.5,48.4,3.1,78.9,4.5,91.7c1.7-2.2,5.3-4.2,8.5-4.7c4.3-0.7,16.6-0.8,19.2-0.1
		c1.7,0.4,4.5,1.3,6,2.5c0.3-19.2,0.7-65-1.2-97.2c-6.8,2.1-13.5,2.8-16.3,2.9C1031.2,375.2,1024.7,378.4,1014,380.1z"/>
	<path fill="#A40062" d="M1010.8,191.2c-0.1,0-0.1,0-0.2,0C1010.8,191.2,1010.8,191.2,1010.8,191.2z"/>
	<path fill="#A40062" d="M1006.8,191.1c-0.2,0-0.5-0.1-0.7-0.1C1006.3,191.1,1006.5,191.1,1006.8,191.1z"/>
	<path fill="#A40062" d="M1011.5,191.1c1.4-0.2,2.6-0.4,3.8-0.8c-1,0.3-1.9,0.5-2.9,0.7C1012,191.1,1011.8,191.1,1011.5,191.1z"/>
	<path fill="#A40062" d="M1009,191.3L1009,191.3c-0.7,0-1.4-0.1-1.9-0.1C1007.5,191.2,1008.2,191.3,1009,191.3z"/>
	<path fill="#A40062" d="M1026.2,183.4c8.3-8.3,11.9-20.3,11.9-20.3s-0.1,0-0.2-0.1c-1,2-6.6,13.6-10.2,18.5
		C1027.2,182.2,1026.8,182.9,1026.2,183.4z"/>
	<path fill="#F5D6CB" stroke="#F5D6CB" stroke-width="3.0464" stroke-miterlimit="10" d="M1043.8,282"/>
	<path fill="#FFDFBE" d="M1060.8,283.4l2.4-2.1c43-27.1,44.4-38.3,44.7-40.2l0,0c1.9-8.5-15.7-44-26-54.5
		c-6.3-6.5-23.7-24.7-31.6-22.2l0.4,3.6c2.1,6.2,6.6,17.7,9.5,22c2.8,4.3,5.7,9.1,6,12.8c0.1,1.1,0.2,2.1,0.1,3.2
		c12.1,15.1,24.9,28.7,22.4,30.3c-1.9,3-21.3,24-32.3,32.9c-1.7,1.4-3,2.4-4.2,3.4"/>
	
		<line fill="none" stroke="#F9AE5C" stroke-width="4.0619" stroke-linecap="round" stroke-miterlimit="10" x1="1058.6" y1="267.3" x2="1072.6" y2="276.4"/>
	<g>
		<path fill="#FFDFBE" d="M1019,140.5c0.1,0,0.2,0,0.3,0l0,0l-17.9,0.8v0.2c1.6,0.2,5.2,0.7,8.7,0.7
			C1014.8,142.1,1019,140.5,1019,140.5z"/>
		<path fill="#FFDFBE" d="M1019,153v-11c-1,0.4-4.8,1.6-9.3,1.6h-0.1c-3.4,0-6.7-0.4-8.4-0.7v9.7c-4,1-15.8,6-16.1,6.2
			c-1.6,0.7,2.2,10.5,2.6,11.7c2.3,7.1,6.1,15.2,13.1,18.9c17.9,9.7,30.7-13.6,36.6-29C1036.2,159.7,1025.2,155.4,1019,153z"/>
		<path fill="#EFD0B4" d="M1009.8,143.2c4.5,0,8.3-0.9,9.3-1.3v-1.5c0,0-0.2,0-0.3,0c0,0-4,1.6-8.9,1.6c-3.5,0-7.4-0.4-8.4-0.7v1.5
			C1003.5,143,1006.2,143.2,1009.8,143.2C1009.7,143.2,1009.8,143.2,1009.8,143.2z"/>
	</g>
	<path fill="#FFDFBE" d="M956,283.9l-2.4-2.2c-43-27.4-44.4-38.8-44.7-40.7l0,0c-1.9-8.6,15.7-44.6,26-55.2
		c6.3-6.6,23.7-25.1,31.6-22.5l-0.4,3.7c-2.1,6.3-6.6,17.9-9.5,22.3s-5.7,9.3-6,12.9c-0.1,1.1-0.2,2.1-0.1,3.3
		c-12.1,15.3-24.9,29.1-22.4,30.7c1.9,3,21.3,24.3,32.3,33.3c1.7,1.4,3,2.5,4.2,3.4"/>
	
		<line fill="none" stroke="#F9AE5C" stroke-width="4.0619" stroke-linecap="round" stroke-miterlimit="10" x1="958.5" y1="267.5" x2="944.3" y2="276.7"/>
	<path fill="#DD3858" d="M1061.3,166.9c-3.1-2.8-5.3-4.3-12.1-6.3c-1.3-0.4-2.9-1.9-14.6-1.9v0.7c0,0-1.3,6.7-3.9,9.7
		c-3.6,4.1-10.1,7.4-17.2,7.8c-8.5,0.5-13.9-2.5-17.3-4.9c-5.5-3.8-10.3-11.5-11.3-13.1l0.1-0.2c-0.1,0-0.2,0-0.2,0
		c0-0.1-0.1-0.1-0.1-0.1s-0.3,0-0.7,0.1c-9.2-0.1-10.7,0-18.2,1.4c-6,1.2-10.2,3.3-13.2,6.2c-2.9,3-19.9,19.3-26.9,29.5
		c3.2,7.4,13.4,12.6,22,14.7l4.8-5c1.2,17.4,6.6,26,7.4,29.7c0.9,4,1.6,4.5,2.6,20.6c0.3,4-0.9,29.9-2.7,35.2
		c-1.8,5.3-1.7,14.9-2.5,21.2c-0.9,6.1-3,29.1-3,29.1s20.3,6.1,36.9,7.5c16.7,1.4,55-1.3,61.6-2.6c6.6-1.4,9.3-5.8,9.7-7.5
		c0.5-6.1-4.4-42.7-7.4-50.6c-3.1-7.9-1.7-25.3-1.1-32c1-11.4,1.8-13.4,3.7-19.5c0.9-2.6,5.8-10.3,7.8-29l3.3,3
		c8.5-2.6,18.3-8.5,21.1-16.1C1082.4,184.8,1064.4,169.6,1061.3,166.9z"/>
	<path fill="#FFFFFF" d="M1040.7,194.8h-59.9c-5.5,5.6-10.8,11-16.3,16.6c15.4,17.7,30.8,35.5,46.2,53.2
		c15.4-17.7,30.8-35.5,46.2-53.2C1051.6,205.7,1046.2,200.3,1040.7,194.8 M966.8,211.4c4.9-5,9.7-9.9,14.6-14.9h58.4
		c4.9,5,9.7,9.8,14.6,14.9c-14.6,16.9-29.2,33.6-43.9,50.5C996.2,245,981.5,228.2,966.8,211.4"/>
	<path fill="#FFFFFF" d="M987.2,213.7c0-1.9,0.5-2.9,1.8-4.2l8-8c0.8-0.8,1.6-1.3,2.4-1.6h-16.2l-11.1,11.3l15.1,17.2
		c0-0.1,0-0.3,0-0.4V213.7z"/>
	<path fill="#FFFFFF" d="M998.7,241.4l12.2,13.8l11.8-13.4h-21.3C1000.2,241.9,999.3,241.7,998.7,241.4"/>
	<path fill="#FFFFFF" d="M1032.1,205.4c1.3,1.3,1.3,2.1,0,3.5l-6.3,6.3c-1.3,1.3-2.1,1.4-3.4,0l-2.9-3.1H1005l-3.8,3.8v9.8l3.8,3.7
		h14.6l2.7-2.8c1.4-1.4,2.1-1.5,3.4-0.1l5.5,5.6l18.3-20.8l-11.3-11.3h-12.5c0.9,0.2,1.7,0.7,2.4,1.6L1032.1,205.4z"/>
	<path fill="#DD3858" d="M958,300.9c0,0-19.8,25.2-20.2,75.7c-0.1,12.8,31.5,21.3,66.6,21.4c33,0,68.9-7.2,68.8-19.2
		c-0.6-51.1-14.7-78.1-14.7-78.1L958,300.9z"/>
	<polygon fill="#F9AE5C" points="960.8,291.4 1010.8,314.5 1055.3,291.4 1053.4,276.7 1011.2,297.2 962,276.7 	"/>
	<path fill="#FFDFBE" d="M963.7,272.1c0.1,0.1,0.4,0.4,0.9,0.7c0.3,0.2,0.6,0.4,0.9,0.6s0.8,0.5,1.5,0.7c3.7,1.4,6.2,2.3,7.5,2.9
		c0.7,0.3,2,1.7,4.1,4c1.9,2.1,2.9,3.4,3.2,3.9c0.3,0.6,0.2,1-0.4,1.3c-0.2,0.1-0.5,0.2-0.8,0.2c-1.1,0.2-1.7,0.2-2,0
		c-0.7-0.5-1.8-1.2-3.1-2.2c-1.4-1.1-2.3-1.8-3-2.2c-0.2-0.1-0.4-0.2-0.6-0.1c-0.6,0.3-0.9,1.1-0.8,2.2c0.1,1,0.3,1.9,0.6,2.4
		l7,12.7c0.2,0.3,0.1,0.7-0.1,1.1c-0.3,0.4-0.5,0.7-0.7,0.8c-0.3,0.2-0.7,0.2-1.2,0.2c-0.5-0.1-0.8-0.2-0.9-0.5l-6.1-11
		c-0.2-0.3-0.5-0.3-1.1-0.1c-0.5,0.3-0.7,0.6-0.5,0.8l7.1,12.7c0.2,0.3,0.1,0.7-0.1,1.2c-0.2,0.5-0.5,0.8-0.9,1
		c-0.3,0.2-0.8,0.3-1.3,0.3s-0.9-0.1-1.1-0.4l-7.3-13.1c-0.1-0.2-0.3-0.3-0.5-0.3c-0.3,0-0.5,0-0.6,0.1c-0.5,0.3-0.7,0.6-0.6,0.9
		l6.4,11.5c0.2,0.3,0.2,0.7,0,1.2s-0.4,0.8-0.8,1c-0.3,0.2-0.7,0.2-1.2,0.1s-0.9-0.3-1-0.6l-6.6-11.9c-0.2-0.3-0.5-0.3-1,0
		s-0.7,0.6-0.5,0.9l4.2,7.6c0.1,0.3,0.1,0.6-0.2,1s-0.5,0.7-0.7,0.8c-0.1,0-0.2,0.1-0.5,0.2c-0.1,0-0.4,0-0.8-0.1
		c-0.4-0.1-0.7-0.3-0.8-0.4l-9.6-17.1c-0.3-0.5-0.3-1.5-0.2-2.9c0.1-1.3,0.3-2.3,0.5-3c0.3-0.9,0.3-1.4,0.2-1.7"/>
	
		<line fill="none" stroke="#F9AE5C" stroke-width="4.0619" stroke-linecap="round" stroke-miterlimit="10" x1="963.8" y1="271.6" x2="949.2" y2="281.5"/>
	<path fill="#FFDFBE" d="M1053.2,271.8c-0.1,0.1-0.4,0.4-0.9,0.7c-0.3,0.2-0.6,0.4-0.9,0.6s-0.8,0.4-1.5,0.7
		c-3.7,1.4-6.2,2.2-7.5,2.8c-0.7,0.3-2,1.7-4.1,4c-1.9,2.1-2.9,3.4-3.2,3.8c-0.3,0.6-0.2,1,0.4,1.3c0.2,0.1,0.5,0.2,0.8,0.2
		c1.1,0.2,1.7,0.2,2,0c0.7-0.4,1.8-1.2,3.1-2.2c1.4-1.1,2.3-1.8,3-2.2c0.2-0.1,0.4-0.2,0.6-0.1c0.6,0.3,0.9,1.1,0.8,2.2
		c-0.1,1-0.3,1.8-0.6,2.4l-7,12.5c-0.2,0.3-0.1,0.7,0.1,1.1c0.3,0.4,0.5,0.7,0.7,0.8c0.3,0.2,0.7,0.2,1.2,0.2
		c0.5-0.1,0.8-0.2,0.9-0.5l6.1-10.8c0.2-0.3,0.5-0.3,1.1-0.1c0.5,0.3,0.7,0.6,0.5,0.8l-7.1,12.5c-0.2,0.3-0.1,0.7,0.1,1.1
		c0.2,0.5,0.5,0.8,0.9,1c0.3,0.2,0.8,0.3,1.3,0.3s0.9-0.1,1.1-0.4l7.3-12.9c0.1-0.2,0.3-0.3,0.5-0.3c0.3,0,0.5,0,0.6,0.1
		c0.5,0.3,0.7,0.6,0.6,0.9l-6.4,11.3c-0.2,0.3-0.2,0.7,0,1.2c0.2,0.5,0.4,0.8,0.8,1c0.3,0.2,0.7,0.2,1.2,0.1s0.9-0.3,1-0.6l6.6-11.8
		c0.2-0.3,0.5-0.3,1,0s0.7,0.5,0.5,0.9l-4.2,7.5c-0.1,0.3-0.1,0.6,0.2,1c0.3,0.4,0.5,0.7,0.7,0.8c0.1,0,0.2,0.1,0.5,0.2
		c0.1,0,0.4,0,0.8-0.1c0.4-0.1,0.7-0.2,0.8-0.4l9.6-16.9c0.3-0.5,0.3-1.5,0.2-2.9c-0.1-1.3-0.3-2.2-0.5-3c-0.3-0.8-0.3-1.4-0.2-1.7"
		/>
	
		<line fill="none" stroke="#F9AE5C" stroke-width="4.0619" stroke-linecap="round" stroke-miterlimit="10" x1="1053.2" y1="271.3" x2="1067.8" y2="281"/>
	<path fill="none" stroke="#EFD0B4" stroke-width="2.031" stroke-miterlimit="10" d="M1009.3,92.9c2.2,9,4.7,11.3,0,11.3
		s-5.9,0-5.9,0"/>
	<g>
		<path fill="#F9AE5C" stroke="#F9AE5C" stroke-width="1.0155" stroke-miterlimit="10" d="M1057.4,346.6l-20.9,9.9l-13.9-29.2
			l25.9-12.4L1057.4,346.6z M1037.4,354.5l18.1-8.7l-8-28.5l-22.7,10.8L1037.4,354.5z"/>
	</g>
	<circle fill="#F9AE5C" stroke="#F9AE5C" stroke-width="1.0155" stroke-miterlimit="10" cx="1034.9" cy="331.2" r="1.3"/>
	<circle fill="#F9AE5C" stroke="#F9AE5C" stroke-width="1.0155" stroke-miterlimit="10" cx="1037.4" cy="337.8" r="1.3"/>
	<circle fill="#F9AE5C" stroke="#F9AE5C" stroke-width="1.0155" stroke-miterlimit="10" cx="1039.8" cy="345" r="1.3"/>
	<circle fill="#F9AE5C" stroke="#F9AE5C" stroke-width="1.0155" stroke-miterlimit="10" cx="1042.3" cy="327.7" r="1.4"/>
	<circle fill="#F9AE5C" stroke="#F9AE5C" stroke-width="1.0155" stroke-miterlimit="10" cx="1044.6" cy="334.4" r="1.4"/>
	<circle fill="#F9AE5C" stroke="#F9AE5C" stroke-width="1.0155" stroke-miterlimit="10" cx="1046.8" cy="341.7" r="1.4"/>
	<path fill="#DD3858" stroke="#DD3858" stroke-width="5.0774" stroke-miterlimit="10" d="M995.5,489.5c1.6-6.9,1.1-18.1,1.1-18.1
		c-0.1-0.5-0.5-1-1-1.5c-1.8-1.4-5.3-2.5-8.6-2.8c-4.4-0.4-16.6-0.2-19.2,0.2c-1.7,0.3-4.4,0.9-5.9,1.7c-0.6,0.3-1.1,0.6-1.2,1
		c-0.4,1.3,0.3,5,0.8,7.5s0.3,13.8,0.5,18s-1,23.3-1.6,27.9s-2.1,6-3,7.5s-6.5,10.7-8.7,13.5c-2.1,2.7-2.8,2.7-3.6,3
		s-4.9,1.3-6.2,1.8s-4.3,0.3-6.1-0.2c-1.9-0.5-3.7,1.9-4.2,3.1c-0.4,1.2,0.2,5.4,0,6c-0.2,0.8,0.1,1.4,0.6,1.8
		c0.5,0.4,4.3,2.7,8.9,4.2c4.6,1.5,12.2,2.6,15.9,2.7c3.6,0.2,5.5-0.6,7.2-1.5c1.8-0.9,4.9-5.4,5.9-6.7c1.2-1.5,3.5-2,4.7-2
		c2.1-0.1,2,1.3,2,1.3s0.2,2.7,0.7,5.4c7.7,3.9,16.8-0.6,19.9-1.9c-0.3-8.9,0.4-14.3-0.1-17c-1-4.8-2-10.3-2-10.3s-0.5-5.4-0.5-7.9
		c0.1-2.5-0.7-11.9-0.4-15C991.5,507.8,994.2,495.1,995.5,489.5z"/>
	<path fill="none" stroke="#F9AE5C" stroke-width="10.1548" stroke-linecap="round" stroke-miterlimit="10" d="M1053.4,464.6
		c-0.1-0.3-0.6-0.7-1.2-1c-1.6-0.8-4.4-1.4-6-1.6c-2.6-0.4-14.8-0.3-19.2,0.2c-3.3,0.4-6.8,1.6-8.6,2.9c-0.6,0.5-0.9,1-1,1.5"/>
	<path fill="#DD3858" stroke="#DD3858" stroke-width="5.0774" stroke-miterlimit="10" d="M1087.2,550.4c-0.5-1.2-2.3-3.6-4.2-3.1
		c-1.9,0.5-4.9,0.8-6.1,0.3s-5.4-1.5-6.2-1.7c-0.8-0.2-1.5-0.3-3.7-2.9c-2.2-2.6-8-11.8-9-13.3s-2.5-2.9-3.2-7.5
		c-0.7-4.6-2.3-23.7-2.1-27.8c0.2-4.2-0.3-15.5,0.2-18c0.4-2.5,1.1-6.3,0.6-7.5c-0.1-0.3-0.6-0.7-1.2-1c-1.6-0.8-4.4-1.4-6-1.6
		c-2.6-0.4-14.8-0.3-19.2,0.2c-3.3,0.4-6.8,1.6-8.6,2.9c-0.6,0.5-0.9,1-1,1.5c0,0-0.2,11.3,1.5,18.1c1.4,5.7,4.5,18.3,4.8,21.3
		c0.3,3.1-0.2,12.5-0.1,15c0.1,2.5-0.3,7.9-0.3,7.9s-0.9,5.6-1.9,10.3c-0.5,2.6,0.4,8,0.2,17c3.1,1.4,12.3,5.7,19.9,1.6
		c0.4-2.5,0.5-5.4,0.5-5.4s-0.1-1.3,2-1.3c1.2,0,3.6,0.5,4.8,1.9c1.1,1.4,4.3,5.8,6,6.6c1.8,0.9,3.6,1.6,7.2,1.3
		c3.6-0.2,11.3-1.5,15.8-3.1s8.3-4,8.8-4.4s0.8-1,0.6-1.8C1087.1,555.8,1087.7,551.6,1087.2,550.4z"/>
	<g>
		<path fill="#F26E7B" d="M1023.7,116.4c0,0-7.4,11.6-15.8,10.9c-8.6-0.7-13.8-13.3-13.8-13.3s8.1,4,14.5,4.6
			C1014.5,119,1023.7,116.4,1023.7,116.4z"/>
	</g>
</g>
<g>
	<text transform="matrix(1 0 0 1 115.872 137.3802)"><tspan x="0" y="0" fill="#FFFFFF" font-family="'MashineRounded-Light'" font-size="46.5547">i</tspan><tspan x="17.9" y="0" fill="#FFFFFF" font-family="'MashineRounded-Light'" font-size="46.5547">n</tspan><tspan x="59.6" y="0" fill="#FFFFFF" font-family="'MashineRounded-Light'" font-size="46.5547">troducing</tspan></text>
	<text transform="matrix(1 0 0 1 196.5536 249.1112)" fill="#FFFFFF" font-family="'MadreScript'" font-size="93.1095">Grace</text>
	
		<text transform="matrix(1 0 0 1 196.5536 249.1112)" fill="none" stroke="#FFFFFF" stroke-width="1.2932" stroke-miterlimit="10" font-family="'MadreScript'" font-size="93.1095">Grace</text>
	<text transform="matrix(1 0 0 1 258.6552 354.1181)" fill="#FFFFFF" font-family="'MashineRounded-Light'" font-size="46.5547">aka  </text>
	
		<text transform="matrix(1 0 0 1 119.997 447.1238)" fill="url(#SVGID_1_2)" stroke="url(#SVGID_1_2)" stroke-miterlimit="10" font-family="'MashineRounded-Semibold'" font-size="62.073">Code</text>
	
		<text transform="matrix(1 0 0 1 344.7001 447.1238)" fill="url(#SVGID_1_2)" stroke="url(#SVGID_1_2)" stroke-miterlimit="10" font-family="'MashineRounded-Light'" font-size="62.073">Girl</text>
	<text transform="matrix(1 0 0 1 115.997 444.1238)" fill="#FFFFFF" font-family="'MashineRounded-Semibold'" font-size="62.073">Code</text>
	<text transform="matrix(1 0 0 1 340.7001 444.1238)" fill="#FFFFFF" font-family="'MashineRounded-Light'" font-size="62.073">Girl</text>
</g>
</svg>
