<?xml version="1.0" encoding="utf-8"?>
<!-- Generator: Adobe Illustrator 19.1.0, SVG Export Plug-In . SVG Version: 6.00 Build 0)  -->
<svg version="1.1" id="Layer_1" xmlns="http://www.w3.org/2000/svg" xmlns:xlink="http://www.w3.org/1999/xlink" x="0px" y="0px"
	 viewBox="240 -8 1440 576" style="enable-background:new 240 -8 1440 576;" xml:space="preserve">
<style type="text/css">
	.st0{fill:none;}
	.st1{fill:#A6DBDA;}
	.st2{fill:#7AC9C8;}
	.st3{fill:url(#SVGID_10_);}
	.st4{fill:#FFFFFF;}
	.st5{fill:#43949B;}
	.st6{fill:url(#SVGID_11_);}
	.st7{font-family:'MashineRounded-Light';}
	.st8{font-size:62.073px;}
	.st9{fill:none;stroke:url(#SVGID_13_);stroke-miterlimit:10;}
	.st10{fill:url(#SVGID_15_);}
	.st11{fill:none;stroke:url(#SVGID_17_);stroke-miterlimit:10;}
	.st12{fill:url(#SVGID_19_);}
	.st13{font-family:'MadreScript';}
	.st14{font-size:93.1095px;}
	.st15{fill:none;stroke:url(#SVGID_21_);stroke-miterlimit:10;}
	.st16{fill:url(#SVGID_23_);}
	.st17{fill:none;stroke:url(#SVGID_25_);stroke-miterlimit:10;}
	.st18{font-size:46.5547px;}
	.st19{fill:none;stroke:#FFFFFF;stroke-width:1.2932;stroke-miterlimit:10;}
</style>
<pattern  x="240" y="568" width="28.8" height="28.8" patternUnits="userSpaceOnUse" id="SVGID_1_" viewBox="3.6 -32.4 28.8 28.8" style="overflow:visible;">
	<g>
		<polygon class="st0" points="3.6,-3.6 32.4,-3.6 32.4,-32.4 3.6,-32.4 		"/>
		<g>
			<polygon class="st0" points="3.6,-32.4 32.4,-32.4 32.4,-3.6 3.6,-3.6 			"/>
			<g>
				<polygon class="st0" points="3.6,-32.4 32.4,-32.4 32.4,-3.6 3.6,-3.6 				"/>
				<path class="st1" d="M32.4-36c2,0,3.6,1.6,3.6,3.6s-1.6,3.6-3.6,3.6s-3.6-1.6-3.6-3.6C28.8-34.4,30.4-36,32.4-36z"/>
				<path class="st1" d="M18-36c2,0,3.6,1.6,3.6,3.6S20-28.8,18-28.8s-3.6-1.6-3.6-3.6S16-36,18-36z"/>
				<path class="st1" d="M32.4-21.6c2,0,3.6,1.6,3.6,3.6s-1.6,3.6-3.6,3.6S28.8-16,28.8-18S30.4-21.6,32.4-21.6z"/>
				<path class="st1" d="M18-21.6c2,0,3.6,1.6,3.6,3.6S20-14.4,18-14.4S14.4-16,14.4-18S16-21.6,18-21.6z"/>
				<path class="st1" d="M10.8-28.8c2,0,3.6,1.6,3.6,3.6s-1.6,3.6-3.6,3.6s-3.6-1.6-3.6-3.6C7.2-27.2,8.8-28.8,10.8-28.8z"/>
				<path class="st1" d="M25.2-28.8c2,0,3.6,1.6,3.6,3.6s-1.6,3.6-3.6,3.6s-3.6-1.6-3.6-3.6S23.2-28.8,25.2-28.8z"/>
				<path class="st1" d="M10.8-14.4c2,0,3.6,1.6,3.6,3.6s-1.6,3.6-3.6,3.6s-3.6-1.6-3.6-3.6C7.2-12.8,8.8-14.4,10.8-14.4z"/>
				<path class="st1" d="M25.2-14.4c2,0,3.6,1.6,3.6,3.6s-1.6,3.6-3.6,3.6s-3.6-1.6-3.6-3.6S23.2-14.4,25.2-14.4z"/>
				<path class="st1" d="M3.6-36c2,0,3.6,1.6,3.6,3.6s-1.6,3.6-3.6,3.6S0-30.4,0-32.4S1.6-36,3.6-36z"/>
				<path class="st1" d="M3.6-21.6c2,0,3.6,1.6,3.6,3.6s-1.6,3.6-3.6,3.6S0-16,0-18S1.6-21.6,3.6-21.6z"/>
				<path class="st1" d="M32.4-7.2c2,0,3.6,1.6,3.6,3.6S34.4,0,32.4,0s-3.6-1.6-3.6-3.6C28.8-5.6,30.4-7.2,32.4-7.2z"/>
				<path class="st1" d="M18-7.2c2,0,3.6,1.6,3.6,3.6S20,0,18,0s-3.6-1.6-3.6-3.6S16-7.2,18-7.2z"/>
				<path class="st1" d="M3.6-7.2c2,0,3.6,1.6,3.6,3.6S5.6,0,3.6,0S0-1.6,0-3.6S1.6-7.2,3.6-7.2z"/>
			</g>
		</g>
	</g>
</pattern>
<pattern  x="240" y="568" width="28.8" height="28.8" patternUnits="userSpaceOnUse" id="SVGID_6_" viewBox="3.6 -32.4 28.8 28.8" style="overflow:visible;">
	<g>
		<polygon class="st0" points="3.6,-3.6 32.4,-3.6 32.4,-32.4 3.6,-32.4 		"/>
		<g>
			<polygon class="st0" points="3.6,-32.4 32.4,-32.4 32.4,-3.6 3.6,-3.6 			"/>
			<g>
				<polygon class="st0" points="3.6,-32.4 32.4,-32.4 32.4,-3.6 3.6,-3.6 				"/>
				<path class="st1" d="M32.4-36c2,0,3.6,1.6,3.6,3.6s-1.6,3.6-3.6,3.6s-3.6-1.6-3.6-3.6C28.8-34.4,30.4-36,32.4-36z"/>
				<path class="st1" d="M18-36c2,0,3.6,1.6,3.6,3.6S20-28.8,18-28.8s-3.6-1.6-3.6-3.6S16-36,18-36z"/>
				<path class="st1" d="M32.4-21.6c2,0,3.6,1.6,3.6,3.6s-1.6,3.6-3.6,3.6S28.8-16,28.8-18S30.4-21.6,32.4-21.6z"/>
				<path class="st1" d="M18-21.6c2,0,3.6,1.6,3.6,3.6S20-14.4,18-14.4S14.4-16,14.4-18S16-21.6,18-21.6z"/>
				<path class="st1" d="M10.8-28.8c2,0,3.6,1.6,3.6,3.6s-1.6,3.6-3.6,3.6s-3.6-1.6-3.6-3.6C7.2-27.2,8.8-28.8,10.8-28.8z"/>
				<path class="st1" d="M25.2-28.8c2,0,3.6,1.6,3.6,3.6s-1.6,3.6-3.6,3.6s-3.6-1.6-3.6-3.6S23.2-28.8,25.2-28.8z"/>
				<path class="st1" d="M10.8-14.4c2,0,3.6,1.6,3.6,3.6s-1.6,3.6-3.6,3.6s-3.6-1.6-3.6-3.6C7.2-12.8,8.8-14.4,10.8-14.4z"/>
				<path class="st1" d="M25.2-14.4c2,0,3.6,1.6,3.6,3.6s-1.6,3.6-3.6,3.6s-3.6-1.6-3.6-3.6S23.2-14.4,25.2-14.4z"/>
				<path class="st1" d="M3.6-36c2,0,3.6,1.6,3.6,3.6s-1.6,3.6-3.6,3.6S0-30.4,0-32.4S1.6-36,3.6-36z"/>
				<path class="st1" d="M3.6-21.6c2,0,3.6,1.6,3.6,3.6s-1.6,3.6-3.6,3.6S0-16,0-18S1.6-21.6,3.6-21.6z"/>
				<path class="st1" d="M32.4-7.2c2,0,3.6,1.6,3.6,3.6S34.4,0,32.4,0s-3.6-1.6-3.6-3.6C28.8-5.6,30.4-7.2,32.4-7.2z"/>
				<path class="st1" d="M18-7.2c2,0,3.6,1.6,3.6,3.6S20,0,18,0s-3.6-1.6-3.6-3.6S16-7.2,18-7.2z"/>
				<path class="st1" d="M3.6-7.2c2,0,3.6,1.6,3.6,3.6S5.6,0,3.6,0S0-1.6,0-3.6S1.6-7.2,3.6-7.2z"/>
			</g>
		</g>
	</g>
</pattern>
<pattern  x="240" y="568" width="28.8" height="28.8" patternUnits="userSpaceOnUse" id="SVGID_7_" viewBox="3.6 -32.4 28.8 28.8" style="overflow:visible;">
	<g>
		<polygon class="st0" points="3.6,-3.6 32.4,-3.6 32.4,-32.4 3.6,-32.4 		"/>
		<g>
			<polygon class="st0" points="3.6,-32.4 32.4,-32.4 32.4,-3.6 3.6,-3.6 			"/>
			<g>
				<polygon class="st0" points="3.6,-32.4 32.4,-32.4 32.4,-3.6 3.6,-3.6 				"/>
				<path class="st1" d="M32.4-36c2,0,3.6,1.6,3.6,3.6s-1.6,3.6-3.6,3.6s-3.6-1.6-3.6-3.6C28.8-34.4,30.4-36,32.4-36z"/>
				<path class="st1" d="M18-36c2,0,3.6,1.6,3.6,3.6S20-28.8,18-28.8s-3.6-1.6-3.6-3.6S16-36,18-36z"/>
				<path class="st1" d="M32.4-21.6c2,0,3.6,1.6,3.6,3.6s-1.6,3.6-3.6,3.6S28.8-16,28.8-18S30.4-21.6,32.4-21.6z"/>
				<path class="st1" d="M18-21.6c2,0,3.6,1.6,3.6,3.6S20-14.4,18-14.4S14.4-16,14.4-18S16-21.6,18-21.6z"/>
				<path class="st1" d="M10.8-28.8c2,0,3.6,1.6,3.6,3.6s-1.6,3.6-3.6,3.6s-3.6-1.6-3.6-3.6C7.2-27.2,8.8-28.8,10.8-28.8z"/>
				<path class="st1" d="M25.2-28.8c2,0,3.6,1.6,3.6,3.6s-1.6,3.6-3.6,3.6s-3.6-1.6-3.6-3.6S23.2-28.8,25.2-28.8z"/>
				<path class="st1" d="M10.8-14.4c2,0,3.6,1.6,3.6,3.6s-1.6,3.6-3.6,3.6s-3.6-1.6-3.6-3.6C7.2-12.8,8.8-14.4,10.8-14.4z"/>
				<path class="st1" d="M25.2-14.4c2,0,3.6,1.6,3.6,3.6s-1.6,3.6-3.6,3.6s-3.6-1.6-3.6-3.6S23.2-14.4,25.2-14.4z"/>
				<path class="st1" d="M3.6-36c2,0,3.6,1.6,3.6,3.6s-1.6,3.6-3.6,3.6S0-30.4,0-32.4S1.6-36,3.6-36z"/>
				<path class="st1" d="M3.6-21.6c2,0,3.6,1.6,3.6,3.6s-1.6,3.6-3.6,3.6S0-16,0-18S1.6-21.6,3.6-21.6z"/>
				<path class="st1" d="M32.4-7.2c2,0,3.6,1.6,3.6,3.6S34.4,0,32.4,0s-3.6-1.6-3.6-3.6C28.8-5.6,30.4-7.2,32.4-7.2z"/>
				<path class="st1" d="M18-7.2c2,0,3.6,1.6,3.6,3.6S20,0,18,0s-3.6-1.6-3.6-3.6S16-7.2,18-7.2z"/>
				<path class="st1" d="M3.6-7.2c2,0,3.6,1.6,3.6,3.6S5.6,0,3.6,0S0-1.6,0-3.6S1.6-7.2,3.6-7.2z"/>
			</g>
		</g>
	</g>
</pattern>
<pattern  x="240" y="568" width="28.8" height="28.8" patternUnits="userSpaceOnUse" id="SVGID_9_" viewBox="3.6 -32.4 28.8 28.8" style="overflow:visible;">
	<g>
		<polygon class="st0" points="3.6,-3.6 32.4,-3.6 32.4,-32.4 3.6,-32.4 		"/>
		<g>
			<polygon class="st0" points="3.6,-32.4 32.4,-32.4 32.4,-3.6 3.6,-3.6 			"/>
			<g>
				<polygon class="st0" points="3.6,-32.4 32.4,-32.4 32.4,-3.6 3.6,-3.6 				"/>
				<path class="st1" d="M32.4-36c2,0,3.6,1.6,3.6,3.6s-1.6,3.6-3.6,3.6s-3.6-1.6-3.6-3.6C28.8-34.4,30.4-36,32.4-36z"/>
				<path class="st1" d="M18-36c2,0,3.6,1.6,3.6,3.6S20-28.8,18-28.8s-3.6-1.6-3.6-3.6S16-36,18-36z"/>
				<path class="st1" d="M32.4-21.6c2,0,3.6,1.6,3.6,3.6s-1.6,3.6-3.6,3.6S28.8-16,28.8-18S30.4-21.6,32.4-21.6z"/>
				<path class="st1" d="M18-21.6c2,0,3.6,1.6,3.6,3.6S20-14.4,18-14.4S14.4-16,14.4-18S16-21.6,18-21.6z"/>
				<path class="st1" d="M10.8-28.8c2,0,3.6,1.6,3.6,3.6s-1.6,3.6-3.6,3.6s-3.6-1.6-3.6-3.6C7.2-27.2,8.8-28.8,10.8-28.8z"/>
				<path class="st1" d="M25.2-28.8c2,0,3.6,1.6,3.6,3.6s-1.6,3.6-3.6,3.6s-3.6-1.6-3.6-3.6S23.2-28.8,25.2-28.8z"/>
				<path class="st1" d="M10.8-14.4c2,0,3.6,1.6,3.6,3.6s-1.6,3.6-3.6,3.6s-3.6-1.6-3.6-3.6C7.2-12.8,8.8-14.4,10.8-14.4z"/>
				<path class="st1" d="M25.2-14.4c2,0,3.6,1.6,3.6,3.6s-1.6,3.6-3.6,3.6s-3.6-1.6-3.6-3.6S23.2-14.4,25.2-14.4z"/>
				<path class="st1" d="M3.6-36c2,0,3.6,1.6,3.6,3.6s-1.6,3.6-3.6,3.6S0-30.4,0-32.4S1.6-36,3.6-36z"/>
				<path class="st1" d="M3.6-21.6c2,0,3.6,1.6,3.6,3.6s-1.6,3.6-3.6,3.6S0-16,0-18S1.6-21.6,3.6-21.6z"/>
				<path class="st1" d="M32.4-7.2c2,0,3.6,1.6,3.6,3.6S34.4,0,32.4,0s-3.6-1.6-3.6-3.6C28.8-5.6,30.4-7.2,32.4-7.2z"/>
				<path class="st1" d="M18-7.2c2,0,3.6,1.6,3.6,3.6S20,0,18,0s-3.6-1.6-3.6-3.6S16-7.2,18-7.2z"/>
				<path class="st1" d="M3.6-7.2c2,0,3.6,1.6,3.6,3.6S5.6,0,3.6,0S0-1.6,0-3.6S1.6-7.2,3.6-7.2z"/>
			</g>
		</g>
	</g>
</pattern>
<rect x="240" y="-8" class="st2" width="1440" height="576"/>
<g>
	<g>
		<pattern  id="SVGID_10_" xlink:href="#SVGID_6_" patternTransform="matrix(1 0 0 -1 -16.8 -16537.5977)">
		</pattern>
		<polygon class="st3" points="1633.8,453.2 1446.6,325.1 1672.1,300.7 1445,250 1627.2,143.4 1405.1,180 1508,12.4 1335,129.1 
			1338,-66.3 1248.4,107.4 1151.1,-77.2 1162.5,119.1 984.1,-18 1094.4,162 870.2,99.4 1057.5,227.5 831.9,251.9 1059.1,302.6 
			876.9,409.2 1098.9,372.6 996.1,540.2 1169.1,423.4 1166,618.9 1255.6,445.2 1353,629.8 1341.5,433.5 1519.9,570.6 1409.7,390.6 
					"/>
	</g>
	<polygon class="st4" points="1658.6,433.3 1465.8,313.8 1690,279.2 1460.8,238.7 1638.1,124.1 1417.9,170.7 1513.1,-1.4 
		1345.5,123 1339.8,-72.4 1258.1,105.2 1152.5,-74.9 1172.8,120.7 988.4,-8.3 1106.7,166.6 879.9,114.2 1072.7,233.7 848.5,268.2 
		1077.7,308.7 900.5,423.3 1120.6,376.8 1025.5,548.8 1193,424.4 1198.7,619.9 1280.5,442.3 1386,622.3 1365.7,426.7 1550.1,555.7 
		1431.9,380.8 	"/>
</g>
<g>
	<path class="st1" d="M1469.2,245.1c-4.8,55.8-62.9,79-94.7,80c-33.8,1-83.1-1.3-100.2-53.6c-4-4.1-9-6.5-14.5-6.6
		c-5.4-0.1-10.4,2.1-14.6,5.9c-19,51.9-68.6,52.4-102.3,50.2c-31.8-2.1-87.2-26.7-91.4-81.4c-17.1-30-34.5-77.8-19.6-115.7
		c23.4,39.2,68.2,48.7,103.4,54.9l0,0c6.5,0,13.1,0.5,19.9,1.5c26.1,3.8,49.2,13.9,65.9,28.1l0,0l0.1,0.1c3.3,2.8,6.4,5.8,9.1,8.9
		c8.7,7.2,19,12.4,30.3,12.6c11.2,0.2,21.8-4.6,30.8-11.5c2.9-3,6-5.9,9.4-8.6c0-0.1,0.1-0.1,0.1-0.1l0,0c17.2-13.6,40.7-23,67-25.8
		c6.8-0.7,13.5-1,19.9-0.8c34.8-5.1,80.5-12.8,104.6-51.1C1504.9,174.3,1485.5,209.8,1469.2,245.1z M1192.6,255.3
		c-2.2-5.7-16.7-19-41.9-22.6c-25.3-3.6-41.8,5.3-44.9,10.3c1.7,6,15.7,22,41.7,25.7C1173.5,272.3,1189.8,260.7,1192.6,255.3z
		 M1413.6,248.5c-2.9-5.1-19-14.6-44.4-11.9c-25.4,2.7-40.4,15.5-42.8,21.1c2.5,5.5,18.3,17.7,44.5,14.9
		C1397.1,269.8,1411.6,254.4,1413.6,248.5z"/>
	<path class="st5" d="M1034,136.6c27.1,34.8,72.3,43.2,100.3,48.2l0.5,0.1h0.4c6.3,0,12.8,0.5,19.2,1.4c24.5,3.5,46.9,13,63.2,26.9
		c3,2.6,5.9,5.4,8.5,8.4l0.3,0.3l0.3,0.3c10.6,8.8,22.3,13.6,33.6,13.8c11.4,0.2,23.2-4.2,34.2-12.7l0.4-0.2l0.3-0.3
		c2.7-2.8,5.6-5.5,8.9-8.1c16.8-13.3,39.6-22,64.2-24.6c6.3-0.7,12.8-0.9,19.2-0.7h0.4l0.5-0.1c29.9-4.4,73.6-11,101-43.9
		c0.9,5.5,1.4,10.9,1.3,16.3c-0.5,25.2-11.4,48.4-22.7,72.6l-4.3,9.3l-0.1,1.1c-4.7,53.9-63.3,73.7-89.3,74.5
		c-38.5,1.1-79.9-3.9-94.8-49.6l-0.5-1.4l-1-1c-5.2-5.3-11.5-8.1-18.3-8.2c-6.6-0.1-13,2.4-18.3,7.4l-1.1,1l-0.5,1.4
		c-16.6,45.4-58.2,48.9-96.7,46.4c-26.3-1.7-82-22.5-86.2-76l-0.1-1.4l-0.7-1.2c-6.8-12.1-25.1-47.7-24.4-82.8
		C1031.9,147.9,1032.8,142.2,1034,136.6z M1196,257.3l0.9-1.7l-0.7-1.8c-3-8-19.4-21.5-45-25.2c-25.7-3.7-44.2,5-48.7,12.1l-1,1.7
		l0.6,1.9c2.3,8.1,17.9,24.7,44.9,28.6C1174.1,276.6,1192.3,264.6,1196,257.3z M1371.2,276.8c27.2-2.9,43.4-18.9,46.1-26.9l0.6-1.9
		l-1-1.7c-4.1-7.2-22.3-16.6-48.1-13.8c-25.7,2.7-42.7,15.7-46,23.5l-0.8,1.8l0.8,1.8C1326.2,267,1343.9,279.7,1371.2,276.8z"/>
	<path class="st2" d="M1056.6,220.6c0,0,17.1-33.5,46.5-33c0,0-56-18.5-66-43.8C1037.1,143.8,1037.7,199.6,1056.6,220.6z"/>
	<path class="st4" d="M1056.3,210.3c5-7.3,14.1-18,26.8-24c-12.3-5.4-28.1-13.6-39.2-23.9C1045.4,177.1,1048.8,197.3,1056.3,210.3z"
		/>
	<path class="st2" d="M1462.6,228c0,0-15.7-34.1-45.1-34.7c0,0,56.7-16.5,67.8-41.4C1485.3,151.9,1482.4,207.6,1462.6,228z"/>
	<path class="st4" d="M1437.5,192.6c12.4,6.5,21.1,17.5,25.8,25c8-12.7,12.3-32.7,14.4-47.4C1466.1,180.1,1450.1,187.7,1437.5,192.6
		z"/>
	<path class="st1" d="M1094.7,215.1c-0.1,4.8-3.3,8.7-7.2,8.6c-3.9-0.1-7-4.1-6.9-8.9c0.1-4.9,3.3-8.7,7.2-8.7
		C1091.8,206.2,1094.8,210.2,1094.7,215.1z"/>
	<path class="st1" d="M1158.8,203.7c-0.1,4.9-3.3,8.7-7.2,8.6c-3.9-0.1-7-4-6.9-8.9c0.1-4.8,3.3-8.7,7.2-8.6
		C1155.8,194.9,1158.9,198.8,1158.8,203.7z"/>
	<path class="st1" d="M1218.7,231.1c-0.1,4.8-3.3,8.7-7.2,8.6c-3.9-0.1-7-4.1-6.9-8.9c0.1-4.8,3.3-8.7,7.2-8.6
		C1215.8,222.3,1218.8,226.2,1218.7,231.1z"/>
	<path class="st1" d="M1424.7,221c-0.1,4.8,3,8.8,6.9,8.9c3.9,0.1,7.1-3.8,7.2-8.6c0.1-4.9-3-8.8-6.9-8.9
		C1428,212.3,1424.8,216.2,1424.7,221z"/>
	<path class="st1" d="M1361.2,207.3c-0.1,4.8,3,8.8,6.9,8.9c3.9,0.1,7.1-3.8,7.2-8.7c0.1-4.8-3-8.8-6.9-8.9
		C1364.6,198.6,1361.3,202.5,1361.2,207.3z"/>
	<path class="st1" d="M1300.1,232.6c-0.1,4.9,3,8.8,6.9,8.9c3.9,0.1,7.1-3.8,7.2-8.7c0.1-4.8-3-8.8-6.9-8.9
		C1303.5,223.8,1300.3,227.7,1300.1,232.6z"/>
</g>
<g>
	
		<pattern  id="SVGID_11_" xlink:href="#SVGID_7_" patternTransform="matrix(1 0 0 -1 73.7844 -16766.498)"  style="enable-background:new    ;">
	</pattern>
	<text transform="matrix(1 0 0 1 275.5844 220.901)" class="st6 st7 st8">	<pattern  id="SVGID_12_" xlink:href="#SVGID_7_" patternTransform="matrix(1 0 0 -1 73.7844 -16766.498)">
	</pattern>
 </text>
	
		<pattern  id="SVGID_13_" xlink:href="#SVGID_1_" patternTransform="matrix(1 0 0 -1 77.3844 -17310.1016)"  style="enable-background:new    ;">
	</pattern>
	<text transform="matrix(1 0 0 1 275.5844 220.901)" class="st9 st7 st8">	<pattern  id="SVGID_14_" xlink:href="#SVGID_1_" patternTransform="matrix(1 0 0 -1 77.3844 -17310.1016)">
	</pattern>
 </text>
	
		<pattern  id="SVGID_15_" xlink:href="#SVGID_7_" patternTransform="matrix(1 0 0 -1 73.7844 -16766.498)"  style="enable-background:new    ;">
	</pattern>
	<text transform="matrix(1 0 0 1 304.0759 220.901)" class="st10 st7 st8">	<pattern  id="SVGID_16_" xlink:href="#SVGID_7_" patternTransform="matrix(1 0 0 -1 73.7844 -16766.498)">
	</pattern>
 challenges</text>
	
		<pattern  id="SVGID_17_" xlink:href="#SVGID_1_" patternTransform="matrix(1 0 0 -1 77.3844 -17310.1016)"  style="enable-background:new    ;">
	</pattern>
	<text transform="matrix(1 0 0 1 304.0759 220.901)" class="st11 st7 st8">	<pattern  id="SVGID_18_" xlink:href="#SVGID_1_" patternTransform="matrix(1 0 0 -1 77.3844 -17310.1016)">
	</pattern>
 challenges</text>
	
		<pattern  id="SVGID_19_" xlink:href="#SVGID_9_" patternTransform="matrix(1 0 0 -1 109.8328 -16967.7227)"  style="enable-background:new    ;">
	</pattern>
	<text transform="matrix(1 0 0 1 311.6328 422.1247)" class="st12 st13 st14">	<pattern  id="SVGID_20_" xlink:href="#SVGID_9_" patternTransform="matrix(1 0 0 -1 109.8328 -16967.7227)">
	</pattern>
 </text>
	
		<pattern  id="SVGID_21_" xlink:href="#SVGID_1_" patternTransform="matrix(1 0 0 -1 113.4328 -17511.3262)"  style="enable-background:new    ;">
	</pattern>
	<text transform="matrix(1 0 0 1 311.6328 422.1247)" class="st15 st13 st14">	<pattern  id="SVGID_22_" xlink:href="#SVGID_1_" patternTransform="matrix(1 0 0 -1 113.4328 -17511.3262)">
	</pattern>
 </text>
	
		<pattern  id="SVGID_23_" xlink:href="#SVGID_9_" patternTransform="matrix(1 0 0 -1 109.8328 -16967.7227)"  style="enable-background:new    ;">
	</pattern>
	<text transform="matrix(1 0 0 1 338.6339 422.1247)" class="st16 st13 st14">	<pattern  id="SVGID_24_" xlink:href="#SVGID_9_" patternTransform="matrix(1 0 0 -1 109.8328 -16967.7227)">
	</pattern>
 Superhero</text>
	
		<pattern  id="SVGID_25_" xlink:href="#SVGID_1_" patternTransform="matrix(1 0 0 -1 113.4328 -17511.3262)"  style="enable-background:new    ;">
	</pattern>
	<text transform="matrix(1 0 0 1 338.6339 422.1247)" class="st17 st13 st14">	<pattern  id="SVGID_26_" xlink:href="#SVGID_1_" patternTransform="matrix(1 0 0 -1 113.4328 -17511.3262)">
	</pattern>
 Superhero</text>
</g>
<g>
	<text transform="matrix(1 0 0 1 423.8505 129.3802)" class="st4 st7 st18">complete</text>
	<text transform="matrix(1 0 0 1 327.5844 216.901)" class="st4 st7 st8">challenges</text>
	<text transform="matrix(1 0 0 1 511.2797 298.1207)" class="st4 st7 st18">be a</text>
	<text transform="matrix(1 0 0 1 363.6328 418.1247)" class="st4 st13 st14">Superhero</text>
	<text transform="matrix(1 0 0 1 363.6328 418.1247)" class="st19 st13 st14">Superhero</text>
</g>
</svg>
