<?xml version="1.0" encoding="utf-8"?>
<!-- Generator: Adobe Illustrator 18.1.1, SVG Export Plug-In . SVG Version: 6.00 Build 0)  -->
<svg version="1.1" id="Layer_1" xmlns="http://www.w3.org/2000/svg" xmlns:xlink="http://www.w3.org/1999/xlink" x="0px" y="0px"
	 viewBox="0 0 1440 576" enable-background="new 0 0 1440 576" xml:space="preserve">
<pattern  y="576" width="28.8" height="28.8" patternUnits="userSpaceOnUse" id="SVGID_1_2" viewBox="3.6 -32.4 28.8 28.8" overflow="visible">
	<g>
		<polygon fill="none" points="3.6,-3.6 32.4,-3.6 32.4,-32.4 3.6,-32.4 		"/>
		<g>
			<polygon fill="none" points="3.6,-3.6 32.4,-3.6 32.4,-32.4 3.6,-32.4 			"/>
			<path fill="#FCD6AD" d="M32.4,0c2,0,3.6-1.6,3.6-3.6s-1.6-3.6-3.6-3.6s-3.6,1.6-3.6,3.6C28.8-1.6,30.4,0,32.4,0z"/>
			<path fill="#FCD6AD" d="M18,0c2,0,3.6-1.6,3.6-3.6S20-7.2,18-7.2s-3.6,1.6-3.6,3.6S16,0,18,0z"/>
			<path fill="#FCD6AD" d="M32.4-14.4c2,0,3.6-1.6,3.6-3.6s-1.6-3.6-3.6-3.6S28.8-20,28.8-18S30.4-14.4,32.4-14.4z"/>
			<path fill="#FCD6AD" d="M18-14.4c2,0,3.6-1.6,3.6-3.6S20-21.6,18-21.6S14.4-20,14.4-18S16-14.4,18-14.4z"/>
			<path fill="#FCD6AD" d="M10.8-7.2c2,0,3.6-1.6,3.6-3.6s-1.6-3.6-3.6-3.6s-3.6,1.6-3.6,3.6C7.2-8.8,8.8-7.2,10.8-7.2z"/>
			<path fill="#FCD6AD" d="M25.2-7.2c2,0,3.6-1.6,3.6-3.6s-1.6-3.6-3.6-3.6s-3.6,1.6-3.6,3.6S23.2-7.2,25.2-7.2z"/>
			<path fill="#FCD6AD" d="M10.8-21.6c2,0,3.6-1.6,3.6-3.6s-1.6-3.6-3.6-3.6s-3.6,1.6-3.6,3.6C7.2-23.2,8.8-21.6,10.8-21.6z"/>
			<path fill="#FCD6AD" d="M25.2-21.6c2,0,3.6-1.6,3.6-3.6s-1.6-3.6-3.6-3.6s-3.6,1.6-3.6,3.6S23.2-21.6,25.2-21.6z"/>
			<path fill="#FCD6AD" d="M3.6,0c2,0,3.6-1.6,3.6-3.6S5.6-7.2,3.6-7.2S0-5.6,0-3.6S1.6,0,3.6,0z"/>
			<path fill="#FCD6AD" d="M3.6-14.4c2,0,3.6-1.6,3.6-3.6s-1.6-3.6-3.6-3.6S0-20,0-18S1.6-14.4,3.6-14.4z"/>
			<path fill="#FCD6AD" d="M32.4-28.8c2,0,3.6-1.6,3.6-3.6S34.4-36,32.4-36s-3.6,1.6-3.6,3.6C28.8-30.4,30.4-28.8,32.4-28.8z"/>
			<path fill="#FCD6AD" d="M18-28.8c2,0,3.6-1.6,3.6-3.6S20-36,18-36s-3.6,1.6-3.6,3.6S16-28.8,18-28.8z"/>
			<path fill="#FCD6AD" d="M3.6-28.8c2,0,3.6-1.6,3.6-3.6S5.6-36,3.6-36S0-34.4,0-32.4S1.6-28.8,3.6-28.8z"/>
		</g>
	</g>
</pattern>
<rect fill="#FF9559" width="1440" height="576"/>
<g>
	<g>
		<pattern  id="SVGID_1_" xlink:href="#SVGID_1_2" patternTransform="matrix(1 0 0 1 -3.6 -543.6031)">
		</pattern>
		<polygon fill="url(#SVGID_1_)" points="594.1,461.2 781.4,333.1 555.9,308.7 783,258 600.8,151.4 822.8,188 720,20.4 893,137.1 
			889.9,-58.3 979.6,115.4 1076.9,-69.2 1065.4,127.1 1243.9,-10 1133.6,170 1357.8,107.4 1170.5,235.5 1396,259.9 1168.9,310.6 
			1351.1,417.2 1129.1,380.6 1231.9,548.2 1058.9,431.4 1062,626.9 972.3,453.2 875,637.8 886.5,441.5 708,578.6 818.3,398.6 		"/>
	</g>
	<polygon fill="#FFFFFF" points="569.3,441.3 762.1,321.8 537.9,287.2 767.1,246.7 589.9,132.1 810.1,178.7 714.9,6.6 882.4,131 
		888.2,-64.4 969.9,113.2 1075.4,-66.9 1055.2,128.7 1239.6,-0.3 1121.3,174.6 1348.1,122.2 1155.2,241.7 1379.5,276.2 
		1150.3,316.7 1327.5,431.3 1107.3,384.8 1202.5,556.8 1035,432.4 1029.2,627.9 947.5,450.3 842,630.3 862.2,434.7 677.8,563.7 
		796.1,388.8 	"/>
</g>
<g>
	<g>
		<path fill="#A3550B" d="M1048.4,165.4c-0.6-21.8-12.8-36-23.4-65.1c-2.8-7.8,3.5-20.5-5.1-48.5c-10.1-33.2-39.8-41.6-60.6-41.6
			c-27.5,0-54.9,13.9-61.6,41.2c-7.2,29.7-3.2,40.7-5.7,49.8c-3.1,11.6-25.8,47.5-23,69.2c2.5,19.4,9.5,25.2,9.5,25.2
			s1-24.6,7.6-34.4c1.1-1.7-1,12.8,1,25.5c2.5,16.7,15.5,17.1,15.5,17.1s-2.5-4.9-2.6-8.2c-0.2-8.2,3.1-12.7,3.1-12.7s3,8.5,4,10.2
			c7.5,14,10.4,10.9,10.4,10.9s-3.1-13,0-13.6s81.8,1,81.8,1s3.5,9.4,1.6,13.4c-1,2.1,5-1.2,9-6.7c3.7-5.1,5.6-12.4,5.6-12.4
			s2.5,6.8,2.7,9.2c0.3,2.6-0.9,10.5-0.9,10.5s11.4-3.9,13.6-18.2c1.4-8.8,0.6-26.6,0.6-26.6c7.2,13.3,7.6,35.8,7.6,35.8
			S1048.9,183.4,1048.4,165.4z M1010.8,107.5c-9.4,23.5-38.8,34.6-52,34.6c-17.8,0-46.9-16.2-52.5-34.9c0,0-11.3-1.5-11.3-12.2
			c0-12.5,8.8-12.9,8.8-12.9c-0.3,8.1,2.8,10.6,2.8,10.6s-0.5-3.3,2.8-7c3.8-4.2,10.3-5.8,18.8-12.9c8.5-7,12.2-21.7,12.2-21.7
			s1.9,8.1,14.7,19.9c12.9,11.8,26.3,5.2,26.3,5.2s-4.4-0.4-9.1-4.1c-4.7-3.7-5.7-9.6-5.7-9.6s1.3,6.6,13.2,10.6
			c11.9,4.1,18.4,3.3,23.1,6.6c4.7,3.3,4.7,16.8,4.7,16.8s2.7-3.6,4.5-6.9c0.8-1.5,1.8-7.2,1.8-7.2s7.5,1.1,7.5,13.1
			C1021.5,105.3,1010.8,107.5,1010.8,107.5z"/>
		<path fill="#FFDFBE" d="M1014,82.5c0,0-1,5.8-1.8,7.2c-1.8,3.4-4.5,6.9-4.5,6.9s0-13.5-4.7-16.8c-4.7-3.3-11.3-2.5-23.1-6.6
			c-11.9-4.1-13.2-10.6-13.2-10.6s1,5.8,5.7,9.6c4.7,3.7,9.1,4.1,9.1,4.1s-13.5,6.6-26.3-5.2c-12.9-11.8-14.7-19.9-14.7-19.9
			s-3.8,14.7-12.2,21.7c-8.5,7-14.9,8.7-18.8,12.9c-3.3,3.7-2.8,7-2.8,7s-3.1-2.5-2.8-10.6c0,0-8.8,0.4-8.8,12.9
			c0,10.6,11.3,12.2,11.3,12.2c5.7,18.7,34.7,35,52.5,34.9c13.2,0,42.5-11,52-34.6c0,0,10.6-2.2,10.6-12
			C1021.5,83.7,1014,82.5,1014,82.5z"/>
		<g>
			<path fill="#FFFFFF" stroke="#FFFFFF" stroke-width="0.2539" stroke-miterlimit="10" d="M987,88.5c0,0-5.1,5.8-11.6,4.7
				c-6.4-1.2-8.4-7.5-8.4-7.5s2.3-9.1,10-9C983.1,76.6,987,81.6,987,88.5z"/>
			<path fill="#29ABE2" stroke="#29ABE2" stroke-width="1.0155" stroke-miterlimit="10" d="M977.1,91.1L977.1,91.1
				c4,0,7.2-3.2,7.2-7.2l0,0c0-4-3.2-7.2-7.2-7.2l0,0c-4,0-7.2,3.2-7.2,7.2l0,0C969.9,87.9,973.1,91.1,977.1,91.1z"/>
			<path stroke="#000000" stroke-width="0.5077" stroke-miterlimit="10" d="M976.8,87.3L976.8,87.3c2.6,0,4.8-2.1,4.8-4.8l0,0
				c0-2.6-2.1-4.8-4.8-4.8l0,0c-2.6,0-4.8,2.1-4.8,4.8l0,0C972,85.1,974.2,87.3,976.8,87.3z"/>
			<path fill="#FFFFFF" d="M980.3,87.8L980.3,87.8c0.8,0,1.4-0.6,1.4-1.4l0,0c0-0.8-0.6-1.4-1.4-1.4l0,0c-0.8,0-1.4,0.6-1.4,1.4l0,0
				C979,87.1,979.5,87.8,980.3,87.8z"/>
			<g>
				<path d="M991.5,83.2c0,0-2.9,0.7-4.8-1.2c-0.4-0.4-0.8-0.9-1.3-1.5c-1.7-2.1-3.8-4.8-8.5-4.8c-5.8,0-8.2,5.1-9.7,8.4l-0.2,0.8
					l0.1-0.2c1.6-3.2,4.8-7.7,9.8-7.7c4.1,0,5.9,2.3,7.5,4.4c0.5,0.6,0.9,1.1,1.3,1.6C988,85.3,991.4,83.4,991.5,83.2"/>
			</g>
		</g>
		<g>
			<path fill="#FFFFFF" stroke="#FFFFFF" stroke-width="0.2539" stroke-miterlimit="10" d="M930.5,88.5c0,0,5.1,5.8,11.6,4.7
				c6.4-1.2,8.4-7.5,8.4-7.5s-2.3-9.1-10-9C934.6,76.6,930.5,81.6,930.5,88.5z"/>
			<path fill="#29ABE2" stroke="#29ABE2" stroke-width="1.0155" stroke-miterlimit="10" d="M940.5,91.1L940.5,91.1
				c-4,0-7.2-3.2-7.2-7.2l0,0c0-4,3.2-7.2,7.2-7.2l0,0c4,0,7.2,3.2,7.2,7.2l0,0C947.8,87.9,944.5,91.1,940.5,91.1z"/>
			<path stroke="#000000" stroke-width="0.5077" stroke-miterlimit="10" d="M940.7,87.3L940.7,87.3c-2.6,0-4.8-2.1-4.8-4.8l0,0
				c0-2.6,2.1-4.8,4.8-4.8l0,0c2.6,0,4.8,2.1,4.8,4.8l0,0C945.5,85.1,943.4,87.3,940.7,87.3z"/>
			<path fill="#FFFFFF" d="M937.3,87.8L937.3,87.8c-0.8,0-1.4-0.6-1.4-1.4l0,0c0-0.8,0.6-1.4,1.4-1.4l0,0c0.8,0,1.4,0.6,1.4,1.4l0,0
				C938.7,87.1,938,87.8,937.3,87.8z"/>
			<g>
				<path d="M926,83.2c0,0,2.9,0.7,4.8-1.2c0.4-0.4,0.8-0.9,1.3-1.5c1.7-2.1,3.8-4.8,8.5-4.8c5.8,0,8.2,5.1,9.7,8.4l0.2,0.8
					l-0.1-0.2c-1.6-3.2-4.8-7.7-9.8-7.7c-4.1,0-5.9,2.3-7.5,4.4c-0.5,0.6-0.9,1.1-1.3,1.6C929.5,85.3,926.1,83.4,926,83.2"/>
			</g>
		</g>
	</g>
	<path fill="none" d="M962.2,191.1c-0.2,0-0.4,0-0.6,0.1C961.8,191.2,962,191.2,962.2,191.1z"/>
	<path fill="none" d="M961.4,191.2c-0.6,0-1.2,0.1-1.8,0.1C960.2,191.3,960.8,191.3,961.4,191.2z"/>
	<path fill="none" d="M966,190.3c4.1-1.2,7.9-3.4,10.9-6.9C973.9,186.5,970.3,189,966,190.3z"/>
	<path fill="none" d="M957.6,191.2C957.6,191.1,957.6,191.1,957.6,191.2C957.6,191.1,957.6,191.1,957.6,191.2z"/>
	<path fill="none" d="M956.9,191c-16.4-2.9-19.6-32.2-19.6-32.2c1.5,16.9,6.6,23.1,10.4,27.2C950.2,188.7,953.3,190.4,956.9,191z"/>
	<path fill="#ED93A4" d="M912.6,470.5c1.6-1.3,4.4-2.2,6.1-2.6c2.7-0.7,15.2-0.9,19.7-0.3c3.4,0.5,7,2.2,8.9,4.5
		c1.2-12.7,3.1-42.9,2.7-90.5c-14.3-1.5-30.4-8.3-37.8-13C910.4,400.7,911.9,450.3,912.6,470.5z"/>
	<path fill="none" stroke="#F9AE5C" stroke-width="10.1548" stroke-linecap="round" stroke-miterlimit="10" d="M947.5,467
		c-0.1-0.5-0.5-1-1-1.5c-1.8-1.4-5.3-2.5-8.6-2.8c-4.6-0.4-16.2-0.3-19.2,0.2c-1.7,0.3-4.4,0.9-5.9,1.7c-0.6,0.3-1.1,0.6-1.2,1"/>
	<path fill="#ED93A4" d="M964.7,380.1c0.5,48.4,3.1,78.9,4.5,91.7c1.7-2.2,5.3-4.2,8.5-4.7c4.3-0.7,16.6-0.8,19.2-0.1
		c1.7,0.4,4.5,1.3,6,2.5c0.3-19.2,0.7-65-1.2-97.2c-6.8,2.1-13.5,2.8-16.3,2.9C982,375.2,975.4,378.4,964.7,380.1z"/>
	<path fill="#A40062" d="M961.6,191.2c-0.1,0-0.1,0-0.2,0C961.5,191.2,961.5,191.2,961.6,191.2z"/>
	<path fill="#A40062" d="M957.6,191.1c-0.2,0-0.5-0.1-0.7-0.1C957.1,191.1,957.3,191.1,957.6,191.1z"/>
	<path fill="#A40062" d="M962.2,191.1c1.4-0.2,2.6-0.4,3.8-0.8c-1,0.3-1.9,0.5-2.9,0.7C962.8,191.1,962.5,191.1,962.2,191.1z"/>
	<path fill="#A40062" d="M959.7,191.3L959.7,191.3c-0.7,0-1.4-0.1-1.9-0.1C958.3,191.2,959,191.3,959.7,191.3z"/>
	<path fill="#A40062" d="M976.9,183.4c8.3-8.3,11.9-20.3,11.9-20.3s-0.1,0-0.2-0.1c-1,2-6.6,13.6-10.2,18.5
		C978,182.2,977.5,182.9,976.9,183.4z"/>
	<path fill="#F5D6CB" stroke="#F5D6CB" stroke-width="3.0464" stroke-miterlimit="10" d="M994.5,282"/>
	<path fill="#FFDFBE" d="M1011.6,283.4l2.4-2.1c43-27.1,44.4-38.3,44.7-40.2l0,0c1.9-8.5-15.7-44-26-54.5
		c-6.3-6.5-23.7-24.7-31.6-22.2l0.4,3.6c2.1,6.2,6.6,17.7,9.5,22c2.8,4.3,5.7,9.1,6,12.8c0.1,1.1,0.2,2.1,0.1,3.2
		c12.1,15.1,24.9,28.7,22.4,30.3c-1.9,3-21.3,24-32.3,32.9c-1.7,1.4-3,2.4-4.2,3.4"/>
	
		<line fill="none" stroke="#F9AE5C" stroke-width="4.0619" stroke-linecap="round" stroke-miterlimit="10" x1="1009.3" y1="267.3" x2="1023.3" y2="276.4"/>
	<g>
		<path fill="#FFDFBE" d="M969.7,140.5c0.1,0,0.2,0,0.3,0l0,0l-17.9,0.8v0.2c1.6,0.2,5.2,0.7,8.7,0.7
			C965.5,142.1,969.7,140.5,969.7,140.5z"/>
		<path fill="#FFDFBE" d="M969.8,153v-11c-1,0.4-4.8,1.6-9.3,1.6h-0.1c-3.4,0-6.7-0.4-8.4-0.7v9.7c-4,1-15.8,6-16.1,6.2
			c-1.6,0.7,2.2,10.5,2.6,11.7c2.3,7.1,6.1,15.2,13.1,18.9c17.9,9.7,30.7-13.6,36.6-29C986.9,159.7,976,155.4,969.8,153z"/>
		<path fill="#EFD0B4" d="M960.5,143.2c4.5,0,8.3-0.9,9.3-1.3v-1.5c0,0-0.2,0-0.3,0c0,0-4,1.6-8.9,1.6c-3.5,0-7.4-0.4-8.4-0.7v1.5
			C954.2,143,957,143.2,960.5,143.2C960.4,143.2,960.5,143.2,960.5,143.2z"/>
	</g>
	<path fill="#FFDFBE" d="M906.8,283.9l-2.4-2.2c-43-27.4-44.4-38.8-44.7-40.7l0,0c-1.9-8.6,15.7-44.6,26-55.2
		c6.3-6.6,23.7-25.1,31.6-22.5l-0.4,3.7c-2.1,6.3-6.6,17.9-9.5,22.3s-5.7,9.3-6,12.9c-0.1,1.1-0.2,2.1-0.1,3.3
		c-12.1,15.3-24.9,29.1-22.4,30.7c1.9,3,21.3,24.3,32.3,33.3c1.7,1.4,3,2.5,4.2,3.4"/>
	
		<line fill="none" stroke="#F9AE5C" stroke-width="4.0619" stroke-linecap="round" stroke-miterlimit="10" x1="909.2" y1="267.5" x2="895.1" y2="276.7"/>
	<path fill="#DD3858" d="M1012.1,166.9c-3.1-2.8-5.3-4.3-12.1-6.3c-1.3-0.4-2.9-1.9-14.6-1.9v0.7c0,0-1.3,6.7-3.9,9.7
		c-3.6,4.1-10.1,7.4-17.2,7.8c-8.5,0.5-13.9-2.5-17.3-4.9c-5.5-3.8-10.3-11.5-11.3-13.1l0.1-0.2c-0.1,0-0.2,0-0.2,0
		c0-0.1-0.1-0.1-0.1-0.1s-0.3,0-0.7,0.1c-9.2-0.1-10.7,0-18.2,1.4c-6,1.2-10.2,3.3-13.2,6.2c-2.9,3-19.9,19.3-26.9,29.5
		c3.2,7.4,13.4,12.6,22,14.7l4.8-5c1.2,17.4,6.6,26,7.4,29.7c0.9,4,1.6,4.5,2.6,20.6c0.3,4-0.9,29.9-2.7,35.2
		c-1.8,5.3-1.7,14.9-2.5,21.2c-0.9,6.1-3,29.1-3,29.1s20.3,6.1,36.9,7.5c16.7,1.4,55-1.3,61.6-2.6c6.6-1.4,9.3-5.8,9.7-7.5
		c0.5-6.1-4.4-42.7-7.4-50.6c-3.1-7.9-1.7-25.3-1.1-32c1-11.4,1.8-13.4,3.7-19.5c0.9-2.6,5.8-10.3,7.8-29l3.3,3
		c8.5-2.6,18.3-8.5,21.1-16.1C1033.2,184.8,1015.2,169.6,1012.1,166.9z"/>
	<path fill="#FFFFFF" d="M991.4,194.8h-59.9c-5.5,5.6-10.8,11-16.3,16.6c15.4,17.7,30.8,35.5,46.2,53.2
		c15.4-17.7,30.8-35.5,46.2-53.2C1002.3,205.7,996.9,200.3,991.4,194.8 M917.6,211.4c4.9-5,9.7-9.9,14.6-14.9h58.4
		c4.9,5,9.7,9.8,14.6,14.9c-14.6,16.9-29.2,33.6-43.9,50.5C946.9,245,932.3,228.2,917.6,211.4"/>
	<path fill="#FFFFFF" d="M938,213.7c0-1.9,0.5-2.9,1.8-4.2l8-8c0.8-0.8,1.6-1.3,2.4-1.6H934l-11.1,11.3l15.1,17.2c0-0.1,0-0.3,0-0.4
		V213.7z"/>
	<path fill="#FFFFFF" d="M949.4,241.4l12.2,13.8l11.8-13.4h-21.3C950.9,241.9,950.1,241.7,949.4,241.4"/>
	<path fill="#FFFFFF" d="M982.8,205.4c1.3,1.3,1.3,2.1,0,3.5l-6.3,6.3c-1.3,1.3-2.1,1.4-3.4,0l-2.9-3.1h-14.4l-3.8,3.8v9.8l3.8,3.7
		h14.6l2.7-2.8c1.4-1.4,2.1-1.5,3.4-0.1l5.5,5.6l18.3-20.8L989,200h-12.5c0.9,0.2,1.7,0.7,2.4,1.6L982.8,205.4z"/>
	<path fill="#DD3858" d="M908.7,300.9c0,0-19.8,25.2-20.2,75.7c-0.1,12.8,31.5,21.3,66.6,21.4c33,0,68.9-7.2,68.8-19.2
		c-0.6-51.1-14.7-78.1-14.7-78.1L908.7,300.9z"/>
	<polygon fill="#F9AE5C" points="911.5,291.4 961.5,314.5 1006.1,291.4 1004.2,276.7 961.9,297.2 912.8,276.7 	"/>
	<path fill="#FFDFBE" d="M914.4,272.1c0.1,0.1,0.4,0.4,0.9,0.7c0.3,0.2,0.6,0.4,0.9,0.6s0.8,0.5,1.5,0.7c3.7,1.4,6.2,2.3,7.5,2.9
		c0.7,0.3,2,1.7,4.1,4c1.9,2.1,2.9,3.4,3.2,3.9c0.3,0.6,0.2,1-0.4,1.3c-0.2,0.1-0.5,0.2-0.8,0.2c-1.1,0.2-1.7,0.2-2,0
		c-0.7-0.5-1.8-1.2-3.1-2.2c-1.4-1.1-2.3-1.8-3-2.2c-0.2-0.1-0.4-0.2-0.6-0.1c-0.6,0.3-0.9,1.1-0.8,2.2c0.1,1,0.3,1.9,0.6,2.4
		l7,12.7c0.2,0.3,0.1,0.7-0.1,1.1c-0.3,0.4-0.5,0.7-0.7,0.8c-0.3,0.2-0.7,0.2-1.2,0.2c-0.5-0.1-0.8-0.2-0.9-0.5l-6.1-11
		c-0.2-0.3-0.5-0.3-1.1-0.1c-0.5,0.3-0.7,0.6-0.5,0.8l7.1,12.7c0.2,0.3,0.1,0.7-0.1,1.2c-0.2,0.5-0.5,0.8-0.9,1
		c-0.3,0.2-0.8,0.3-1.3,0.3s-0.9-0.1-1.1-0.4l-7.3-13.1c-0.1-0.2-0.3-0.3-0.5-0.3c-0.3,0-0.5,0-0.6,0.1c-0.5,0.3-0.7,0.6-0.6,0.9
		l6.4,11.5c0.2,0.3,0.2,0.7,0,1.2s-0.4,0.8-0.8,1c-0.3,0.2-0.7,0.2-1.2,0.1s-0.9-0.3-1-0.6l-6.6-11.9c-0.2-0.3-0.5-0.3-1,0
		s-0.7,0.6-0.5,0.9l4.2,7.6c0.1,0.3,0.1,0.6-0.2,1s-0.5,0.7-0.7,0.8c-0.1,0-0.2,0.1-0.5,0.2c-0.1,0-0.4,0-0.8-0.1
		c-0.4-0.1-0.7-0.3-0.8-0.4l-9.6-17.1c-0.3-0.5-0.3-1.5-0.2-2.9c0.1-1.3,0.3-2.3,0.5-3c0.3-0.9,0.3-1.4,0.2-1.7"/>
	
		<line fill="none" stroke="#F9AE5C" stroke-width="4.0619" stroke-linecap="round" stroke-miterlimit="10" x1="914.6" y1="271.6" x2="899.9" y2="281.5"/>
	<path fill="#FFDFBE" d="M1004,271.8c-0.1,0.1-0.4,0.4-0.9,0.7c-0.3,0.2-0.6,0.4-0.9,0.6c-0.3,0.2-0.8,0.4-1.5,0.7
		c-3.7,1.4-6.2,2.2-7.5,2.8c-0.7,0.3-2,1.7-4.1,4c-1.9,2.1-2.9,3.4-3.2,3.8c-0.3,0.6-0.2,1,0.4,1.3c0.2,0.1,0.5,0.2,0.8,0.2
		c1.1,0.2,1.7,0.2,2,0c0.7-0.4,1.8-1.2,3.1-2.2c1.4-1.1,2.3-1.8,3-2.2c0.2-0.1,0.4-0.2,0.6-0.1c0.6,0.3,0.9,1.1,0.8,2.2
		c-0.1,1-0.3,1.8-0.6,2.4l-7,12.5c-0.2,0.3-0.1,0.7,0.1,1.1c0.3,0.4,0.5,0.7,0.7,0.8c0.3,0.2,0.7,0.2,1.2,0.2
		c0.5-0.1,0.8-0.2,0.9-0.5l6.1-10.8c0.2-0.3,0.5-0.3,1.1-0.1c0.5,0.3,0.7,0.6,0.5,0.8l-7.1,12.5c-0.2,0.3-0.1,0.7,0.1,1.1
		c0.2,0.5,0.5,0.8,0.9,1c0.3,0.2,0.8,0.3,1.3,0.3s0.9-0.1,1.1-0.4l7.3-12.9c0.1-0.2,0.3-0.3,0.5-0.3c0.3,0,0.5,0,0.6,0.1
		c0.5,0.3,0.7,0.6,0.6,0.9l-6.4,11.3c-0.2,0.3-0.2,0.7,0,1.2s0.4,0.8,0.8,1c0.3,0.2,0.7,0.2,1.2,0.1s0.9-0.3,1-0.6l6.6-11.8
		c0.2-0.3,0.5-0.3,1,0s0.7,0.5,0.5,0.9l-4.2,7.5c-0.1,0.3-0.1,0.6,0.2,1s0.5,0.7,0.7,0.8c0.1,0,0.2,0.1,0.5,0.2c0.1,0,0.4,0,0.8-0.1
		c0.4-0.1,0.7-0.2,0.8-0.4l9.6-16.9c0.3-0.5,0.3-1.5,0.2-2.9c-0.1-1.3-0.3-2.2-0.5-3c-0.3-0.8-0.3-1.4-0.2-1.7"/>
	
		<line fill="none" stroke="#F9AE5C" stroke-width="4.0619" stroke-linecap="round" stroke-miterlimit="10" x1="1003.9" y1="271.3" x2="1018.5" y2="281"/>
	<path fill="none" stroke="#EFD0B4" stroke-width="2.031" stroke-miterlimit="10" d="M960.1,92.9c2.2,9,4.7,11.3,0,11.3
		s-5.9,0-5.9,0"/>
	<g>
		<path fill="#F9AE5C" stroke="#F9AE5C" stroke-width="1.0155" stroke-miterlimit="10" d="M1008.2,346.6l-20.9,9.9l-13.9-29.2
			l25.9-12.4L1008.2,346.6z M988.2,354.5l18.1-8.7l-8-28.5l-22.7,10.8L988.2,354.5z"/>
	</g>
	<circle fill="#F9AE5C" stroke="#F9AE5C" stroke-width="1.0155" stroke-miterlimit="10" cx="985.7" cy="331.2" r="1.3"/>
	<circle fill="#F9AE5C" stroke="#F9AE5C" stroke-width="1.0155" stroke-miterlimit="10" cx="988.2" cy="337.8" r="1.3"/>
	<circle fill="#F9AE5C" stroke="#F9AE5C" stroke-width="1.0155" stroke-miterlimit="10" cx="990.6" cy="345" r="1.3"/>
	<circle fill="#F9AE5C" stroke="#F9AE5C" stroke-width="1.0155" stroke-miterlimit="10" cx="993.1" cy="327.7" r="1.4"/>
	<circle fill="#F9AE5C" stroke="#F9AE5C" stroke-width="1.0155" stroke-miterlimit="10" cx="995.3" cy="334.4" r="1.4"/>
	<circle fill="#F9AE5C" stroke="#F9AE5C" stroke-width="1.0155" stroke-miterlimit="10" cx="997.5" cy="341.7" r="1.4"/>
	<path fill="#DD3858" stroke="#DD3858" stroke-width="5.0774" stroke-miterlimit="10" d="M946.3,489.5c1.6-6.9,1.1-18.1,1.1-18.1
		c-0.1-0.5-0.5-1-1-1.5c-1.8-1.4-5.3-2.5-8.6-2.8c-4.4-0.4-16.6-0.2-19.2,0.2c-1.7,0.3-4.4,0.9-5.9,1.7c-0.6,0.3-1.1,0.6-1.2,1
		c-0.4,1.3,0.3,5,0.8,7.5s0.3,13.8,0.5,18s-1,23.3-1.6,27.9s-2.1,6-3,7.5s-6.5,10.7-8.7,13.5c-2.1,2.7-2.8,2.7-3.6,3
		s-4.9,1.3-6.2,1.8s-4.3,0.3-6.1-0.2c-1.9-0.5-3.7,1.9-4.2,3.1c-0.4,1.2,0.2,5.4,0,6c-0.2,0.8,0.1,1.4,0.6,1.8
		c0.5,0.4,4.3,2.7,8.9,4.2c4.6,1.5,12.2,2.6,15.9,2.7c3.6,0.2,5.5-0.6,7.2-1.5c1.8-0.9,4.9-5.4,5.9-6.7c1.2-1.5,3.5-2,4.7-2
		c2.1-0.1,2,1.3,2,1.3s0.2,2.7,0.7,5.4c7.7,3.9,16.8-0.6,19.9-1.9c-0.3-8.9,0.4-14.3-0.1-17c-1-4.8-2-10.3-2-10.3s-0.5-5.4-0.5-7.9
		c0.1-2.5-0.7-11.9-0.4-15C942.2,507.8,945,495.1,946.3,489.5z"/>
	<path fill="none" stroke="#F9AE5C" stroke-width="10.1548" stroke-linecap="round" stroke-miterlimit="10" d="M1004.2,464.6
		c-0.1-0.3-0.6-0.7-1.2-1c-1.6-0.8-4.4-1.4-6-1.6c-2.6-0.4-14.8-0.3-19.2,0.2c-3.3,0.4-6.8,1.6-8.6,2.9c-0.6,0.5-0.9,1-1,1.5"/>
	<path fill="#DD3858" stroke="#DD3858" stroke-width="5.0774" stroke-miterlimit="10" d="M1038,550.4c-0.5-1.2-2.3-3.6-4.2-3.1
		c-1.9,0.5-4.9,0.8-6.1,0.3s-5.4-1.5-6.2-1.7s-1.5-0.3-3.7-2.9c-2.2-2.6-8-11.8-9-13.3s-2.5-2.9-3.2-7.5s-2.3-23.7-2.1-27.8
		c0.2-4.2-0.3-15.5,0.2-18c0.4-2.5,1.1-6.3,0.6-7.5c-0.1-0.3-0.6-0.7-1.2-1c-1.6-0.8-4.4-1.4-6-1.6c-2.6-0.4-14.8-0.3-19.2,0.2
		c-3.3,0.4-6.8,1.6-8.6,2.9c-0.6,0.5-0.9,1-1,1.5c0,0-0.2,11.3,1.5,18.1c1.4,5.7,4.5,18.3,4.8,21.3c0.3,3.1-0.2,12.5-0.1,15
		c0.1,2.5-0.3,7.9-0.3,7.9s-0.9,5.6-1.9,10.3c-0.5,2.6,0.4,8,0.2,17c3.1,1.4,12.3,5.7,19.9,1.6c0.4-2.5,0.5-5.4,0.5-5.4
		s-0.1-1.3,2-1.3c1.2,0,3.6,0.5,4.8,1.9c1.1,1.4,4.3,5.8,6,6.6c1.8,0.9,3.6,1.6,7.2,1.3c3.6-0.2,11.3-1.5,15.8-3.1s8.3-4,8.8-4.4
		s0.8-1,0.6-1.8C1037.8,555.8,1038.4,551.6,1038,550.4z"/>
	<g>
		<path fill="#F26E7B" d="M974.4,116.4c0,0-7.4,11.6-15.8,10.9c-8.6-0.7-13.8-13.3-13.8-13.3s8.1,4,14.5,4.6
			C965.3,119,974.4,116.4,974.4,116.4z"/>
	</g>
</g>
</svg>
