<?xml version="1.0" encoding="utf-8"?>
<!-- Generator: Adobe Illustrator 19.1.0, SVG Export Plug-In . SVG Version: 6.00 Build 0)  -->
<svg version="1.1" id="Arrow_1_" xmlns="http://www.w3.org/2000/svg" xmlns:xlink="http://www.w3.org/1999/xlink" x="0px" y="0px"
	 viewBox="-229 31 500 500" style="enable-background:new -229 31 500 500;" xml:space="preserve">
<style type="text/css">
	.st0{fill:none;}
	.st1{fill:#FF9559;}
	.st2{fill:#F9AE5C;}
	.st3{fill:#FCD6AD;}
</style>
<g>
	<path class="st0" d="M68.7,195.4c3.5-3.5,14.8,2.1,25.3,12.6c10.4,10.5,16.1,21.8,12.6,25.3l-3.7,3.7l-80.3,80.2
		c2.8-3.9-2.7-14.8-12.9-24.9c-10.4-10.5-21.7-16.1-25.2-12.7L56.1,208L68.7,195.4z"/>
	<polygon class="st1" points="154.9,120.3 145,85.6 110.3,75.7 145,65.7 154.9,31 164.8,65.7 199.5,75.6 164.8,85.5 	"/>
	<polygon class="st2" points="29.9,156 23.9,135.2 3.1,129.2 23.9,123.3 29.9,102.5 35.9,123.3 56.7,129.2 35.9,135.2 	"/>
	<polygon class="st3" points="-85.2,208.6 -50.5,218.5 -85.2,228.4 -95.1,263.1 -105,228.4 -139.7,218.5 -105,208.6 -95.1,173.9 	
		"/>
	<polygon class="st1" points="-77.3,156 -91.2,107.4 -139.8,93.5 -91.2,79.6 -77.3,31 -63.4,79.6 -14.8,93.5 -63.4,107.4 	"/>
	<path class="st2" d="M-207.7,509.6c17.4,17.4,37.2,25.9,44.2,18.9l289-289c7-7-1.5-26.8-18.9-44.2c-17.4-17.4-37.2-25.9-44.2-18.9
		l-289,289C-233.5,472.4-225.1,492.2-207.7,509.6z M-15.5,279.6L56.1,208l12.6-12.6c3.5-3.5,14.8,2.1,25.3,12.6
		c10.4,10.5,16.1,21.8,12.6,25.3l-3.7,3.7l-80.3,80.2c-0.1,0.1-0.2,0.3-0.3,0.4c0,0,0,0-0.1,0l0.4-0.4c2.8-3.9-2.7-14.8-12.9-24.9
		C-0.7,281.8-12,276.2-15.5,279.6z"/>
	<polygon class="st2" points="101.3,370.3 107.3,391.1 128.1,397 107.3,403 101.3,423.8 95.3,403 74.5,397 95.3,391.1 	"/>
	<path class="st2" d="M22.2,317.6l0.4-0.4C22.5,317.3,22.4,317.5,22.2,317.6C22.3,317.6,22.3,317.6,22.2,317.6z"/>
	<polygon class="st1" points="190.6,272.1 202.5,313.8 244.2,325.7 202.5,337.6 190.6,379.3 178.7,337.6 137,325.7 178.7,313.8 	"/>
	<polygon class="st3" points="238.3,188.8 217.5,182.8 238.3,176.9 244.3,156.1 250.3,176.9 271,182.8 250.2,188.8 244.2,209.6 	"/>
</g>
</svg>
