<?xml version="1.0" encoding="utf-8"?>
<!-- Generator: Adobe Illustrator 19.1.0, SVG Export Plug-In . SVG Version: 6.00 Build 0)  -->
<svg version="1.1" id="Layer_1" xmlns="http://www.w3.org/2000/svg" xmlns:xlink="http://www.w3.org/1999/xlink" x="0px" y="0px"
	 viewBox="0 0 435.5 468.6" style="enable-background:new 0 0 435.5 468.6;" xml:space="preserve">
<style type="text/css">
	.st0{fill:#FFFFFF;}
</style>
<g>
	<path class="st0" d="M158.4,216.6h54.9c17.7,0,31.4-15,31.4-33h-0.3v-55c0-17-118-17-118,0V184
		C126.4,201.6,140.8,216.6,158.4,216.6z"/>
	<path class="st0" d="M381.1,201.6c0-120.6-23.5-149.1-59.8-149.1c-36.5,0-44.8,57.9-45.1,75.1c-0.7,0-1.3-0.1-2-0.1h-13.8
		c0,1,0,1.5,0,1.5V184c0,25.5-20.6,47.6-47,47.6h-20.6c5.9,2,9.8,7.6,9.8,14.5c0,8.8-7.8,16.5-16.7,16.5c-8.8,0-16.7-7.7-16.7-16.5
		c0-6.9,3.9-12.5,9.8-14.5h-20.6c-25.5,0-47-21.1-47-47.6v-54.9c0-1,0-1.5,0-1.5h-4v-75c0-5.4-4.6-9.8-10-9.8s-10,4.4-10,9.8v74.5
		c0,0.6,0.4,1.2,0.5,1.8c-12.6,4.5-21.5,16.6-21.5,30.5v233.4c0,17.7,14.5,32.7,32.2,32.7h174.6c17.7,0,32.2-15,32.2-32.7V159.5
		c0-1.1-0.1-2.3-0.2-3.4c0.1,0.1,0.2,0.2,0.3,0.3c-0.2-43.2,6.9-74.4,22.6-74.4c16.7,0,28.4,28.4,28.4,105
		c0,152-53.9,220.7-53.9,220.7S381.1,320.3,381.1,201.6z"/>
</g>
</svg>
