<?xml version="1.0" encoding="utf-8"?>
<!-- Generator: Adobe Illustrator 19.1.0, SVG Export Plug-In . SVG Version: 6.00 Build 0)  -->
<svg version="1.1" id="Layer_1" xmlns="http://www.w3.org/2000/svg" xmlns:xlink="http://www.w3.org/1999/xlink" x="0px" y="0px"
	 viewBox="0 0 717.4 495.6" style="enable-background:new 0 0 717.4 495.6;" xml:space="preserve">
<style type="text/css">
	.st0{fill:#FFFFFF;}
</style>
<g>
	<path class="st0" d="M693.4,369.2c-16.1-24.1-39.5-35.7-67.3-39.6c-22.1-3.1-43.7-0.6-65.2,5.1c-37.6,10-69.9,29.6-100.4,52.9
		c-11.4,8.7-22.4,17.8-33.8,26.4c-19.1,14.6-40.2,26.1-63.3,32.2c-11.4,3-24.2,1.6-36.3,0.4c-25.1-2.5-47.7-12.4-68.2-26.7
		c-27-18.8-53.4-38.5-80-58c-5.2-3.8-9.7-5.1-16.3-2.1c-11.1,5-22.8,8.7-34.4,12.6c-23.5,7.9-47.1,15.6-70.7,23.3
		c-5.1,1.7-10.4,2.9-15.4,4.8c-10,3.8-12.6,1.1-16.2-8.4c-2.5-6.5-2.9-14.2-2.7-21.4c0.7-22.2,1.2-44.4,3.6-66.4
		c3.8-36.1,10.7-71.7,24-105.7c21.1-54,59.9-91.7,110.3-118.4c13.1-6.9,27.2-12.1,40.8-18.2c3-1.3,5.8-3.4,9-4.1c0,0,0,0,0,0
		c0.9-6,6.8-12.5,12.3-14.3c4.3-1.4,8.6-3,13-4.1c5.6-1.4,11.4-1.5,15.7,3.1c4.6,5,10.2,5.7,16.4,5.4c15.9-0.7,31.9-2.1,47.8-1.6
		c67.9,1.9,121,31.9,161.1,86.1c20.5,27.7,35.8,58.2,48.6,90c5.9,14.5,10.8,29.5,16,44.3c2.1,6,6.2,9.8,11.6,12.7
		c29.6,15.8,59.4,31.3,88.8,47.4c12.7,6.9,25,14.6,37.1,22.6C686.1,354.2,691.5,360.5,693.4,369.2z"/>
	<path class="st0" d="M553.7,348.6c30.4-10,59.3-13.5,88.7-3.1c12.1,4.3,22.2,11.6,31.3,20.7c10.1,10.1,9.4,22.4,8.8,34.8
		c-0.1,1.3-2.2,3.3-3.7,3.5c-6.6,1-13.8,3.5-19.9,1.9c-25.8-6.7-49.6-18.5-71.8-33.2C576,365.9,565.6,357.4,553.7,348.6z"/>
</g>
</svg>
