<?xml version="1.0" encoding="utf-8"?>
<!-- Generator: Adobe Illustrator 19.1.0, SVG Export Plug-In . SVG Version: 6.00 Build 0)  -->
<svg version="1.1" id="Layer_1" xmlns="http://www.w3.org/2000/svg" xmlns:xlink="http://www.w3.org/1999/xlink" x="0px" y="0px"
	 viewBox="0 0 266.4 103" style="enable-background:new 0 0 266.4 103;" xml:space="preserve">
<style type="text/css">
	.st0{fill:#FFFFFF;}
</style>
<g>
	<polygon class="st0" points="217,46.4 216.9,46.5 216.9,46.4 	"/>
	<path class="st0" d="M216.9,46.5L216.9,46.5l-78.8,36.2l-88-36.2l-0.1,0c0.3-1.4,0.6-2.6,1-3.8c1.2-3.7,2.3-13.4,3.1-24l0.2-1
		L134.4,51l4.3,1.8l4.6-2.2l-0.1,0L211,17.7c1,7.6,1.4,14.8,3.3,19.7c0.6,1.5,1.4,3.7,2.1,6.3L216.9,46.5L216.9,46.5z"/>
	<polygon class="st0" points="216.9,46.5 216.9,46.5 216.8,46.5 	"/>
</g>
</svg>
