<?xml version="1.0" encoding="utf-8"?>
<!-- Generator: Adobe Illustrator 19.1.0, SVG Export Plug-In . SVG Version: 6.00 Build 0)  -->
<svg version="1.1" id="Layer_1" xmlns="http://www.w3.org/2000/svg" xmlns:xlink="http://www.w3.org/1999/xlink" x="0px" y="0px"
	 viewBox="-276 111.3 405.8 339.7" style="enable-background:new -276 111.3 405.8 339.7;" xml:space="preserve">
<style type="text/css">
	.st0{fill:#FFFFFF;}
</style>
<path class="st0" d="M106.6,396.7c10.2-12.4,0.7-42.3-7.3-56.2c-27.7-48.2-54.8-165-55.5-165.7l0,0c0-0.7-0.7-0.7-0.7-0.7
	s0-0.7-0.7-0.7c-17.5-11-45.3-24.8-54-28.5c0.7-3.7-0.7-6.6-0.7-6.6c0-0.7-0.7-1.5-1.5-1.5c0,0-8-3.7-13.9-9.5
	c-7.3-6.6-11.7-5.1-17.5-1.5l-2.2,1.5c-5.1,2.9-19.7,2.9-25.6,2.2c-7.3,0.7-20.4,0-24.8-2.2l-2.2-1.5c-6.6-3.7-10.2-5.1-17.5,1.5
	c-6.6,5.8-13.9,9.5-14.6,9.5c-0.7,0.7-1.5,0.7-1.5,1.5s-1.5,2.9-0.7,6.6c-8.8,4.4-36.5,17.5-54,28.5l-0.7,0.7l-0.7,0.7l0,0
	c0,1.5-27.7,117.5-55.5,165.7c-8,13.9-17.5,43.8-7.3,56.2l-8,22.6c0,0.7,0,1.5,0,2.9c0.7,0.7,1.5,1.5,2.2,1.5l50.4,17.5
	c1.5,0.7,3.7,0,4.4-2.2l8-22.6c2.9-2.9,20.4-48.9,25.6-71.5l2.9,3.7V404c0,0.7,0.7,1.5,1.5,2.2c0.7,0.7,1.5,0.7,1.5,0.7
	c19,6.6,46,10.2,75.9,11.7l0,0l0,0c5.1,0,11,0,16.1,0c37.2,0,70.8-4.4,92.7-11.7c1.5-0.7,2.2-1.5,2.2-2.9v-55.5l2.9-3.7
	c5.1,21.9,21.9,67.9,25.6,71.5l8,22.6c0.7,1.5,2.2,2.2,2.9,2.2c0.7,0,0.7,0,1.5,0l50.4-17.5c0.7,0,1.5-0.7,2.2-1.5
	c0.7-0.7,0.7-1.5,0-2.9L106.6,396.7z M-73,371.9c-4.4,0-8-3.7-8-8s3.7-8,8-8s8,3.7,8,8S-68.6,371.9-73,371.9z M-73,294.5
	c-4.4,0-8-3.7-8-8s3.7-8,8-8s8,3.7,8,8S-68.6,294.5-73,294.5z M-73,216.4c-4.4,0-8-3.7-8-8s3.7-8,8-8s8,3.7,8,8
	S-68.6,216.4-73,216.4z"/>
</svg>
