<?xml version="1.0" encoding="utf-8"?>
<!-- Generator: Adobe Illustrator 19.1.0, SVG Export Plug-In . SVG Version: 6.00 Build 0)  -->
<svg version="1.1" id="Layer_1" xmlns="http://www.w3.org/2000/svg" xmlns:xlink="http://www.w3.org/1999/xlink" x="0px" y="0px"
	 viewBox="-276 111.3 405.8 339.7" style="enable-background:new -276 111.3 405.8 339.7;" xml:space="preserve">
<style type="text/css">
	.st0{fill:#CCCCCC;}
</style>
<g>
	<path d="M-190.8,464.9v48.7c0,0.6,0.6,1.3,1.3,1.9c0.6,0.6,1.3,0.6,1.3,0.6c16.6,5.8,40.4,9,66.6,10.3h14.1
		c32.7,0,62.1-3.9,81.3-10.3c1.3-0.6,1.9-1.3,1.9-2.6v-48.7l18.5-152.7c0-0.6-0.6-0.6-0.6-0.6s0-0.6-0.6-0.6
		c-15.4-9.7-39.7-21.8-47.4-25c0.6-3.2-0.6-5.8-0.6-5.8c0-0.6-0.6-1.3-1.3-1.3c0,0-7-3.2-12.2-8.4c-6.4-5.8-10.2-4.5-15.4-1.3
		l-1.9,1.3c-4.5,2.6-17.3,2.6-22.4,1.9c-6.4,0.6-18,0-21.8-1.9l-1.9-1.3c-5.7-3.2-9-4.5-15.4,1.3c-5.7,5.1-12.2,8.4-12.8,8.4
		c-0.6,0.6-1.3,0.6-1.3,1.3c0,0.6-1.3,2.6-0.6,5.8c-7.7,3.8-32.1,11.6-47.4,21.2L-190.8,464.9z M-108.2,485.3c-3.9,0-7-3.2-7-7.1
		c0-3.9,3.2-7.1,7-7.1c3.9,0,7,3.2,7,7.1C-101.2,482.1-104.4,485.3-108.2,485.3z M-108.2,417.4c-3.9,0-7-3.2-7-7.1
		c0-3.8,3.2-7.1,7-7.1c3.9,0,7,3.2,7,7.1C-101.2,414.1-104.4,417.4-108.2,417.4z M-108.2,348.8c-3.9,0-7-3.2-7-7.1
		c0-3.8,3.2-7.1,7-7.1c3.9,0,7,3.2,7,7.1C-101.2,345.5-104.4,348.8-108.2,348.8z"/>
	<path class="st0" d="M-101.2,478.2c0,3.9-3.1,7.1-7,7.1s-7-3.2-7-7.1c0-3.9,3.2-7.1,7-7.1C-104.4,471.2-101.2,474.4-101.2,478.2z"
		/>
	<path class="st0" d="M-101.2,410.3c0,3.8-3.1,7.1-7,7.1s-7-3.2-7-7.1c0-3.8,3.2-7.1,7-7.1C-104.4,403.3-101.2,406.5-101.2,410.3z"
		/>
	<path class="st0" d="M-101.2,341.7c0,3.8-3.1,7.1-7,7.1s-7-3.2-7-7.1c0-3.8,3.2-7.1,7-7.1C-104.4,334.7-101.2,337.9-101.2,341.7z"
		/>
</g>
<path d="M147.8,393.4l-18.6-42.9c0-0.6-0.7-1.2-1.4-1.8c-0.7-0.6-1.3-0.5-2.6,0.2l-19.2,9.8c-11.5-8.1-37.2,2.1-48.8,10
	c-0.8,0.5-1.6,1.1-2.4,1.6c-23.6-17.2-50.6-56.2-70.8-64.7c-8.7-3.7-19.8,44.6-15.2,52.9l30.2,39.2c0,0,21.6,28.3,36.1,32.3
	c21.7,6,36.8,0.9,36.8,0.9c7.7-2.4,12.9-4.9,23.6-9.5c15.3-6.6,29.6-13.5,31.4-15.6l19.3-8.5c1.2-0.7,1.8-2,1.8-2.7
	C147.8,394,147.8,394,147.8,393.4z"/>
<path d="M-364.7,389.4l18.6-42.9c0-0.6,0.7-1.2,1.4-1.8c0.7-0.6,1.3-0.5,2.6,0.2l19.2,9.8c11.5-8.1,37.2,2.1,48.8,10
	c0.8,0.5,1.6,1.1,2.4,1.6c23.6-17.2,51.6-56.2,71.8-64.7c8.7-3.7,18.8,44.6,14.2,52.9l-30.2,39.2c0,0-21.6,28.3-36.1,32.3
	c-21.7,6-36.8,0.9-36.8,0.9c-7.7-2.4-12.9-4.9-23.6-9.5c-15.3-6.6-29.6-13.5-31.4-15.6l-19.3-8.5c-1.2-0.7-1.8-2-1.8-2.7
	C-364.8,390-364.8,390-364.7,389.4z"/>
</svg>
