<?xml version="1.0" encoding="utf-8"?>
<!-- Generator: Adobe Illustrator 17.0.0, SVG Export Plug-In . SVG Version: 6.00 Build 0)  -->
<!DOCTYPE svg PUBLIC "-//W3C//DTD SVG 1.1//EN" "http://www.w3.org/Graphics/SVG/1.1/DTD/svg11.dtd">
<svg version="1.1" id="Layer_1" xmlns="http://www.w3.org/2000/svg" xmlns:xlink="http://www.w3.org/1999/xlink" x="0px" y="0px"
	 width="283.333px" height="181.333px" viewBox="0 0 283.333 181.333" enable-background="new 0 0 283.333 181.333"
	 xml:space="preserve">
<g>
	<path fill="#FFFFFF" d="M122.4,45.07l-0.29,1.3c-2.2,9.84-6.77,30.32-7.1,35.19c-0.21,2.98,0.1,9.64,0.38,15.51
		c0.21,4.45,0.39,8.28,0.34,10.22c-0.11,3.94,0.64,12.1,0.74,13.12c0.19,1.07,1.84,9.99,3.45,17.6c0.54,2.54,0.44,6.21,0.3,11.3
		c-0.13,4.81-0.29,10.79-0.01,18.24l0.06,1.68l-2.21,0.895c-4.26,1.94-13.12,5.875-22.74,5.875c0,0,0,0-0.01,0
		c-4.71,0-9.05-0.875-12.89-2.815l-1.1-0.503l-0.22-1.181c-0.74-3.93-1.05-8.076-1.12-9.166c-0.16-0.04-0.42-0.083-0.83-0.083
		L79,162.266c-1.48,0.03-4.79,0.842-6.15,2.602c-0.26,0.34-0.6,0.801-1,1.351c-3.5,4.72-7.14,9.45-10.01,10.91
		c-2.75,1.42-5.94,2.81-11.79,2.81c-0.58,0-1.2-0.02-1.84-0.04c-6.25-0.29-19.8-2.19-27.99-4.88c-7.91-2.59-14.52-6.6-15.85-7.53
		c-1.83-1.3-2.59-3.43-2.04-5.6c0.03-0.46-0.07-1.83-0.15-2.84c-0.26-3.55-0.4-6.19,0.18-7.81c0.87-2.5,4.32-7.21,8.65-7.21
		c0.5,0,0.99,0.06,1.48,0.19c1.72,0.45,4.15,0.74,6.18,0.74c1.88,0,2.68-0.24,2.88-0.32c1.6-0.59,5.16-1.56,8.02-2.34
		c1.27-0.35,2.3-0.63,2.74-0.76l0.34-0.11c0.86-0.25,1.75-0.51,4.71-4.23c2.96-3.72,10.15-15.38,13.22-20.37
		c0.72-1.17,1.27-2.06,1.55-2.51c0.28-0.44,0.59-0.89,0.93-1.37c1.5-2.14,3.21-4.57,3.95-10.55c1-8.03,3.09-40.74,2.71-47.45
		c-0.16-2.88-0.21-7.62-0.25-12.64c-0.07-6.94-0.15-15.58-0.61-18.02l-0.05-0.3c-1.18-6.33-2.01-11.38-1.13-13.86
		c0.55-1.57,2.09-2.49,3.2-3.05c3.16-1.58,8.42-2.7,11.03-3.11c3.18-0.5,12.83-0.76,20.71-0.76c5.62,0,10.2,0.13,12.91,0.35
		c6.31,0.53,12.79,2.67,16.13,5.31c1.54,1.22,2.43,2.56,2.67,3.99l0.03,0.31C124.39,13.98,125.08,33.02,122.4,45.07z"/>
</g>
<g>
	<path fill="#FFFFFF" d="M280.15,159.07c0.6,2.17-0.13,4.31-1.91,5.63c-0.07,0.06-6.79,4.73-15.71,7.86
		c-8.13,2.86-21.65,5.03-27.88,5.44c-0.9,0.05-1.76,0.08-2.58,0.08c-5.39,0-8.45-1.27-11.12-2.58c-2.89-1.4-6.63-6.05-10.21-10.7
		c-0.42-0.54-0.77-0.995-1.04-1.325c-1.39-1.74-4.72-2.475-6.19-2.475c-0.01,0-0.01,0-0.01,0c-0.46,0-0.8,0.045-0.97,0.085
		c-0.05,1.07-0.28,5.247-0.93,9.208l-0.21,1.219l-1.09,0.579c-3.98,2.12-8.53,3.19-13.52,3.19c-9.36,0-18.01-3.74-22.16-5.54
		l-2.24-0.96l0.03-1.68c0.13-7.46-0.15-13.44-0.37-18.24c-0.24-5.08-0.42-8.75,0.07-11.31c1.45-7.63,2.92-16.59,3.1-17.66
		c0.07-1.02,0.66-9.2,0.48-13.14c-0.1-1.93,0.01-5.77,0.13-10.21c0.16-5.88,0.34-12.55,0.07-15.53c-0.43-4.86-5.42-25.25-7.81-35.05
		l-0.31-1.28c-2.93-11.99-2.62-31.04-2.6-31.85l0.02-0.32c0.21-1.43,1.08-2.79,2.59-4.03c3.29-2.71,9.73-4.98,16.03-5.63
		c4.56-0.48,13.66-0.69,20.67-0.69c2.96,0,10.14,0.04,12.94,0.42c2.62,0.36,7.91,1.37,11.09,2.89c1.12,0.54,2.68,1.43,3.27,2.98
		c0.92,2.47,0.19,7.53-0.86,13.89l-0.04,0.29c-0.41,2.45-0.32,11.09-0.25,18.04c0.06,5.02,0.11,9.76,0.01,12.63
		c-0.25,6.72,2.49,39.38,3.65,47.39c0.86,5.96,2.62,8.36,4.17,10.48c0.34,0.46,0.66,0.91,0.95,1.35c0.29,0.44,0.86,1.32,1.61,2.49
		c3.17,4.92,10.58,16.43,13.61,20.08c3.04,3.66,3.93,3.91,4.8,4.14l0.34,0.1c0.45,0.13,1.49,0.39,2.76,0.71
		c2.88,0.72,6.45,1.62,8.07,2.18c0.17,0.06,0.87,0.26,2.47,0.26c2.09,0,4.73-0.35,6.58-0.87c0.51-0.14,1.05-0.22,1.59-0.22
		c4.28,0,7.76,4.59,8.68,7.05c0.6,1.6,0.51,4.24,0.32,7.79C280.19,157.25,280.12,158.62,280.15,159.07z"/>
</g>
</svg>
