<?xml version="1.0" encoding="utf-8"?>
<!-- Generator: Adobe Illustrator 19.1.0, SVG Export Plug-In . SVG Version: 6.00 Build 0)  -->
<svg version="1.1" id="Layer_1" xmlns="http://www.w3.org/2000/svg" xmlns:xlink="http://www.w3.org/1999/xlink" x="0px" y="0px"
	 viewBox="-337 190.7 283.3 181.3" style="enable-background:new -337 190.7 283.3 181.3;" xml:space="preserve">
<style type="text/css">
	.st0{fill:#FFFFFF;}
</style>
<path class="st0" d="M-195.9,197.9c0-1.6-1.6-3.2-3.2-3.2h-62.5c-1.6,0-3.2,1.6-3.2,3.2c0,1.6,2.5,2.8,3.7,3.2
	c1.6,22.7,4,88.1,1.6,108c-1.6,13.6-6.1,16.5-8.1,18.9c-0.8,0.4-1.2,1.2-2,1.6l0,0l0,0c-7.2,6-13.8,9.7-17.8,10.9
	c-8.8,2.8-18.2,3.7-23.8,8.4c-0.8,0.8-1.6,1.6-2,2.4c0,0.8-2,13.6,11.6,15.9c0.8,0,2,0,2.8,0.4v1.6h3.6l1.6-1.2c0.4,0,0.8,0,1.2,0
	c0.4,0,0.8,0,1.2,0l1.2,0.8h1.2l1.2-0.8c0.8,0,2,0,2.8,0l1.2,0.8h1.2l1.2-0.8c0.8,0,1.6,0,2.8,0l1.2,1.2h1.2l1.6-1.2
	c0.4,0,0.8,0,1.2,0l2,1.6h1.2l2.4-2l2.4,2h1.2l2.4-2l2.4,2h2l2.4-2l2.4,2h1.2l2.4-2.8l0.4-0.8h9.2l0.4,1.6l33.5-0.4l-0.4-17.9
	c0,0-0.4-0.4-2.4-0.8c0.8-2.4,2-8.4,1.6-13.6c-0.4-6.8,1.6-9.6-0.4-13.2c0-0.4,0-1.2,0-1.6l0,0c0-31.9,6.4-105.2,7.6-118.8
	C-197.1,200.6-195.9,199.5-195.9,197.9z"/>
<path class="st0" d="M-188.8,201.4c1.2,13.6,7.6,86.9,7.6,118.8l0,0c0,0.4,0,1.2,0,1.6c-2,3.6,0,6.4-0.4,13.2
	c-0.4,5.2,0.8,11.2,1.6,13.6c-2,0.4-2.4,0.8-2.4,0.8l-0.4,17.9l33.5,0.4l0.4-1.6h9.2l0.4,0.8l2.4,2.8h1.2l2.4-2l2.4,2h2l2.4-2l2.4,2
	h1.2l2.4-2l2.4,2h1.2l2-1.6c0.4,0,0.8,0,1.2,0l1.6,1.2h1.2l1.2-1.2c1.2,0,2,0,2.8,0l1.2,0.8h1.2l1.2-0.8c0.8,0,2,0,2.8,0l1.2,0.8
	h1.2l1.2-0.8c0.4,0,0.8,0,1.2,0c0.4,0,0.8,0,1.2,0l1.6,1.2h3.6v-1.6c0.8-0.4,2-0.4,2.8-0.4c13.6-2.4,11.6-15.1,11.6-15.9
	c-0.4-0.8-1.2-1.6-2-2.4c-5.6-4.8-15-5.7-23.8-8.4c-4-1.2-10.6-4.9-17.8-10.9l0,0l0,0c-0.8-0.4-1.2-1.2-2-1.6
	c-2-2.4-7.8-5.3-9.4-18.9c-2.4-19.9,0-85.3,1.6-108c1.2-0.4,3.7-1.6,3.7-3.2c0-1.6-1.6-3.2-3.2-3.2h-61.2c-1.6,0-3.2,1.6-3.2,3.2
	C-192.4,199.5-191.2,200.6-188.8,201.4z"/>
</svg>
