<?xml version="1.0" encoding="utf-8"?>
<!-- Generator: Adobe Illustrator 19.1.0, SVG Export Plug-In . SVG Version: 6.00 Build 0)  -->
<svg version="1.1" id="Layer_1" xmlns="http://www.w3.org/2000/svg" xmlns:xlink="http://www.w3.org/1999/xlink" x="0px" y="0px"
	 viewBox="0 0 262 209.9" enable-background="new 0 0 262 209.9" xml:space="preserve">
<g id="Layer_8">
	<path fill="#FFFFFF" d="M86.6,89.5v6h83.7v-6h21.5v6h14.3c9.6,0,17.5-6.8,19.1-15.9V45.3h-62.6V30.1c0-2-1.6-3.6-3.6-3.6h-55
		c-2,0-3.6,1.6-3.6,3.6v15.1h-63v37.5c2.8,7.6,10,12.8,18.3,12.8H65v-6L86.6,89.5L86.6,89.5z M107.7,33.3h47.8v11.6h-47.8V33.3z
		 M192.1,115V99.9h14.3c7.6,0,14.7-3.6,19.1-9.2v84.9H37.5V91.5c4.4,5.2,10.8,8.4,18.3,8.4H65V115h21.5V99.9h83.7V115H192.1z"/>
</g>
</svg>
