<?xml version="1.0" encoding="utf-8"?>
<!-- Generator: Adobe Illustrator 19.1.0, SVG Export Plug-In . SVG Version: 6.00 Build 0)  -->
<svg version="1.1" id="Layer_1" xmlns="http://www.w3.org/2000/svg" xmlns:xlink="http://www.w3.org/1999/xlink" x="0px" y="0px"
	 viewBox="0 0 670.2 560" style="enable-background:new 0 0 670.2 560;" xml:space="preserve">
<style type="text/css">
	.st0{display:none;}
	.st1{fill:#FFFEFD;}
</style>
<path class="st0" d="M461.6,281.5c-6.2,19.3-8.5,25.5-11.8,61.4c-1.3,13.4-3.6,40.7-2.5,65.2l8.7,45.2c0.6,2.4,1.3,5.1,1.9,8
	c3.2,4.6,21.8,32.2,38.9,80.7c84.5-37.5,154.3-81.4,154.3-81.4c-48.2,5.9-113.2-140.3-159.9-266l-5.1-4.6
	C479.9,248.9,464.2,273.4,461.6,281.5z"/>
<path class="st0" d="M150.7,460.8l-0.4-0.2l8.2-52.9l0,0c2.1-27.7,3.1-58.2,2.6-65.4c-3.6-51-5.9-52.6-8.5-65
	c-2.6-11.4-19.6-38.9-23.5-93.8l-2.6,2.6C81.1,315.5,16.1,470.7-32.3,460.6c0,0,66.2,41.3,146.5,78
	C129,496.7,144.7,470.1,150.7,460.8C150.7,460.8,150.7,460.8,150.7,460.8z"/>
<path class="st0" d="M249.8,27.6c0,0.1-3.4,9.8-12.8,16.7c0-0.1,0-0.1-0.1-0.1c-0.2-0.3-0.3-0.5-0.5-0.8c0,0.4,0.1,0.8,0.1,1.2
	c-1.4,1-3,2-4.8,2.8c-6.1,2.9-13.9,4.5-24,2.8c-11.3-1.9-17.9-7.7-21.9-13.8c-3.5,0.5-7.3,1.2-11.8,2c3.9-12.9,6-20.4,6-20.4l0.1,0
	c0.1,0,0.2,0,0.3,0c0.1,0,0.3,0,0.5,0.1l0.6,0.1c0.2,0,0.5,0.1,0.8,0.1C190.5,19.6,219.8,23.9,249.8,27.6z"/>
<path class="st0" d="M439,42.4c-1.8-0.6-3.6-1.1-5.6-1.7c-1.6-0.4-3.5-1.4-7.7-2.5c-3.9,5.9-10.4,11.5-21.2,13.5
	c-2.6,0.5-5,0.7-7.3,0.8c-0.5,0-0.9,0-1.4,0c-1.2,0-2.5-0.1-3.6-0.3c-3.2-0.4-6-1.2-8.5-2.3c-10.9-4.9-15.8-15.3-17.6-20.4
	c-0.3-0.9-0.6-1.6-0.7-2.2c-0.1-0.5-0.2-0.7-0.2-0.7l66.4-7.6c0,0,0,0.1,0,0.1c0.1,0,0.2,0,0.2,0S434.4,27.8,439,42.4z"/>
<path class="st1" d="M216.9,19.7c0,0-116.7,412.1-190.4,396.8c0,0,191.9,119.8,304,119.8c118.2,0,308.6-119.8,308.6-119.8
	c-75.2,9.2-196.5-395.7-196.5-395.7s-75.4,14-106.9,13C304.6,32.8,216.9,19.7,216.9,19.7z"/>
</svg>
