<?xml version="1.0" encoding="utf-8"?>
<!-- Generator: Adobe Illustrator 18.1.1, SVG Export Plug-In . SVG Version: 6.00 Build 0)  -->
<svg version="1.1" id="Arrow_1_" xmlns="http://www.w3.org/2000/svg" xmlns:xlink="http://www.w3.org/1999/xlink" x="0px" y="0px"
	 viewBox="0 85.9 200 114.1" enable-background="new 0 85.9 200 114.1" xml:space="preserve">
<path fill="#FFFFFF" d="M189.4,176.9c0,2.6-0.5,5.2-0.8,6v8.8c0,1.3-1,2.6-2.3,2.9c-0.5,0-10.1,1.8-29.4,1.8
	c-15.1,0-22.6-2.6-28.8-4.9l-1.3,3.4c-0.5,1-1.3,1.8-2.6,1.8h-13c-1.3,0-2.3-0.8-2.6-2.1l-2.6-9.9c0,0,0-0.3,0-0.5
	c0-0.3,0-0.3,0-0.3v-8.3c-0.3-1.3-1-5.2-1-10.9c0-29.1,1-59,1-59.2c0-1,0.5-1.8,1.6-2.3c0.3-0.3,6.5-3.6,14.8-5.2l0.8-5.7
	c0.3-1.3,1.3-2.3,2.6-2.3h7.8c1.6,0,2.9,1.3,2.6,2.9v4.9c9.4,1.3,15.3,5.2,15.6,5.5c0.8,0.5,1.3,1.8,1.3,2.9
	c0,0.3-4.4,31.4-4.4,41.8c0,1.6,0,2.9,0.3,3.9v0.3c0.5,5.2,2.3,6.8,9.1,9.9c1,0.5,2.1,1,3.1,1.6c5.7,2.9,7.8,3.9,16.6,3.4
	c4.4-0.3,7.5,0.5,9.6,2.6C188.3,170.7,189.4,173.5,189.4,176.9z"/>
<path fill="#FFFFFF" d="M12.9,168.9c2.1-2.1,5.2-2.9,9.6-2.6c8.8,0.5,10.9-0.5,16.6-3.4c0.8-0.5,1.8-1,3.1-1.6
	c6.5-3.1,8.6-4.7,9.1-9.9v-0.3c0-1,0.3-2.3,0.3-3.9c0-10.4-4.4-41.6-4.4-41.8c-0.3-1,0.3-2.3,1.3-2.9c0.3-0.3,6.2-4.2,15.6-5.5v-4.9
	c0-1.6,1.3-2.9,2.6-2.9h7.8c1.3,0,2.6,1,2.6,2.3l0.8,5.7c8.6,1.6,14.5,4.9,14.8,5.2c0.8,0.5,1.3,1.3,1.6,2.3c0,0.3,1,30.4,1,59.2
	c0,5.7-0.8,9.9-1,10.9v8.3v0.3c0,0,0,0.3,0,0.5l-2.6,9.9c-0.3,1.3-1.3,2.1-2.6,2.1H76c-1,0-2.1-0.8-2.6-1.8l-1.3-3.4
	c-6.2,2.3-13.8,4.9-28.8,4.9c-19.2,0-29.1-1.8-29.4-1.8c-1.3-0.3-2.3-1.6-2.3-2.9v-8.8c-0.3-1-0.8-3.4-0.8-6
	C10.3,173.5,11.1,170.7,12.9,168.9z"/>
</svg>
