<?xml version="1.0" encoding="utf-8"?>
<!-- Generator: Adobe Illustrator 18.1.1, SVG Export Plug-In . SVG Version: 6.00 Build 0)  -->
<svg version="1.1" id="Arrow_1_" xmlns="http://www.w3.org/2000/svg" xmlns:xlink="http://www.w3.org/1999/xlink" x="0px" y="0px"
	 viewBox="-229 31 500 500" enable-background="new -229 31 500 500" xml:space="preserve">
<path fill="#FFFFFF" d="M231.5,434.9c0,12.7-2.6,24.7-3.7,29.2v43.5c0,6.7-4.9,12.5-11.6,13.7c-2,0.4-51.6,8.8-150.3,8.8
	c-76.6,0-115.1-12.3-146.9-24.3l-6.7,16.5c-2.1,5.3-7.2,8.7-12.9,8.7h-66.8c-6.3,0-11.8-4.1-13.5-10.2l-13.1-47.6
	c-0.1-0.6,0-1.3-0.1-1.9c-0.1-0.6-0.4-1.2-0.4-1.8v-41.1c-1.4-5.8-5.3-25.1-5.3-53.5c0-141.1,5.3-266.7,5.3-268
	c0.2-4.9,3-9.4,7.3-11.7c1.7-0.9,32.6-17.3,75.9-24.8l4.3-27.6c1.1-6.8,6.9-11.8,13.8-11.8h39.3c7.7,0,14,6.3,13.8,14v23.8
	c47.4,6.4,77.9,25.9,79.4,26.9c4.6,3.1,7.1,8.6,6.1,14.1c-0.2,1.3-23,132.1-23,182.4c0,7.3,0.2,13.6,0.7,19c0.1,0.4,0.1,0.9,0.1,1.3
	c2.5,24.8,12.3,32.6,45.8,47.7c5.6,2.5,10.7,4.9,15.3,7c29.1,13.6,40,18.6,84.6,16.1c22.1-1.3,38,3,48.6,13
	C226.8,405.1,231.5,418.1,231.5,434.9z"/>
</svg>
