<?xml version="1.0" encoding="utf-8"?>
<!-- Generator: Adobe Illustrator 19.1.0, SVG Export Plug-In . SVG Version: 6.00 Build 0)  -->
<svg version="1.1" id="Layer_1" xmlns="http://www.w3.org/2000/svg" xmlns:xlink="http://www.w3.org/1999/xlink" x="0px" y="0px"
	 viewBox="0 0 345 560" style="enable-background:new 0 0 345 560;" xml:space="preserve">
<style type="text/css">
	.st0{fill:#FFFFFF;}
</style>
<path class="st0" d="M320.7,449.3c-10.4-85.6-30.7-167-72.3-242.8c1.8-30.1,26.4-65.7,19.3-101.5c1.3,1.4,2.9,3.1,4.8,5
	c1.5,1.5,3.7,1.7,5.3,0.4c7.3-5.6,26.4-20.5,33.4-28.1c1.2-1.3,1.9-3.2,1.9-5.1C312.9,62,306,15.1,232,15.1c-2-0.7-3.6,2-2.1,3.6
	c12,13.7,16.2,29.3,17.7,41.4c-0.9,0.1-1.9,0-2.8-0.3c-21.2-7.2-49.8-10.8-69.3,9.5c-0.6,0.7-1.4,1.1-2.3,1.3c-0.6,0-1.1,0-1.7,0
	c-0.6,0-1.2,0-1.9,0c-0.9-0.3-1.7-0.7-2.4-1.3c-19.5-20.3-48-16.8-69.3-9.5c-0.8,0.3-1.7,0.4-2.6,0.3c1.5-12.1,5.7-27.6,17.7-41.3
	c1.5-1.6-0.1-4.2-2.1-3.6c-73.9,0-83.9,47.9-84.1,63c0,1.9,0.7,3.7,1.9,5.1c6.9,7.5,25.5,22,33,27.8c1.9,1.4,4.4,1.2,6.1-0.5
	c2.8-2.8,5-5.1,6.6-6.9c-8.5,37.8,17.1,74.8,16.2,106C52.5,283.5,34.1,367,24.3,449.4c-2.4,20.6-4.2,42.5,5,61.2
	c7.3,14.7,21.2,25.7,37,30.7c11.1,3.5,23.1,4,34.4,2c1.9-0.3,19.9-7.5,26.6-11.5c1.8-1,4.1-0.9,5.7,0.3c11,8.3,24.5,13,38.6,13
	c0.2,0,0.5,0,0.7,0c0.2,0,0.5,0,0.7,0c14.2,0,27.5-4.7,38.6-13c1.7-1.3,4-1.4,5.7-0.3c6.6,4,24.7,11.1,26.6,11.5
	c11.4,1.9,23.4,1.4,34.4-2c15.6-4.9,29.6-16,37-30.7C324.9,492,323.1,469.9,320.7,449.3z"/>
</svg>
