<?xml version="1.0" encoding="utf-8"?>
<!-- Generator: Adobe Illustrator 19.1.0, SVG Export Plug-In . SVG Version: 6.00 Build 0)  -->
<svg version="1.1" id="Layer_1" xmlns="http://www.w3.org/2000/svg" xmlns:xlink="http://www.w3.org/1999/xlink" x="0px" y="0px"
	 viewBox="0 0 632.2 742.3" style="enable-background:new 0 0 632.2 742.3;" xml:space="preserve">
<style type="text/css">
	.st0{display:none;}
	.st1{display:inline;fill:none;}
	.st2{display:inline;fill:#DD3858;}
	.st3{display:inline;fill:#FFDFBE;}
	.st4{fill:#FFFFFF;}
</style>
<g class="st0">
	<polygon class="st1" points="449.8,130.7 449.8,130.7 449.8,130.7 	"/>
	<path class="st1" d="M449.8,130.7C449.8,130.7,449.8,130.7,449.8,130.7C449.8,130.7,449.8,130.7,449.8,130.7
		C449.8,130.7,449.8,130.7,449.8,130.7L449.8,130.7z"/>
	<polygon class="st1" points="450.1,130.5 450.1,130.5 450.1,130.5 	"/>
	<path class="st1" d="M449.5,131C449.5,131,449.5,131,449.5,131C449.5,131,449.5,131,449.5,131C449.5,131,449.5,131,449.5,131
		C449.5,131,449.5,131,449.5,131z"/>
	<path class="st1" d="M449.8,131.3C449.8,131.3,449.8,131.3,449.8,131.3L449.8,131.3C449.8,131.3,449.8,131.2,449.8,131.3
		C449.8,131.2,449.8,131.2,449.8,131.3z"/>
	<path class="st1" d="M449.5,130.7C449.5,130.7,449.5,130.8,449.5,130.7L449.5,130.7C449.5,130.7,449.5,130.7,449.5,130.7z"/>
	<polygon class="st1" points="449.5,131 449.5,131 449.5,131 	"/>
	<rect x="449.5" y="131" class="st1" width="0" height="0"/>
	<path class="st1" d="M449.5,131C449.5,131,449.5,131,449.5,131C449.5,131,449.5,131,449.5,131C449.5,131,449.5,131,449.5,131
		C449.5,131,449.5,131,449.5,131C449.5,131,449.5,131,449.5,131C449.5,131,449.5,131,449.5,131z"/>
	<path class="st1" d="M449.5,131.8C449.5,131.8,449.5,131.8,449.5,131.8C449.5,131.8,449.5,131.8,449.5,131.8c0-0.1,0-0.1-0.1-0.1
		c0,0,0,0,0,0c0,0,0,0,0,0v0C449.5,131.7,449.5,131.8,449.5,131.8C449.5,131.8,449.5,131.8,449.5,131.8z"/>
	<path class="st1" d="M449.9,131.3C449.9,131.3,449.9,131.3,449.9,131.3C449.9,131.3,449.9,131.3,449.9,131.3z"/>
	<path class="st1" d="M409.1,73.6c-0.4-0.3-0.7-0.6-1-0.9C408.3,72.9,408.7,73.2,409.1,73.6z"/>
	<path class="st1" d="M455.5,123.2C455.5,123.2,455.5,123.2,455.5,123.2C455.5,123.2,455.5,123.2,455.5,123.2
		C455.5,123.2,455.5,123.2,455.5,123.2C455.5,123.2,455.5,123.2,455.5,123.2z"/>
	<polygon class="st1" points="450.5,129.8 450.5,129.8 450.5,129.8 	"/>
	<polygon class="st1" points="450.4,130.3 450.4,130.3 450.4,130.3 	"/>
	<path class="st2" d="M450.5,129.5L450.5,129.5C450.5,129.5,450.5,129.5,450.5,129.5C450.5,129.5,450.5,129.5,450.5,129.5z"/>
	<path class="st2" d="M451.2,129.3L451.2,129.3C451.2,129.3,451.2,129.3,451.2,129.3C451.2,129.3,451.2,129.3,451.2,129.3
		C451.2,129.3,451.2,129.3,451.2,129.3L451.2,129.3L451.2,129.3z"/>
	<path class="st2" d="M449.5,130.9L449.5,130.9C449.5,130.9,449.5,130.9,449.5,130.9C449.5,130.9,449.5,130.9,449.5,130.9z"/>
	<polygon class="st2" points="449.5,131 449.5,131 449.5,131 	"/>
	<polygon class="st2" points="449.5,131 449.5,131 449.5,131 	"/>
	<path class="st2" d="M450.5,129.3L450.5,129.3C450.5,129.3,450.5,129.3,450.5,129.3L450.5,129.3z"/>
	<path class="st2" d="M450.5,129.3C450.5,129.3,450.5,129.3,450.5,129.3C450.5,129.4,450.5,129.4,450.5,129.3L450.5,129.3
		L450.5,129.3z"/>
	<path class="st3" d="M450.9,129.3C450.9,129.3,450.9,129.3,450.9,129.3L450.9,129.3C450.9,129.3,450.9,129.3,450.9,129.3z"/>
	<path class="st3" d="M450.2,130.7c0,0-0.1,0.1-0.1,0.1c0,0,0-0.1,0-0.1C450.1,130.7,450.2,130.7,450.2,130.7z"/>
	<path class="st2" d="M451.2,129.3C451.2,129.3,451.2,129.4,451.2,129.3L451.2,129.3C451.2,129.3,451.2,129.3,451.2,129.3
		L451.2,129.3z"/>
	<path class="st2" d="M449.5,131.4C449.5,131.4,449.5,131.4,449.5,131.4C449.5,131.4,449.5,131.4,449.5,131.4
		C449.5,131.4,449.5,131.4,449.5,131.4z"/>
	<polygon class="st2" points="449.5,130.7 449.5,130.7 449.5,130.7 	"/>
	<path class="st2" d="M449.5,131.6C449.5,131.6,449.4,131.6,449.5,131.6C449.4,131.6,449.4,131.6,449.5,131.6L449.5,131.6z"/>
	<path class="st2" d="M449.5,131.3L449.5,131.3L449.5,131.3L449.5,131.3z"/>
	<rect x="450.4" y="130.3" class="st2" width="0" height="0"/>
	<path class="st2" d="M450.5,130.5L450.5,130.5C450.5,130.5,450.5,130.5,450.5,130.5C450.4,130.5,450.5,130.5,450.5,130.5
		L450.5,130.5z"/>
	<path class="st2" d="M449.4,131.3L449.4,131.3C449.3,131.3,449.3,131.3,449.4,131.3L449.4,131.3
		C449.3,131.3,449.3,131.3,449.4,131.3z"/>
	<path class="st2" d="M449.5,131.1C449.5,131.1,449.5,131.1,449.5,131.1C449.5,131.1,449.5,131,449.5,131.1
		C449.5,131,449.5,131,449.5,131.1C449.4,131.1,449.5,131.1,449.5,131.1z"/>
	<path class="st2" d="M449.5,131.6L449.5,131.6C449.5,131.7,449.5,131.7,449.5,131.6C449.5,131.6,449.5,131.6,449.5,131.6z"/>
	<path class="st2" d="M449.6,130.3C449.6,130.3,449.6,130.3,449.6,130.3l-0.2,0L449.6,130.3z"/>
	<path class="st2" d="M450.5,129.8C450.5,129.8,450.5,129.8,450.5,129.8L450.5,129.8L450.5,129.8z"/>
	<path class="st3" d="M449.8,130.7C449.8,130.7,449.8,130.7,449.8,130.7C449.8,130.7,449.8,130.7,449.8,130.7L449.8,130.7
		L449.8,130.7C449.8,130.7,449.8,130.7,449.8,130.7z"/>
	<path class="st3" d="M449.4,131.6L449.4,131.6C449.4,131.6,449.4,131.6,449.4,131.6L449.4,131.6L449.4,131.6z M449.4,131.6
		L449.4,131.6C449.4,131.6,449.4,131.6,449.4,131.6L449.4,131.6L449.4,131.6z"/>
	<path class="st3" d="M449.3,131.3L449.3,131.3C449.3,131.3,449.3,131.3,449.3,131.3L449.3,131.3
		C449.3,131.3,449.3,131.3,449.3,131.3z M449.4,131.6L449.4,131.6C449.4,131.6,449.4,131.6,449.4,131.6L449.4,131.6L449.4,131.6z
		 M449.4,131.6C449.5,131.7,449.5,131.7,449.4,131.6L449.4,131.6C449.5,131.6,449.5,131.6,449.4,131.6z M449.5,131.8
		C449.5,131.8,449.5,131.7,449.5,131.8L449.5,131.8C449.5,131.7,449.4,131.7,449.5,131.8C449.4,131.7,449.4,131.7,449.5,131.8
		C449.4,131.7,449.4,131.8,449.5,131.8C449.5,131.8,449.5,131.8,449.5,131.8C449.5,131.8,449.5,131.8,449.5,131.8
		C449.5,131.8,449.5,131.8,449.5,131.8z M449.5,130.7L449.5,130.7C449.5,130.8,449.5,130.7,449.5,130.7
		C449.5,130.7,449.5,130.7,449.5,130.7z M449.5,131.3L449.5,131.3L449.5,131.3L449.5,131.3z M449.5,130.3h0.1c0,0,0,0,0,0
		L449.5,130.3z M449.8,131.2C449.8,131.2,449.8,131.3,449.8,131.2L449.8,131.2C449.8,131.3,449.8,131.3,449.8,131.2
		C449.8,131.2,449.8,131.2,449.8,131.2z M449.8,130.7L449.8,130.7L449.8,130.7L449.8,130.7C449.8,130.7,449.8,130.7,449.8,130.7
		C449.8,130.7,449.8,130.7,449.8,130.7C449.8,130.7,449.8,130.7,449.8,130.7C449.8,130.7,449.8,130.7,449.8,130.7z M449.8,131.3
		C449.9,131.3,449.9,131.3,449.8,131.3C449.9,131.3,449.9,131.3,449.8,131.3z M450.1,130.7C450.1,130.8,450.1,130.8,450.1,130.7
		c0,0,0.1,0,0.1-0.1C450.2,130.7,450.1,130.7,450.1,130.7z M450.5,129.5C450.5,129.5,450.5,129.5,450.5,129.5L450.5,129.5
		C450.5,129.5,450.5,129.5,450.5,129.5z M450.5,130.5C450.5,130.5,450.4,130.5,450.5,130.5C450.5,130.5,450.5,130.5,450.5,130.5
		L450.5,130.5L450.5,130.5z M450.5,129.3L450.5,129.3C450.5,129.4,450.5,129.4,450.5,129.3C450.5,129.3,450.5,129.3,450.5,129.3
		L450.5,129.3z M450.9,129.3L450.9,129.3C450.9,129.3,450.9,129.3,450.9,129.3C450.9,129.3,450.9,129.3,450.9,129.3z M451.2,129.3
		C451.2,129.3,451.2,129.3,451.2,129.3L451.2,129.3C451.2,129.4,451.2,129.3,451.2,129.3L451.2,129.3z M451.2,129.3L451.2,129.3
		C451.2,129.3,451.2,129.3,451.2,129.3C451.2,129.3,451.2,129.3,451.2,129.3C451.2,129.3,451.2,129.3,451.2,129.3L451.2,129.3
		L451.2,129.3z M455.5,123.2C455.5,123.2,455.5,123.2,455.5,123.2C455.5,123.2,455.5,123.2,455.5,123.2
		C455.5,123.2,455.5,123.2,455.5,123.2C455.5,123.2,455.5,123.2,455.5,123.2z"/>
	<path class="st3" d="M456.2,119.2C456.2,119.2,456.2,119.2,456.2,119.2c-0.9-1.2-1.8-2.3-2.8-3.4c0,0,0,0,0,0
		c-0.1-0.1-0.1-0.1-0.2-0.2c-4-4.3-8.3-9-13.1-13.6c0,0,0-0.1-0.1-0.1c-1.6-1.6-3.3-3.1-4.9-4.7c-1.7-1.6-3.3-3.1-5-4.6
		c-0.5-0.5-1.1-1-1.6-1.5c-0.5-0.5-1.1-1-1.6-1.5c-5.7-5.2-10.9-9.8-14.7-13.1c-0.4-0.3-0.7-0.6-1.1-0.9c-0.5-0.5-1-1-1.4-1.4
		c-0.1-0.1-0.2-0.1-0.3-0.1c-0.1,0-0.1,0-0.2,0c-0.1-0.1-0.2-0.2-0.3-0.7c0,0,0,0,0,0c-0.4,0-0.7-0.5-1-0.8
		c-0.1-0.1-0.2-0.1-0.3-0.2s-0.2-0.1-0.2-0.2c-2.7-2.4-4.9-4.2-7.9-5.8c-3.1-1.7-7-3.2-13-5c-2.2-0.6-5.2-3.1-25.2-3.1v0.9
		c-6.8-2.9-18.9-7.7-27-10.8V29.3l0,0c-1,0.6-7.5,2.8-14.9,2.9c-0.2,0-0.4,0-0.7,0h-2.4c-5,0-9.4-1-12-1.4v16.8
		c-4.7,1.1-15.4,5.4-22.1,8.2c-0.3,0.1-0.6,0.3-0.9,0.4c-1.2,0.5-2.2,0.9-3,1.3c-0.2,0.1-0.4,0.2-0.6,0.2c-0.2,0.1-0.3,0.1-0.5,0.2
		s-0.3,0.1-0.4,0.2c-0.3,0.1-0.4,0.2-0.5,0.2c0,0,0,0,0,0s0,0,0,0c0,0,0,0-0.1,0l-0.1,0.2l0.1-0.2l0,0l0,0l0,0h0v0c0,0,0,0,0,0
		c0,0,0,0,0,0h-0.1c-0.1,0-0.1-0.2-0.1-0.2c0,0,0,0,0,0s0,0-0.1,0c-0.2,0-0.5,0.1-1.1,0.2c-4.6,0-8,0-11,0
		c-6.9,0.1-10.9,0.6-19.4,2.2c-0.3,0.1-0.7,0.1-1.1,0.2c-1.2,0.2-2.3,0.5-3.4,0.7c-1.1,0.3-2.1,0.5-3.1,0.8c-1,0.3-2,0.6-2.9,1
		c-0.7,0.3-1.4,0.5-2,0.8c-0.7,0.3-1.3,0.6-1.9,0.9c-3.7,1.8-6.8,4-9.3,6.6c-1.2,1.3-4,4-7.6,7.6c-0.2,0.2-0.4,0.4-0.6,0.6
		c-0.2,0.2-0.4,0.4-0.6,0.6c-0.2,0.2-0.4,0.4-0.6,0.6c-0.2,0.2-0.4,0.4-0.7,0.7c-0.9,0.9-1.8,1.8-2.8,2.8c-1.4,1.4-2.9,2.9-4.4,4.5
		c-3.8,3.9-7.8,8.1-11.7,12.4c-2.5,2.7-4.9,5.4-7.3,8.1c-2.3,2.7-4.5,5.3-6.5,7.8l-1.9,2.7c-0.5,0.8-3.4,4.4-3.4,4.4
		c-20.1,22.4-36.4,44.4-41.5,44.4c-0.4,0-0.7-0.1-0.9-0.4c-5.1-2.1-39.9-24.7-59.9-40.9v0l-11,24.6l-0.1,0
		c48.3,51,65.2,50.2,68.2,50.3c14.1,0.7,64.1-34.1,83-55.2l19.2-17.8l10.9,0l20.4-18.5l11.3,19.5l1-1h27.9c-0.2,0-0.3,0-0.5,0
		c0,0-0.1,0-0.2,0c-0.1,0-0.2,0.1-0.3,0.1c0,0-0.1,0-0.2,0.1c-0.1,0-0.2,0.1-0.4,0.2c0,0-0.1,0-0.1,0.1c-0.2,0.1-0.3,0.2-0.4,0.3
		c-0.1,0.1-0.2,0.1-0.2,0.2c0,0-0.1,0.1-0.2,0.1c-0.2,0.2-0.5,0.4-0.7,0.6L401.8,120c0,0,0.1,0.2,0.2,0.3c0.1,0.1,0.2,0.2,0.2,0.3
		c0.1,0.1,0.2,0.3,0.3,0.4c0,0,0.1,0.1,0.1,0.1c0,0,0.1,0.1,0.1,0.1c0.1,0.2,0.3,0.4,0.4,0.6c0.2,0.3,0.5,0.6,0.8,1
		c0.1,0.1,0.2,0.2,0.3,0.4c0.2,0.2,0.4,0.5,0.6,0.8c0.5,0.7,1.1,1.4,1.7,2.2c0.2,0.3,0.5,0.6,0.8,1c0.1,0.2,0.3,0.3,0.4,0.5
		c0.4,0.5,0.8,1,1.2,1.5c0.3,0.3,0.5,0.7,0.8,1c1,1.3,2.1,2.6,3.1,3.9c0.7,0.9,1.3,1.7,2,2.5c1,1.2,1.8,2.3,2.6,3.3
		c0.4,0.5,0.8,1,1.1,1.4c0.1,0.1,0.2,0.2,0.2,0.3c0.2,0.2,0.3,0.4,0.4,0.5c0.2,0.3,0.4,0.5,0.5,0.7c0.1,0.2,0.2,0.3,0.3,0.4
		c0.1,0.1,0.1,0.1,0.1,0.1c0.8,1.1,1.7,2.4,2.7,3.6c17.3,21.7,66.3,58.9,80.4,58.6c3,0.1,19.7,1.4,69.2-47.9l-9.8-24.9
		c-20.4,15.5-55.7,37.1-60.8,39c-3.7,3.5-21-22-42-47.3L456.2,119.2z M408.1,72.7c0.3,0.3,0.6,0.6,1,0.9
		C408.7,73.2,408.3,72.9,408.1,72.7z M449.8,130.7L449.8,130.7L449.8,130.7L449.8,130.7C449.8,130.7,449.8,130.7,449.8,130.7
		C449.8,130.7,449.8,130.7,449.8,130.7C449.8,130.7,449.8,130.7,449.8,130.7C449.8,130.7,449.8,130.7,449.8,130.7z M449.5,131.6
		L449.5,131.6C449.4,131.6,449.4,131.6,449.5,131.6L449.5,131.6L449.5,131.6z M449.5,131.6L449.5,131.6
		C449.5,131.7,449.5,131.7,449.5,131.6C449.5,131.6,449.5,131.6,449.5,131.6z M449.3,131.3C449.3,131.3,449.3,131.3,449.3,131.3
		L449.3,131.3C449.3,131.3,449.3,131.3,449.3,131.3L449.3,131.3z M449.5,131.8C449.5,131.8,449.5,131.8,449.5,131.8
		C449.5,131.8,449.5,131.8,449.5,131.8c0-0.1,0-0.1-0.1-0.1c0,0,0,0,0,0c0,0,0,0,0,0v0C449.5,131.7,449.5,131.8,449.5,131.8
		C449.5,131.8,449.5,131.8,449.5,131.8z M449.5,130.8L449.5,130.8C449.5,130.7,449.5,130.7,449.5,130.8
		C449.5,130.7,449.5,130.8,449.5,130.8z M449.5,131.3L449.5,131.3L449.5,131.3L449.5,131.3z M449.6,130.3h-0.1H449.6
		C449.6,130.3,449.6,130.3,449.6,130.3z M449.8,131.3L449.8,131.3C449.8,131.3,449.8,131.2,449.8,131.3
		C449.8,131.2,449.8,131.2,449.8,131.3C449.8,131.3,449.8,131.3,449.8,131.3z M449.8,131.3C449.9,131.3,449.9,131.3,449.8,131.3
		C449.9,131.3,449.9,131.3,449.8,131.3z M450.1,130.8C450.1,130.8,450.1,130.8,450.1,130.8c0-0.1,0.1-0.1,0.1-0.1
		C450.2,130.7,450.1,130.8,450.1,130.8z M450.5,130.5C450.5,130.5,450.5,130.5,450.5,130.5C450.4,130.5,450.5,130.5,450.5,130.5
		L450.5,130.5L450.5,130.5z M450.5,129.5C450.5,129.5,450.5,129.5,450.5,129.5C450.5,129.5,450.5,129.5,450.5,129.5L450.5,129.5z
		 M450.5,129.4C450.5,129.4,450.5,129.4,450.5,129.4L450.5,129.4L450.5,129.4C450.5,129.3,450.5,129.3,450.5,129.4z M450.9,129.3
		L450.9,129.3C450.9,129.3,450.9,129.3,450.9,129.3C450.9,129.3,450.9,129.3,450.9,129.3z M451.2,129.4L451.2,129.4
		C451.2,129.3,451.2,129.3,451.2,129.4L451.2,129.4C451.2,129.3,451.2,129.4,451.2,129.4z M451.2,129.3
		C451.2,129.3,451.2,129.3,451.2,129.3C451.2,129.3,451.2,129.3,451.2,129.3C451.2,129.3,451.2,129.3,451.2,129.3L451.2,129.3
		L451.2,129.3L451.2,129.3z M455.5,123.2C455.5,123.2,455.5,123.2,455.5,123.2C455.5,123.2,455.5,123.2,455.5,123.2
		C455.5,123.2,455.5,123.2,455.5,123.2C455.5,123.2,455.5,123.2,455.5,123.2z"/>
</g>
<g>
	<path class="st4" d="M550.3,627.6c-5.4-12.4-24.7-47.6-35.4-77.6c-10.7-30-25.7-90-38.6-118.9c-12.9-29-66.6-148.9-77.3-175.8
		c-10.7-26.9,12.9-91.5,12.9-91.5s4.5-15.5,4.6-19.7c1.5-12.1-8.5-32.1-11.1-35.2c1.4-1.3,2.1-3,2.7-5.2c0.5-1.8,0.7-2.8,0-3.9
		c1.5-1.6,3-3.2,3.5-5c8,1.9,6-2.5,19.5-5.1c13.8-3.6,2.2-4.4,5.2-11.5c3-7.1-2.1-8.3-5.1-13c-2.3-3.5-8,2-8,2
		c-23.8-6.3-8.7,13.1-18.2,8.8c-3.8-1.9-5.8,1.3-6,6.2c-5.3-0.3-8.3,2.7-9.5,7.3c-0.5,1.8-0.7,2.8,0,3.9c-1.5,1.6-3,3.2-3.5,5
		c-1.1-0.3-3-0.3-4.9,0.2l-0.5-0.2c-2.7-1-10.1-3-12.8,4.5c0,0-12.7-1-14.9,9.3c0,0-31.1-1-36.5,7.2c-6.4-8.3-36.4-7.2-36.4-7.2
		c-2.2-9.3-14.9-9.3-14.9-9.3c-2.7-7-8.6-5.1-10.2-4.4l0.2-0.2l-3.1,1.3c-2.3-1-5.1-1-6.5-0.6c-0.5-2-2.1-3.7-3.7-5.4
		c0.8-1.3,0.5-2.3-0.1-4.3c-1.3-5-5.5-8.1-11-7.7c-0.3-5.3-3.5-8.7-7.3-6.6c-9.8,4.8,3.4-14.7-16-8.3c0,0-6-5.9-8.3-2
		c-3,5.1-8.2,6.5-5,14.2c3.2,7.7-8.7,7.8,5.6,11.4c14,2.6,11,7.5,19.3,5.2c0.5,2,2.1,3.7,3.7,5.4c-0.8,1.3-0.5,2.3,0.1,4.3
		c0.9,3.2,2.9,5.4,5.6,6.7c-3.5,6.2-9,19.4-8.8,28.2c-0.4,5.9,2.7,21.7,2.7,21.7s23.7,66.6,12.9,93.5
		c-10.7,26.9-66.5,146.9-78.3,175.8c-12.9,29-27.9,88.9-38.6,118.9c-10.7,30-30,65.2-35.4,77.6s10.7,4.1,10.7,13.4
		s4.3,13.5,13.9,13.5c8.6,0,16.1,1,24.7,7.2c8.6,6.2,17.1,12.4,27.9,10.3c10.7-2.1,51.5,9.3,54.7,16.5c3.2,8.3,36.5,26.9,52.5,14.5
		c13.9-10.3,41.8-13.4,49.3-14.5c7.5,1,36.5,3.1,49.3,14.5c15,12.4,49.3-7.2,52.5-14.5c3.2-8.3,43.9-18.6,54.7-16.5
		c10.7,2.1,19.3-4.1,27.9-10.3c8.6-6.2,16.1-7.2,24.7-7.2c8.6,0,13.9-4.1,13.9-13.5S555.7,640.1,550.3,627.6z M223.7,97.2
		c-1.6-1.7-1.8-2.7-2.1-3.7c4.1-1.1,6.4-5,7.4-9.5c4.1-1.1,7,1.3,8.1,5.3c0.3,1,0.3,1,0.5,2c-2.3-0.4-4.7-0.9-6.7-0.3
		C227.8,91.8,225.2,94.6,223.7,97.2z M237.4,94.5c-0.5,2.3-2.3,3.8-5.4,4.7c-2.1,0.6-4.4,0.1-5.7-0.6c0.5-2.3,2.3-3.8,5.4-4.7
		C233.7,93.4,236.1,93.8,237.4,94.5z M240.9,103.2c0,0-3.6,3.1-7.2,6.2c-3.4-0.2-6.3-2.6-7.1-5.6c-0.3-1-0.3-1-0.5-2
		c2.3,0.4,4.7,0.9,6.7,0.3c3.1-0.8,5.7-3.7,7.2-6.2c0.3,1,1.6,1.7,3.2,3.4l0.3,1C241.6,102,240.9,103.2,240.9,103.2z M394.3,89.3
		c1-3.7,2.7-6,6.7-5c1,4.2,4.3,7.6,8.3,8.6c-0.2,0.9-0.5,1.8-2,3.4c-1.5-2.3-4-4.9-7.1-5.6c-2-0.5-4.3,0-6.5,0.4
		C394,90.2,394,90.2,394.3,89.3z M404.9,97.7c-1.2,0.7-3.5,1.1-5.5,0.6c-3-0.7-4.8-2.1-5.3-4.2c1.2-0.7,3.5-1.1,5.5-0.6
		C402.6,94.2,404.3,95.6,404.9,97.7z M388.3,99.6l0.2-0.9c1.5-1.6,2.7-2.3,3-3.2c1.5,2.3,4,4.9,7.1,5.6c2,0.5,4.3,0,6.5-0.4
		c-0.2,0.9-0.2,0.9-0.5,1.8c-0.7,2.8-3.5,5-6.7,5.2c-3.5-2.8-7.1-5.6-7.1-5.6S390.1,101,388.3,99.6z"/>
</g>
</svg>
