<?xml version="1.0" encoding="utf-8"?>
<!-- Generator: Adobe Illustrator 19.1.0, SVG Export Plug-In . SVG Version: 6.00 Build 0)  -->
<svg version="1.1" id="Layer_1" xmlns="http://www.w3.org/2000/svg" xmlns:xlink="http://www.w3.org/1999/xlink" x="0px" y="0px"
	 viewBox="0 0 505.9 560" enable-background="new 0 0 505.9 560" xml:space="preserve">
<g>
	<path d="M375.6,475.1c6-4.5,11.3-5.3,17.3-5.3c6,0,9.8-3,9.8-9.8c0-6.8,11.3-0.8,7.5-9.8c-3.8-9-17.3-34.6-24.8-56.4
		s-18.1-65.5-27.1-86.5S299.6,199,292.1,179.4c-7.5-19.6,9.8-54.2,9.8-54.2s6-33.1,6.8-36.9c0.8-1.5-0.8-3-3-4.5
		c2.3-1.5,3.8-3.8,3.8-6.8c0-1.5,0-2.3-0.8-3c0.8-1.5,1.5-3,1.5-4.5l0,0c6,0,3.8-3,12.8-7.5c9-5.3,0.8-3.8,1.5-9.8c0.8-6-3-6-6-9
		c-2.3-2.3-5.3,3-5.3,3c-14.3-0.8-2.3,11.3-9.8,9.8c-3-0.8-4.5,2.3-3.8,6c-3.8,0.8-6,3.8-6,7.5c0,1.5,0,2.3,0.8,3
		c-0.8,1.5-1.5,3-1.5,4.5l0,0c-1.5,0-3.8,0.8-4.5,3.8c0,0-5.3-3.8-7.5,3c0,0-7.5-0.8-9,6.8c0,0-21.8-0.8-25.6,5.3
		c-4.5-6-25.6-5.3-25.6-5.3c-1.5-6.8-9-6.8-9-6.8c-2.3-6-7.5-3-7.5-3c-0.8-3.8-3-4.5-4.5-3.8l0,0c0-1.5-0.8-3-1.5-4.5
		c0.8-0.8,0.8-2.3,0.8-3c0-3.8-3-6.8-6-7.5c0.8-3,0-6-3.8-6c-6.8,0.8,5.3-10.5-9.8-9.8c0,0-3-5.3-5.3-3c-2.3,2.3-6,3-6,9
		c0.8,6-7.5,4.5,1.5,9.8c8.3,5.3,6,7.5,12.8,7.5l0,0c0,1.5,0.8,3,1.5,4.5c-0.8,0.8-0.8,2.3-0.8,3c0,3,1.5,5.3,3.8,6.8
		c-1.5,1.5-3,3-3,4.5c0.8,3.8,6.8,36.9,6.8,36.9s17.3,34.6,9.8,54.2c-7.5,19.6-57.9,106.8-66.2,127.9c-9,21.1-19.6,64.7-27.1,86.5
		S86,441.2,82.2,450.3c-3.8,9,7.5,3,7.5,9.8c0,6.8,3,9.8,9.8,9.8c6,0,11.3,0.8,17.3,5.3s12,9,19.6,7.5s36.1,6.8,38.4,12
		c2.3,6,25.6,19.6,36.9,10.5c9.8-7.5,29.3-9.8,34.6-10.5c5.3,0.8,25.6,2.3,34.6,10.5c10.5,9,34.6-5.3,36.9-10.5
		c2.3-6,30.8-13.5,38.4-12C363.6,484.1,369.6,479.6,375.6,475.1z M301.9,63.5c1.5,3,3.8,5.3,6.8,5.3l0,0c0,0.8,0,1.5-0.8,3
		c-1.5-1.5-3.8-3-6-3c-1.5,0-3,0.8-4.5,1.5c0-0.8,0-0.8,0-1.5C297.4,65.8,298.9,63.5,301.9,63.5z M306.4,73.3
		c-0.8,0.8-2.3,1.5-3.8,1.5c-2.3,0-3.8-0.8-4.5-2.3c0.8-0.8,2.3-1.5,3.8-1.5C304.2,71.1,305.7,71.8,306.4,73.3z M296.6,74.1
		c1.5,1.5,3.8,3,6,3c1.5,0,3-0.8,4.5-1.5c0,0.8,0,0.8,0,1.5c0,2.3-1.5,4.5-3.8,5.3c-3-1.5-6-3-6-3s-0.8-0.8-2.3-1.5v-0.8
		C295.9,75.6,296.6,74.8,296.6,74.1z M183.8,68.8L183.8,68.8c3-0.8,6-3,6.8-5.3c3,0.8,4.5,3,4.5,5.3c0,0.8,0,0.8,0,1.5
		c-1.5-0.8-3-1.5-4.5-1.5c-2.3,0-4.5,1.5-6,3C184.5,70.3,183.8,69.6,183.8,68.8z M194.3,72.6c-0.8,1.5-3,2.3-4.5,2.3
		c-1.5,0-2.3-0.8-3.8-1.5c0.8-1.5,3-2.3,4.5-2.3C192,71.1,193.6,71.1,194.3,72.6z M196.6,77.8c-1.5,0.8-2.3,1.5-2.3,1.5s-3,1.5-6,3
		c-2.3-0.8-3.8-3-3.8-5.3c0-0.8,0-0.8,0-1.5c1.5,0.8,3,1.5,4.5,1.5c2.3,0,4.5-0.8,6-3c0.8,0.8,0.8,1.5,0.8,3
		C196.6,77.1,196.6,77.1,196.6,77.8z"/>
</g>
</svg>
