<?xml version="1.0" encoding="utf-8"?>
<!-- Generator: Adobe Illustrator 19.1.0, SVG Export Plug-In . SVG Version: 6.00 Build 0)  -->
<svg version="1.1" id="Layer_1" xmlns="http://www.w3.org/2000/svg" xmlns:xlink="http://www.w3.org/1999/xlink" x="0px" y="0px"
	 viewBox="0 0 408.3 280.2" style="enable-background:new 0 0 408.3 280.2;" xml:space="preserve">
<style type="text/css">
	.st0{fill:#FFFFFF;}
</style>
<path class="st0" d="M121,49.9c-6.1,5.3-11.6,11.2-16.5,17.7c-0.2,0.1-0.3,0.3-0.5,0.4c-15.2,20.1-25,45.1-25,72.3
	c0,66.3,54.5,119.5,119.5,119.5l0,0h1c66.3,0,120.7-54,120.7-120.3c0-26.5-8.9-50.5-23.4-70.4c-0.7-0.7-1.3-1.3-2-2
	c-7-9.1-15.3-17.2-24.6-23.9c-2.5-1.8-5-3.5-7.6-5.1c-2.3-1.4-4.6-2.8-7-4.1c-4.3-1.6-7.6-3-12.1-4.3c0.1-0.1,0.3-0.1,0.4-0.2
	c-13.6-5.3-25.2-8.9-45.2-8.9v-0.2c-25,0-41.9,5.8-58,15.1c-4.7,2.1-7.2,5.3-11.5,7.8L121,49.9z M273.4,180.2
	c0,12.1-9.8,21.9-21.9,21.9c-9.4,0-17.3-5.9-20.4-14.2c-10.6,5.4-22.6,8.5-35.4,8.5c-43.3,0-78.5-35.1-78.5-78.4
	c0-32.3,19.5-60,47.3-72c9.5-4.1,20-6.4,31.1-6.4c2.2,0,4.4,0.1,6.6,0.3c40.2,3.4,71.9,37,71.9,78.1c0,15.8-4.7,30.5-12.8,42.8
	C268.5,164.4,273.4,171.7,273.4,180.2z"/>
</svg>
