<?xml version="1.0" encoding="utf-8"?>
<!-- Generator: Adobe Illustrator 19.1.0, SVG Export Plug-In . SVG Version: 6.00 Build 0)  -->
<svg version="1.1" id="Layer_1" xmlns="http://www.w3.org/2000/svg" xmlns:xlink="http://www.w3.org/1999/xlink" x="0px" y="0px"
	 viewBox="0 0 131.7 75" style="enable-background:new 0 0 131.7 75;" xml:space="preserve">
<style type="text/css">
	.st0{fill:#FFFFFF;}
</style>
<path class="st0" d="M22.8,28.6c-1.6,2.1-2.5,4.8-2.5,7.6c0,7.1,5.8,12.9,12.9,12.9c7.1,0,12.9-5.8,12.9-12.9c0-2.9-1-5.6-2.6-7.8
	c-2.8-2.4-6.2-4.2-10.4-4.2C28.1,24.2,25.1,26.2,22.8,28.6z M42,33.8L42,33.8c0,4.7-3.8,8.4-8.4,8.4c-1.4,0-2.7-0.3-3.8-0.9
	c-0.3,0.9-1.2,1.5-2.2,1.5c-1.3,0-2.4-1.1-2.4-2.4c0-0.9,0.5-1.7,1.3-2.1c-0.9-1.3-1.4-2.9-1.4-4.6c0-4.7,3.8-8.4,8.4-8.4
	C38.3,25.3,42,29.1,42,33.8z"/>
<path class="st0" d="M96.1,24.2c-4.2,0-7.6,1.8-10.4,4.2c-1.6,2.2-2.6,4.8-2.6,7.8c0,7.1,5.8,12.9,12.9,12.9h0
	c7.1,0,12.9-5.8,12.9-12.9c0-2.8-0.9-5.5-2.5-7.6C104.1,26.2,101.1,24.2,96.1,24.2z M103.9,40.5c0,1.3-1.1,2.4-2.4,2.4
	c-1,0-1.9-0.6-2.2-1.5c-1.1,0.6-2.4,0.9-3.8,0.9c-4.7,0-8.4-3.8-8.4-8.4c0-4.7,3.8-8.4,8.4-8.4c4.7,0,8.4,3.8,8.4,8.4
	c0,1.7-0.5,3.3-1.4,4.6C103.4,38.7,103.9,39.5,103.9,40.5z"/>
</svg>
