<?xml version="1.0" encoding="utf-8"?>
<!-- Generator: Adobe Illustrator 19.1.0, SVG Export Plug-In . SVG Version: 6.00 Build 0)  -->
<svg version="1.1" id="レイヤー_1" xmlns="http://www.w3.org/2000/svg" xmlns:xlink="http://www.w3.org/1999/xlink" x="0px"
	 y="0px" viewBox="0.5 560.5 500 500" style="enable-background:new 0.5 560.5 500 500;" xml:space="preserve">
<style type="text/css">
	.st0{fill:#FFFFFF;}
</style>
<g>
	<g>
		<path class="st0" d="M433.9,907.3c-0.2,0.2-0.3,0.4-0.5,0.6c-3.8,9.7-10,17.9-18.2,22.9c-1.3,0.8-2.6,1.5-3.9,2.2
			c-10.8,5.9-21.6,14.7-32.4,24.6c-15.7,13.8-30.5,27.5-46.2,27.5c-9.8,0-19.6-5.9-29.5-17.7c-18.7-22.6-34.4-47.2-46.2-66.8
			c-4.9-8.8-9.8-15.7-13.8-22.6c3.9-4.9,7.9-10.8,10.8-16.7l7.9-15.7c1,0,1,1,2,1c0,0,30.5,4.9,59.9,15.7c6.9,2,13.8,5.9,20.6,8.8
			c6.9,2,11.8,6.9,16.7,9.8c4.9,3,6.9,7.9,8.8,9.8c2,3,2.9,3.9,2.9,3.9v1c0,0,1,1,2,0c0,0,1-1,0-2c0,0-1-2-3-4.9
			c-3-2-4.9-7.9-9.8-10.8c-4.9-2.9-9.8-8.8-16.7-11.8c-5.9-3-12.8-6.9-20.6-9.8c-27.5-11.8-57-17.7-59.9-18.7v-1
			c3.9-8.8,4.9-17.7,2-24.6c10.4-2.1,24.3-4.6,39.5-6c0.2,0.1,0.5,0.1,0.7,0.2c4.9,0,9.8-1,13.8-1c12.8,0,25.5,1,36.3,3.9
			c-1-0.7-2-1.4-3.1-2.1c-15-9.8-32.7-16.9-52.9-21.5c4.9-5.9,8.8-13.8,8.8-22.6c0-18.7-15.7-34.4-34.4-34.4
			c-10.8,0-19.6,4.9-26.5,12.8c-5.9-7.8-15.7-12.8-26.5-12.8c-18.7,0-34.4,15.7-34.4,34.4c0,8.8,3,16.7,8.8,22.6
			c-4.7,1.9-10.2,3.7-16.6,5.6c-0.3,0.1-0.7,0.2-1,0.3c7.6,5.7,13.3,10.4,16.4,13.4c-1.8,3.8-3.6,8.4-4.5,14v1
			c-10.8-4.9-23.6-9.8-37.3-13.8c-10.8-3-21.6-5.9-33.4-1c-2,1-4.9,2.9-6.9,5.9c-1,1-3,5.9-2,8.8c2,5.9,5.9,8.8,8.9,10.8
			c6.9,3.9,12.8,5.9,16.7,7.9c4.9,1,6.9,2,6.9,2c1,0,2,0,2-1c0,0,0-0.5-0.1-1s-0.4-1-0.9-1c0,0-2-1-5.9-3c-3.9-2-9.8-4.9-14.7-8.8
			c-3-2-4.9-4.9-4.9-6.9c0-1,0-1,2-2.9c1,0,3-1,3.9-2c5.9-2,15.7,1,24.6,3.9c14.7,5.9,28.5,13.8,40.3,20.6l-1,7.9
			c-1,9.8,0,20.6,3.9,26.5c-21.6,3-50.1,10.8-75.6,17.7c-6.7,1.9-13.3,3.7-19.5,5.3c-8.3,2.1-15.9,4-22.3,5.1
			c-2.5,12.9-3.4,25.7-3.4,38.6c0,1,0,2,1,3c3,68.8,60.9,69.8,82.5,69.8c12.8,0,27.5-1,43.2-2c17.7-1,35.4-3,55-3
			c19.7,0,37.3,1,55,3c15.7,1,29.5,2,43.2,2c21.6,0,79.6,0,82.5-68.8c0-1,1-2,1-3C435.9,931,434.9,917.1,433.9,907.3z M276.7,747.5
			c8.8,0,15.7,6.9,15.7,15.7c0,8.8-6.9,15.7-15.7,15.7c-8.8,0-15.7-6.9-15.7-15.7C261,755.4,268.8,747.5,276.7,747.5z M224.6,747.5
			c8.8,0,15.7,6.9,15.7,15.7c0,8.8-6.9,15.7-15.7,15.7c-8.8,0-15.7-6.9-15.7-15.7C208.9,755.4,215.8,747.5,224.6,747.5z M226.6,880
			c-4.9-1-10.8-2-12.8-3c-2,0-7.9-2-12.8-3c-4.9-1-7.9-12.8-6.9-26.5l2.9-28.5c0.5-6.4,2.4-11.7,5.2-15.4c6.2-1.6,12.9-2.8,19.8-3.6
			c5.9,1.3,10.9,2.5,12.3,3.2c2,1,10.8,3,19.6,4.9c8.8,2,11.8,13.8,3.9,26.5l-11.8,25.5C240.4,872.1,231.5,881,226.6,880z"/>
		<path class="st0" d="M76.3,898.5c6.9-1,13.8-3,22.6-4.9c-0.3,0.8-0.6,1.6-0.9,2.5c-8.3,2.1-15.9,4-22.3,5.1
			C75.9,900.3,76.1,899.4,76.3,898.5z"/>
		<path class="st0" d="M433.4,908c-3.8,9.7-10,17.9-18.2,22.9V929C422.9,925.2,427.7,915.7,433.4,908z"/>
	</g>
	<path class="st0" d="M403.4,803.4C403.4,802.4,403.4,802.4,403.4,803.4L403.4,803.4c0-1,0-1,0-2l0,0c0-9.8,7.9-18.7,18.7-18.7l0,0
		c9.8,0,18.7,7.9,18.7,18.7l0,0l0,0l0,0c0,1,0,1,0,2l0,0c0,10.8-8.8,18.7-18.7,18.7l0,0C411.3,822,403.4,813.2,403.4,803.4z
		 M398.5,759.2c-2-9.8,3.9-19.6,13.8-22.6l0,0c9.8-2,19.6,3.9,22.6,13.8l0,0c2,9.8-3.9,19.6-13.8,22.6l0,0c-1,0-2.9,1-3.9,1l0,0
		C407.4,773.9,400.5,768,398.5,759.2z M96,730.7c-8.8-4.9-12.8-15.7-8.8-24.6l0,0l0,0l0,0c4.9-8.8,15.7-12.8,24.6-8.8l0,0
		c8.8,4.9,12.8,15.7,8.8,24.6l0,0c-2.9,6.9-9.8,10.8-16.7,10.8l0,0C101.9,732.6,98.9,732.6,96,730.7z M383.8,719.9L383.8,719.9
		c-4.9-8.8-1-20.6,7.9-24.6l0,0c8.8-4.9,20.6-1,25.5,7.9l0,0l0,0l0,0c4.9,8.8,1,20.6-7.9,25.5l0,0c-2.9,1-5.9,2-8.8,2l0,0
		C393.6,730.7,386.7,726.7,383.8,719.9z M117.6,689.4c-7.9-6.9-8.8-18.7-2-26.5l0,0l0,0l0,0c6.9-7.9,18.7-8.8,26.5-2l0,0
		c7.9,6.9,8.8,18.7,2,26.5l0,0c-3.9,3.9-8.8,6.9-13.8,6.9l0,0C125.4,694.3,121.5,692.4,117.6,689.4z M360.2,685.5
		c-6.9-7.9-5.9-19.6,2-26.5l0,0c7.9-6.9,19.6-5.9,26.5,2l0,0c6.9,7.9,5.9,19.6-2,26.5l0,0c-3.9,2.9-7.9,4.9-11.8,4.9l0,0
		C369.1,692.4,364.2,689.4,360.2,685.5z M149,655c-5.9-8.8-3.9-19.6,4.9-25.5l0,0l0,0l0,0c8.8-5.9,19.6-3.9,25.5,4.9l0,0
		c5.9,8.8,3.9,19.6-4.9,25.5l0,0c-2.9,2-6.9,2.9-10.8,2.9l0,0C158.8,662.9,152,659.9,149,655z M328.8,659L328.8,659
		c-8.8-5.9-10.8-16.7-4.9-25.5l0,0c5.9-8.8,16.7-10.8,25.5-4.9l0,0c8.8,5.9,10.8,17.7,4.9,25.5l0,0c-3.9,5.9-9.8,8.8-15.7,8.8l0,0
		C335.7,661.9,331.7,660.9,328.8,659z M188.3,629.5c-2.9-9.8,2-20.6,11.8-23.6l0,0c9.8-2.9,20.6,2,23.6,11.8l0,0
		c2.9,9.8-2,20.6-11.8,23.6l0,0c-2,1-3.9,1-5.9,1l0,0C198.1,642.3,190.3,637.3,188.3,629.5z M292.4,641.3
		c-9.8-2.9-15.7-13.8-12.8-23.6l0,0c2.9-9.8,13.8-14.7,23.6-12.8l0,0c9.8,2.9,14.7,13.8,12.8,23.6l0,0c-2.9,7.9-9.8,12.8-17.7,12.8
		l0,0C295.4,642.3,293.4,641.3,292.4,641.3z M232.5,616.7c0-9.8,7.9-18.7,18.7-18.7l0,0c10.8,0,18.7,7.9,18.7,18.7l0,0
		c0,9.8-7.9,18.7-18.7,18.7l0,0l0,0l0,0C241.4,635.4,233.5,627.5,232.5,616.7z"/>
	<g>
		<g>
			<path class="st0" d="M212.4,804.2c0.4,0,0.8,0,1.1,0.1c2.5,0.6,5,1.1,7.4,1.7c8.4,1.9,10.5,2.6,11,2.8c2.4,1.2,8.3,2.6,21,5.4
				c1.5,0.3,2.5,1.2,3.1,2.7c1.2,2.8,1,8.2-3,14.8l-0.2,0.3l-0.2,0.3l-11.8,25.5c-5.3,10.5-11.5,15.7-13.4,16.3
				c-0.8-0.2-1.7-0.3-2.6-0.5c-2.7-0.5-7.2-1.4-8.4-1.9l-1.2-0.6H214c-0.8-0.1-3.1-0.7-4.8-1.1c-2-0.5-4.2-1.1-6.3-1.6
				c-1.4-1.8-3.5-9.2-2.7-20.3l2.9-28.4l0-0.1l0-0.1c0.4-5,1.8-9.3,4-12.2C208.3,805.9,210.1,804.2,212.4,804.2 M212.4,798.2
				c-3.8,0-7.3,2-10,5.5c-2.8,3.7-4.8,9-5.2,15.4l-2.9,28.5c-1,13.8,2,25.5,6.9,26.5c4.9,1,10.8,3,12.8,3c2,1,7.9,2,12.8,3
				c0.2,0,0.5,0.1,0.8,0.1c5,0,13.3-8.5,18.9-19.7l11.8-25.5c7.9-12.8,4.9-24.6-3.9-26.5c-8.8-2-17.7-3.9-19.6-4.9
				c-1.4-0.7-6.3-1.9-12.3-3.2c-2.4-0.5-4.9-1.1-7.4-1.7C214,798.3,213.2,798.2,212.4,798.2L212.4,798.2z"/>
		</g>
	</g>
	<g>
		<path class="st0" d="M92,749.5c16.5,0,47.4,17,84.7,46.7c4.8,3.8,8.9,7.2,12.1,9.9c-0.8,1.9-1.4,3.7-2,5.6
			c-10.2-4.3-20.9-8.1-31.3-11l0,0l0,0c-6.9-1.9-14-3.8-21.6-3.8c-5.5,0-10.6,1-15.6,3.1l-0.2,0.1l-0.2,0.1c-2.1,1.1-6.1,3.5-9,7.7
			c-2.3,2.9-4.5,9.5-2.9,14.3c2.8,8.3,8.7,12.2,11.2,13.9l0.2,0.1l0.2,0.1c4.8,2.7,9,4.5,12.5,6c1.8,0.8,3.3,1.4,4.5,2l0.7,0.4
			l0.8,0.2c3.4,0.7,5.1,1.3,5.4,1.5l1.1,0.6h1.5c7.7,0,8-6.3,8-7c0-0.4,0-1.3-0.3-2.4c-0.6-2.6-2.4-4.5-4.6-5.2
			c-0.9-0.4-2.6-1.3-5.3-2.7l-0.1,0c-3.7-1.8-9.2-4.6-13.6-8.1l-0.2-0.2l-0.2-0.1c-0.3-0.2-0.5-0.4-0.7-0.6c0.4-0.2,0.8-0.5,1.2-0.8
			c0.4-0.1,1-0.1,1.8-0.1c4.7,0,11.4,2,18,4.2c12.7,5.1,24.7,11.7,35.9,18.2l-0.5,3.9l0,0.1l0,0.1c-0.4,3.5-1,13.5,1.4,22.4
			c-19.5,3.4-43.2,9.8-64.3,15.5L116,885l0,0l0,0c-7.9,2.2-14.1,3.9-19.4,5.3c-9.3,2.4-16.2,4-21.8,5c-5,0.9-8.9,1.4-11.7,1.4
			c-0.7,0-1.3,0-1.8-0.1l-0.3,0h-0.3c-1.5,0-2.9-0.4-5.6-4.9c-6.7-11.7-3.9-34.9,3-48c5.7-9.2,6.7-21.2,7.6-32.9l0.1-1.3
			c1.9-16.9,4-36.1,16.6-56l0-0.1l0-0.1C83.6,751.5,85.7,749.5,92,749.5 M92,743.5c-6.9,0-11.8,2-14.7,6.9
			c-13.8,21.6-15.7,42.2-17.7,59.9c-1,11.8-2,22.6-6.9,30.5c-7.9,14.7-10.8,40.3-2.9,54c2.9,4.9,5.9,7.9,10.8,7.9
			c0.7,0.1,1.5,0.1,2.4,0.1c3.4,0,7.7-0.5,12.8-1.5c6.4-1.2,14-3,22.3-5.1c6.2-1.6,12.8-3.4,19.5-5.3c25.5-6.9,54-14.7,75.6-17.7
			c-3.9-5.9-4.9-16.7-3.9-26.5l1-7.9c-11.8-6.9-25.5-14.7-40.3-20.6c-6.8-2.3-14.3-4.6-20-4.6c-1.7,0-3.2,0.2-4.5,0.6
			c-1,1-2.9,2-3.9,2c-2,2-2,2-2,2.9c0,2,2,4.9,4.9,6.9c4.9,3.9,10.8,6.9,14.7,8.8c3.9,2,5.9,3,5.9,3c0.5,0,0.7,0.5,0.9,1
			c0.1,0.5,0.1,1,0.1,1c0,1-1,1-2,1c0,0-2-1-6.9-2c-3.9-2-9.8-3.9-16.7-7.9c-2.9-2-6.9-4.9-8.9-10.8c-1-2.9,1-7.9,2-8.8
			c2-3,4.9-4.9,6.9-5.9c4.6-1.9,9-2.6,13.3-2.6c6.8,0,13.5,1.8,20.1,3.6c13.8,3.9,26.5,8.8,37.3,13.8v-1c0.9-5.5,2.7-10.2,4.5-14
			c0.1-0.3,0.2-0.5,0.4-0.8c-3.1-2.7-8.7-7.4-15.7-12.9C156.8,772.6,116.3,743.5,92,743.5L92,743.5z"/>
	</g>
	<g>
		<path class="st0" d="M325.8,811.3c9.7,0,18.9,0.6,27.4,1.9c12.8,1.9,24.5,5.4,34.9,10.3l0.1,0l0.1,0
			c26.4,11.8,42.7,34.4,43.6,60.4c0,7.6-1.4,15.1-4,21.7c-3.5,8.8-8.9,15.8-15.8,20.1l0,0l0,0c-1,0.6-2.1,1.2-3.3,1.8l-0.2,0.1
			l-0.2,0.1c-9.8,5.3-20.1,13.1-33.5,25.4c-0.9,0.8-1.7,1.5-2.6,2.3c-13.9,12.2-27,23.7-39.6,23.7c-7.9,0-16.3-5.2-24.9-15.5
			c-14.8-17.9-29.7-39.5-45.6-66c-2.8-5.1-5.5-9.4-8.2-13.5c-1.2-1.9-2.4-3.8-3.5-5.6c3.5-4.7,6.6-9.7,8.9-14.5l5.6-11.1
			c7.3,1.3,32.5,6.2,56.8,15.1l0.2,0.1l0.2,0.1c4.1,1.2,8.4,3.2,12.9,5.3c2.3,1.1,4.7,2.2,7.1,3.3l0.4,0.2l0.4,0.1
			c3.7,1.1,6.9,3.3,10.2,5.8c1.6,1.2,3.3,2.4,5,3.4c2.2,1.3,3.6,3.4,5,5.4c0.7,1.1,1.4,2.1,2.2,3c0.6,0.9,1.2,1.7,1.7,2.3v1.4
			l1.8,1.8c0.7,0.7,2.5,2.2,5.2,2.2c1.9,0,3.8-0.8,5.2-2.2c2.3-2.3,3.1-6.4,0.8-9.5c-0.5-0.9-1.5-2.6-3-4.9l-0.7-1l-1-0.6
			c-0.4-0.3-1.3-1.6-2-2.6c-1.8-2.6-4.2-6-8.1-8.4c-1.5-0.9-3.3-2.4-5.1-3.9c-3.4-2.8-7.2-6-12.1-8.2c-1.3-0.7-2.7-1.4-4.2-2.2
			c-4.9-2.5-10.5-5.4-16.7-7.8c-21.4-9.2-43.5-14.7-54.5-17.4c1.8-5.9,2.4-11.5,1.7-16.6c9.3-1.8,20.6-3.6,32.6-4.7
			C313.5,811.6,319.9,811.3,325.8,811.3 M325.8,805.3c-6.6,0-13.2,0.3-19.5,0.9c-15.2,1.3-29.1,3.9-39.5,6c2.9,6.9,2,15.7-2,24.6v1
			c3,1,32.4,6.9,59.9,18.7c7.9,3,14.7,6.9,20.6,9.8c6.9,2.9,11.8,8.8,16.7,11.8c4.9,3,6.9,8.9,9.8,10.8c2,3,3,4.9,3,4.9c1,1,0,2,0,2
			c-0.3,0.3-0.7,0.4-0.9,0.4c-0.6,0-1-0.4-1-0.4v-1c0,0-1-1-2.9-3.9c-2-2-3.9-6.9-8.8-9.8c-4.9-3-9.8-7.9-16.7-9.8
			c-6.9-3-13.8-6.9-20.6-8.9c-29.5-10.8-59.9-15.7-59.9-15.7c-1,0-1-1-2-1l-7.9,15.7c-2.9,5.9-6.9,11.8-10.8,16.7
			c3.9,6.9,8.8,13.8,13.8,22.6c11.8,19.6,27.5,44.2,46.2,66.8c9.8,11.8,19.7,17.7,29.5,17.7c15.7,0,30.5-13.8,46.2-27.5
			c10.8-9.8,21.6-18.7,32.4-24.6c1.4-0.6,2.7-1.3,3.9-2.1c8.2-5.1,14.4-13.2,18.2-23c2.9-7.3,4.4-15.5,4.4-24
			c-1-28.5-18.7-53-47.2-65.8c-11.1-5.3-23.3-8.8-36.6-10.8C345.2,806,335.8,805.3,325.8,805.3L325.8,805.3z"/>
	</g>
</g>
</svg>
