<?xml version="1.0" encoding="utf-8"?>
<!-- Generator: Adobe Illustrator 19.1.0, SVG Export Plug-In . SVG Version: 6.00 Build 0)  -->
<svg version="1.1" id="Layer_1" xmlns="http://www.w3.org/2000/svg" xmlns:xlink="http://www.w3.org/1999/xlink" x="0px" y="0px"
	 viewBox="-173 43 612 475" style="enable-background:new -173 43 612 475;" xml:space="preserve">
<style type="text/css">
	.st0{fill:#FFFFFF;}
</style>
<g>
	<path class="st0" d="M410.8,287.4c-1.3-0.6-3-1.1-5.1-1.1c-5.9,0-17.2-0.7-25.2,2.2l-0.4,0.6c0,1.1,0,2.3,0,2.8c0,0.6,0,0.6,0,1.1
		c-0.8,4-3.4,6.8-6.4,6.8c-0.4,0-0.4,0-0.8,0c-5.1-0.6-10.1-1.1-15.6-2.3c-7.6,2.3-13.1,5.7-21.6,5.7c-51.4,0-113.8-32-144.2-49.5
		c-11.3-6.8-18.5-11.2-18.5-11.2c-14.3,56.7,7.2,87.8,7.2,87.8c2.1,2.8,1.7,3.4,1.7,3.4h47.7l0.4-6.2c58.6,0,72.1,4.5,72.1,4.5
		c40.5,15.1,79.3,5.6,79.3,5.6C429.3,320.6,419.6,292.4,410.8,287.4z"/>
	<path class="st0" d="M388,260.1c-0.9-0.6-2.1-1.1-3-1.1c-3,0-6,2.3-8.2,3.4c-6,4-10.6,11.2-14.5,18.5c-5.2-6.2-11.9-11.2-18.4-14.6
		c-1.3-0.6-3-1.1-4.3-1.1c-4.7,0-9.5,3.4-7.7,11.2l0,0c2.1,9,11.1,11.8,17.5,14c2.1,0.6,3.9,1.1,6,1.7c1.7,0.6,3.4,0.6,5.2,1.1
		c1.7,0.6,3.4,0.6,5.2,0.6s3.9,0.6,5.6,0.6c0,0,0,0,0.4,0c1.7,0,2.6-2.3,2.6-4v-0.6c0-0.6-0.4-1.7-0.9-2.3l-0.4-0.6
		c1.3-1.1,3-2.3,4.7-3.4C385.5,277.5,395.3,266.9,388,260.1z M341.8,279.8c-0.4,0-0.9-0.6-1.3-0.6c-1.3-1.1-3-2.3-3-4
		c0-1.1,0.4-1.7,1.7-1.7c2.1,0,6,2.3,6.9,2.8c3,1.7,6,4.5,9,7.3c0.9,0.6,1.7,1.7,2.6,2.3C352.1,284.3,347,282.6,341.8,279.8z
		 M369.2,282c3.9-6.8,9-12.9,14.9-14.6c-0.4,1.1-1.3,2.3-2.1,2.8C378.6,274.7,374,278.6,369.2,282z"/>
	<g>
		<path class="st0" d="M-115.3,337.5c0,0,38.8,9.6,79.3-5.6c0,0,13.5-4.5,72.1-4.5l0.4,6.2h47.7c0,0-0.4-0.6,1.7-3.4
			c0,0,21.5-31,7.2-87.8c0,0-7.2,4.5-18.5,11.2c-30.3,17.4-92.7,49.5-144.2,49.5c-8.5,0-14-3.5-21.6-5.7c-5.5,1.1-10.5,1.7-15.6,2.3
			c-0.4,0-0.4,0-0.8,0c-3,0-5.5-2.8-6.4-6.8c0-0.6,0-0.6,0-1.1c0-0.6,0-1.7,0-2.8l-0.4-0.6c-8.1-2.8-19.3-2.2-25.2-2.2
			c-2.1,0-3.8,0.6-5.1,1.1C-153.7,292.4-163.3,320.6-115.3,337.5z"/>
		<path class="st0" d="M-111.8,283.7c1.7,1.1,3.4,2.3,4.7,3.4l-0.4,0.6c-0.4,0.6-0.9,1.7-0.9,2.3v0.6c0,1.7,0.9,4,2.6,4
			c0.4,0,0.4,0,0.4,0c1.7,0,3.9-0.6,5.6-0.6c1.7,0,3.4,0,5.2-0.6c1.7-0.6,3.4-0.6,5.2-1.1c2.1-0.6,3.9-1.1,6-1.7
			c6.4-2.3,15.4-5.1,17.5-14l0,0c1.7-7.9-3-11.2-7.7-11.2c-1.3,0-3,0.6-4.3,1.1c-6.4,3.4-13.2,8.5-18.4,14.6
			c-3.9-7.3-8.6-14.6-14.5-18.5c-2.1-1.1-5.2-3.4-8.2-3.4c-0.9,0-2.1,0.6-3,1.1C-129.3,266.9-119.6,277.5-111.8,283.7z M-91.7,286
			c0.9-0.6,1.7-1.7,2.6-2.3c3-2.8,6-5.6,9-7.3c0.9-0.6,4.7-2.8,6.9-2.8c1.3,0,1.7,0.6,1.7,1.7c0,1.7-1.7,2.8-3,4
			c-0.4,0-0.9,0.6-1.3,0.6C-81.1,282.6-86.1,284.3-91.7,286z M-116.1,270.2c-0.9-0.6-1.7-1.7-2.1-2.8c6,1.7,11.1,7.9,14.9,14.6
			C-108,278.6-112.7,274.7-116.1,270.2z"/>
	</g>
</g>
</svg>
