<?xml version="1.0" encoding="utf-8"?>
<!-- Generator: Adobe Illustrator 19.1.0, SVG Export Plug-In . SVG Version: 6.00 Build 0)  -->
<svg version="1.1" id="Layer_1" xmlns="http://www.w3.org/2000/svg" xmlns:xlink="http://www.w3.org/1999/xlink" x="0px" y="0px"
	 viewBox="0 0 960 560" style="enable-background:new 0 0 960 560;" xml:space="preserve">
<style type="text/css">
	.st0{fill:#FFFFFF;stroke:#FFFFFF;stroke-miterlimit:10;}
</style>
<path class="st0" d="M93.8,353.4c0,0,30.6-12.9,33.8-10.9c0,0,4.2,55.5,85.5,13.9c0,0,19-9.9,29.6-24.8
	c11.6-16.8,22.2-30.7,34.8-51.5c0,0,108.7-155.6,136.2-170.5c0,0,70.7,48.6,51.7,120.9c0,0-34.8,86.2-24.3,207.1h-35.9
	c0,0,12.7-130.8-7.4-140.7c0,0-39.1-41.6-115,94.2c0,0-26.4,58.5-97.1,56.5c0,0-135.1-1-166.8-35.7C20.9,413.8-7.6,380.2,93.8,353.4
	z"/>
<path class="st0" d="M93.8,353.4c0,0,30.6-12.9,33.8-10.9c0,0,4.2,55.5,85.5,13.9c0,0,19-9.9,29.6-24.8
	c11.6-16.8,22.2-30.7,34.8-51.5c0,0,108.7-155.6,136.2-170.5c0,0,70.7,48.6,51.7,120.9c0,0-34.8,86.2-24.3,207.1h-35.9
	c0,0,12.7-130.8-7.4-140.7c0,0-39.1-41.6-115,94.2c0,0-26.4,58.5-97.1,56.5c0,0-135.1-1-166.8-35.7C20.9,413.8-7.6,380.2,93.8,353.4
	z"/>
<path class="st0" d="M938,411.9c-31.7,34.7-166.8,35.7-166.8,35.7c-70.7,2-97.1-56.5-97.1-56.5c-76-135.8-115-94.2-115-94.2
	c-20.1,9.9-7.4,140.7-7.4,140.7h-35.9c10.6-120.9-24.3-207.1-24.3-207.1c-19-72.4,51.7-120.9,51.7-120.9
	C570.7,124.4,679.4,280,679.4,280c12.7,20.8,23.2,34.7,34.8,51.5c10.6,14.9,29.6,24.8,29.6,24.8c81.3,41.6,85.5-13.9,85.5-13.9
	c3.2-2,33.8,10.9,33.8,10.9C964.4,380.2,935.9,413.8,938,411.9z"/>
<path class="st0" d="M938,411.9c-31.7,34.7-166.8,35.7-166.8,35.7c-70.7,2-97.1-56.5-97.1-56.5c-76-135.8-115-94.2-115-94.2
	c-20.1,9.9-7.4,140.7-7.4,140.7h-35.9c10.6-120.9-24.3-207.1-24.3-207.1c-19-72.4,51.7-120.9,51.7-120.9
	C570.7,124.4,679.4,280,679.4,280c12.7,20.8,23.2,34.7,34.8,51.5c10.6,14.9,29.6,24.8,29.6,24.8c81.3,41.6,85.5-13.9,85.5-13.9
	c3.2-2,33.8,10.9,33.8,10.9C964.4,380.2,935.9,413.8,938,411.9z"/>
</svg>
