<?xml version="1.0" encoding="utf-8"?>
<!-- Generator: Adobe Illustrator 19.1.0, SVG Export Plug-In . SVG Version: 6.00 Build 0)  -->
<svg version="1.1" id="Layer_1" xmlns="http://www.w3.org/2000/svg" xmlns:xlink="http://www.w3.org/1999/xlink" x="0px" y="0px"
	 viewBox="-144 0 670.2 560" style="enable-background:new -144 0 670.2 560;" xml:space="preserve">
<style type="text/css">
	.st0{fill:#FFFFFF;}
</style>
<g>
	<path class="st0" d="M514.7,223L514.7,223c1.6-0.6,2.8-1.6,3.7-2.8c0.9-1.2,1.6-2.8,1.9-4.4s0.3-2.8,0.3-4c0-1.6-0.3-2.8-0.6-4
		c-0.9-2.8-2.8-5.3-5.3-6.8c-1.9-1.6-4-2.2-6.2-2.2c-0.9,0-1.6,0-2.5,0.3l-79.9,25.5h-0.3c-0.3-0.3-0.6-0.9-1.2-1.9
		c0-0.6-0.3-1.2-0.3-1.6v-0.6l70.2-22.7c1.6-0.6,2.8-1.6,3.7-2.5c0.9-1.2,1.6-2.5,1.9-4c0.6-1.6,0.9-3.1,0.9-4.4
		c0-1.2-0.3-2.5-0.6-3.4c0-0.6-0.3-0.9-0.6-1.6c-0.9-1.6-2.5-2.8-4-4h-0.3c-2.2-1.2-4-2.2-6.2-2.2c-0.6,0-1.6,0-2.2,0.3l-80.5,25.2
		c-2.5,0.6-5,0.9-8.1,0.9c-1.6,0-3.4,0-5.6-0.3c-3.1-0.6-5.3-1.2-6.8-2.2c-1.2-0.6-1.9-1.6-2.2-2.2l0.3-0.3
		c2.8-3.1,8.1-7.8,15.5-14.3c7.1-6.2,12.7-10.9,16.5-14.6l0.3-0.3l0.3-0.3c1.6-2.5,2.8-6.2,2.8-11.8v-0.6c0-1.6,0-3.4-0.9-5.3
		c-0.3-1.6-0.9-2.8-2.2-4c-1.2-1.2-3.1-1.6-4.7-1.6c-1.2,0-2.2,0.3-3.4,0.6h-0.3h-0.3c-2.5,1.2-11.2,5.3-25.8,13.7
		c-8.1,4.4-14.3,8.1-19,11.2c-4.7,3.1-7.8,5.3-9.6,7.5c-5.6,6.8-13.4,19.3-25.5,38.2c-1.6,3.1-4,5.9-5,6.8l-0.3,0.3l-0.3,0.3
		c-0.6,1.2-2.2,2.2-3.7,3.7c-1.2,0.9-2.2,1.9-2.8,2.5c-0.6,0.6-1.2,0.9-1.9,1.2c-5.9,4.7-11.5,11.2-18.6,16.8
		c-23.9,19.3-60,43.5-96,66.5l-2.5,1.6l67.1,82.7l2.2-1.9c22.7-20.2,52.5-54.1,80.2-81.4c0.6,0.3,1.2,0.6,2.2,0.9
		c4.7,2.2,10.3,4.7,17.7,6.2c5.6,1.2,9.9,2.2,13.7,2.2c1.9,0,3.4-0.3,5-0.9l108.8-34.8h0.3c1.2-0.6,1.9-1.6,2.5-2.2
		c0.6-0.9,0.9-1.9,1.6-3.1c0.6-1.2,0.9-1.9,1.2-2.8c0.3-0.6,0.3-0.9,0.6-1.6v-0.3v-0.6c0-1.2-0.3-2.2-0.6-2.8l-0.3-0.6
		c0-0.6-0.3-1.2-0.6-1.9c-0.9-1.6-2.5-2.8-4-4l-0.3-0.3h-0.3c-1.6-0.9-3.4-2.2-5.9-2.2c-0.6,0-1.2,0-1.9,0.3l-48.2,15.5
		c0,0-0.6-0.6-0.9-1.9c-0.3-0.9-0.6-1.6-0.6-1.9l75.8-24.6h0.3c0.9-0.6,1.9-1.2,2.8-2.2c0.9-0.9,1.9-2.2,2.5-3.7
		c0.9-1.6,1.2-3.4,1.2-5c0-0.9-0.3-2.2-0.6-3.1c0-1.6-0.9-3.1-1.9-4.4c-1.2-1.2-2.5-2.2-4-2.8c-1.9-1.2-3.7-1.6-5.6-1.6
		c-1.2,0-2.2,0.3-3.1,0.6l-72.4,23.3c-0.3-0.3-0.6-0.9-0.9-1.9c0-0.9,0-1.2,0.3-1.6l0.3-0.6v-0.3L514.7,223z M499.8,273.7
		L499.8,273.7z"/>
	<path class="st0" d="M-51,242.2L-51,242.2v0.3l0.3,0.6c0.3,0.3,0.3,0.6,0.3,1.6c-0.3,0.9-0.9,1.6-0.9,1.9l-71.5-26.1
		c-0.9-0.3-1.9-0.6-3.1-0.6c-1.9,0-3.7,0.3-5.6,1.6c-1.6,0.6-2.8,1.6-4,2.5c-0.9,0.9-1.9,2.5-2.2,4.4c-0.3,0.9-0.6,1.9-0.6,3.1
		c0,1.6,0.3,3.4,0.9,5c0.6,1.6,1.6,2.8,2.5,3.7c0.9,0.9,1.9,1.9,2.8,2.5h0.3l74.9,27.4c0,0.3-0.3,0.9-0.6,1.9
		c-0.6,1.2-0.9,1.6-1.2,1.9l-47.6-17.4c-0.6-0.3-1.2-0.3-1.9-0.3c-2.5,0-4.4,1.2-5.9,1.9h-0.3l-0.3,0.3c-1.6,1.2-3.1,2.5-4,4
		c-0.3,0.3-0.6,0.9-0.6,1.9l-0.3,0.6c-0.3,0.6-0.6,1.6-0.6,2.8v0.6v0.3c0,0.6,0.3,1.2,0.6,1.6c0.3,0.6,0.6,1.6,1.2,2.8
		c0.6,1.2,0.9,2.2,1.6,3.1s1.6,1.9,2.5,2.5h0.3l107.2,38.5c1.6,0.6,3.1,0.9,5,0.9c3.4,0,8.1-0.3,13.7-1.6c7.8-1.2,13.4-3.4,18-5.6
		c0.9-0.3,1.6-0.6,2.2-0.9c26.4,28.6,55,63.4,77.1,84.5l2.2,1.9l70.2-80.2l-2.5-1.9c-35.1-24.2-69.9-50-93.2-70.2
		c-6.8-5.9-12.4-12.7-18-17.4c-0.6-0.6-0.9-0.9-1.6-1.6c-0.6-0.6-1.9-1.6-2.8-2.5c-1.6-1.6-3.1-2.5-3.7-3.7v-0.3l-0.3-0.3
		c-0.9-0.9-3.1-3.7-4.7-6.8c-11.2-19.3-18.3-32.3-23.9-39.2c-1.9-2.2-5-4.7-9.3-7.8C16.7,161,10.8,157,3,152.3
		c-14.3-8.7-22.7-13.4-25.2-14.6h-0.3h-0.3c-1.2-0.3-2.2-0.6-3.4-0.6c-1.6,0-3.4,0.3-4.7,1.6c-1.2,0.9-1.9,2.5-2.5,3.7
		c-0.9,1.9-0.9,3.7-0.9,5.3v0.6c-0.3,5.6,0.9,9.3,2.2,11.8v0.3l0.3,0.3c3.7,3.7,8.7,8.4,15.9,15.2c7.1,6.5,12.4,11.5,14.9,14.9
		l0.3,0.3c-0.3,0.9-1.2,1.6-2.5,2.2c-1.6,0.9-3.7,1.6-6.8,1.9c-2.2,0-4,0-5.6,0c-3.1,0-5.6-0.6-7.8-1.2l-79.6-28.3
		c-0.6-0.3-1.6-0.3-2.2-0.3c-2.2,0-4.4,0.9-6.2,2.2h-0.3c-1.6,1.2-3.1,2.5-4,4c-0.3,0.3-0.3,0.9-0.6,1.6c-0.3,0.9-0.6,2.2-0.6,3.4
		c0,1.6,0.3,3.1,0.9,4.4c0.3,1.6,0.9,2.8,1.6,4c0.9,1.2,2.2,2.2,3.4,2.8l69.3,25.5v0.6c0,0.3,0,0.9-0.3,1.6
		c-0.6,0.9-0.9,1.6-1.2,1.9h-0.3l-78.9-28.6c-0.9-0.3-1.6-0.3-2.5-0.6c-2.2,0-4.4,0.6-6.2,2.2c-2.8,1.6-4.7,4-5.6,6.8
		c-0.6,1.2-0.6,2.5-0.9,4c0,1.2,0,2.8,0.3,4c0.3,1.6,0.6,3.1,1.6,4.7c0.9,1.2,2.2,2.5,3.4,2.8L-51,242.2z M-119.7,263.9
		L-119.7,263.9z"/>
	<path d="M-125,234L-125,234z"/>
</g>
</svg>
