<?xml version="1.0" encoding="utf-8"?>
<!-- Generator: Adobe Illustrator 19.1.0, SVG Export Plug-In . SVG Version: 6.00 Build 0)  -->
<svg version="1.1" id="Layer_1" xmlns="http://www.w3.org/2000/svg" xmlns:xlink="http://www.w3.org/1999/xlink" x="0px" y="0px"
	 viewBox="0 0 505.9 297.5" enable-background="new 0 0 505.9 297.5" xml:space="preserve">
<g>
	<path fill="#FFFFFF" d="M388.3,167.1V74.8c0-31-25.6-56.6-56.6-56.6H174.8c-31,0-56.6,25.6-56.6,56.6v84.8
		c-39,10.8-107,40.4-107,66.7c0,20.9,31.6,39,88.9,51.2l2.7,0.7l2-2c18.2-22.9,81.5-38.4,154.2-38.4c69.3,0,132,14.8,152.2,36.4l2,2
		l2.7-0.7c51.2-12.1,78.8-29.6,78.8-48.5C494.6,208.1,440.8,180.5,388.3,167.1z M118.3,175.1v2C118.3,176.5,118.3,175.8,118.3,175.1
		z"/>
</g>
</svg>
