<?xml version="1.0" encoding="utf-8"?>
<!-- Generator: Adobe Illustrator 19.1.0, SVG Export Plug-In . SVG Version: 6.00 Build 0)  -->
<svg version="1.1" id="Arrow_1_" xmlns="http://www.w3.org/2000/svg" xmlns:xlink="http://www.w3.org/1999/xlink" x="0px" y="0px"
	 viewBox="-379 241 200 79" style="enable-background:new -379 241 200 79;" xml:space="preserve">
<style type="text/css">
	.st0{fill:#FFFFFF;}
</style>
<path class="st0" d="M-290.3,261.5c0.9-1.7,1.5-2.8,0.9-4c-0.4-0.9-1.5-1.5-2.4-1.7c-0.4,0-0.6-0.2-0.9-0.2c-2.4,0-3.8,2.6-4.4,4.1
	c-3.1,0.2-12.9,0.4-16.4,0.4h-5.1c-0.7-5.1-1.6-6-3.1-7.1c-0.2-0.2-0.4-0.4-0.7-0.6c-1.5-1.3-3.5-1.1-4.4,0.4
	c-0.6,0.9-0.6,2.4,0,3.6c0.7,1.5,0.2,2.6,0.2,2.6s-0.4,0.6-1.1,1.5c-1.3-0.4-2.9,0.2-4,1.5c-0.9,1.1-1.3,2.4-1.1,3.6
	c-1.1,0-2.4,0.6-3.1,1.5c-0.9,1.1-1.5,2.4-1.3,3.6c-1.1-0.2-2.4,0.4-3.3,1.1c-1.1,0.9-1.6,2.4-1.5,3.6c-1.1-0.2-2.7,0.2-3.6,1.1
	c-1.3,1.1-1.8,2.6-1.5,4c-1.3-0.6-2.9-0.2-4,0.8c-1.1,0.9-2,2.2-1.8,3.2v1c-1.1,2.1-1.8,3.2-4.9,3.2c-1.6-0.4-3.1-0.6-4.6-0.6
	c-4.2,0-8.6,2.9-9.6,3.9l-0.8,1.2c0,0,0,0,0,0l0,0c-0.4,0.6-3.9,5.7-3.3,10.5l0.2,0.9l0.9,0.2c0,0,5.1,0.9,16.2,2.4
	c3.6,0.4,7.9,0.9,17.2,0.9c2.6,0,5.1,0,7.5-0.2l2.2-0.2c6.2,0,36.8,0.7,38.2,0.5l0.5-0.2c0.4-0.2,2.7-2.3,2-9.2l0.2-0.2l-0.4-0.2
	c1.5-8.3-1.3-16-1.5-16.2c-0.7-8.7,0.4-16.9,1.9-19.8L-290.3,261.5z M-305,293.8c1.1,0,2,0.9,2,2.1c0,1.1-0.9,2.1-2,2.1
	c-1.1,0-2-0.9-2-2.1C-307,294.8-306.1,293.8-305,293.8z M-314.7,293.8c1.1,0,2,1,2,2.1c0,1.1-0.9,2.1-2,2.1c-1.1,0-2-0.9-2-2.1
	C-316.7,294.8-315.8,293.8-314.7,293.8z M-329.7,264.5c0.4-0.4,0.7-0.6,1.1-0.6l6,5.1h0.4c0.5,0,1.1,0.2,1.5,0.6
	c0.9,0.8,0.9,2.1,0.2,3c-0.7,0.8-2,0.9-2.9,0.2c-0.4-0.4-0.7-0.9-0.7-1.5v-0.4l-5.8-5.3C-330,265.4-330,265-329.7,264.5z
	 M-333.7,269.4c0.4-0.4,0.7-0.6,1.1-0.6l5.3,5.3l0.4,0.2h0.4c0.5,0,0.9,0.2,1.5,0.6c0.7,0.8,0.9,2.1,0,3c-0.4,0.4-0.9,0.6-1.5,0.6
	s-0.9-0.2-1.5-0.6c-0.4-0.4-0.6-0.9-0.6-1.5V276l-5.6-5.5C-334.2,270.3-334.2,269.9-333.7,269.4z M-338.8,274.6
	c0.4-0.4,0.7-0.4,0.9-0.4h0.2l5.6,5.6h0.4c0.6,0,1.1,0.2,1.5,0.8c0.4,0.4,0.5,0.9,0.5,1.5c0,0.6-0.2,1.1-0.7,1.5
	c-0.7,0.8-2.2,0.6-2.9-0.2c-0.4-0.4-0.6-0.9-0.6-1.5v-0.4l-5.5-5.8C-339.3,275.6-339.3,275.2-338.8,274.6z M-343.9,279.3
	c0.4-0.4,0.7-0.4,1.1-0.6l4.7,5.8h0.5c0.5,0,1.1,0.2,1.5,0.8c0.4,0.4,0.5,0.9,0.5,1.5c0,0.6-0.2,1.1-0.7,1.5
	c-0.7,0.8-2.2,0.8-2.9-0.2c-0.4-0.4-0.5-0.9-0.5-1.5v-0.4l-4.7-5.8C-344.4,280.3-344.4,279.9-343.9,279.3z M-349.5,284.2
	c0.4-0.2,0.7-0.4,0.9-0.4c0,0,0,0,0.2,0l4.4,5.6h0.5c0.5,0,1.1,0.4,1.5,0.8c0.4,0.4,0.6,0.9,0.4,1.5c0,0.6-0.4,1.1-0.7,1.3
	c-0.4,0.4-0.7,0.4-1.3,0.4c-0.6,0-1.3-0.4-1.6-0.8c-0.4-0.4-0.5-0.9-0.4-1.5v-0.4l-4.4-5.6C-350.1,285-350.1,284.6-349.5,284.2z
	 M-358,292.2l-1.1,6.2l-12.1-1.8C-371.3,296.6-368,289.6-358,292.2z M-294.7,305.9c-1.5,0.4-29-0.5-37.3-0.5c-0.7,0-1.5,0-2.2,0.2
	c-2.4,0.2-4.7,0.2-7.3,0.2c-8.7,0-12.6-0.6-16.4-0.8c-10.6-1.5-14.9-2.3-15.1-2.3c0,0-0.4-1.7,0.5-3.4c0.2-0.2,4.5,0.8,15.1,2.1
	c4.9,0.4,13.2,1.1,23.2,0.8c0.7,0,1.5,0,2.2-0.2c14-0.2,36.6,0.5,38.1,0.3C-293.9,302.3-293.9,304.2-294.7,305.9z"/>
<path class="st0" d="M-185.7,293.2L-185.7,293.2L-185.7,293.2l-0.9-1.3c-0.5-0.5-1.8-1.4-3.6-2.3c-1.7-0.9-3.9-1.6-6-1.6
	c-1.5,0-2.9,0.2-4.6,0.6c-3.1,0-3.8-1-4.9-3.2v-1c0.2-1-0.7-2.3-1.8-3.2c-1.1-0.9-2.7-1.3-4-0.8c0.4-1.3-0.2-2.8-1.5-4
	c-0.9-0.9-2.6-1.3-3.6-1.1c0.2-1.1-0.4-2.6-1.5-3.6c-0.9-0.8-2.2-1.3-3.3-1.1c0.2-1.1-0.4-2.4-1.3-3.6c-0.7-1-2-1.5-3.1-1.5
	c0.2-1.1-0.2-2.4-1.1-3.6c-1.1-1.3-2.7-1.9-4-1.5c-0.7-0.9-1.1-1.5-1.1-1.5s-0.5-1.1,0.2-2.6c0.6-1.1,0.6-2.6,0-3.6
	c-0.9-1.5-2.9-1.7-4.4-0.4c-0.4,0.2-0.5,0.4-0.7,0.6c-1.5,1.1-2.4,2.1-3.1,7.1h-5.1c-3.5,0-13.3-0.2-16.4-0.4
	c-0.6-1.5-2-4.1-4.4-4.1c-0.4,0-0.5,0.2-0.9,0.2c-0.9,0.2-2,0.8-2.4,1.7c-0.5,1.1,0,2.3,0.9,4l0.5,1.1c1.5,2.8,2.6,11,1.9,19.8
	c-0.2,0.2-3,7.9-1.5,16.2l-0.4,0.2l0.2,0.2c-0.7,7,1.6,9,2,9.2l0.5,0.2c1.5,0.2,32-0.5,38.2-0.5l2.2,0.2c2.4,0.2,4.9,0.2,7.5,0.2
	c9.3,0,13.5-0.6,17.2-0.9c11.1-1.5,16.2-2.4,16.2-2.4l0.9-0.2l0.2-0.9C-181.8,298.9-185.2,293.8-185.7,293.2z M-187.1,296.6
	l-12.1,1.8l-1.1-6.2C-190.3,289.6-187.1,296.6-187.1,296.6z M-209.9,283.9c0.2,0,0.2,0,0.2,0c0.2,0,0.5,0.2,0.9,0.4
	c0.5,0.4,0.5,0.8,0.5,0.9l-4.4,5.6v0.4c0.2,0.6,0,1.1-0.4,1.5c-0.4,0.4-1.1,0.8-1.6,0.8c-0.5,0-0.9,0-1.3-0.4
	c-0.4-0.2-0.7-0.8-0.7-1.3c-0.2-0.6,0-1.1,0.4-1.5c0.4-0.4,0.9-0.8,1.5-0.8h0.5L-209.9,283.9z M-215.6,278.8
	c0.4,0.2,0.7,0.2,1.1,0.6c0.5,0.6,0.5,0.9,0.5,1.1l-4.7,5.8v0.4c0,0.6-0.2,1.1-0.5,1.5c-0.7,0.9-2.2,0.9-2.9,0.2
	c-0.5-0.4-0.7-0.9-0.7-1.5c0-0.6,0.2-1.1,0.6-1.5c0.4-0.6,0.9-0.8,1.5-0.8h0.5L-215.6,278.8z M-220.7,274.3h0.2c0.2,0,0.5,0,0.9,0.4
	c0.5,0.6,0.5,0.9,0.5,1.1l-5.5,5.8v0.4c0,0.6-0.2,1.1-0.6,1.5c-0.7,0.8-2.2,0.9-2.9,0.2c-0.6-0.4-0.7-0.9-0.7-1.5
	c0-0.6,0.2-1.1,0.5-1.5c0.4-0.6,0.9-0.8,1.5-0.8h0.4L-220.7,274.3z M-225.8,268.8c0.4,0,0.7,0.2,1.1,0.6c0.6,0.6,0.6,0.9,0.6,1.1
	l-5.7,5.5v0.4c0,0.6-0.2,1.1-0.5,1.5c-0.5,0.4-0.9,0.6-1.5,0.6c-0.5,0-1.1-0.2-1.5-0.6c-0.9-0.9-0.7-2.3,0-3
	c0.6-0.4,0.9-0.6,1.5-0.6h0.4l0.4-0.2L-225.8,268.8z M-237.6,269.6c0.4-0.4,0.9-0.6,1.5-0.6h0.4l6-5.1c0.4,0,0.7,0.2,1.1,0.6
	c0.4,0.6,0.4,0.9,0.4,1.1l-5.8,5.3v0.4c0,0.6-0.4,1.1-0.7,1.5c-0.9,0.8-2.2,0.6-2.9-0.2C-238.5,271.6-238.5,270.3-237.6,269.6z
	 M-243.7,293.8c1.1,0,2,1,2,2.1c0,1.1-0.9,2.1-2,2.1c-1.1,0-2-0.9-2-2.1C-245.7,294.8-244.8,293.8-243.7,293.8z M-253.3,293.8
	c1.1,0,2,0.9,2,2.1c0,1.1-0.9,2.1-2,2.1c-1.1,0-2-0.9-2-2.1C-255.3,294.8-254.4,293.8-253.3,293.8z M-185.3,302.8
	c-0.2,0-4.5,0.8-15.1,2.3c-3.8,0.2-7.7,0.8-16.4,0.8c-2.5,0-4.9,0-7.3-0.2c-0.7-0.2-1.5-0.2-2.2-0.2c-8.4,0-35.9,0.9-37.3,0.5
	c-0.7-1.7-0.7-3.6-0.7-3.6c1.5,0.2,24-0.5,38.1-0.3c0.7,0.2,1.5,0.2,2.2,0.2c10,0.4,18.3-0.4,23.2-0.8c10.6-1.3,14.9-2.3,15.1-2.1
	C-185,301.1-185.3,302.8-185.3,302.8z"/>
</svg>
