<?xml version="1.0" encoding="utf-8"?>
<!-- Generator: Adobe Illustrator 18.1.1, SVG Export Plug-In . SVG Version: 6.00 Build 0)  -->
<svg version="1.1" id="Arrow_1_" xmlns="http://www.w3.org/2000/svg" xmlns:xlink="http://www.w3.org/1999/xlink" x="0px" y="0px"
	 viewBox="0 54.5 200 79" enable-background="new 0 54.5 200 79" xml:space="preserve">
<g>
	<path fill="#FFFFFF" d="M185.5,95.8c-2.6-0.6-9.8-2.6-20.4-7.4c-8.8-4-14.1-7.9-16.9-17.5c-1.3-4.5-3.2-9.2-9.4-9.2
		c-4.7,0-6.9,3.1-6.9,6c0,1.6,0.5,2.8,0.9,3.8c0.4,0.9,0.7,1.6,0.7,2.9c0,0.4-0.1,0.5,0,0.5c-0.1,0.1-0.9,0.6-5.1,0.6
		c-8.2,0-14.7-2.6-14.8-2.6c-0.7-0.3-1.5-0.2-2.1,0.1c-0.7,0.3-1.1,1-1.3,1.7c-0.1,0.4-2.2,11.4-2.3,18.9c0,2.1,0.3,12.1,1.6,18.6
		c-0.9,0.4-1.5,1.3-1.5,2.2v8.3c0,1.4,1.1,2.5,2.5,2.5h85c1.3,0,2.4-1.1,2.5-2.4l0.1-8.1c0.3-1.3,0.5-2.6,0.5-4
		C198.7,99,189.1,96.6,185.5,95.8z M113,93.7c0-4.9,1.1-11.6,1.7-15.3c3,0.9,7.9,2,13.8,2c3.8,0,10,0,10-6.1c0-2.3-0.6-3.8-1.1-4.9
		c-0.4-0.8-0.5-1.3-0.5-1.8c0-0.9,1.1-1.1,2-1.1c1.9,0,3.1,0.4,4.7,5.7c3.3,11.3,10,16.3,19.6,20.6c7.8,3.5,13.9,5.6,17.7,6.7
		c-1.8,2.8-4.1,7.4-4.7,12.5h-61.6C113.4,107,112.9,97.3,113,93.7z M193.2,120.4h-80.1V117h80.2L193.2,120.4z M193.7,112.1h-12.6
		c0.7-4.9,3.3-9.2,4.8-11.2c4.9,1.5,7.9,3.8,7.9,9.8C193.8,111.2,193.8,111.7,193.7,112.1z"/>
	<path fill="#FFFFFF" d="M126.5,107.5c4.2,0,7.6-3.4,7.6-7.6s-3.4-7.6-7.6-7.6c-4.2,0-7.6,3.4-7.6,7.6
		C118.8,104.1,122.2,107.5,126.5,107.5z M126.5,97.2c1.5,0,2.7,1.2,2.7,2.7s-1.2,2.7-2.7,2.7s-2.7-1.2-2.7-2.7
		C123.7,98.4,124.9,97.2,126.5,97.2z"/>
	<path fill="#FFFFFF" d="M150.6,95.4c1.9,0,3.5-1.6,3.5-3.5s-1.6-3.5-3.5-3.5s-3.5,1.6-3.5,3.5S148.7,95.4,150.6,95.4z"/>
	<path fill="#FFFFFF" d="M157.8,98.8c1.9,0,3.5-1.6,3.5-3.5s-1.6-3.5-3.5-3.5c-1.9,0-3.5,1.6-3.5,3.5S155.9,98.8,157.8,98.8z"/>
	<path fill="#FFFFFF" d="M165,101.8c1.9,0,3.5-1.6,3.5-3.5s-1.6-3.5-3.5-3.5c-1.9,0-3.5,1.6-3.5,3.5
		C161.6,100.2,163.1,101.8,165,101.8z"/>
	<path fill="#FFFFFF" d="M172.2,104.9c1.9,0,3.5-1.6,3.5-3.5s-1.6-3.5-3.5-3.5c-1.9,0-3.5,1.5-3.5,3.5
		C168.8,103.3,170.3,104.9,172.2,104.9z"/>
</g>
<g>
	<path fill="#FFFFFF" d="M1.3,110.8c0,1.4,0.2,2.7,0.5,4l0.1,8.1c0,1.3,1.1,2.4,2.5,2.4h85c1.4,0,2.5-1.1,2.5-2.5v-8.3
		c0-1-0.6-1.9-1.5-2.2c1.3-6.5,1.6-16.6,1.6-18.6c-0.1-7.6-2.2-18.5-2.3-18.9c-0.1-0.7-0.6-1.3-1.3-1.7c-0.7-0.3-1.4-0.4-2.1-0.1
		c-0.1,0-6.5,2.6-14.8,2.6c-4.1,0-4.9-0.5-5.1-0.6c0,0,0-0.2,0-0.5c0-1.3,0.3-2,0.7-2.9c0.4-1,0.9-2.2,0.9-3.8c0-2.9-2.2-6-6.9-6
		c-6.2,0-8.1,4.8-9.4,9.2c-2.8,9.6-8.1,13.5-16.9,17.5c-10.5,4.7-17.7,6.7-20.3,7.4C10.9,96.6,1.3,99,1.3,110.8z M85.4,112.2H23.9
		c-0.6-5.2-2.9-9.7-4.7-12.5c3.8-1.1,9.9-3.2,17.7-6.7c9.7-4.3,16.3-9.3,19.6-20.6c1.6-5.3,2.8-5.7,4.7-5.7c0.9,0,2,0.2,2,1.1
		c0,0.6-0.2,1-0.5,1.8c-0.5,1.1-1.1,2.6-1.1,4.9c0,6.1,6.3,6.1,10,6.1c5.9,0,10.9-1.2,13.8-2c0.6,3.7,1.6,10.4,1.7,15.3
		C87.1,97.3,86.6,107,85.4,112.2z M6.8,117H87v3.4H6.8L6.8,117z M6.2,110.8c0-6,3-8.4,7.9-9.8c1.4,2,4,6.3,4.8,11.2H6.3
		C6.3,111.7,6.2,111.2,6.2,110.8z"/>
	<path fill="#FFFFFF" d="M81.2,99.9c0-4.2-3.4-7.6-7.6-7.6c-4.2,0-7.6,3.4-7.6,7.6s3.4,7.6,7.6,7.6S81.2,104.1,81.2,99.9z
		 M76.3,99.9c0,1.5-1.2,2.7-2.7,2.7s-2.7-1.2-2.7-2.7s1.2-2.7,2.7-2.7S76.3,98.4,76.3,99.9z"/>
	<path fill="#FFFFFF" d="M52.8,91.9c0-1.9-1.6-3.5-3.5-3.5c-1.9,0-3.5,1.6-3.5,3.5s1.6,3.5,3.5,3.5C51.3,95.4,52.8,93.8,52.8,91.9z"
		/>
	<path fill="#FFFFFF" d="M45.6,95.3c0-1.9-1.6-3.5-3.5-3.5c-1.9,0-3.5,1.6-3.5,3.5s1.6,3.5,3.5,3.5C44.1,98.8,45.6,97.2,45.6,95.3z"
		/>
	<path fill="#FFFFFF" d="M38.4,98.3c0-1.9-1.6-3.5-3.5-3.5c-1.9,0-3.5,1.6-3.5,3.5s1.6,3.5,3.5,3.5C36.9,101.8,38.4,100.2,38.4,98.3
		z"/>
	<path fill="#FFFFFF" d="M31.2,101.4c0-1.9-1.6-3.5-3.5-3.5c-1.9,0-3.5,1.6-3.5,3.5s1.6,3.5,3.5,3.5
		C29.7,104.9,31.2,103.3,31.2,101.4z"/>
</g>
</svg>
