<?xml version="1.0" encoding="utf-8"?>
<!-- Generator: Adobe Illustrator 19.1.0, SVG Export Plug-In . SVG Version: 6.00 Build 0)  -->
<svg version="1.1" id="Arrow_1_" xmlns="http://www.w3.org/2000/svg" xmlns:xlink="http://www.w3.org/1999/xlink" x="0px" y="0px"
	 viewBox="-286 31 616 500" style="enable-background:new -286 31 616 500;" xml:space="preserve">
<style type="text/css">
	.st0{fill:#FFFFFF;}
	.st1{fill:#D6D6D6;}
</style>
<path class="st0" d="M268.7,179.6l-1.5-3.5c-0.2-0.9-1.3-2.6-1.5-3.5c-2.6-4.3-4.3-8.7-9.6-10.6c-5.3-1.8-9,0.7-15.6,5l-5.8,4.1
	c-0.8,0.2-0.6,1.1-1.4,1.2c-0.8,0.2-1-0.7-1.7-0.6l-2.6-0.4c-6.1-1.7-14.1-0.1-21.9,11l-0.6,1.1c-1.3,2.1-1.7,4.2-2.1,6.1l0.4,1.8
	c-0.6,1.2-0.4,2.1-0.2,3c-3.5,2.5-6.4,4.1-9.9,6.5c-17.1-20.5-32.6-39.8-42.9-53.1c-3.2-5.9-7.2-11.1-11.7-15.3
	c-0.3-0.4-0.6-0.8-0.8-1.1l-0.1,0.3c-5.5-4.9-11.9-8.5-19-10.3c-1.8,0-2.9-0.8-4.7-1.6c-0.9,0-0.9,0-0.9-0.8l-3.8-8.2
	c-0.9-2.5-3.8-4.9-6.5-5.7c-3.8-0.8-11.2-5.7-29-21.2c-2.9-2.5-8.5-7.4-16.8-7.4c-4.7,0-11.2,1.6-15.9,9c-0.6,0.7-7.1,3.2-19.3,3.2
	h-3.8C7.2,88.5,0.6,86-0.4,85.2c-0.9-2.5-2.9-4.1-5.6-5.7c-3.8-2.5-7.5-4.1-11.2-4.1c-7.5,0-12.1,4.1-17.8,8.2
	c-16.8,14.6-24.3,18.7-28.1,20.4c-2.9,0.8-5.6,3.3-6.5,5.7l-3.8,8.2l-0.9,0.8l-0.9,0.8c-0.9,0-1.8,0.8-3.8,0.8
	c-7.5,2-14.4,5.8-20.3,11.1l-0.1-0.2c-0.2,0.2-0.3,0.5-0.5,0.8c-4.4,4.1-8.1,9-11.1,14.6c-10.4,13.4-26.4,33.4-44.2,54.6l-0.3-0.1
	c-3.6-2.6-6.7-4.2-10.3-6.8c0.2-0.9,0.4-1.8-0.2-3l0.4-1.8c-0.4-2-0.8-4-2.1-6.1l-0.6-1.1c-7.7-11.1-15.7-12.7-21.9-11l-2.6,0.4
	c-0.8-0.2-1,0.7-1.7,0.6c-0.8-0.2-0.6-1.1-1.4-1.2l-5.8-4.1c-6.7-4.2-10.3-6.8-15.6-5s-7,6.3-9.6,10.6c-0.2,0.9-1.3,2.6-1.5,3.5
	l-1.5,3.5c-5.4,10.3-12.4,29-16.8,38.6c0,0,65.9,43.1,103.9,59.1c12,5.1,31.5-12.2,41.9-34.3l8.6,73.4l-31.3,137.7
	c10.3,6.5,19.7,13.8,41.1,20.4c2.9,0.8,6.5,0.8,9.4-0.8c0.9-0.8,2.9-1.6,3.8-3.3c0.9-0.8,1.8-2.5,1.8-4.1v-0.8l0.9-4.9
	c0.9,0,2.9,0.8,3.8,0.8c0,3.6,0.2,6.3,0.6,8.3c0.3,2,0.8,3.5,1.3,4.7c0.9,2.5,2.9,4.1,4.7,5.7c3.8,1.6,19.7,8.2,77.7,8.2
	c58,0,73.9-6.6,77.6-8.2c1.8-1.6,3.8-3.3,4.7-5.7c0.9-1.6,1.8-4.9,1.8-12.2l4.7-0.8l0.9,4.9c0,0.4,0.2,1,0.6,1.6
	c0.3,0.6,0.8,1.2,1.3,1.6c0.9,0.8,1.8,2.5,3.8,3.3c2.9,1.6,6.5,1.6,9.4,0.8c21.5-5.7,30.9-13.8,41.1-20.4l-31.3-137.7l3.8-66.4
	c9.8,19.1,31,32.8,41.9,28.2c38-16,103.9-59.1,103.9-59.1C281.1,208.6,274.1,190,268.7,179.6z M61.4,338.5h-29
	c5.6,6.6,8.5,11.4,6.5,13c-2.9,2.5-13.1-3.3-23.4-13H-21c-2.9,0-4.7-1.6-4.7-4.1s1.8-4.1,4.7-4.1h29c-5.6-6.5-8.5-11.3-6.5-12.9
	c2.9-2.5,13.1,3.3,23.4,13h36.5c2.9,0,4.7,1.6,4.7,4.1C66.1,336.9,63.3,338.5,61.4,338.5z M61.4,282.4h-29c5.6,6.5,8.5,11.4,6.5,13
	c-2.9,2.5-13.1-3.3-23.4-13H-21c-2.9,0-4.7-1.6-4.7-4.1c0-2.5,1.8-4.1,4.7-4.1h29c-5.6-6.6-8.5-11.4-6.5-13
	c2.9-2.5,13.1,3.3,23.4,13h36.5c2.9,0,4.7,1.6,4.7,4.1C66.1,280.7,63.3,282.4,61.4,282.4z M61.4,225.4h-29c5.6,6.5,8.5,11.4,6.5,13
	c-2.9,2.5-13.1-3.3-23.4-13H-21c-2.9,0-4.7-1.6-4.7-4.1c0-2.5,1.8-4.1,4.7-4.1h29c-5.6-6.6-8.5-11.4-6.5-13
	c2.9-2.5,13.1,3.3,23.4,13h36.5c2.9,0,4.7,1.6,4.7,4.1C66.1,223.7,63.3,225.4,61.4,225.4z"/>
<path class="st1" d="M66.1,334.5c0,2.5-2.9,4.1-4.7,4.1h-29c5.6,6.6,8.5,11.4,6.5,13c-2.9,2.5-13.1-3.3-23.4-13H-21
	c-2.9,0-4.7-1.6-4.7-4.1c0-2.5,1.8-4.1,4.7-4.1h29c-5.6-6.6-8.5-11.4-6.5-13c2.9-2.5,13.1,3.3,23.4,13h36.5
	C64.2,330.4,66.1,332,66.1,334.5z"/>
<path class="st1" d="M66.1,278.3c0,2.5-2.9,4.1-4.7,4.1h-29c5.6,6.5,8.5,11.4,6.5,13c-2.9,2.5-13.1-3.3-23.4-13H-21
	c-2.9,0-4.7-1.6-4.7-4.1c0-2.5,1.8-4.1,4.7-4.1h29c-5.6-6.6-8.5-11.4-6.5-13c2.9-2.5,13.1,3.3,23.4,13h36.5
	C64.2,274.2,66.1,275.8,66.1,278.3z"/>
<path class="st1" d="M66.1,221.3c0,2.5-2.9,4.1-4.7,4.1h-29c5.6,6.5,8.5,11.4,6.5,13c-2.9,2.5-13.1-3.3-23.4-13H-21
	c-2.9,0-4.7-1.6-4.7-4.1s1.8-4.1,4.7-4.1h29c-5.6-6.6-8.5-11.4-6.5-13c2.9-2.5,13.1,3.3,23.4,13h36.5
	C64.2,217.2,66.1,218.8,66.1,221.3z"/>
</svg>
