<?xml version="1.0" encoding="utf-8"?>
<!-- Generator: Adobe Illustrator 19.1.0, SVG Export Plug-In . SVG Version: 6.00 Build 0)  -->
<svg version="1.1" id="Arrow_1_" xmlns="http://www.w3.org/2000/svg" xmlns:xlink="http://www.w3.org/1999/xlink" x="0px" y="0px"
	 viewBox="-229 31 500 500" style="enable-background:new -229 31 500 500;" xml:space="preserve">
<style type="text/css">
	.st0{fill:#FFFFFF;}
	.st1{fill:#C6C6C6;}
</style>
<g id="_x31_069-basketball-shirt-selected_x40_2x.png">
	<g>
		<path class="st0" d="M88.4,68.2c-4.1-2.7-9.6-1.6-12.4,2.5c-0.2,0.2-15.7,22.8-55.1,22.8c-38.8,0-54.4-21.9-55.1-22.9
			c-2.7-4.1-8.2-5.1-12.3-2.4s-5.2,8.3-2.5,12.4c0.9,1.3,21.1,30.8,70,30.8s69.1-29.5,69.9-30.8C93.6,76.5,92.5,71,88.4,68.2z
			 M199.6,269.7c0-14.6-13.4-28-35.7-38.8v-191c0-4.9-4-8.9-8.9-8.9h-35.7c-4.9,0-8.9,4-8.9,8.9h-0.2c0.1,1.5,0.2,3,0.2,4.5
			c0,51.8-40,93.7-89.3,93.7c-49.3,0-89.3-42-89.3-93.7c0-1.5,0.2-3,0.2-4.5h-0.2c0-4.9-4-8.9-8.9-8.9h-35.7c-4.9,0-8.9,4-8.9,8.9
			v191c-22.3,10.8-35.7,24.2-35.7,38.8c0,0.8,0.2,1.6,0.3,2.4h-0.3v196.4C-157.6,503-77.6,531,21,531s178.6-28,178.6-62.5V272.1
			h-0.3C199.3,271.3,199.6,270.5,199.6,269.7z M87,399c-3.8,8.8-9.1,16.5-15.7,22.9c-6.6,6.4-14.4,11.4-23.4,14.9
			s-18.5,5.3-28.5,5.3c-9.9,0-19-1.5-27.3-4.4c-8.4-2.9-15.6-7.2-21.7-12.8c-6.1-5.6-11-12.4-14.6-20.6c-3.6-8.1-5.5-17.3-5.7-27.4
			h19c0.2,7.3,1.7,14,4.4,20.1s6.4,11.3,11,15.7c4.6,4.4,10.1,7.7,16.3,10.1c6.2,2.3,13,3.5,20.2,3.5c8.3,0,15.6-1.6,22-4.7
			c6.4-3.2,12-7.4,16.6-12.8c4.6-5.4,8.2-11.6,10.6-18.6c2.4-7,3.6-14.4,3.6-22.1c0-7.9-1.4-15.2-4.1-21.9s-6.4-12.5-11.2-17.5
			c-4.7-5-10.4-8.9-17.1-11.7c-6.7-2.8-13.9-4.3-21.7-4.3c-9.7,0-18.6,2.2-26.9,6.6c-8.3,4.4-15,10.6-20.2,18.7h-16.3l20.5-110.6
			H82.5v17.7H-10l-13.6,70.7l0.6,0.6c5.2-6.3,11.9-11.2,19.9-14.6c8-3.5,16.3-5.2,24.8-5.2c10.9,0,20.7,1.8,29.4,5.5
			c8.8,3.7,16.2,8.7,22.3,15.2c6.1,6.5,10.9,14.3,14.2,23.3c3.3,9,5,18.9,5,29.7C92.7,380.5,90.8,390.1,87,399z"/>
		<path class="st1" d="M92.6,370.3c0.1,10.2-1.8,19.8-5.6,28.7c-3.8,8.8-9.1,16.5-15.7,22.9c-6.6,6.4-14.4,11.4-23.4,14.9
			s-18.5,5.3-28.5,5.3c-9.9,0-19-1.5-27.3-4.4c-8.4-2.9-15.6-7.2-21.7-12.8c-6.1-5.6-11-12.4-14.6-20.6c-3.6-8.1-5.5-17.3-5.7-27.4
			h19c0.2,7.3,1.7,14,4.4,20.1s6.4,11.3,11,15.7c4.6,4.4,10.1,7.7,16.3,10.1c6.2,2.3,13,3.5,20.2,3.5c8.3,0,15.6-1.6,22-4.7
			c6.4-3.2,12-7.4,16.6-12.8c4.6-5.4,8.2-11.6,10.6-18.6c2.4-7,3.6-14.4,3.6-22.1c0-7.9-1.4-15.2-4.1-21.9s-6.4-12.5-11.2-17.5
			c-4.7-5-10.4-8.9-17.1-11.7c-6.7-2.8-13.9-4.3-21.7-4.3c-9.7,0-18.6,2.2-26.9,6.6c-8.3,4.4-15,10.6-20.2,18.7h-16.3l20.5-110.6
			H82.5v17.7H-10l-13.6,70.7l0.6,0.6c5.2-6.3,11.9-11.2,19.9-14.6c8-3.5,16.3-5.2,24.8-5.2c10.9,0,20.7,1.8,29.4,5.5
			c8.8,3.7,16.2,8.7,22.3,15.2c6.1,6.5,10.9,14.3,14.2,23.3C90.9,349.6,92.6,359.5,92.6,370.3z"/>
	</g>
</g>
</svg>
