<?xml version="1.0" encoding="utf-8"?>
<!-- Generator: Adobe Illustrator 19.1.0, SVG Export Plug-In . SVG Version: 6.00 Build 0)  -->
<svg version="1.1" id="Layer_1" xmlns="http://www.w3.org/2000/svg" xmlns:xlink="http://www.w3.org/1999/xlink" x="0px" y="0px"
	 viewBox="0 0 686 560" style="enable-background:new 0 0 686 560;" xml:space="preserve">
<style type="text/css">
	.st0{fill:#FFFFFF;}
</style>
<g>
	<g>
		<path class="st0" d="M501.6,240v57.4c1.5,0,1.5,0,2.9,0H556c1.5,0,1.5,0,2.9,0V240l-28-23.5L501.6,240z"/>
		<path class="st0" d="M501.6,318h-10.3c-2.9,2.9-4.4,7.4-4.4,10.3v28c0,4.4,1.5,7.4,4.4,10.3h10.3H559h10.3
			c2.9-2.9,4.4-7.4,4.4-10.3v-28c0-4.4-1.5-7.4-4.4-10.3H559h-22.1v8.8c0,4.4-2.9,7.4-7.4,7.4s-7.4-2.9-7.4-7.4V318H501.6z"/>
		<path class="st0" d="M559,443v-57.4c-1.5,0-1.5,0-2.9,0h-51.5c-1.5,0-1.5,0-2.9,0V443l28,23.5L559,443z"/>
	</g>
	<g>
		<path class="st0" d="M130.9,297.4c1.5,0,1.5,0,2.9,0h51.5c1.5,0,1.5,0,2.9,0V240l-28-23.5l-28,23.5v57.4H130.9z"/>
		<path class="st0" d="M130.9,318h-10.3c-2.9,2.9-4.4,7.4-4.4,10.3v28c0,4.4,1.5,7.4,4.4,10.3h10.3h57.4h10.3
			c2.9-2.9,4.4-7.4,4.4-10.3v-28c0-4.4-1.5-7.4-4.4-10.3h-10.3h-22.1v8.8c0,4.4-2.9,7.4-7.4,7.4s-7.4-2.9-7.4-7.4V318H130.9z"/>
		<path class="st0" d="M188.3,387.1c-1.5,0-1.5,0-2.9,0h-51.5c-1.5,0-1.5,0-2.9,0v57.4l28,23.5l28-23.5v-57.4H188.3z"/>
	</g>
	<g>
		<path class="st0" d="M636.9,88.5h-32.4H481h-13.2c-7.4-1.5-16.2-4.4-22.1-10.3c-2.9-2.9-5.9-7.4-10.3-11.8
			c-11.8-17.7-30.9-45.6-91.2-45.6s-78,28-91.2,45.6c-2.9,4.4-5.9,8.8-10.3,11.8c-5.9,5.9-14.7,8.8-22.1,10.3h-13.2H83.8H51.4
			c-13.2,0-23.5,10.3-23.5,23.5v32.4v29.4v2.9v17.7v47.1v20.6v16.2v33.8v26.5v22.1v50v69.1c0,30.9,25,55.9,55.9,55.9h517.8
			c30.9,0,55.9-25,55.9-55.9v-69.1v-50v-22.1v-26.5v-33.8v-16.2v-20.6v-47.1v-17.7v-2.9v-29.4V112C660.5,98.8,650.2,88.5,636.9,88.5
			z M117.6,117.9h47.1v57.4h-47.1V117.9z M97.1,304.8c-19.1-11.8-28-28-30.9-41.2h30.9V304.8z M97.1,243H63.2v-47.1h33.8V243z
			 M97.1,175.3H63.2v-57.4h33.8V175.3z M232.4,243h-30.9v20.6h30.9v57.4h-16.2c0,2.9,1.5,4.4,1.5,7.4v28c0,11.8-5.9,20.6-14.7,26.5
			v61.8v5.9l-4.4,4.4l-28,23.5l-8.8,7.4l-8.8-7.4l-28-23.5l-4.4-4.4v-5.9v-61.8c-8.8-5.9-14.7-14.7-14.7-26.5v-28
			c0-11.8,5.9-20.6,14.7-26.5V240v-5.9l0,0v-36.8h47.1v7.4l2.9,2.9l17.7,14.7v-25h47.1V243H232.4z M232.4,175.3h-45.6v-57.4h47.1
			v57.4H232.4z M278,82.6c11.8-16.2,23.5-33.8,67.7-33.8c44.1,0,55.9,17.7,67.7,33.8c1.5,1.5,2.9,4.4,4.4,5.9H273.6
			C275.1,87,276.5,84.1,278,82.6z M322.1,243v-47.1h47.1V243H322.1z M369.2,263.6v57.4h-23.5h-23.5v-57.4H369.2z M322.1,175.3v-57.4
			h23.5h23.5v57.4H322.1z M254.5,117.9h47.1v57.4h-47.1V117.9z M254.5,195.9h47.1V243h-47.1V195.9z M254.5,263.6h47.1v57.4h-47.1
			V263.6z M416.3,475.4H273.6v-78h142.7V475.4z M436.9,320.9h-47.1v-57.4h47.1V320.9z M436.9,243h-47.1v-47.1h47.1V243z
			 M436.9,175.3h-47.1v-57.4h47.1V175.3z M525.1,117.9h47.1v57.4h-47.1V117.9z M457.5,117.9h47.1v57.4h-47.1V117.9z M588.4,356.2
			c0,11.8-5.9,20.6-14.7,26.5v61.8v5.9l-4.4,4.4l-28,23.5l-8.8,7.4l-8.8-7.4l-28-23.5l-4.4-4.4v-5.9v-61.8
			c-8.8-5.9-14.7-14.7-14.7-26.5v-28c0-2.9,0-4.4,1.5-7.4h-17.7v-57.4h30.9V243h-30.9v-47.1h47.1v25l17.7-14.7l2.9-2.9v-7.4h47.1
			v36.8h1.5v5.9v61.8c8.8,5.9,14.7,14.7,14.7,26.5v29.4H588.4z M592.8,304.8v-41.2h30.9C620.8,276.8,611.9,293,592.8,304.8z
			 M626.6,243h-33.8v-47.1h33.8V243z M626.6,175.3h-33.8v-57.4h33.8V175.3z"/>
		<rect x="288.3" y="410.7" class="st0" width="114.7" height="50"/>
	</g>
</g>
</svg>
