<?xml version="1.0" encoding="utf-8"?>
<!-- Generator: Adobe Illustrator 19.1.0, SVG Export Plug-In . SVG Version: 6.00 Build 0)  -->
<svg version="1.1" id="Layer_1" xmlns="http://www.w3.org/2000/svg" xmlns:xlink="http://www.w3.org/1999/xlink" x="0px" y="0px"
	 viewBox="0 0 960 414.4" style="enable-background:new 0 0 960 414.4;" xml:space="preserve">
<style type="text/css">
	.st0{fill:#FFFFFF;}
	.st1{fill:#FAE5E2;}
</style>
<g>
	<path class="st0" d="M807.3,299.7c-3.9-1.5-7.7-3.4-11.7-4.1c-8.4-1.6-9.2-4.8-5.3-12.4c12.5-24.4,21.1-49.8,15.5-77.8
		c-3.8-19.3-12.2-36.2-32.4-42.2c-19.3-5.8-36.2,1.2-50.5,14.8c-3.3,3.2-6.1,7-9.1,10.5c-0.7-0.4-1.5-0.8-2.2-1.2
		c0.7-11.2-1.9-21.7-5.6-32c-12.5-35.2-42.9-53-77.4-44.6c-22.6,5.5-39.2,20.2-53.7,37.8c-1.9,2.3-2.7,6.1-6.8,6
		c-1.9-6.1-3.6-12.1-5.7-17.9c0,0-33.4-80.9-96.7-80.9c-47.3,0-73.8,31.6-91.3,63.9c-7.1,13-10.7,27.3-14.5,43.2
		c-10.7-15.3-22.1-27.6-36.6-36.7c-40.5-25.4-83.5-11.1-100.8,33.4c-4.2,10.8-5.8,22.1-7.1,36.3c-4.6-5.1-7.4-8.8-10.8-11.9
		c-22.9-21-54.7-22.1-70.7-2.2c-12.9,16-15.5,34.9-13.3,54.7c2.7,24.2,13.6,45.3,26.6,65.3c3.6,5.5,2.3,7.4-3,9.6
		c-9.2,4-18.2,8.7-27.4,12.8c-4.2,1.9-4.9,4.3-2.7,8.4c4.1,7.6,8.2,15.2,11.5,23.1c2.6,6,5.3,6,10.7,3.3
		c32.2-16.7,65.9-29.8,100.4-40.8c69.4-22,140.8-32.4,213.4-34.4c65.7-1.8,130.9,4,195.6,15.4c47.3,8.3,93.9,19.5,139.6,34.7
		c7.3,2.4,15.5,8.6,21.4,6.7c6.2-1.9,6.9-12.8,9.9-19.8C822.9,305.7,822.8,305.6,807.3,299.7z M146.6,184.7c0.2-4.5,3.2-6.8,7.7-6.8
		c4.9,0,7.6,2.7,8.1,7.3c-0.7,4.8-3.2,8.3-7.9,8.3C149.4,193.5,146.4,189.8,146.6,184.7z M141.9,344.9c-5.5-0.1-9.8-3.5-9.8-10.2
		c0-6.3,3.9-8.7,8.7-10.1c6.3,0.8,10.7,3.5,10.8,9.9C151.6,340.6,147.9,345.1,141.9,344.9z M212.3,310.7c-0.3,6.1-4,9.9-10.4,9.7
		c-6-0.2-8.9-4-9.2-10c0.6-6.3,4-9.7,10.4-9.5C209.1,301.2,212.5,304.8,212.3,310.7z M218.6,282.5c-15.7,5.2-31.3,10.8-46.8,16.6
		c-3.8,1.4-5.7,0.9-7.9-2.5c-11.3-16.9-20.5-34.7-22.3-55.4c-0.8-9.2,0.6-18.4,4.7-26.8c7.8-16,24.3-21.1,40.4-11.8
		c21.7,12.4,32,32.5,36.3,56.2c0.8,4.6,1.4,9.4,2.1,14C226,278.2,223.8,280.8,218.6,282.5z M272.2,126.2c6.5,0.1,9.6,3.9,9.8,10.2
		c-0.6,5.9-3.8,9.5-9.8,9.2c-6.2-0.2-9.9-3.9-9.8-10.3C262.5,129.4,266.2,126.2,272.2,126.2z M266,300.1c-5.7,0.3-10.4-3.1-10.6-9.4
		c-0.2-6.1,3.5-10.6,9.4-10.7c5.6,0,10,3.3,10.1,11.3C275.1,296.2,271.3,299.8,266,300.1z M334.1,286.1c-5.6,0-8.9-4.4-9.3-10
		c-0.4-5.4,5.5-10.8,10.9-10.3c4.8,0.4,8.7,5.3,8.6,10.6C344.2,283,339.7,286.1,334.1,286.1z M359.7,247.5l-96.1,21.8
		c-3.7,1-5.4,0.2-6.9-3c-7.7-17.1-14.9-34.3-14.2-54.4c-0.7-8.8,1.2-18.1,4.4-27.1c11-30.4,40.9-40.9,68.5-23.8
		c24.9,15.4,37.4,39,42.9,66.8C359.8,234.6,363.1,241.7,359.7,247.5z M463.9,69.3c6.2,0.1,12.2,6.5,12.2,13
		c0,5.6-6.1,11.7-12.1,11.8c-6.1,0.2-12.6-6.1-12.7-12.2C451.2,75.8,457.9,69.2,463.9,69.3z M411.5,264.7c-0.3,5.6-3.8,9.9-9.5,9.6
		c-7.2-0.1-10.6-4-10.6-9.4c0-5.8,3.5-10.3,9.9-10.1C407.4,254.9,411.8,258.6,411.5,264.7z M465.7,272.2
		c-5.1,0.8-11.3-5.4-10.7-10.6c0.7-5.7,4.5-8.6,9.3-8.9c7,0,10.3,2.9,10.2,9.2C474.4,267.7,471.3,271.3,465.7,272.2z M531.7,273.9
		c-6.4,0.3-10.1-4.1-10.2-10c-0.1-5.5,3.4-9.3,9.3-9.6c6.4,0.2,10.9,3.1,11,9.3C541.9,269.7,537.8,273.7,531.7,273.9z M537.3,238.8
		c-1.2,5.7-3.9,7.3-9.2,6.8c-24.3-2.3-48.6-2.1-72.9-1.5c-17.5,0.4-35,1.3-52.4,2.4c-3.4,0.2-5.6,0.3-6.7-3.5
		c-9.8-32.9-11.7-65.4,5.9-96.6c13.9-24.6,34.5-40.6,63.4-40.8c26.9-0.2,47.3,13.7,61.6,36.3c11,17.2,16.1,36.1,15.6,57.4
		C542.8,212.2,540.1,225.5,537.3,238.8z M653.8,119.8c6-0.2,9.2,4.3,11,9.9c-1.9,5.2-4.3,10.4-10.5,10.4c-6.1,0-10-4-10.3-10.1
		C643.7,123.7,648,120,653.8,119.8z M598.2,280.8c-5.6,0.1-9.3-4.1-9.5-9.8c-0.2-6.1,3.6-10.7,9.6-10.6c5.6,0.1,10,3.5,9.9,9.8
		C608.2,277.3,603.8,280.6,598.2,280.8z M667.6,292.1c-6.3-0.8-9.8-4-9.5-9.9c0.3-6.1,3.9-10,10.2-9.7c5.7,0.3,9.3,4,9.2,9.8
		C677.3,288.5,673.3,291.6,667.6,292.1z M673.7,255.9c-2.3,5.5-5.9,6.7-11.2,5.7c-29.6-5.7-59.4-10.2-89.6-12.5
		c-4-0.3-6.1-1.7-5.8-6c2.1-34.7,12.8-65.5,43-85.6c35.7-23.7,69-2.9,74.6,37.1c0.6,4.4,0.1,8.9,0.1,13.3
		C686.1,225.1,680.2,240.5,673.7,255.9z M772.1,172.4c4.7,0.1,7.3,1.8,7.1,6.8c0.4,5.1-1.8,7.7-7.2,7.7c-4.7,0-7.1-1.9-7.2-6.8
		C764.8,175,766.7,172.4,772.1,172.4z M734.4,308c-6.3-0.1-10.2-3.7-10.3-9.7c-0.1-6.1,3.8-9.8,10-9.8c6.5,0,9.2,4.2,9.5,9.3
		C743.6,305,740.6,308.1,734.4,308z M772.1,282.8c-1.9,3.7-4.2,3.8-8,2.8c-17.4-4.7-34.9-9.1-52.4-13.6c-3.3-0.8-6-1.9-5.9-6.4
		c0.6-24.5,8-46.2,26.7-62.7c9.6-8.5,21.1-14.1,34.3-8c13.8,6.3,17.7,19.1,19.5,32.8c0.3,2.3,0,4.7,0,7.1
		C786.2,252.1,779.7,267.6,772.1,282.8z M796.3,325.7c-5.9,0.1-10.4-2.3-10-9.7c-0.7-6.6,3.4-9.5,9.4-9.6c6.3-0.2,10,3.7,10.1,9.8
		C805.8,321.8,802.1,325.6,796.3,325.7z"/>
	<path class="st1" d="M464.1,94.1c5.9-0.2,12.1-6.2,12.1-11.8c0-6.4-6.1-12.8-12.2-13c-6-0.1-12.7,6.5-12.6,12.6
		C451.5,88,458,94.3,464.1,94.1z"/>
	<path class="st1" d="M654.2,140.1c6.3,0,8.6-5.2,10.5-10.4c-1.7-5.6-4.9-10.1-11-9.9c-5.8,0.2-10.2,3.9-9.9,10.3
		C644.3,136.1,648.2,140.2,654.2,140.1z"/>
	<path class="st1" d="M530.8,254.4c-5.9,0.3-9.3,4.1-9.3,9.6c0.1,5.8,3.7,10.2,10.2,10c6.1-0.2,10.2-4.2,10.1-10.2
		C541.7,257.5,537.2,254.6,530.8,254.4z"/>
	<path class="st1" d="M598.3,260.4c-6-0.1-9.8,4.5-9.6,10.6c0.2,5.7,3.9,9.9,9.5,9.8c5.6-0.1,10-3.5,10-10.6
		C608.3,263.9,603.9,260.4,598.3,260.4z"/>
	<path class="st1" d="M140.8,324.6c-4.7,1.5-8.7,3.8-8.7,10.1c0,6.8,4.3,10.1,9.8,10.2c6,0.1,9.7-4.4,9.6-10.5
		C151.5,328.1,147,325.4,140.8,324.6z"/>
	<path class="st1" d="M795.7,306.3c-6,0.2-10.1,3.1-9.4,9.6c-0.3,7.4,4.2,9.8,10,9.7c5.7-0.1,9.5-3.8,9.4-9.5
		C805.7,310.1,802,306.2,795.7,306.3z"/>
	<path class="st1" d="M734.2,288.5c-6.2,0-10.1,3.7-10,9.8c0.1,6,3.9,9.5,10.3,9.7c6.2,0.1,9.2-3,9.2-10.2
		C743.4,292.7,740.7,288.5,734.2,288.5z"/>
	<path class="st1" d="M264.8,280c-6,0-9.6,4.6-9.4,10.7c0.2,6.4,4.9,9.8,10.6,9.4c5.3-0.3,9.2-3.9,8.9-8.8
		C274.8,283.3,270.4,279.9,264.8,280z"/>
	<path class="st1" d="M335.8,265.7c-5.4-0.5-11.3,4.9-10.9,10.3c0.4,5.6,3.7,10,9.3,10c5.6,0,10.1-3.1,10.3-9.7
		C344.5,271,340.6,266.2,335.8,265.7z"/>
	<path class="st1" d="M401.3,254.7c-6.4-0.1-10,4.3-9.9,10.1c0,5.4,3.4,9.3,10.6,9.4c5.7,0.3,9.2-4,9.5-9.6
		C411.8,258.6,407.4,254.9,401.3,254.7z"/>
	<path class="st1" d="M203.1,300.9c-6.4-0.3-9.8,3.2-10.4,9.5c0.3,6,3.2,9.8,9.2,10c6.4,0.2,10.1-3.6,10.4-9.7
		C212.5,304.8,209.1,301.2,203.1,300.9z"/>
	<path class="st1" d="M272.2,145.7c6,0.2,9.2-3.3,9.8-9.2c-0.2-6.4-3.3-10.2-9.8-10.2c-5.9-0.1-9.6,3.1-9.8,9.2
		C262.3,141.7,266,145.4,272.2,145.7z"/>
	<path class="st1" d="M668.3,272.5c-6.2-0.3-9.9,3.5-10.2,9.7c-0.3,5.9,3.2,9.1,9.5,9.9c5.6-0.5,9.7-3.6,9.8-9.8
		C677.6,276.5,674,272.8,668.3,272.5z"/>
	<path class="st1" d="M464.3,252.6c-4.8,0.3-8.6,3.3-9.3,8.9c-0.7,5.2,5.6,11.3,10.7,10.6c5.6-0.8,8.7-4.4,8.8-10.3
		C474.5,255.6,471.3,252.7,464.3,252.6z"/>
	<path class="st1" d="M154.5,193.5c4.7,0.1,7.2-3.5,7.9-8.3c-0.5-4.7-3.1-7.3-8.1-7.3c-4.5,0-7.5,2.3-7.7,6.8
		C146.4,189.8,149.4,193.5,154.5,193.5z"/>
	<path class="st1" d="M772.1,186.9c5.4,0,7.6-2.5,7.2-7.7c0.2-5-2.5-6.7-7.1-6.8c-5.4-0.1-7.3,2.5-7.2,7.7
		C765,185,767.4,186.8,772.1,186.9z"/>
</g>
</svg>
