<?xml version="1.0" encoding="utf-8"?>
<!-- Generator: Adobe Illustrator 18.1.1, SVG Export Plug-In . SVG Version: 6.00 Build 0)  -->
<svg version="1.1" id="Layer_1" xmlns="http://www.w3.org/2000/svg" xmlns:xlink="http://www.w3.org/1999/xlink" x="0px" y="0px"
	 viewBox="0 38 200 135" enable-background="new 0 38 200 135" xml:space="preserve">
<g id="Sweater">
	<path fill="#FFFFFF" d="M189.5,72.7c-17.6,11.8-20.1,14-22.6,12c-3.4-2.6-6.3-8.1-15-19c0,0,0,0-0.1,0
		c-4.9-6.5-16.2-16.6-18.2-18.5c-2-1.9-3.4-2.9-7.9-4.2c-2.6-0.8-8.5-1.4-10.2-0.8c-1.7,0.6-3,2.3-4.3,3.4
		c-3.4,2.6-6.8,5.2-10.2,7.8c-0.1,0.1-0.4,0.3-0.5,0.4c-2.6-2-5.2-4-7.9-6.1c-1.8-1.4-3.6-2.8-5.4-4.2c-1.7-1.3-2.1-1.8-4.2-1.8
		c-3.6,0-6.9,0.3-10.4,1c-3.8,0.7-6.5,2.2-8.4,4.2c-1.8,1.9-11.7,11.9-16.6,18.8C38.5,76.2,32,85.5,30.6,83.9
		c-2.3-1-13-6.9-20.5-13.8L5.2,80.3c20.8,19,22.9,18,24.3,18c6.1,0.2,27.2-14.8,33.4-23.4c0.3-0.4,0.7-0.9,1-1.4l0.2-0.3
		c0.8,11.6,4.2,17.4,4.7,19.8c0.6,2.7,0.9,4.7,1.6,15.5c-0.4,9.8-0.3,14-4.2,28c-0.8,5-2.2,10.2-3.4,16.1c-0.5,2.8-1.7,9,0.5,11.2
		c4.3,4.4,14.8,4.1,25.5,5c10.6,0.9,37.1-0.8,41.3-1.7c4.2-0.9,5.5-2.6,6.2-5c0.7-10.1-3.8-26.9-4.4-29.7c-2.4-7.2-3.7-16.8-3-25.4
		c0.6-7.6,1.1-8.9,2.4-13c0.5-1.7,3.7-6.9,5-19.3l1.4,1.3c6.9,9.2,25.3,23.5,31.1,23.3c0,0,4.1,1.5,24.8-16.9L189.5,72.7z"/>
</g>
</svg>
