<?xml version="1.0" encoding="utf-8"?>
<!-- Generator: Adobe Illustrator 19.1.0, SVG Export Plug-In . SVG Version: 6.00 Build 0)  -->
<svg version="1.1" id="Layer_1" xmlns="http://www.w3.org/2000/svg" xmlns:xlink="http://www.w3.org/1999/xlink" x="0px" y="0px"
	 viewBox="0 0 505.9 560" enable-background="new 0 0 505.9 560" xml:space="preserve">
<g>
	<path fill="#FFFFFF" d="M51.8,497c0,0,4,8.8-0.8,15.1c-4.8,6.4,85.3,8,102,19.9c16.7,12,77.3,9.6,90.9,0
		c13.6-9.6,25.5-10.4,25.5-10.4v13.6c0,0,48.6,11.2,81.3-6.4c32.7-17.5,76.5-13.6,93.3-15.1c16.7-1.6,13.6-6.4,12-15.1
		c0,0,21.5-0.8,28.7-8c6.4-7.2-21.5-74.9-40.7-183.3c-18.3-108.4-46.2-247.1-69.3-268.6c-23.1-20.7,40.7-26.3-120.4-13.6
		c0,0-76.5-3.2-92.5,0s-19.9-12-29.5,9.6c-8.8,21.5-45.4,118.8-55,192.9c-9.6,74.1-12.8,90.9-21.5,125.9
		c-8.8,35.1-24.7,82.1-27.1,102c-2.4,19.9-0.8,31.1-7.2,35.9C13.5,496.2,51.8,497,51.8,497z"/>
</g>
</svg>
