<?xml version="1.0" encoding="utf-8"?>
<!-- Generator: Adobe Illustrator 18.1.1, SVG Export Plug-In . SVG Version: 6.00 Build 0)  -->
<svg version="1.1" id="Layer_1" xmlns="http://www.w3.org/2000/svg" xmlns:xlink="http://www.w3.org/1999/xlink" x="0px" y="0px"
	 viewBox="-481.3 136.5 506.8 289.5" enable-background="new -481.3 136.5 506.8 289.5" xml:space="preserve">
<g id="Sweater">
	<path fill="#FFFFFF" d="M-5.5,197.5c-1.7,1.5-3.9,3.3-6.5,5.4c-17.1,14.2-55.3,37.6-60.5,39.5c-3.4,3.2-21.4-21.6-40.8-44.9
		c-0.1,0-0.1,0-0.2,0c-11-14-36.3-35.5-40.7-39.5c-4.5-4-7.7-6.1-17.6-9c-5.9-1.7-18.9-3-22.7-1.7c-3.7,1.2-6.6,4.9-9.7,7.2
		c-7.6,5.6-15.1,11.1-22.7,16.7c-0.3,0.2-0.8,0.7-1.1,0.8c-5.9-4.3-11.7-8.6-17.6-13c-4-3-8-5.9-12.1-8.9c-3.7-2.7-4.7-3.9-9.4-3.8
		c-8,0.1-15.5,0.7-23.3,2.1c-8.6,1.6-14.6,4.7-18.8,8.9c-4,4.1-26.2,25.5-37,40.2c-20.4,22.5-39.2,46.4-42.5,43
		c-5.1-2.1-43-26.8-59.8-41.5c-2.5-2.2-4.7-4.1-6.4-5.6l-14.6,15.8l4,3.2c53.3,59.7,71.3,59,74.3,59c13.7,0.7,65.1-35.7,78.9-54.2
		c0.7-0.9,1.5-2,2.3-3.1l0.5-0.6c1.7,24.8,9.5,37.2,10.6,42.4c1.3,5.7,2.2,6.4,3.8,29.4c1.5,22.1-1.6,41.8-5.4,63.5
		c-1.9,10.7-5.7,23.8-7.6,34.5c-1.1,5.9-3.7,19.2,1.1,24c9.6,9.4,28.9,8.8,52.8,10.7c23.8,1.9,78.6-1.8,88-3.7
		c9.4-1.9,12.4-5.5,13.8-10.7c1.6-21.7-5.4-42.6-9.8-63.6c-3.8-18.2-3.9-35.9-2.4-54.4c1.4-16.3,2.5-19.1,5.3-27.8
		c1.2-3.7,8.3-14.8,11.1-41.4l3.1,2.8c15.4,19.7,60.8,54.3,73.8,54c2.9,0.1,20.7,1.5,75.6-56.4l4.1-3L-5.5,197.5z"/>
</g>
</svg>
