<?xml version="1.0" encoding="utf-8"?>
<!-- Generator: Adobe Illustrator 19.1.0, SVG Export Plug-In . SVG Version: 6.00 Build 0)  -->
<svg version="1.1" id="Layer_1" xmlns="http://www.w3.org/2000/svg" xmlns:xlink="http://www.w3.org/1999/xlink" x="0px" y="0px"
	 viewBox="0 0 960 560" style="enable-background:new 0 0 960 560;" xml:space="preserve">
<style type="text/css">
	.st0{fill:none;}
	.st1{fill:#FFFFFF;}
</style>
<g>
	<path class="st0" d="M729.9,205.7l-1,0.3h-0.8c-12.6-1-25.4-0.1-37.8,1.3c-48.4,5.1-93.3,22.2-126.4,48.3
		c-6.5,5.1-12.2,10.4-17.5,15.9l-0.6,0.6l-0.8,0.4c-21.7,16.7-44.9,25.4-67.3,25c-22.2-0.4-45.3-9.8-66.2-27.2l-0.6-0.6l-0.6-0.6
		c-5.1-5.9-10.8-11.4-16.7-16.5c-32.1-27.4-76.2-46.1-124.4-53c-12.6-1.8-25.4-2.7-37.8-2.7h-0.8l-1-0.2
		c-55.1-9.8-144.1-26.4-197.5-94.9c-2.4,11-4.1,22.2-4.5,33.9c-1.4,69.1,34.7,139.2,48,163l1.4,2.4l0.2,2.8
		C85.5,409.2,195.2,450.2,247,453.5c75.8,4.9,157.7-2,190.4-91.4l1-2.8l2.2-2c10.4-9.8,23-14.8,36-14.6c13.4,0.2,25.8,5.7,36,16.1
		l2,2l1,2.8c29.3,90,110.8,99.8,186.6,97.7c51.2-1.6,166.6-40.6,175.8-146.7l0.2-2.2l8.5-18.3c22.2-47.6,43.7-93.3,44.7-142.9
		c0.2-10.6-0.8-21.2-2.6-32C874.8,184,788.8,197.1,729.9,205.7z M264.3,216.5c7.7,0.2,13.8,7.9,13.6,17.5s-6.5,17.1-14.2,16.9
		c-7.7-0.2-13.8-7.9-13.6-17.5C250.3,223.9,256.6,216.3,264.3,216.5z M76.7,267.3C39.4,225.9,38.3,116,38.3,116
		c19.7,49.8,129.9,86.2,129.9,86.2C110.3,201.3,76.7,267.3,76.7,267.3z M137.5,273.4c-7.7-0.2-13.8-8.1-13.6-17.5
		c0.2-9.6,6.5-17.1,14.2-17.1c7.9,0.2,13.8,8.1,13.6,17.7C151.5,265.9,145.2,273.6,137.5,273.4z M351.1,339.5
		c-7.3,14.4-43.1,38-96.5,30.7c-53.2-7.7-83.9-40.4-88.4-56.3l-1.2-3.7l2-3.3c8.9-14,45.3-31.1,95.9-23.8
		c50.4,7.3,82.7,33.9,88.6,49.6l1.4,3.5L351.1,339.5z M381.6,304.9c-7.7-0.2-13.8-8.1-13.6-17.5c0.2-9.5,6.5-17.1,14.2-16.9
		c7.9,0.2,13.8,7.9,13.6,17.5C395.6,297.4,389.3,305.1,381.6,304.9z M690.5,223.9c7.7,0.2,13.8,8.1,13.6,17.5
		c-0.2,9.6-6.5,17.3-14.2,17.1c-7.7-0.2-13.8-8.1-13.6-17.5C676.6,231.6,683.1,223.9,690.5,223.9z M569.7,308.4
		c-7.7-0.2-13.8-7.9-13.6-17.5c0.4-9.6,6.7-17.3,14.2-17.1c7.7,0.2,13.8,8.1,13.6,17.5C583.6,300.9,577.3,308.6,569.7,308.4z
		 M786.8,324.9c-5.3,15.8-37.2,47.3-90.8,53c-53.7,5.7-88.6-19.3-95.3-33.9l-1.6-3.5l1.6-3.5c6.5-15.4,40-41,90.6-46.3
		c50.8-5.5,86.6,13,94.7,27.2l2,3.3L786.8,324.9z M815,285.6c-7.7-0.2-13.8-8.1-13.6-17.5c0.2-9.5,6.5-17.1,14.2-16.9
		c7.7,0.2,13.8,7.9,13.6,17.5C829,278.1,822.7,285.8,815,285.6z M876,281.8c0,0-30.9-67.1-88.8-68.3c0,0,111.6-32.5,133.5-81.5
		C920.7,132,915,241.7,876,281.8z"/>
	<path class="st0" d="M261.9,291.1c-49.8-7.1-82.3,10.4-88.4,20.3c3.3,11.8,30.9,43.3,82.1,50.6c51.2,7.1,83.3-15.8,88.8-26.4
		C340.1,324.4,311.5,298.2,261.9,291.1z"/>
	<path class="st0" d="M692.1,298.8c-50,5.3-79.5,30.5-84.3,41.5c4.9,10.8,36,34.8,87.6,29.3c51.6-5.5,80.1-35.8,84.1-47.4
		C773.8,312.1,742.1,293.4,692.1,298.8z"/>
	<path class="st1" d="M262.9,283c-50.6-7.3-87,9.8-95.9,23.8l-2,3.3l1.2,3.7c4.5,15.9,35.2,48.6,88.4,56.3
		c53.4,7.3,89.2-16.3,96.5-30.7l1.8-3.3l-1.4-3.5C345.6,316.9,313.3,290.3,262.9,283z M255.6,362c-51.2-7.3-78.8-38.8-82.1-50.6
		c6.1-9.8,38.6-27.4,88.4-20.3c49.6,7.1,78.2,33.3,82.5,44.5C338.9,346.2,306.8,369,255.6,362z"/>
	<path class="st1" d="M934.7,93c-47.4,75.4-137.4,90.6-205.9,100.6c-12.6-0.4-25.8,0.2-39.2,1.6c-51.8,5.5-98,24-131.9,50.8
		c0,0-0.2,0-0.2,0.2c-6.7,5.3-12.8,11-18.5,16.9c-17.7,13.6-38.6,23-60.6,22.6c-22.2-0.4-42.5-10.6-59.7-24.8
		c-5.3-6.1-11.4-12-17.9-17.5l-0.2-0.2c-32.9-28-78.4-47.8-129.7-55.3c-13.4-2-26.4-3-39.2-3C162.3,172.8,74.1,154,28,76.9
		c-29.3,74.6,4.9,168.7,38.6,227.8c8.3,107.7,117.3,156.1,180,160.3c66.4,4.3,164,3.3,201.4-98.8c8.3-7.5,18.1-11.8,28.7-11.6
		c10.8,0.2,20.7,4.9,28.5,13C538.9,470.4,636,475,702.6,473c62.6-2,177-47.6,186.4-157.5C921.1,246,959.3,176.1,934.7,93z
		 M931.3,151.3c-1,49.6-22.4,95.3-44.7,142.9l-8.5,18.3l-0.2,2.2c-9.3,106.1-124.6,145.1-175.8,146.7
		c-75.8,2.2-157.3-7.7-186.6-97.7l-1-2.8l-2-2c-10.2-10.4-22.6-15.9-36-16.1c-13-0.2-25.6,4.7-36,14.6l-2.2,2l-1,2.8
		c-32.7,89.4-114.6,96.3-190.4,91.4c-51.8-3.3-161.4-44.3-169.7-149.6l-0.2-2.8l-1.4-2.4c-13.4-23.8-49.4-93.9-48-163
		c0.4-11.6,2.2-22.8,4.5-33.9c53.4,68.5,142.3,85.1,197.5,94.9l1,0.2h0.8c12.4,0,25.2,1,37.8,2.7c48.2,6.9,92.3,25.6,124.4,53
		c5.9,5.1,11.6,10.6,16.7,16.5l0.6,0.6l0.6,0.6c20.9,17.3,43.9,26.8,66.2,27.2c22.4,0.4,45.7-8.3,67.3-25l0.8-0.4l0.6-0.6
		c5.3-5.5,11-10.8,17.5-15.9c33.1-26.2,78-43.2,126.4-48.3c12.4-1.4,25.2-2.3,37.8-1.3h0.8l1-0.3c58.9-8.7,144.9-21.7,198.9-86.5
		C930.5,130.1,931.5,140.7,931.3,151.3z"/>
	<path class="st1" d="M691.3,290.7c-50.6,5.3-84.1,30.9-90.6,46.3l-1.6,3.5l1.6,3.5c6.7,14.6,41.5,39.6,95.3,33.9
		c53.6-5.7,85.4-37.2,90.8-53l1.2-3.7l-2-3.3C778,303.7,742.1,285.2,691.3,290.7z M695.5,369.6c-51.6,5.5-82.7-18.5-87.6-29.3
		c4.7-11,34.3-36.2,84.3-41.5c50-5.3,81.7,13.4,87.4,23.4C775.6,333.8,747.1,364.1,695.5,369.6z"/>
	<path class="st1" d="M38.3,116c0,0,1.2,109.9,38.4,151.2c0,0,33.7-66,91.6-65C168.2,202.3,58,165.9,38.3,116z M76.1,247
		c-14.8-25.6-21.5-65.4-24.4-94.3c21.9,20.3,53,36.4,77.2,47.1C103.8,211.5,85.9,232.6,76.1,247z"/>
	<path class="st1" d="M787.2,213.5c57.9,1.2,88.8,68.3,88.8,68.3c39-40.2,44.7-149.8,44.7-149.8C898.8,181,787.2,213.5,787.2,213.5z
		 M877.4,261.4c-9.3-14.8-26.4-36.4-50.8-49.2c24.8-9.6,56.3-24.6,79.1-44.1C901.6,197,893.1,236.3,877.4,261.4z"/>
	<path class="st1" d="M138.1,238.7c-7.7,0-14,7.5-14.2,17.1c-0.2,9.5,5.9,17.3,13.6,17.5c7.7,0.2,14-7.5,14.2-16.9
		C151.9,246.8,146,238.9,138.1,238.7z"/>
	<path class="st1" d="M263.7,250.9c7.7,0.2,14-7.3,14.2-16.9s-5.9-17.3-13.6-17.5c-7.7-0.2-14,7.5-14.2,16.9
		C249.9,243,256,250.7,263.7,250.9z"/>
	<path class="st1" d="M382.2,270.4c-7.7-0.2-14,7.5-14.2,16.9c-0.2,9.5,5.9,17.3,13.6,17.5c7.7,0.2,14-7.5,14.2-16.9
		C396,278.3,390.1,270.6,382.2,270.4z"/>
	<path class="st1" d="M815.6,251.1c-7.7-0.2-14,7.5-14.2,16.9c-0.2,9.5,5.9,17.3,13.6,17.5c7.7,0.2,14-7.5,14.2-16.9
		C829.3,259,823.2,251.3,815.6,251.1z"/>
	<path class="st1" d="M690,258.6c7.7,0.2,14-7.5,14.2-17.1c0.2-9.5-5.9-17.3-13.6-17.5c-7.5,0-14,7.7-14.2,17.1
		C676.2,250.5,682.3,258.4,690,258.6z"/>
	<path class="st1" d="M570.2,273.8c-7.5-0.2-13.8,7.5-14.2,17.1c-0.2,9.6,5.9,17.3,13.6,17.5c7.7,0.2,14-7.5,14.2-17.1
		C584,281.8,577.9,274,570.2,273.8z"/>
</g>
</svg>
