<?xml version="1.0" encoding="utf-8"?>
<!-- Generator: Adobe Illustrator 19.1.0, SVG Export Plug-In . SVG Version: 6.00 Build 0)  -->
<svg version="1.1" id="Layer_1" xmlns="http://www.w3.org/2000/svg" xmlns:xlink="http://www.w3.org/1999/xlink" x="0px" y="0px"
	 viewBox="0 0 960 560" style="enable-background:new 0 0 960 560;" xml:space="preserve">
<style type="text/css">
	.st0{fill:#FFFFFF;}
</style>
<path class="st0" d="M776.2,262.1l155.4-38.5l-17.1-26.2v-35.8l-138.5,83.6c0.6-23.6-1.3-42.2-6.9-41.8
	c-326.7,20.2-547.1,12.4-737.1-5.5c-13.9-1.3-2.7,117.5,17.4,119.6c95.7,10.2,440,8.5,709.2,25.6c5.5,0.3,11.1-25.5,14.4-55.1
	l145.8,44.4l-23.5-34.2l36.3-17.1L776.2,262.1z M304.4,307.6c-35.4,0-64.1-16.7-64.1-37.4c0-20.6,28.7-37.4,64.1-37.4
	s64.1,16.7,64.1,37.4C368.5,290.8,339.8,307.6,304.4,307.6z M507.5,309.3c-35.4,0-64.1-16.7-64.1-37.4c0-20.6,28.7-37.4,64.1-37.4
	c35.4,0,64.1,16.7,64.1,37.4C571.6,292.5,542.9,309.3,507.5,309.3z"/>
</svg>
