<?xml version="1.0" encoding="utf-8"?>
<!-- Generator: Adobe Illustrator 19.1.0, SVG Export Plug-In . SVG Version: 6.00 Build 0)  -->
<svg version="1.1" id="Layer_1" xmlns="http://www.w3.org/2000/svg" xmlns:xlink="http://www.w3.org/1999/xlink" x="0px" y="0px"
	 viewBox="-173 43 612 475" style="enable-background:new -173 43 612 475;" xml:space="preserve">
<style type="text/css">
	.st0{fill:#FFFFFF;}
</style>
<g>
	<path class="st0" d="M175.7,260c-13.7,0-27.4,3.4-39.9,9.1v-26.2c0-3.4-2.3-5.7-5.7-5.7s-5.7,2.3-5.7,5.7v26.2
		c-12.6-5.7-26.2-9.1-39.9-9.1c-42.2,0-71.9,27.4-76.5,69.6c-9.1,86.7,103.8,147.2,109.5,150.6l12.6,6.9l12.6-6.8
		c4.6-2.3,118.7-63.9,109.5-150.6C247.6,287.4,216.8,260,175.7,260z M136.9,470l-8,4.6l-8-4.6c-4.6-2.3-111.8-59.3-102.7-139.2
		c3.4-36.5,29.7-59.3,65-59.3c14.8,0,29.7,4.6,43.4,11.4l2.3,1.1l2.3-1.1c12.6-8,28.5-11.4,43.4-11.4c35.4,0,61.6,22.8,65,59.3
		C248.8,409.5,141.5,467.7,136.9,470z"/>
	<path class="st0" d="M129,305.7c-28.5-26.2-89-26.2-94.7,27.4C27.5,402.7,129,455.2,129,455.2s101.6-53.6,94.7-122.1
		C218,278.3,158.6,279.4,129,305.7z"/>
	<path class="st0" d="M358.3,77.8c-2.3-2.1-5.7-2.1-8,0c-1.1,1.1-1.1,2.1-1.1,3.2s1.1,3.2,1.1,4.3c1.1,1.1,2.3,1.1,4.6,1.1
		c1.1,0,3.4-1.1,4.6-1.1c1.1-1.1,1.1-2.1,1.1-4.3C359.5,81,359.5,78.9,358.3,77.8z"/>
	<path class="st0" d="M107.3,247.5L107.3,247.5c3.4,0,5.7-2.1,5.7-5.3s-2.3-5.3-5.7-5.3s-5.7,2.1-5.7,5.3
		C101.6,245.3,103.9,247.5,107.3,247.5z"/>
	<path class="st0" d="M151.8,247.5L151.8,247.5c3.4,0,5.7-3.2,5.7-5.3c0-3.2-3.4-5.3-5.7-5.3c-3.4,0-5.7,3.2-5.7,5.3
		C146.1,245.3,149.5,247.5,151.8,247.5z"/>
	<path class="st0" d="M84.5,245.3L84.5,245.3c3.4,0,5.7-2.1,6.8-4.3c0-3.2-1.1-5.3-4.6-6.4c-3.4,0-5.7,2.1-6.8,4.3
		C78.8,242.1,81,245.3,84.5,245.3z"/>
	<path class="st0" d="M174.6,245.3L174.6,245.3c3.4-1.1,5.7-3.2,5.7-6.4c-1.1-3.2-3.4-5.3-6.8-4.3c-3.4,0-5.7,3.2-4.6,6.4
		C168.9,243.2,171.2,245.3,174.6,245.3z"/>
	<path class="st0" d="M61.6,241.1h1.1c2.3,0,4.6-2.1,5.7-4.3c1.1-3.2-1.1-5.3-4.6-6.4c-3.4-1.1-5.7,1.1-6.8,4.3
		C57.1,237.9,59.4,241.1,61.6,241.1z"/>
	<path class="st0" d="M196.3,241.1h1.1c3.4-1.1,4.6-3.2,4.6-6.4c-1.1-3.2-3.4-4.3-6.8-4.3c-3.4,1.1-4.6,3.2-4.6,6.4
		C191.7,240,194,241.1,196.3,241.1z"/>
	<path class="st0" d="M40,235.7h1.1c2.3,0,4.6-1.1,5.7-3.2c1.1-3.2-1.1-6.4-3.4-6.4c-3.4-1.1-5.7,1.1-6.8,3.2
		C35.4,231.5,36.5,234.7,40,235.7z"/>
	<path class="st0" d="M218,235.7c1.1,0,1.1,0,2.3,0c3.4-1.1,4.6-4.3,3.4-6.4c-1.1-3.2-4.6-4.3-6.8-3.2c-3.4,1.1-4.6,4.3-3.4,6.4
		C213.4,234.7,215.7,235.7,218,235.7z"/>
	<path class="st0" d="M20.6,228.3c2.3,0,4.6-1.1,5.7-3.2c1.1-3.2,0-5.3-3.4-6.4s-5.7,0-6.8,3.2c-1.1,3.2,0,6.4,3.4,7.5
		C19.4,228.3,20.6,228.3,20.6,228.3z"/>
	<path class="st0" d="M238.5,228.3c1.1,0,1.1,0,2.3,0c3.4-1.1,4.6-4.3,3.4-6.4c-1.1-3.2-4.6-4.3-6.8-3.2c-3.4,1.1-4.6,4.3-3.4,6.4
		C233.9,227.2,236.2,228.3,238.5,228.3z"/>
	<path class="st0" d="M-4.5,211.2c-1.1,2.1,0,5.3,2.3,7.5c1.1,0,1.1,1.1,2.3,1.1c2.3,0,3.4-1.1,4.6-3.2c1.1-2.1,1.1-5.3-2.3-7.5
		C0,208-2.3,209.1-4.5,211.2z"/>
	<path class="st0" d="M255.6,209.1c-2.3,1.1-3.4,4.3-2.3,7.5c1.1,2.1,3.4,3.2,4.6,3.2c1.1,0,2.3,0,2.3-1.1c2.3-1.1,3.4-4.3,2.3-7.5
		C262.5,209.1,259,208,255.6,209.1z"/>
	<path class="st0" d="M-22.8,200.5c-1.1,2.1-1.1,5.3,1.1,7.5c1.1,1.1,2.3,1.1,3.4,1.1c2.3,0,3.4-1.1,4.6-2.1
		c1.1-2.1,1.1-5.3-1.1-7.5C-18.2,197.3-21.7,198.4-22.8,200.5z"/>
	<path class="st0" d="M275,198.4c-2.3,2.1-3.4,5.3-1.1,7.5c1.1,1.1,3.4,2.1,4.6,2.1c1.1,0,2.3,0,3.4-1.1c2.3-1.1,3.4-5.3,1.1-7.5
		C280.7,197.3,277.3,197.3,275,198.4z"/>
	<path class="st0" d="M-39.9,187.7c-2.3,2.1-2.3,5.3,1.1,7.5c1.1,1.1,2.3,1.1,3.4,1.1c1.1,0,3.4-1.1,4.6-2.1
		c2.3-2.1,1.1-5.3-1.1-7.5C-35.4,184.5-38.8,185.6-39.9,187.7z"/>
	<path class="st0" d="M292.1,186.7c-2.3,2.1-2.3,5.3-1.1,7.5c1.1,1.1,2.3,2.1,4.6,2.1c1.1,0,2.3,0,3.4-1.1c2.3-2.1,2.3-5.3,1.1-7.5
		C297.8,184.5,294.4,184.5,292.1,186.7z"/>
	<path class="st0" d="M-49,172.8c-2.3-2.1-5.7-2.1-8,0s-2.3,5.3,0,7.5l0,0c1.1,1.1,2.3,2.1,4.6,2.1c1.1,0,3.4,0,3.4-1.1
		C-46.8,178.1-46.8,174.9-49,172.8L-49,172.8L-49,172.8z"/>
	<path class="st0" d="M307,172.8c-2.3,2.1-2.3,5.3,0,7.5c1.1,1.1,2.3,1.1,4.6,1.1c1.1,0,3.4,0,4.6-2.1c2.3-2.1,2.3-5.3,0-7.5
		C313.8,170.7,309.2,170.7,307,172.8z"/>
	<path class="st0" d="M-69.6,156.8c-2.3,2.1-3.4,5.3-1.1,7.5c1.1,1.1,2.3,2.1,4.6,2.1c1.1,0,2.3,0,3.4-1.1c2.3-2.1,3.4-5.3,1.1-7.5
		C-63.9,154.7-67.3,154.7-69.6,156.8z"/>
	<path class="st0" d="M320.7,156.8c-2.3,2.1-1.1,5.3,1.1,7.5c1.1,1.1,2.3,1.1,3.4,1.1s3.4-1.1,4.6-2.1c2.3-2.1,1.1-5.3-1.1-7.5
		C326.4,153.6,322.9,154.7,320.7,156.8z"/>
	<path class="st0" d="M-81,137.6c-2.3,1.1-3.4,4.3-2.3,7.5c1.1,2.1,3.4,3.2,4.6,3.2c1.1,0,2.3,0,2.3-1.1c2.3-1.1,3.4-4.3,2.3-7.5
		C-75.3,137.6-78.7,136.5-81,137.6z"/>
	<path class="st0" d="M333.2,139.7c-1.1,2.1,0,5.3,2.3,7.5c1.1,0,1.1,1.1,2.3,1.1c2.3,0,4.6-1.1,4.6-3.2c1.1-2.1,0-5.3-2.3-6.4
		C337.8,136.5,334.3,137.6,333.2,139.7z"/>
	<path class="st0" d="M-82.1,121.6c-1.1-3.2-4.6-4.3-6.8-3.2c-3.4,1.1-4.6,4.3-3.4,6.4c1.1,2.1,3.4,3.2,5.7,3.2c1.1,0,1.1,0,2.3,0
		C-82.1,128-81,124.8-82.1,121.6z"/>
	<path class="st0" d="M348,118.4c-3.4-1.1-5.7,0-6.8,3.2c-1.1,3.2,0,5.3,3.4,6.4c1.1,0,1.1,0,2.3,0c2.3,0,4.6-1.1,5.7-3.2
		C352.6,121.6,351.5,119.5,348,118.4z"/>
	<path class="st0" d="M-87.8,102.4c0-3.2-3.4-5.3-6.8-4.3c-3.4,0-4.6,3.2-4.6,6.4c0,2.1,3.4,4.3,5.7,4.3c0,0,0,0,1.1,0
		C-89,107.7-86.7,105.6-87.8,102.4z"/>
	<path class="st0" d="M-87.8,102.4L-87.8,102.4L-87.8,102.4z"/>
	<path class="st0" d="M352.6,98.1c-3.4-1.1-5.7,1.1-6.8,4.3c0,3.2,1.1,5.3,4.6,6.4c0,0,0,0,1.1,0c2.3,0,4.6-2.1,5.7-4.3
		C358.3,101.3,356,98.1,352.6,98.1z"/>
	<path class="st0" d="M-91.3,85.3c1.1-1.1,1.1-2.1,1.1-4.3c0-1.1,0-3.2-1.1-4.3c-2.3-2.1-5.7-2.1-8,0c-1.1,1.1-1.1,2.1-1.1,3.2
		s1.1,3.2,1.1,3.2c1.1,1.1,2.3,2.1,4.6,2.1C-93.5,87.5-92.4,86.4-91.3,85.3z"/>
</g>
</svg>
