<?xml version="1.0" encoding="utf-8"?>
<!-- Generator: Adobe Illustrator 19.1.0, SVG Export Plug-In . SVG Version: 6.00 Build 0)  -->
<svg version="1.1" id="Layer_1" xmlns="http://www.w3.org/2000/svg" xmlns:xlink="http://www.w3.org/1999/xlink" x="0px" y="0px"
	 viewBox="0 0 328.9 560" style="enable-background:new 0 0 328.9 560;" xml:space="preserve">
<style type="text/css">
	.st0{fill:#FFFFFF;}
</style>
<path class="st0" d="M258.8,61.4l-11.4-25.3H79.1L67.7,61.4c-25,23.9-53.3,145.2,16.5,469.7h67.1l12.7-335.5l12.7,335.5h67.1
	C313.2,217.6,283.8,85.3,258.8,61.4z M65.1,151.3c0,1.3-1.3,2.5-3.8,2.5c0,0,0,0-1.3,0c-2.5,0-2.5-2.5-2.5-3.8l15.2-62
	c0-2.5,2.5-3.8,3.8-2.5c2.5,0,2.5,2.5,2.5,3.8L65.1,151.3z M262.6,153.8L262.6,153.8c-2.5,0-3.8-1.3-3.8-2.5l-15.2-62
	c0-2.5,1.3-3.8,2.5-3.8c1.3,0,3.8,1.3,3.8,2.5l15.2,62C265.1,151.3,265.1,153.8,262.6,153.8z"/>
</svg>
