<?xml version="1.0" encoding="utf-8"?>
<!-- Generator: Adobe Illustrator 19.1.0, SVG Export Plug-In . SVG Version: 6.00 Build 0)  -->
<svg version="1.1" id="Layer_1" xmlns="http://www.w3.org/2000/svg" xmlns:xlink="http://www.w3.org/1999/xlink" x="0px" y="0px"
	 viewBox="0 0 480 480" style="enable-background:new 0 0 480 480;" xml:space="preserve">
<style type="text/css">
	.st0{fill:#FFFFFF;}
</style>
<path class="st0" d="M442.9,240.4c15.5-15-8.6-23.6-8.6-23.6c11.2-18.4,0.5-19-10.7-19.3c41.6-14-2.3-61.4-12.8-52.5
	c12.4-31.6-25.3-61.8-46-46.6c8.2-17.1-2-36.2-29.4-15.5c2.7-11.3,8.5-18.7-10.2-27.3c-26.9-34.5-46.4-15.3-65.3,0.5
	c0,0-28.9-12.8-32.7,3.2c-9.6-27-48-24.3-63.2,15.5c-5.9-4.2-5.7-11.9-20.9,3.2c-19.5-25.9-47.8,4.1-51.4,19.3
	c-21.9-7-13.9,21.4-13.9,21.4c-19.7,3.3-16,9.1-7,15.5c-23.6,4.9-22.7,19.1-21.4,27.8c-22.2,10.7-17.1,28.7-9.1,35.9
	c-9.7,7.9-6.4,13.1-2.1,18.2c-22.1,14.2-9.7,23.6-3.2,33.7c-12.4,53.7-0.8,49.9,16.1,60.5c-9.7,18.1-3,21.9,4.1,25.4
	c0.9,0.5,1.9,0.9,2.8,1.4c-4.7,9.6-0.2,13.5,6.4,16.1c-3.9,36.6,19.6,33.4,33.7,38c-0.9,12,3.2,19.5,16.6,18.7
	c12.2,3.7,13.3,23.8,40.7,4.8c7.6,12.6,9.8,7.7,11.8,2.1c17.4,16.7,25.8,7.5,34.2-1.5c-20.6-6.8-42.3-18.3-60.4-32.5
	c-8.9-7-16.9-14.7-23.6-22.9c-0.2-0.3-0.4-0.5-0.6-0.8c-0.1-0.2-0.3-0.3-0.4-0.5c-7.1-9-12.5-18.5-15.5-28.3c0,0-29.6-4.1-29.6-32
	c0-0.1,0-0.1,0-0.2c0,0,0-0.1,0-0.1c0-32.9,23.1-33.6,23.1-33.6c0,0.1,0,0.3,0,0.3c0,0,0,0,0,0c0,1-0.1,2.4-0.1,3.5
	c0.2,17.5,6.9,23.6,7.4,24.1c0-0.2,0-0.6,0-1.1c0-2.7,0.6-9.7,7.4-17.3c10-11.1,27.2-15.5,49.4-33.7c22.3-18.5,32-57,32-57
	s4.9,21.2,38.6,52.1c14.6,13.5,29.6,17.8,41.8,18.4c3.8-3.6,8.8-6.1,15.5-6.1c4.1,0,7.4,0.8,10.2,2c0.4-0.2,0.7-0.3,1-0.4
	c-2.2-0.3-12.4-2.1-23.4-10.5c-12.5-9.5-14.9-25-14.9-25s0.1,0.3,0.2,0.8c-0.1-0.7-0.2-1-0.2-1s3.2,17,33.6,27.7
	c0.3,0.1,0.6,0.2,0.9,0.3c31.2,10.6,48.3,8.7,60.8,17.4c12.5,8.7,12.5,44,12.5,44c0,0,7.1-9.2,11.7-18.2c1.9-3.8,4.6-19,4.6-19l0,0
	v0c0,0,3.8,0.5,8,3.8c5.5,4.2,11.8,12.8,11.8,30.4c0,0,0,0.1,0,0.1c0,0.1,0,0.1,0,0.2c0,25.8-28,31.5-28,31.5
	c-8.7,21.9-24,39.7-41.8,53.5c9.9,4.8,19.8,12.6,29.8-12.6c33.9,4.4,45.4-22.2,51.4-33.7c1.8-0.9,4.1-2.3,6.6-4.1
	c10.8-8,23.9-24.1,5.7-40.9C455.6,280.9,453.4,253.2,442.9,240.4z"/>
</svg>
