<?xml version="1.0" encoding="utf-8"?>
<!-- Generator: Adobe Illustrator 19.1.0, SVG Export Plug-In . SVG Version: 6.00 Build 0)  -->
<svg version="1.1" id="Layer_1" xmlns="http://www.w3.org/2000/svg" xmlns:xlink="http://www.w3.org/1999/xlink" x="0px" y="0px"
	 viewBox="0 0 480 480" style="enable-background:new 0 0 480 480;" xml:space="preserve">
<style type="text/css">
	.st0{display:none;fill:#FFDFBE;}
	.st1{fill:none;}
	.st2{fill:#DD3858;}
	.st3{fill:#FFFFFF;}
	.st4{fill:none;stroke:#FFFFFF;stroke-width:4;stroke-miterlimit:10;}
</style>
<path class="st0" d="M256.8,79.9V69.2c-1,0.3-4.6,1.5-8.9,1.5c-0.1,0-0.1,0-0.1,0c-3.3,0-6.5-0.4-8.1-0.6v9.4
	c-3.9,0.9-15.2,5.9-15.6,6c-1.5,0.7,2.1,10.2,2.5,11.4c2.3,6.9,6,14.7,12.7,18.3c17.3,9.3,29.8-13.1,35.4-28
	C273.3,86.3,262.9,82.2,256.8,79.9z"/>
<g>
	<path class="st1" d="M283.1,108.8c7.7-18,15.5-36.1,23.2-54.1c0.2-0.6,0.7-1.1,0.3-1.8c-0.8-0.5-1.7-0.3-2.5-0.3
		c-14.9,0.2-29.8-0.2-44.8-0.1c-9.5,0.1-18.9-0.3-28.4-0.1c-12.8,0.3-25.5-0.1-38.3-0.1c-3.3,0-6.6,0.1-9.9,0.2
		c-1,0-1.5,0.1-1.5,0.6c0,0.1,0.1,0.3,0.1,0.4c0.1,0.2,0.2,0.5,0.4,0.9c2.7,4.7,5.4,9.4,8.1,14.1c8,14,16,28,24,42
		c0.3,0.4,0.4,0.8,0.6,1c11,11.7,24.2,23,36.6,23.8c8.9-0.5,20.7-11.9,31.4-24.6C282.5,110.3,282.6,109.7,283.1,108.8z"/>
	<path class="st2" d="M181.5,53.5c0-0.1-0.1-0.3-0.1-0.4C181.4,53.2,181.4,53.3,181.5,53.5z"/>
	<path class="st3" d="M375.9,72.9c-7.9-7.1-13.5-11.1-31.2-16.1c-2.7-0.7-6.3-3.4-25.2-4.4c4.8,7.5,9.6,15.1,14.4,22.6
		c1.2,1.9,1.4,3.5,0.4,5.6c-4.9,11.3-9.7,22.7-14.6,34.1c-0.8,1.9-0.8,1.9-2.9,1.6c-6.3-0.9-12.5-1.8-18.8-2.7
		c-4.5-0.7-9.1-1.3-13.6-2c-1.2-0.2-1.8-0.4-1.9-0.8c-10.7,12.6-22.5,24-31.4,24.6c-12.4-0.8-25.5-12.1-36.6-23.8
		c0.4,0.8,0,1-1.5,1.3c-8.3,1.8-16.6,3.5-24.9,5.3c-7.6,1.6-15.3,3.1-22.9,4.7c-0.2,0.1-0.5,0-0.9,0.1c-1-4.2-2.1-8.4-3.1-12.7
		c-2.8-11.8-5.5-23.6-8.2-35.4c-0.4-1.6-0.2-2.7,1.2-4c3.9-3.9,7.5-8.2,11.2-12.3c2-2.2,4-4.5,6-6.8c-17.2-0.1-22.1,0.5-39.4,3.8
		c-15.3,2.9-25.9,8.2-33.6,16.1c-7.4,7.7-50.8,49.2-68.7,75.6c8.2,19,34.1,32.2,56.3,37.8l12.4-12.7c3.2,44.4,16.9,66.6,19,75.9
		c2.1,10,4,11.4,6.9,52.6c0.8,10-2.3,68.8-6.9,82.2c-4.2,12.3-7.6,18.5-14.5,43.6c-6.7,23.9,102,23.8,144.6,27
		c0,0,108.2-2.1,132.2-18c8.4-5.6-6.8-24.9-16.4-47.3c-7.9-20.1-6.9-70-5.3-87c2.6-29.1,4.5-34.1,9.5-49.7
		c2.1-6.6,14.8-26.4,19.8-74l8.5,7.7c21.7-6.9,46.8-21.7,53.9-41.2C429.5,118.9,383.8,80,375.9,72.9z"/>
	<path class="st4" d="M306.6,52.8c-0.8-0.5-1.7-0.3-2.5-0.3c-14.9,0.2-29.8-0.2-44.8-0.1c-9.5,0.1-18.9-0.3-28.4-0.1
		c-12.8,0.3-25.5-0.1-38.3-0.1c-3.3,0-6.6,0.1-9.9,0.2c-1.7,0-1.9,0.3-1,1.9c2.7,4.7,5.4,9.4,8.1,14.1c8,14,16,28,24,42
		c1,1.8,1,1.9-1,2.3c-8.3,1.8-16.6,3.5-24.9,5.3c-7.6,1.6-15.3,3.1-22.9,4.7c-0.2,0.1-0.5,0-0.9,0.1c-1-4.2-2.1-8.4-3.1-12.7
		c-2.8-11.8-5.5-23.6-8.2-35.4c-0.4-1.6-0.2-2.7,1.2-4c3.9-3.9,7.5-8.2,11.2-12.3c3.3-3.7,6.5-7.4,9.8-11.1c6.5-7.3,13-14.6,19.5-22
		c1.1-1.3,2.3-1.6,3.9-1.6c23.6,0.4,47.2,0.8,70.8,1.3c10.2,0.2,20.5,0.4,30.7,0.5c1.7,0,2.8,0.5,3.8,2.1
		c9.9,15.8,19.9,31.6,30,47.3c1.2,1.9,1.4,3.5,0.4,5.6c-4.9,11.3-9.7,22.7-14.6,34.1c-0.8,1.9-0.8,1.9-2.9,1.6
		c-6.3-0.9-12.5-1.8-18.8-2.7c-4.5-0.7-9.1-1.3-13.6-2c-2.2-0.3-2.3-0.7-1.4-2.8c7.7-18,15.5-36.1,23.2-54.1
		C306.5,54.1,306.9,53.5,306.6,52.8z"/>
</g>
</svg>
