<?xml version="1.0" encoding="utf-8"?>
<!-- Generator: Adobe Illustrator 19.1.0, SVG Export Plug-In . SVG Version: 6.00 Build 0)  -->
<svg version="1.1" id="Layer_1" xmlns="http://www.w3.org/2000/svg" xmlns:xlink="http://www.w3.org/1999/xlink" x="0px" y="0px"
	 viewBox="0 0 262 209.9" enable-background="new 0 0 262 209.9" xml:space="preserve">
<g>
	<path fill="#FFFFFF" d="M192,72.9h-30.7c-2.9-29.4-14.5-49.7-29-49.7c-14.5,0-26.1,20.7-29,49.7H72.7L52.8,182.6h159.5L192,72.9z
		 M131.9,33.1c7.9,0,16.2,16.2,19.1,39.8h-38.1C115.8,49.7,124,33.1,131.9,33.1z M107.1,105.6c-4.1,0-7.5-3.3-7.5-7.5
		c0-4.1,3.3-7.5,7.5-7.5s7.5,3.3,7.5,7.5C114.5,102.3,111.2,105.6,107.1,105.6z M156.8,105.6c-4.1,0-7.5-3.3-7.5-7.5
		c0-4.1,3.3-7.5,7.5-7.5c4.1,0,7.5,3.3,7.5,7.5C164.2,102.3,160.9,105.6,156.8,105.6z"/>
</g>
</svg>
