<?xml version="1.0" encoding="utf-8"?>
<!-- Generator: Adobe Illustrator 19.1.0, SVG Export Plug-In . SVG Version: 6.00 Build 0)  -->
<svg version="1.1" id="Layer_1" xmlns="http://www.w3.org/2000/svg" xmlns:xlink="http://www.w3.org/1999/xlink" x="0px" y="0px"
	 viewBox="0 0 505.9 297.5" enable-background="new 0 0 505.9 297.5" xml:space="preserve">
<g>
	<path id="path4778" fill="#FFFFFF" d="M79.4,96.5c45.6-17.8,98.3,9.5,124.9,27.2c10.7,6.5,19.5,23.7,16.6,35.5
		C208.4,208.4,141,203,141,203c-55.6-8.9-73.4-47.4-78.7-72.8C59.9,117.8,68.1,101.2,79.4,96.5L79.4,96.5z M297.2,123.7
		c27.2-17.8,79.3-45,124.9-27.2c11.8,4.7,19.5,21.3,17.2,33.1c-4.7,21.9-18.3,53.3-56.8,67.5c-11.8,4.1-32,5.9-44.4,4.7
		c-20.7-3-49.7-12.4-57.4-42.6C277.7,146.8,287.2,130.2,297.2,123.7z M13.1,110.1c1.2,4.1,5.9,1.2,8.3,1.8
		c5.9,1.8,10.7,8.9,14.2,13.6c7.1,9.5,12.4,20.1,19.5,29.6c5.9,7.7,12.4,15.4,18.9,21.9c10.7,10.7,23.1,20.7,36.7,27.2
		c14.2,7.1,27.2,8.9,42,9.5s30.8-3,44.4-9.5c11.2-5.9,21.3-14.8,27.8-26c4.1-6.5,7.1-13.6,9.5-21.3c1.2-4.7,1.2-11.8,4.1-16.6
		c5.3-7.1,19.5-8.9,26-3.6c3.6,3,4.1,5.3,5.3,9.5c1.8,8.3,4.1,16,7.7,23.7c10.7,21.9,30.8,36.1,54.5,40.8
		c16.6,3.6,36.7,3.6,52.7-2.4c26-9.5,47.9-29.6,65.1-50.9c5.9-7.7,10.7-16.6,16.6-24.9c4.7-6.5,10.1-16,17.8-20.1
		c1.8-1.2,3.6-1.8,5.3-1.2c4.1,1.2,6.5-8.3,7.1-10.1c0.6-1.2,1.8-4.7,3-7.7c1.2-4.1-10.7-10.7-22.5-13.6
		c-49.7-10.7-102.4-2.4-150.3,14.2c-11.2,4.1-21.9,8.3-32.6,13c-9.5,4.7-19.5,7.7-30.2,10.1c-3,0.6-22.5,1.8-31.4-1.2
		c-7.1-1.8-13-5.3-19.5-8.9c-5.9-3-11.8-5.3-18.3-7.7c-32-12.4-66.3-21.3-101.2-23.7c-21.9-1.8-44.4-0.6-66.3,4.1
		c-2.4,0.6-5.3,1.2-8.9,1.8c-1.2,0.6-3,0.6-4.1,1.2c-2.4,0.6-4.7,1.8-5.3,1.8c-0.6,0-0.6,0.6-1.2,0.6c-3,1.8-1.2,5.9,0,8.3
		C10.7,100.1,11.9,104.8,13.1,110.1"/>
</g>
</svg>
