<?xml version="1.0" encoding="utf-8"?>
<!-- Generator: Adobe Illustrator 19.1.0, SVG Export Plug-In . SVG Version: 6.00 Build 0)  -->
<svg version="1.1" id="Layer_1" xmlns="http://www.w3.org/2000/svg" xmlns:xlink="http://www.w3.org/1999/xlink" x="0px" y="0px"
	 viewBox="0 0 576 560" style="enable-background:new 0 0 576 560;" xml:space="preserve">
<style type="text/css">
	.st0{fill:#FFFFFF;}
</style>
<g>
	<path class="st0" d="M288,26.3C147.9,26.3,34.3,139.9,34.3,280S147.9,533.7,288,533.7S541.7,420.1,541.7,280S428.1,26.3,288,26.3z
		 M288,479.7c-110.3,0-199.7-89.4-199.7-199.7S177.7,80.3,288,80.3S487.6,169.7,487.6,280S398.3,479.7,288,479.7z"/>
	<polygon class="st0" points="345.5,201.1 288.5,85.6 231.5,201.1 104,219.6 196.2,309.5 174.5,436.4 288.5,376.5 402.5,436.4 
		380.7,309.5 472.9,219.6 	"/>
</g>
</svg>
