<?xml version="1.0" encoding="utf-8"?>
<!-- Generator: Adobe Illustrator 17.0.0, SVG Export Plug-In . SVG Version: 6.00 Build 0)  -->
<!DOCTYPE svg PUBLIC "-//W3C//DTD SVG 1.1//EN" "http://www.w3.org/Graphics/SVG/1.1/DTD/svg11.dtd">
<svg version="1.1" id="Layer_1" xmlns="http://www.w3.org/2000/svg" xmlns:xlink="http://www.w3.org/1999/xlink" x="0px" y="0px"
	 width="248.5px" height="289.5px" viewBox="0 0 248.5 289.5" enable-background="new 0 0 248.5 289.5" xml:space="preserve">
<path fill="#FFFFFF" d="M200.678,21.524c-4.469-3.975-7.724-6.139-17.554-9.028C181.289,11.957,179,9.905,162,9.867v1.036
	c0,0-1.555,9.615-5.271,13.824c-5.206,5.898-14.306,10.547-24.319,11.107c-12.182,0.68-19.797-3.604-24.538-6.916
	c-7.805-5.453-14.765-16.469-16.129-18.706l0.159-0.237c-0.105-0.001-0.206-0.001-0.31-0.002c-0.065-0.108-0.102-0.169-0.102-0.169
	s-0.364,0.052-0.981,0.162c-13.123-0.088-15.285-0.022-26.083,1.992c-8.597,1.603-14.579,4.691-18.793,8.937
	C41.46,25.143,17.247,48.42,7.219,63.092c4.555,10.646,19.133,18.004,31.415,21.076l6.874-7.12
	c1.711,24.835,9.47,37.183,10.622,42.44c1.277,5.654,2.236,6.407,3.811,29.383c1.514,22.128-1.586,41.763-5.379,63.515
	c-1.863,10.683-5.684,23.803-7.598,34.476c-1.056,5.886-3.725,19.206,1.121,23.962c9.605,9.429,28.9,8.797,52.768,10.676
	c23.85,1.902,78.569-1.849,87.966-3.733c9.428-1.892,12.374-5.515,13.836-10.679c1.565-21.698-5.371-42.636-9.791-63.598
	c-3.839-18.209-3.933-35.915-2.374-54.371c1.373-16.261,2.452-19.127,5.277-27.827c1.203-3.704,8.284-14.828,11.103-41.372
	l4.723,4.32c12.067-3.829,26.16-12.079,30.044-22.987C230.72,47.232,205.107,25.504,200.678,21.524z"/>
</svg>
