<?xml version="1.0" encoding="utf-8"?>
<!-- Generator: Adobe Illustrator 17.0.0, SVG Export Plug-In . SVG Version: 6.00 Build 0)  -->
<!DOCTYPE svg PUBLIC "-//W3C//DTD SVG 1.1//EN" "http://www.w3.org/Graphics/SVG/1.1/DTD/svg11.dtd">
<svg version="1.1" id="Layer_1" xmlns="http://www.w3.org/2000/svg" xmlns:xlink="http://www.w3.org/1999/xlink" x="0px" y="0px"
	 width="289.412px" height="343.529px" viewBox="0 0 289.412 343.529" enable-background="new 0 0 289.412 343.529"
	 xml:space="preserve">
<g id="Sweater">
	<path fill="#FF6C2C" d="M99.276,40.455c-0.364,3.329-1.098,6.199-5.101,8.739c-4.013,2.554-6.954,3.254-12.399,4.476
		c-3.405,0.783-9.666,2.43-17.472,3.9c-5.904,1.126-16.476,2.581-19.287,10.202c-3.443,9.296-5.966,20.39-6.934,32.404
		c-0.941,11.643-2.187,52.093-2.187,58.643c0,6.556,1.095,28.051,0.371,37.155c-0.728,9.103-2.554,30.962-3.282,37.882
		c-0.728,6.906-4.37,32.789-5.825,42.605c-1.463,9.831-4.37,28.765-4.37,33.516c0,4.737,1.455,11.657,1.455,11.657
		s25.127,1.812,28.408,1.812c3.285,0,3.646-1.812,3.646-1.812s1.081-30.248,1.452-34.23c0.361-4.009,4.74-24.784,6.553-38.253
		c1.826-13.47,2.918-34.958,2.918-38.624c0-3.625,0.576-31.093,0.367-33.132c-0.418-3.996,2.184-16.023,2.184-16.023
		s4.737,8.019,6.56,19.291c1.812,11.314,3.268,18.591,1.085,34.978c-2.19,16.387-2.547,21.495-5.461,32.397
		c-2.911,10.936-4.009,33.159-4.009,33.159s25.501,4.744,52.09,2.924c26.579-1.84,57.541-6.563,62.992-8.012
		c5.478-1.455,23.314-8.739,23.314-8.739s-3.639-30.235-9.103-46.643c-5.465-16.367-9.46-36.77-9.46-43.333
		c0-6.543,2.54-16.374,3.996-21.859c1.462-5.451,4.38-10.916,4.38-10.916s3.275,17.85,6.192,28.779
		c2.911,10.923,6.906,30.612,8.746,39.324c1.806,8.767,8.005,27.31,8.733,33.886c0.728,6.55,4.737,44.418,4.737,49.897
		c0,5.458,2.541,20.033,2.541,20.033l32.403-1.469c0,0-4.723-41.892-6.549-50.267c-1.812-8.348-8.376-43.704-10.188-50.246
		c-1.819-6.563-9.474-36.056-10.93-46.279c-1.455-10.181-7.277-31.676-8.376-40.779c-1.085-9.09-7.648-37.512-9.103-44.803
		c-1.462-7.277-3.646-18.193-9.461-21.474c-5.835-3.289-14.582-3.653-22.216-5.095c-7.662-1.455-22.957-9.474-25.511-13.126
		c-2.554-3.625-3.158-8.705-3.275-13.092c-0.227-8.657-2.176-9.852-2.176-9.852s-2.554-2.554-9.117-2.911
		c-6.549-0.357-18.032-0.288-24.032,0c-5.602,0.288-15.515,0.508-18.574,3.639c-2.516,2.567-1.685,7.895-1.685,7.895L99.276,40.455z
		"/>
</g>
</svg>
