<?xml version="1.0" encoding="utf-8"?>
<!-- Generator: Adobe Illustrator 18.1.1, SVG Export Plug-In . SVG Version: 6.00 Build 0)  -->
<svg version="1.1" id="Arrow_1_" xmlns="http://www.w3.org/2000/svg" xmlns:xlink="http://www.w3.org/1999/xlink" x="0px" y="0px"
	 viewBox="-1462.4 0 2902.4 576" enable-background="new -1462.4 0 2902.4 576" xml:space="preserve">
<g>
	<g>
		<line fill="#FFFFFF" x1="246.5" y1="575.3" x2="241.6" y2="575.3"/>
		<path fill="#FFFFFF" d="M246.5,575.3c171.6,1.6,1103.3,0,1103.3,0H246.5z"/>
		<path fill="#FFFFFF" d="M1426.7,488.6c0,19.6-8.2,40.9-18,55.6c-21.2,31.1-55.6,31.1-55.6,31.1H249.8c-18,0-40.9-32.7-55.6-63.7
			c-21.2-47.4-19.6-101.3-19.6-152c0-107.9,32.7-181.4,34.3-184.7c6.5-16.3,24.5-22.9,40.9-19.6c1.6,0,132.4,37.6,248.5,37.6
			c26.2,0,34.3-8.2,34.3-9.8c0-9.8-8.2-19.6-19.6-34.3c-13.1-16.3-31.1-37.6-31.1-65.4c0-37.6,26.2-81.7,103-81.7
			c63.7,0,11.4,16.3,58.8,49c32.7,22.9,65.4,45.8,109.5,65.4c197.8,83.4,425,148.7,493.6,165.1
			C1292.7,292.5,1426.7,325.2,1426.7,488.6z"/>
	</g>
</g>
<g>
	<g>
		<line fill="#FFFFFF" x1="-265.1" y1="575.3" x2="-271.6" y2="575.3"/>
		<path fill="#FFFFFF" d="M-1374.9,575.3c0,0,931.7,1.6,1103.3,0H-1374.9z"/>
		<path fill="#FFFFFF" d="M-1450.1,488.6c0,19.6,8.2,40.9,18,55.6c21.2,31.1,55.6,31.1,55.6,31.1h1103.3c18,0,40.9-32.7,55.6-63.7
			c21.2-47.4,19.6-101.3,19.6-152c0-107.9-32.7-181.4-34.3-184.7c-6.5-16.3-24.5-22.9-40.9-19.6c-1.6,0-132.4,37.6-248.5,37.6
			c-26.2,0-34.3-8.2-34.3-9.8c0-9.8,8.2-19.6,19.6-34.3c13.1-16.3,31.1-37.6,31.1-65.4c0-37.6-26.2-81.7-103-81.7
			c-63.7,0-109.5,32.7-156.9,65.4c-32.7,22.9-65.4,45.8-109.5,65.4c-197.8,83.4-326.9,132.4-395.6,148.7
			C-1317.7,292.5-1450.1,325.2-1450.1,488.6z"/>
	</g>
</g>
</svg>
