<?xml version="1.0" encoding="utf-8"?>
<!-- Generator: Adobe Illustrator 18.1.1, SVG Export Plug-In . SVG Version: 6.00 Build 0)  -->
<svg version="1.1" id="Arrow_1_" xmlns="http://www.w3.org/2000/svg" xmlns:xlink="http://www.w3.org/1999/xlink" x="0px" y="0px"
	 viewBox="-469 190.7 500 194.9" enable-background="new -469 190.7 500 194.9" xml:space="preserve">
<g>
	<path fill="#FFFFFF" d="M-229.4,199c-5,4.7-6,11.5-5.6,17.1c6.3-3.3,13.1-5.5,20.6-5.5c1.5,0,3.1,0.1,4.7,0.3
		C-219,205.3-226.1,201-229.4,199z M-206.1,213C-206.1,213.1-206.1,213.1-206.1,213L-206.1,213L-206.1,213z M-117.2,270.8
		c-1.2,1-2.7,1.6-4.5,1.6c-0.3,0-0.6,0-0.9-0.1h0c-0.1,0-0.3,0.1-0.5,0.1c-0.8,0-1.8-0.3-2.7-0.7c-0.6-0.3-1.2-0.7-1.6-1.1h0
		c-1.9-1.3-3.6-3.5-4.4-5.7c-0.6,0.4-1,0.8-1.3,1.4c-0.6,1.3-0.4,2.8,0.5,4.5c1,1.7,2.8,3.3,5,4.3c1.8,0.9,3.7,1.4,5.5,1.4
		c2.4,0,4.1-0.8,4.9-2.3C-116.7,273.2-116.8,272-117.2,270.8z M-133.8,256.1C-133.8,256.1-133.8,256.1-133.8,256.1
		c0.7,0.5,1.5,1,2.3,1.5c0,0,0-0.1,0-0.1C-132.3,257-133,256.5-133.8,256.1z M-139.6,262.1c-1.9,1.3-4,2.2-6.1,2.2
		c-1.5,0-2.9-0.4-4.3-1.3c-2-1.2-2.9-3.6-2.8-7.2c-1.2,0.4-2.1,1-2.6,2c-0.6,1.3-0.4,2.8,0.5,4.5c1,1.7,2.8,3.3,5,4.3
		c1.8,0.9,3.7,1.4,5.5,1.4c2.4,0,4.1-0.8,4.9-2.3C-139,264.6-139,263.4-139.6,262.1z M-192.9,222.4c-0.3,0.5-0.6,1.1-1.1,1.8
		c0.7,0.3,1.4,0.6,2.1,0.9c0.4-0.5,0.8-1.1,1.2-1.6L-192.9,222.4z M-182.5,242.8c-2.5,2.2-5,3.6-7.3,3.6c-1.3,0-2.1-0.4-2.1-0.4
		c-1.9-1-4-4.6-4.3-8.9c-1,0.5-1.8,1.3-2.2,2.3c-1.6,3.3,0.6,7.8,4.9,9.9c1.5,0.8,3.2,1.2,4.8,1.2c2.8,0,5.1-1.2,6.1-3.2
		C-181.9,245.9-181.9,244.3-182.5,242.8z"/>
	<path fill="#FFFFFF" d="M-166.3,234.2c-0.1,0.2-0.3,0.3-0.5,0.5c-0.3,0.4-0.7,0.8-1.1,1.2c-0.2,0.3-0.5,0.5-0.8,0.8
		c-2-1.1-3.9-2.1-5.8-3.1c0.1-0.2,0.3-0.4,0.4-0.6s0.3-0.4,0.4-0.6c0.3-0.5,0.7-0.9,0.9-1.2c0.1-0.2,0.3-0.3,0.4-0.4
		C-170.3,231.9-168.4,233-166.3,234.2z"/>
	<path fill="#CCCCCC" d="M-103.5,271.1c0,0.3-0.1,0.7-0.1,1c0,0,0.1,0.1,0.1,0.1C-103.5,271.8-103.5,271.4-103.5,271.1L-103.5,271.1
		z M-189.3,221.3c0.1,0.1,0.3,0.2,0.5,0.3c0,0,0,0,0,0C-189,221.5-189.1,221.4-189.3,221.3z"/>
	<path fill="#FFFFFF" d="M-187.8,220l-0.3,0.2l-0.1,0.1l-1,0.7l-4.5-2.4l-0.2-0.1l-0.2,0.3l-0.5,1c0,0,0,0,0,0c-0.5,0.9-1.1,2-2,3.3
		c-0.2,0.3-0.5,0.7-0.7,1.1c-2.1,3.1-4.9,6.6-7.9,9.2c-0.4,0.3-0.7,0.6-1.1,0.9c-1.6,1.2-3.3,2-4.9,2.3c-0.4,0.1-0.8,0.1-1.2,0.1
		c-0.2,0-0.5,0-0.7,0c-0.7-0.1-1.4-0.3-2.1-0.7c-0.1-0.1-0.6-0.7-0.8-2.2c-0.1-0.4-0.1-0.8-0.1-1.1c0-0.4,0-0.9,0-1.3
		c0-1.3,0.2-2.8,0.6-4.2c0.1-0.4,0.2-0.9,0.4-1.3c0.5-1.6,1.3-3.2,2.3-4.7c0.3-0.4,0.6-0.8,0.9-1.2c0,0,0-0.1,0.1-0.1
		c2.1-2.5,3.6-4.3,4.7-5.5c0.5-0.5,0.9-0.9,1.2-1.2h0l0,0c0.5-0.5,0.9-0.8,1.2-0.8c0.1,0,0.4,0,0.7,0.1c0.9,0.1,2.4,0.4,4.1,0.8
		c0,0,0,0,0,0c0.3,0.1,0.7,0.1,1,0.2c0,0,0.1,0,0.1,0c3,0.7,6.4,1.8,8,2.9c0.7,0.5,1.3,1,1.8,1.5h0
		C-188.5,218.6-188,219.5-187.8,220z"/>
	<path fill="#FFFFFF" d="M-116,295.1c-6.6,1.5-20,0.5-37-0.7c-14.2-1-30.3-2.2-46.6-2.2c-18.7,0-29.5,7.4-35.3,13.7
		c-1.2,1.3-2.3,2.7-3.2,4l-0.1,0.1c-2.5,3.5-3.8,6.7-4.4,8.4c-0.4,0-0.8,0-1.2,0c-0.5,0-1,0-1.6,0c-1.9,0-3.8,0-5.7,0
		c4.2-9.9,18.1-32.8,57.3-32.8c27.6,0,42.1,2.1,51.6,3.5c7.7,1,13,1.7,19.1,0.7h0c0.4-0.1,0.8-0.1,1.2-0.2c0.6-0.1,1.2-0.2,1.8-0.4
		c0.9-0.2,1.7-0.5,2.5-0.8c6-2.1,9.5-5.7,11.5-9.2l0,0c1.4-2.5,2.1-5,2.4-7c0,0,0.1,0.1,0.1,0.1c0-0.4,0-0.8,0-1.1l0,0
		c0-0.2,0-0.3,0-0.5c0-0.5,0.1-0.9,0.1-1.3v-0.3c0-0.6,0-1.1,0-1.5c0.1-1.3,0.3-1.6,0.4-1.6c0.3,0,1.3,0.1,3.8,2
		c0.7,0.5,1.6,1.1,2.8,1.9C-95.7,282-103.6,292.2-116,295.1z"/>
	<path fill="#FFFFFF" d="M-182.5,242.8c-2.5,2.2-5,3.6-7.3,3.6c-1.3,0-2.1-0.4-2.1-0.4c-1.9-1-4-4.6-4.3-8.9c-1,0.5-1.8,1.3-2.2,2.3
		c-1.6,3.3,0.6,7.8,4.9,9.9c1.5,0.8,3.2,1.2,4.8,1.2c2.8,0,5.1-1.2,6.1-3.2C-181.9,245.9-181.9,244.3-182.5,242.8z M-189.3,221.3
		c0.1,0.1,0.3,0.2,0.5,0.3c0,0,0,0,0,0C-189,221.5-189.1,221.4-189.3,221.3z M-192.9,222.4c-0.3,0.5-0.6,1.1-1.1,1.8
		c0.7,0.3,1.4,0.6,2.1,0.9c0.4-0.5,0.8-1.1,1.2-1.6L-192.9,222.4z M-133.8,256.1C-133.8,256.1-133.8,256.1-133.8,256.1
		c0.7,0.5,1.5,1,2.3,1.5c0,0,0-0.1,0-0.1C-132.3,257-133,256.5-133.8,256.1z M-103.5,271.1c0,0.3-0.1,0.7-0.1,1c0,0,0.1,0.1,0.1,0.1
		C-103.5,271.8-103.5,271.4-103.5,271.1L-103.5,271.1z M-117.2,270.8c-1.2,1-2.7,1.6-4.5,1.6c-0.3,0-0.6,0-0.9-0.1h0
		c-0.1,0-0.3,0.1-0.5,0.1c-0.8,0-1.8-0.3-2.7-0.7c-0.6-0.3-1.2-0.7-1.6-1.1h0c-1.9-1.3-3.6-3.5-4.4-5.7c-0.6,0.4-1,0.8-1.3,1.4
		c-0.6,1.3-0.4,2.8,0.5,4.5c1,1.7,2.8,3.3,5,4.3c1.8,0.9,3.7,1.4,5.5,1.4c2.4,0,4.1-0.8,4.9-2.3C-116.7,273.2-116.8,272-117.2,270.8
		z M-139.6,262.1c-1.9,1.3-4,2.2-6.1,2.2c-1.5,0-2.9-0.4-4.3-1.3c-2-1.2-2.9-3.6-2.8-7.2c-1.2,0.4-2.1,1-2.6,2
		c-0.6,1.3-0.4,2.8,0.5,4.5c1,1.7,2.8,3.3,5,4.3c1.8,0.9,3.7,1.4,5.5,1.4c2.4,0,4.1-0.8,4.9-2.3C-139,264.6-139,263.4-139.6,262.1z"
		/>
	<path fill="#CCCCCC" d="M30.9,340.6v-3.2c0-6.2-1.1-20.8-11.2-27.8l-0.1-0.1c-2.6-4.1-40.3-14.9-63.4-20.8
		c-31.5-7.9-49-19.6-53.6-23c-2.4-1.8-4.1-2.6-5.5-2.6c-1.9,0-2.8,1.4-3.1,2.9c-2.2-1.3-5.1-3.1-8.5-5.1c0-0.1,0-0.2,0-0.3
		c0.3-3,0.5-5.2-0.5-6.5c-0.7-1-2.1-1.9-4.3-3.3c-1.4-0.9-2.7-1.8-3.4-2.4c-0.8-0.7-1.6-1.1-2.4-1.1c-2,0-3.3,2.1-4.2,4.2
		c-0.1,0.2-0.2,0.4-0.2,0.5c-0.5-0.3-1-0.6-1.6-0.9c0.8-2,1.1-3.6,0.5-4.8c-0.6-1.5-1.9-1.9-2.9-2.3l-0.6-0.3
		c-4.8-2.6-7.6-4.2-8.4-4.8c-0.4-0.4-1.1-0.8-1.9-0.8c-1,0-1.7,0.7-2.5,1.4c-0.3,0.3-0.8,0.7-1.3,1.1c-0.1,0.1-0.2,0.2-0.3,0.3
		c-0.7-0.4-1.3-0.8-2-1.2c0.1-0.5,0-1.1-0.1-1.6c-0.6-2.7-3-5.1-5.1-6.4c-3-1.9-6.9-1.8-8.5,0.1c-2-1.2-4-2.3-6-3.4
		c0.1-0.3,0.2-0.7,0.2-1.1c0-1.4-1.1-2.4-2-3.1c-1.8-1.3-10.2-5.9-13.1-5.3h0c-0.6-1.3-1.8-3.5-4.4-5.1c-3.7-2.4-13.8-4.4-15.4-4.4
		c-0.4,0-0.8,0-1.2,0.2c-11.3-6.8-19.8-11.9-22.6-13.7l-0.9-0.6l-0.8,0.7c-7.3,5.9-8.1,14.9-7.5,21.7c-4,2.3-7.8,5.1-11.4,7.8
		c-15.6,12.1-43.1,26.4-85.7,26.4c-40.9,0-92.5-28-98.3-31.2c-1.5-0.9-2.6-1.5-3.4-2c-1.6-1-2.3-1.4-3.3-1.4c-0.7,0-1.2,0.2-1.9,0.5
		l-0.6,0.2c-2.8,1-7.2,14.5-10.8,26.5c-2.7,0.5-4.1,2.9-5,5c-1.9,4.7-5.3,27.4-7,42c-1.3,10.9,0.3,20.3,1.4,25.2l-0.3,0.4
		c-5.2,7.1-5.8,21.9-3.9,29c1.8,6.9,8.5,26.7,8.8,27.5l0.1,0.4l0.3,0.3c0.9,0.8,14,8.4,180.7,8.4c127.2,0,149.4-1.2,175.1-2.6
		c8.8-0.4,17.9-0.9,31.7-1.4c51.3-1.8,91.2-8.8,97.2-13.1C31.1,361.9,31,350.6,30.9,340.6z M-44.6,291.5c28.2,7.2,52,14.8,59.4,18.3
		c-2,0.6-3.9,1.3-5.8,2c-11.4,4.1-22.3,8-65.7,8c-27.5,0-84.7-0.5-139.9-1c-15.3-0.1-30.3-0.3-44.6-0.4c0.9-2.4,3-7,7.3-11.5
		c5.6-6.1,16.1-13.3,34.3-13.3c16.3,0,32.3,1.2,46.5,2.2c17.1,1.2,30.6,2.2,37.4,0.6c12.8-2.9,21-13.3,20.6-25.6
		C-87.2,275.9-70.5,284.9-44.6,291.5z M-106,279.1c1.4-2.5,2.1-5,2.4-7c0.1-0.4,0.1-0.7,0.1-1c0-0.2,0-0.3,0-0.5
		c0-0.5,0.1-0.9,0.1-1.3v-0.3c0-0.6,0-1.1,0-1.5c0.1-1.3,0.3-1.6,0.4-1.6c0.3,0,1.3,0.1,3.8,2c0.7,0.5,1.6,1.1,2.8,1.9
		c0.7,12-7.2,22.3-19.6,25.2c-6.6,1.5-20,0.5-37-0.7c-14.2-1-30.3-2.2-46.6-2.2c-18.7,0-29.5,7.4-35.3,13.7c-1.2,1.3-2.3,2.7-3.2,4
		l-0.1,0.1c-2.5,3.5-3.8,6.7-4.4,8.4c-0.4,0-0.8,0-1.2,0c-0.5,0-1,0-1.6,0c-1.9,0-3.8,0-5.7,0c4.2-9.9,18.1-32.8,57.3-32.8
		c27.6,0,42.1,2.1,51.6,3.5c7.7,1,13,1.7,19.1,0.7h0c0.4-0.1,0.8-0.1,1.2-0.2c0.6-0.1,1.2-0.2,1.8-0.4c0.9-0.2,1.7-0.5,2.5-0.8
		C-111.5,286.2-108,282.6-106,279.1L-106,279.1z M-115.2,267.1c0.2-0.5,0.3-1.1,0.3-1.6c0.1-0.4,0.1-0.8,0.1-1.1
		c3.5,2.1,6.3,3.8,8.4,5c0,0.3,0,0.7,0,1.1c0,0.5-0.1,1.1-0.2,1.7l0,0.2C-108.3,271.4-111.3,269.6-115.2,267.1
		C-115.2,267.2-115.2,267.2-115.2,267.1z M-129.2,260.3c0.1-0.4,0.2-0.8,0.3-1.3c0,0,0,0,0-0.1c0.1-0.5,0.3-1,0.5-1.5
		c0.1-0.3,0.2-0.6,0.3-1c0-0.1,0.1-0.3,0.2-0.4c0.1-0.4,0.3-0.7,0.4-1c0.2-0.5,0.4-1,0.6-1.5c0.1-0.3,0.2-0.6,0.4-0.9
		c1-2.2,1.5-2.5,1.5-2.5s0.1,0,0.4,0.3c0.9,0.9,2.4,1.8,3.9,2.8c1.3,0.8,3.1,2,3.5,2.5c0.2,0.5,0.1,2.2,0,3.5c0,0.3-0.1,0.7-0.1,0.9
		c0,0.3-0.1,0.5-0.1,0.8c-0.1,0.5-0.1,0.9-0.1,1.2c0,0.2,0,0.3,0,0.5c0,0.1,0,0.2,0,0.3c0,0.2,0,0.5,0,0.9c0,0.5-0.1,1.1-0.2,1.7
		c0,0,0,0,0,0.1c-0.1,0.4-0.2,0.8-0.4,1.2c0,0.1-0.1,0.2-0.1,0.3c-0.2,0.4-0.4,0.7-0.6,1.1c-0.1,0.1-0.1,0.2-0.2,0.3
		c-0.7,0.7-1.7,1.1-2.9,1c-0.8,0-1.6-0.2-2.6-0.6c-0.8-0.3-1.6-0.9-2.3-1.6c-0.9-0.9-1.7-2.1-2.1-3.3c-0.2-0.4-0.3-0.8-0.3-1.2
		c-0.1-0.3-0.1-0.6-0.1-0.9C-129.4,261.4-129.3,260.8-129.2,260.3z M-127.4,270.6L-127.4,270.6c0.4,0.4,1,0.8,1.6,1.1
		c0.9,0.4,1.9,0.7,2.7,0.7c0.2,0,0.4,0,0.5-0.1h0c0.3,0,0.6,0.1,0.9,0.1c1.7,0,3.2-0.6,4.5-1.6c0.5,1.2,0.5,2.4,0,3.4
		c-0.8,1.5-2.5,2.3-4.9,2.3c-1.8,0-3.7-0.5-5.5-1.4c-2.2-1-4-2.6-5-4.3c-0.9-1.7-1.1-3.2-0.5-4.5c0.3-0.6,0.8-1,1.3-1.4
		C-131,267.1-129.3,269.3-127.4,270.6z M-132.5,253.9c0.6,0.4,1.2,0.7,1.8,1c-0.1,0.3-0.2,0.6-0.3,0.9c-0.2,0.5-0.3,1-0.5,1.5
		c0,0,0,0.1,0,0.1c-0.8-0.5-1.5-0.9-2.3-1.4c0,0,0-0.1,0.1-0.1c0.3-0.4,0.6-0.9,0.8-1.3C-132.8,254.5-132.6,254.2-132.5,253.9z
		 M-149.7,255.5c0-0.4,0-0.8,0.1-1.2c0.1-1.3,0.4-2.8,0.9-4.6c0-0.2,0.1-0.4,0.1-0.6c0.1-0.4,0.2-0.9,0.3-1.3c0-0.1,0-0.2,0.1-0.4
		c0-0.1,0-0.2,0-0.3c0.1-0.5,0.2-0.9,0.3-1.3c0.1-0.3,0.1-0.6,0.2-0.9c0.1-0.2,0.1-0.3,0.2-0.5c0.1-0.3,0.3-0.6,0.5-0.8
		c0.2-0.2,0.4-0.4,0.7-0.6c0.2-0.2,0.4-0.3,0.6-0.5c0.3-0.3,0.6-0.5,0.8-0.7c0.2-0.2,0.4-0.4,0.6-0.5c0,0,0.1,0,0.3,0
		c1.2,0.9,5.3,3.1,8.8,5l0.6,0.3c0.1,0.1,0.3,0.2,0.6,0.3c0.5,0.2,0.8,0.3,0.9,0.6c0.1,0.2,0.2,0.8-0.3,2.3
		c-0.1,0.2-0.2,0.5-0.3,0.7c-0.1,0.2-0.2,0.5-0.3,0.7c-0.2,0.3-0.3,0.6-0.5,1c-0.1,0.1-0.2,0.3-0.2,0.4c-0.2,0.3-0.3,0.5-0.5,0.8
		c-0.3,0.4-0.6,0.8-0.9,1.3c0,0,0,0.1-0.1,0.1c-0.2,0.3-0.5,0.7-0.8,1c-1,1.2-2.1,2.3-3.2,3.3c-0.3,0.3-0.6,0.5-0.9,0.7
		c-1,0.7-2,1.2-3,1.4c-0.5,0.1-0.9,0.2-1.3,0.2c-0.1,0-0.2,0-0.3,0h0c-0.8-0.1-1.6-0.3-2.4-0.8c-0.1-0.1-0.3-0.2-0.4-0.4
		c-0.2-0.3-0.5-0.7-0.7-1.2C-149.6,258.2-149.8,257.1-149.7,255.5z M-145.7,264.3c2.1,0,4.2-0.9,6.1-2.2c0.5,1.3,0.6,2.5,0.1,3.6
		c-0.8,1.5-2.5,2.3-4.9,2.3c-1.8,0-3.7-0.5-5.5-1.4c-2.2-1-4-2.6-5-4.3c-0.9-1.7-1.1-3.2-0.5-4.5c0.5-1,1.4-1.6,2.6-2
		c-0.1,3.6,0.8,6,2.8,7.2C-148.6,263.9-147.2,264.3-145.7,264.3z M-153.2,244.5c0.4-0.4,0.7-0.8,1-1.2c0.2-0.2,0.4-0.5,0.5-0.7
		c0.4,0.3,0.9,0.5,1.3,0.8c-0.1,0.3-0.2,0.5-0.3,0.8c-0.2,0.5-0.3,1-0.4,1.6c0,0.1-0.1,0.3-0.1,0.4c-0.8-0.5-1.6-0.9-2.4-1.3
		C-153.4,244.8-153.3,244.7-153.2,244.5z M-165.2,237.4c0.4-0.4,0.8-0.8,1.1-1.2c0.2-0.2,0.3-0.4,0.5-0.5c0.2-0.2,0.3-0.4,0.5-0.6
		c0.2-0.2,0.4-0.4,0.5-0.6c0.3-0.3,0.5-0.6,0.6-0.8c0.1-0.2,0.2-0.3,0.4-0.4c0.3-0.2,0.7-0.2,1.2-0.2c1,0,2.2,0.4,3.1,1
		c1.5,0.9,3,2.3,3.6,3.8c0.1,0.2,0.2,0.5,0.2,0.7c0.1,0.4,0.1,0.8,0,1.2c-0.1,0.2-0.2,0.5-0.4,0.8c0,0,0,0,0,0.1
		c-0.1,0.2-0.2,0.3-0.4,0.5c-0.2,0.2-0.3,0.4-0.5,0.6c-0.3,0.4-0.6,0.8-1,1.2c-0.1,0.1-0.2,0.3-0.4,0.4c-0.3,0.3-0.6,0.6-0.9,0.9
		c-1.5,1.5-3.2,3.1-5,4.2c-0.4,0.2-0.7,0.5-1.1,0.7c-1.1,0.6-2.2,1.1-3.2,1.3c-0.3,0-0.6,0.1-0.9,0.1c-0.6,0-1.2-0.2-1.7-0.5
		c-0.2-0.2-0.6-0.6-1-1.2c-0.5-0.9-1-2.1-1.1-3.4c0,0,0,0,0-0.1c0-0.4,0-0.8,0-1.2c0.1-0.5,0.2-1,0.6-1.5c0.6-0.7,1.4-1.5,2.3-2.4
		c0.5-0.5,0.9-0.9,1.3-1.4h0c0.3-0.3,0.6-0.6,0.9-0.9C-165.6,237.8-165.4,237.6-165.2,237.4z M-161.1,255.6
		c-0.8,1.5-2.5,2.3-4.9,2.3c-1.8,0-3.7-0.5-5.5-1.4c-2.2-1-4-2.6-5-4.3c-0.9-1.7-1.1-3.3-0.5-4.5c0.6-1.1,1.6-1.8,3.1-2.1
		c0,0,0,0.1,0,0.1c0.2,1.5,0.7,3.1,1.5,4.5c0.6,1,1.2,1.9,1.9,2.3c1,0.7,2.1,1,3.4,1c0.6,0,1.2-0.1,1.8-0.2h0c1.3-0.3,2.6-0.9,4-1.7
		C-160.7,253-160.5,254.4-161.1,255.6z M-172.3,230.8c1.9,1.1,3.9,2.2,6,3.4c-0.1,0.2-0.3,0.3-0.5,0.5c-0.3,0.4-0.7,0.8-1.1,1.2
		c-0.2,0.3-0.5,0.5-0.8,0.8c-2-1.1-3.9-2.1-5.8-3.1c0.1-0.2,0.3-0.4,0.4-0.6s0.3-0.4,0.4-0.6c0.3-0.5,0.7-0.9,0.9-1.2
		C-172.5,231-172.4,230.9-172.3,230.8z M-184.5,220.4c0,0-0.1,0-0.1,0l0-0.1L-184.5,220.4z M-186.2,219.4
		C-186.3,219.4-186.3,219.4-186.2,219.4C-186.3,219.4-186.3,219.4-186.2,219.4L-186.2,219.4z M-186.2,223.1c0,0,0.1-0.1,0.1-0.1
		c0.4-0.4,0.8-0.7,1.1-0.9c0.1-0.1,0.1-0.1,0.2-0.1c0.2-0.1,0.3-0.2,0.4-0.2c1.4-0.1,8.3,3,10.7,4.8c0.7,0.5,0.8,0.8,0.9,0.8
		c-0.1,0.1-0.3,0.3-0.9,0.8c0,0-0.1,0.1-0.1,0.1c-0.1,0.1-0.2,0.2-0.4,0.3c-0.2,0.2-0.4,0.4-0.6,0.7c-0.1,0.1-0.2,0.2-0.3,0.4
		c-0.3,0.3-0.6,0.7-0.9,1.2c-0.1,0.1-0.2,0.3-0.3,0.4c-0.2,0.3-0.4,0.5-0.7,0.9c-0.2,0.3-0.5,0.6-0.8,1c-1.4,1.8-3.2,4-5.1,6
		c-0.4,0.4-0.7,0.7-1.1,1c-0.9,0.9-1.9,1.7-2.8,2.2c-0.4,0.2-0.7,0.4-1.1,0.6c-1,0.5-2,0.7-2.8,0.4c-0.3-0.2-1-1-1.6-2.2
		c-0.2-0.4-0.4-0.8-0.6-1.3c-0.4-1.1-0.6-2.3-0.6-3.7c0-0.5,0-0.9,0.1-1.4c0-0.4,0.1-0.8,0.2-1.2c0.5-2.1,1.7-4.3,3.1-6.2
		c0.2-0.3,0.5-0.7,0.8-1c0.6-0.8,1.2-1.5,1.8-2.1C-186.9,223.8-186.6,223.4-186.2,223.1z M-182.6,247.3c-1,2-3.3,3.2-6.1,3.2
		c-1.6,0-3.3-0.4-4.8-1.2c-4.3-2.1-6.5-6.6-4.9-9.9c0.5-1,1.2-1.7,2.2-2.3c0.3,4.3,2.4,7.9,4.3,8.9c0,0,0.8,0.4,2.1,0.4
		c2.4,0,4.8-1.4,7.3-3.6C-181.9,244.3-181.9,245.9-182.6,247.3z M-191.9,225.1c-0.7-0.3-1.4-0.6-2.1-0.9c0.4-0.7,0.8-1.3,1.1-1.8
		l2.2,1.1C-191.1,224-191.5,224.5-191.9,225.1z M-189.3,221.3c0.2,0.1,0.3,0.2,0.5,0.2c0,0,0,0,0,0
		C-189,221.5-189.2,221.4-189.3,221.3z M-206.1,213.1C-206.1,213.1-206.1,213.1-206.1,213.1c0.6-0.5,0.9-0.8,1.2-0.8
		c0.1,0,0.4,0,0.7,0.1c0.9,0.1,2.4,0.4,4.1,0.8c-0.1-0.1-0.3-0.2-0.4-0.2c0.5,0.2,1,0.3,1.5,0.5c0,0,0.1,0,0.1,0
		c3,0.7,6.4,1.8,8,2.9c0.7,0.5,1.3,1,1.8,1.5h0c0.7,0.8,1.2,1.6,1.4,2.2l-0.3,0.2l-0.1,0.1l-1,0.7l-4.5-2.4l-0.2-0.1l-0.2,0.3
		l-0.5,1c0,0,0,0,0,0c-0.5,0.9-1.1,2-2,3.3c-0.2,0.3-0.5,0.7-0.7,1.1c-2.1,3.1-4.9,6.6-7.9,9.2c-0.4,0.3-0.7,0.6-1.1,0.9
		c-1.6,1.2-3.3,2-4.9,2.3c-0.4,0.1-0.8,0.1-1.2,0.1c-0.2,0-0.5,0-0.7,0c-0.7-0.1-1.4-0.3-2.1-0.7c-0.1-0.1-0.6-0.7-0.8-2.2
		c-0.1-0.4-0.1-0.8-0.1-1.1c0-0.4,0-0.9,0-1.3c0-1.3,0.2-2.8,0.6-4.2c0.1-0.4,0.2-0.9,0.4-1.3c0.5-1.6,1.3-3.2,2.3-4.7
		c0.3-0.4,0.6-0.8,0.9-1.2c0,0,0-0.1,0.1-0.1c2.1-2.5,3.6-4.3,4.7-5.5C-206.8,213.8-206.4,213.4-206.1,213.1z M-218.8,234.9
		c0.4,1.9,1.1,3.1,2.2,3.7c1.3,0.7,2.8,1,4.2,1c2,0,4-0.7,5.8-1.8c-0.1,0.4-0.3,0.8-0.4,1.2c-1.1,2.1-3.3,3.6-5.8,4
		c-0.4,0.1-0.8,0.1-1.3,0.1c-0.4,0-0.8,0-1.2-0.1c-1-0.1-2.1-0.4-3.1-0.9c-1.9-0.9-3.4-2.5-4.2-4.2c0,0,0,0,0,0
		c-0.4-0.7-0.6-1.5-0.8-2.3c-0.2-1.5-0.1-3,0.6-4.4c0.9-1.7,2.3-2.9,4.2-3.6C-219.2,230.3-219.2,232.8-218.8,234.9z M-229.4,199
		c3.3,2,10.4,6.3,19.7,11.9c-1.6-0.2-3.1-0.3-4.7-0.3c-7.6,0-14.4,2.2-20.6,5.5C-235.4,210.5-234.4,203.7-229.4,199z M-441.6,220.9
		l0.7-0.3c0.3-0.1,0.7-0.3,0.8-0.3c0.2,0,1,0.5,1.8,1s1.9,1.1,3.5,2c9.5,5.3,58.9,31.6,99.7,31.6c43.4,0,71.5-14.7,87.5-27
		c3.2-2.5,6.6-4.9,10.1-7.1c0.5-0.3,0.9-0.5,1.4-0.8c0.5-0.3,0.9-0.5,1.4-0.8c6.1-3.3,12.8-5.6,20.2-5.6c1.3,0,2.5,0.1,3.8,0.2
		c-1,1.1-2.1,2.5-3.5,4.2c-0.5,0.6-1,1.2-1.4,1.9c-6.8,0.4-12.6,2.6-17.9,5.5c-0.4,0.2-0.8,0.5-1.2,0.7c-0.4,0.2-0.9,0.5-1.3,0.8
		c-2.5,1.5-5,3.2-7.4,4.9c-2,1.3-4,2.7-6.1,4c-1.8,1.1-3.7,2.4-5.7,3.7c-14.1,9.5-33.5,22.5-78.4,22.5
		c-45.9,0-100.4-29.2-110.8-35.1C-443.2,223.6-442.2,221.3-441.6,220.9z M-444.9,228.1c11,6.2,65.3,35.1,111.2,35.1
		c45.3,0,64.8-13.1,79.1-22.7c1.9-1.3,3.8-2.6,5.6-3.7c2.1-1.3,4.2-2.7,6.2-4.1c2.2-1.5,4.4-3,6.7-4.4c0.5-0.3,0.9-0.5,1.4-0.8h0
		c0.4-0.2,0.8-0.5,1.2-0.7c5.1-2.9,10.6-5.1,17.2-5.6c-0.9,1.6-1.5,3.3-2,4.9h0c-2.5,0.6-4.6,2.2-5.7,4.5c-0.6,1.2-0.9,2.5-0.9,3.9
		c0,0.6,0.1,1.3,0.2,1.9c0.2,1,0.6,1.9,1.2,2.8c1,1.7,2.5,3.1,4.5,4.1c0.9,0.5,1.8,0.8,2.8,1c0.7,0.1,1.4,0.2,2.1,0.2
		c0.3,0,0.6,0,0.9,0c0.7-0.1,1.4-0.2,2-0.4c2.4-0.7,4.3-2.2,5.3-4.4c0.5-0.9,0.8-1.9,0.8-2.9v0c4.3-3,8-8,10.3-11.5
		c0.7,0.3,1.3,0.5,2,0.8c-1.5,2.2-2.7,4.6-3.2,6.8c-0.2,0.9-0.3,1.8-0.3,2.8c-1.5,0.7-2.6,1.8-3.3,3.1c-2,4,0.5,9.2,5.5,11.7
		c1.7,0.8,3.6,1.3,5.4,1.3c3.3,0,6-1.5,7.3-4c1-1.9,0.9-4.1,0-6.1c2.1-2,4.1-4.5,6.1-7.1c1.9,1,3.8,2,5.7,3
		c-0.3,0.3-0.5,0.6-0.8,0.9c-0.8,0.9-1.7,1.7-2.3,2.4c-0.9,0.9-1.3,2.2-1.3,3.6c-1.9,0.4-3.4,1.4-4.2,2.8c-0.8,1.6-0.6,3.7,0.6,5.7
		c1.2,1.9,3.1,3.6,5.5,4.8c2,1,4.1,1.5,6.1,1.5c2.8,0,5-1.1,6-2.9c0.8-1.6,0.6-3.5-0.4-5.4c2.2-1.5,4.3-3.4,6-5.1c1,0.6,2,1.1,3,1.7
		c-0.1,0.5-0.2,0.9-0.3,1.5c-0.5,2.1-0.9,3.9-1,5.5c-1.8,0.4-3.2,1.4-3.9,2.8c-0.8,1.6-0.6,3.7,0.6,5.7c1.2,1.9,3.1,3.6,5.5,4.8
		c2,1,4.1,1.5,6.1,1.5c2.9,0,5.1-1.1,6-2.9c0.7-1.5,0.6-3.3-0.2-5c1.5-1.2,2.9-2.7,4.1-4.2c0.9,0.5,1.8,1.1,2.7,1.6
		c-0.2,1-0.4,2-0.5,3c0,0.6,0,1.3,0.2,2c-1,0.5-1.7,1.2-2.2,2.1c-0.8,1.6-0.6,3.7,0.6,5.7c1.2,1.9,3.1,3.6,5.5,4.8
		c2,1,4.1,1.5,6.1,1.5c2.9,0,5.1-1.1,6-2.9c0.7-1.5,0.6-3.3-0.3-5.1c0.3-0.4,0.6-0.9,0.8-1.4c4.1,2.5,7.2,4.4,8.7,5.3
		c-1.2,4.7-4.9,11-15.4,13c-0.2,0-0.3,0.1-0.5,0.1h0c-1,0.2-2,0.3-3,0.4c-1.3,0.1-2.6,0.2-3.9,0.1c-3.5-0.1-7.1-0.5-12-1.2
		c-9.7-1.4-24.2-3.5-52-3.5c-41.7,0-56.3,25.8-60.4,35.7c-29.8-0.2-55-0.4-69.6-0.4c-9.3,0-19.5,0.1-30.2,0.1
		c-9,0.1-18.2,0.1-27.3,0.1c-14-48.8-50.1-66.8-65.6-72.4l-0.8-0.3c-1-0.4-1.9-0.7-2.7-0.8C-448.5,238.6-446.6,232.6-444.9,228.1z
		 M-455.4,250.7c0.3-0.7,0.6-1.3,0.9-1.8c0.6-1,1.2-1.3,1.8-1.5c0.2-0.1,0.5-0.1,0.7-0.1c0.3,0,0.6,0,0.9,0.1
		c0.7,0.1,1.6,0.3,2.6,0.7l0.8,0.3c15,5.3,49.7,22.7,63.6,69.6h-8l0-0.1l-0.1-0.1c-1.4-3.3-4.7-10.7-8.8-18.5l0,0
		c-0.3-0.5-0.5-1-0.8-1.5l0,0c-0.3-0.5-0.5-1-0.8-1.4c-0.5-1-1.1-2-1.7-2.9c-0.3-0.5-0.6-1-0.8-1.4c-0.3-0.6-0.7-1.2-1-1.7
		c-0.2-0.4-0.5-0.7-0.7-1.1s-0.5-0.7-0.7-1.1c-0.1-0.1-0.1-0.2-0.2-0.3l0,0c-2.2-3.4-4.5-6.5-6.8-8.9c-5.3-5.6-11.3-10.5-17.8-14.5
		l-0.1-0.1c-4.5-2.8-9.3-5.1-14.3-7l0,0c-2.4-0.9-4.8-1.7-7.2-2.4v0c-0.8-0.2-1.6-0.4-2.4-0.6C-456,252.7-455.7,251.4-455.4,250.7z
		 M-462.2,292c1.5-13,3.8-28.3,5.5-36.3c2.9,0.7,5.8,1.6,8.7,2.7l0,0c4.5,1.7,9,3.8,13.2,6.3l0,0c7.1,4.1,13.6,9.2,19.2,15.2
		c2.4,2.5,4.8,5.8,7.1,9.3l0,0c2.5,3.9,4.9,8.1,7,12.1c3.7,7.1,6.6,13.6,8,16.8c-26.3,0-55.8-0.2-67.2-1.4
		C-461.8,312.2-463.5,302.7-462.2,292z M-463.1,321.1c0.2-0.5,0.5-1,0.8-1.4c0.2,0,0.5,0,0.8,0.1c0.5,0,1,0.1,1.5,0.1
		c12.8,1.1,43.1,1.3,69.3,1.3h3.1c1.5,0,2.9,0,4.4,0c0.5,0,1,0,1.5,0c0.5,0,0.9,0,1.4,0c8.8,0,17.7-0.1,26.4-0.1
		c10.6-0.1,20.9-0.1,30.2-0.1c14.5,0,39.2,0.2,68.6,0.4c0.5,0,1,0,1.5,0c0.5,0,1,0,1.5,0c2,0,4,0,6,0.1c0.5,0,1,0,1.5,0
		c0.5,0,1,0,1.6,0c14.8,0.1,30.4,0.3,46.4,0.4c55.3,0.5,112.4,1,140,1c43.9,0,55-3.9,66.7-8.1c2.3-0.9,4.9-1.8,7.7-2.6l0.2-0.1
		c1,0.7,1.9,1.4,2.7,2.3c0.5,0.5,1,1.1,1.5,1.7l0.2-0.2c0,0.1,0,0.3,0,0.4l-0.2-0.2c-0.5,0.4-1,0.8-1.7,1.2h0
		c-1.1,0.6-2.5,1.3-4.1,1.9c0,0,0,0,0,0l0,0c-3,1.2-6.8,2.3-11.2,3.4l0,0c-4.8,1.2-10.2,2.3-16.2,3.3h0c0,0,0,0-0.1,0h0
		c-5.2,0.9-10.7,1.6-16.5,2.3l-0.1,0c-10.7,1.2-22,1.9-33.2,1.9c-11,0-33.3-0.4-61.6-0.8l-121.5-1h-123c-67,0.9-93.7-2.1-97.4-2.5
		C-464.3,324.1-463.8,322.5-463.1,321.1z M-278.1,379.8c-154.7,0-176.2-6.7-178.5-7.6c-1.1-3.2-7-20.6-8.7-26.7
		c-0.9-3.3-1.1-8.7-0.5-14c2.8,0.3,32.5,4,116.1,2.3c60.9-1.3,160.8,0.3,226.9,1.3c5.8,0.1,11.3,0.2,16.5,0.3
		c-16.8,3.2-42,13.2-46,43.6C-176.9,379.5-214.2,379.8-278.1,379.8z M24.2,363.3c-4.7,3.4-41.8,10.7-95.6,12.5
		c-13.8,0.4-22.9,0.9-31.7,1.4c-12.6,0.7-24.3,1.3-47.8,1.8c4.7-34.9,38.2-42,53-43.5c16.4,0.2,29.3,0.4,36.8,0.4
		c32.1,0,74-6.2,86.1-14.8c2.6,6,3,12.8,3,16.4v3.2C28.1,349,28.1,360.5,24.2,363.3z"/>
	<path fill="#FFFFFF" d="M-130.7,255c-0.1,0.3-0.2,0.6-0.3,0.9c-0.2,0.5-0.3,1-0.5,1.5c-0.8-0.5-1.5-0.9-2.3-1.4
		c0.3-0.4,0.6-0.9,0.8-1.3c0.2-0.3,0.4-0.6,0.5-0.8C-131.9,254.3-131.3,254.6-130.7,255z"/>
	<path fill="#FFFFFF" d="M-150.4,243.4c-0.1,0.3-0.2,0.5-0.3,0.8c-0.2,0.5-0.3,1-0.4,1.6c0,0.1-0.1,0.3-0.1,0.4
		c-0.8-0.5-1.6-0.9-2.4-1.3c0.1-0.1,0.2-0.2,0.3-0.4c0.4-0.4,0.7-0.8,1-1.2c0.2-0.2,0.4-0.5,0.5-0.7
		C-151.2,242.9-150.8,243.2-150.4,243.4z"/>
	<path fill="#FFFFFF" d="M-161.1,255.6c-0.8,1.5-2.5,2.3-4.9,2.3c-1.8,0-3.7-0.5-5.5-1.4c-2.2-1-4-2.6-5-4.3
		c-0.9-1.7-1.1-3.3-0.5-4.5c0.6-1.1,1.6-1.8,3.1-2.1c0,0,0,0.1,0,0.1c0.2,1.5,0.7,3.1,1.5,4.5c0.6,1,1.2,1.9,1.9,2.3
		c1,0.7,2.1,1,3.4,1c0.6,0,1.2-0.1,1.8-0.2h0c1.3-0.3,2.6-0.9,4-1.7C-160.7,253-160.5,254.4-161.1,255.6z"/>
	<path fill="#FFFFFF" d="M-106.9,273.7c-1.2,4.7-4.9,11-15.4,13c-0.2,0-0.3,0.1-0.5,0.1h0c-1,0.2-2,0.3-3,0.4
		c-1.3,0.1-2.6,0.2-3.9,0.1c-3.5-0.1-7.1-0.5-12-1.2c-9.7-1.4-24.2-3.5-52-3.5c-41.7,0-56.3,25.8-60.4,35.7
		c-29.8-0.2-55-0.4-69.6-0.4c-9.3,0-19.5,0.1-30.2,0.1c-9,0.1-18.2,0.1-27.3,0.1c-14-48.8-50.1-66.8-65.6-72.4l-0.8-0.3
		c-1-0.4-1.9-0.7-2.7-0.8c1.8-6,3.7-12,5.4-16.5c11,6.2,65.3,35.1,111.2,35.1c45.3,0,64.8-13.1,79.1-22.7c1.9-1.3,3.8-2.6,5.6-3.7
		c2.1-1.3,4.2-2.7,6.2-4.1c2.2-1.5,4.4-3,6.7-4.4c0.5-0.3,0.9-0.5,1.4-0.8h0c0.4-0.2,0.8-0.5,1.2-0.7c5.1-2.9,10.6-5.1,17.2-5.6
		c-0.9,1.6-1.5,3.3-2,4.9h0c-2.5,0.6-4.6,2.2-5.7,4.5c-0.6,1.2-0.9,2.5-0.9,3.9c0,0.6,0.1,1.3,0.2,1.9c0.2,1,0.6,1.9,1.2,2.8
		c1,1.7,2.5,3.1,4.5,4.1c0.9,0.5,1.8,0.8,2.8,1c0.7,0.1,1.4,0.2,2.1,0.2c0.3,0,0.6,0,0.9,0c0.7-0.1,1.4-0.2,2-0.4
		c2.4-0.7,4.3-2.2,5.3-4.4c0.5-0.9,0.8-1.9,0.8-2.9v0c4.3-3,8-8,10.3-11.5c0.7,0.3,1.3,0.5,2,0.8c-1.5,2.2-2.7,4.6-3.2,6.8
		c-0.2,0.9-0.3,1.8-0.3,2.8c-1.5,0.7-2.6,1.8-3.3,3.1c-2,4,0.5,9.2,5.5,11.7c1.7,0.8,3.6,1.3,5.4,1.3c3.3,0,6-1.5,7.3-4
		c1-1.9,0.9-4.1,0-6.1c2.1-2,4.1-4.5,6.1-7.1c1.9,1,3.8,2,5.7,3c-0.3,0.3-0.5,0.6-0.8,0.9c-0.8,0.9-1.7,1.7-2.3,2.4
		c-0.9,0.9-1.3,2.2-1.3,3.6c-1.9,0.4-3.4,1.4-4.2,2.8c-0.8,1.6-0.6,3.7,0.6,5.7c1.2,1.9,3.1,3.6,5.5,4.8c2,1,4.1,1.5,6.1,1.5
		c2.8,0,5-1.1,6-2.9c0.8-1.6,0.6-3.5-0.4-5.4c2.2-1.5,4.3-3.4,6-5.1c1,0.6,2,1.1,3,1.7c-0.1,0.5-0.2,0.9-0.3,1.5
		c-0.5,2.1-0.9,3.9-1,5.5c-1.8,0.4-3.2,1.4-3.9,2.8c-0.8,1.6-0.6,3.7,0.6,5.7c1.2,1.9,3.1,3.6,5.5,4.8c2,1,4.1,1.5,6.1,1.5
		c2.9,0,5.1-1.1,6-2.9c0.7-1.5,0.6-3.3-0.2-5c1.5-1.2,2.9-2.7,4.1-4.2c0.9,0.5,1.8,1.1,2.7,1.6c-0.2,1-0.4,2-0.5,3
		c0,0.6,0,1.3,0.2,2c-1,0.5-1.7,1.2-2.2,2.1c-0.8,1.6-0.6,3.7,0.6,5.7c1.2,1.9,3.1,3.6,5.5,4.8c2,1,4.1,1.5,6.1,1.5
		c2.9,0,5.1-1.1,6-2.9c0.7-1.5,0.6-3.3-0.3-5.1c0.3-0.4,0.6-0.9,0.8-1.4C-111.5,270.9-108.4,272.8-106.9,273.7z"/>
	<path fill="#FFFFFF" d="M-206.6,237.8c-0.1,0.4-0.3,0.8-0.4,1.2c-1.1,2.1-3.3,3.6-5.8,4c-0.4,0.1-0.8,0.1-1.3,0.1
		c-0.4,0-0.8,0-1.2-0.1c-1-0.1-2.1-0.4-3.1-0.9c-1.9-0.9-3.4-2.5-4.2-4.2c0,0,0,0,0,0c-0.4-0.7-0.6-1.5-0.8-2.3
		c-0.2-1.5-0.1-3,0.6-4.4c0.9-1.7,2.3-2.9,4.2-3.6c-0.5,2.7-0.6,5.2-0.2,7.3c0.4,1.9,1.1,3.1,2.2,3.7c1.3,0.7,2.8,1,4.2,1
		C-210.4,239.6-208.4,238.9-206.6,237.8z"/>
	<path fill="#FFFFFF" d="M-210.7,213.8c-1,1.1-2.1,2.5-3.5,4.2c-0.5,0.6-1,1.2-1.4,1.9c-6.8,0.4-12.6,2.6-17.9,5.5
		c-0.4,0.2-0.8,0.5-1.2,0.7c-0.4,0.2-0.9,0.5-1.3,0.8c-2.5,1.5-5,3.2-7.4,4.9c-2,1.3-4,2.7-6.1,4c-1.8,1.1-3.7,2.4-5.7,3.7
		c-14.1,9.5-33.5,22.5-78.4,22.5c-45.9,0-100.4-29.2-110.8-35.1c1.2-3.2,2.3-5.5,2.8-5.9l0.7-0.3c0.3-0.1,0.7-0.3,0.8-0.3
		c0.2,0,1,0.5,1.8,1s1.9,1.1,3.5,2c9.5,5.3,58.9,31.6,99.7,31.6c43.4,0,71.5-14.7,87.5-27c3.2-2.5,6.6-4.9,10.1-7.1
		c0.5-0.3,0.9-0.5,1.4-0.8c0.5-0.3,0.9-0.5,1.4-0.8c6.1-3.3,12.8-5.6,20.2-5.6C-213.2,213.6-212,213.7-210.7,213.8z"/>
	<path fill="#FFFFFF" d="M22.1,316.1c-0.5,0.4-1,0.8-1.7,1.2h0c-1.1,0.6-2.5,1.3-4.1,1.9c0,0,0,0,0,0l0,0c-3,1.2-6.8,2.3-11.2,3.4
		l0,0c-4.8,1.2-10.2,2.3-16.2,3.3h0c0,0,0,0-0.1,0h0c-5.2,0.9-10.7,1.6-16.5,2.3l-0.1,0c-10.7,1.2-22,1.9-33.2,1.9
		c-11,0-33.3-0.4-61.6-0.8l-121.5-1h-123c-67,0.9-93.7-2.1-97.4-2.5c0.4-1.7,1-3.2,1.7-4.6c0.2-0.5,0.5-1,0.8-1.4
		c0.2,0,0.5,0,0.8,0.1c0.5,0,1,0.1,1.5,0.1c12.8,1.1,43.1,1.3,69.3,1.3h3.1c1.5,0,2.9,0,4.4,0c0.5,0,1,0,1.5,0c0.5,0,0.9,0,1.4,0
		c8.8,0,17.7-0.1,26.4-0.1c10.6-0.1,20.9-0.1,30.2-0.1c14.5,0,39.2,0.2,68.6,0.4c0.5,0,1,0,1.5,0c0.5,0,1,0,1.5,0c2,0,4,0,6,0.1
		c0.5,0,1,0,1.5,0c0.5,0,1,0,1.6,0c14.8,0.1,30.4,0.3,46.4,0.4c55.3,0.5,112.4,1,140,1c43.9,0,55-3.9,66.7-8.1
		c2.3-0.9,4.9-1.8,7.7-2.6l0.2-0.1c1,0.7,1.9,1.4,2.7,2.3C21.1,314.9,21.6,315.5,22.1,316.1z"/>
	<path fill="#CCCCCC" d="M-200.6,212.9c0.1,0.1,0.3,0.2,0.4,0.2c0,0,0,0,0,0c0.3,0.1,0.7,0.1,1,0.2
		C-199.6,213.2-200.1,213-200.6,212.9z M-184.7,220.3L-184.7,220.3c0.1,0.1,0.1,0.1,0.1,0.1L-184.7,220.3z M-186.3,219.4
		C-186.3,219.4-186.3,219.4-186.3,219.4C-186.3,219.4-186.3,219.4-186.3,219.4L-186.3,219.4z M-206.1,213
		C-206.1,213.1-206.1,213.1-206.1,213L-206.1,213L-206.1,213z"/>
	<path fill="#FFFFFF" d="M-133.4,249.8c-0.1,0.2-0.2,0.5-0.3,0.7c-0.1,0.2-0.2,0.5-0.3,0.7c-0.2,0.3-0.3,0.6-0.5,1
		c-0.1,0.1-0.2,0.3-0.2,0.4c-0.2,0.3-0.3,0.5-0.5,0.8c-0.3,0.4-0.6,0.8-0.9,1.3c0,0,0,0.1-0.1,0.1c-0.2,0.3-0.5,0.7-0.8,1
		c-1,1.2-2.1,2.3-3.2,3.3c-0.3,0.3-0.6,0.5-0.9,0.7c-1,0.7-2,1.2-3,1.4c-0.5,0.1-0.9,0.2-1.3,0.2c-0.1,0-0.2,0-0.3,0h0
		c-0.8-0.1-1.6-0.3-2.4-0.8c-0.1-0.1-0.3-0.2-0.4-0.4c-0.2-0.3-0.5-0.7-0.7-1.2c-0.2-0.8-0.4-1.8-0.3-3.4c0-0.4,0-0.8,0.1-1.2
		c0.1-1.3,0.4-2.8,0.9-4.6c0-0.2,0.1-0.4,0.1-0.6c0.1-0.4,0.2-0.9,0.3-1.3c0-0.1,0-0.2,0.1-0.4c0-0.1,0-0.2,0-0.3
		c0.1-0.5,0.2-0.9,0.3-1.3c0.1-0.3,0.1-0.6,0.2-0.9c0.1-0.2,0.1-0.3,0.2-0.5c0.1-0.3,0.3-0.6,0.5-0.8c0.2-0.2,0.4-0.4,0.7-0.6
		c0.2-0.2,0.4-0.3,0.6-0.5c0.3-0.3,0.6-0.5,0.8-0.7c0.2-0.2,0.4-0.4,0.6-0.5c0,0,0.1,0,0.3,0c1.2,0.9,5.3,3.1,8.8,5l0.6,0.3
		c0.1,0.1,0.3,0.2,0.6,0.3c0.5,0.2,0.8,0.3,0.9,0.6C-133,247.7-132.8,248.3-133.4,249.8z"/>
	<path fill="#FFFFFF" d="M-392.2,318l0,0.1h0L-392.2,318z"/>
	<path fill="#FFFFFF" d="M-384.1,318.1h-8l-0.1-0.1l-0.1-0.1c-1.4-3.3-4.7-10.7-8.8-18.5l0,0c-0.3-0.5-0.5-1-0.8-1.5l0,0
		c-0.3-0.5-0.5-1-0.8-1.4c-0.5-1-1.1-2-1.7-2.9c-0.3-0.5-0.6-1-0.8-1.4c-0.3-0.6-0.7-1.2-1-1.7c-0.2-0.4-0.5-0.7-0.7-1.1
		s-0.5-0.7-0.7-1.1c-0.1-0.1-0.1-0.2-0.2-0.3l0,0c-2.2-3.4-4.5-6.5-6.8-8.9c-5.3-5.6-11.3-10.5-17.8-14.5l-0.1-0.1
		c-4.5-2.8-9.3-5.1-14.3-7l0,0c-2.4-0.9-4.8-1.7-7.2-2.4v0c-0.8-0.2-1.6-0.4-2.4-0.6c0.4-1.7,0.7-2.9,1-3.6c0.3-0.7,0.6-1.3,0.9-1.8
		c0.6-1,1.2-1.3,1.8-1.5c0.2-0.1,0.5-0.1,0.7-0.1c0.3,0,0.6,0,0.9,0.1c0.7,0.1,1.6,0.3,2.6,0.7l0.8,0.3
		C-432.8,253.8-398,271.2-384.1,318.1z"/>
	<path fill="#FFFFFF" d="M-103.5,271.1c0,0.3-0.1,0.7-0.1,1c0,0,0.1,0.1,0.1,0.1C-103.5,271.8-103.5,271.4-103.5,271.1L-103.5,271.1
		z"/>
	<path fill="#CCCCCC" d="M22.1,316.1l0.2,0.2c0-0.1,0-0.3,0-0.4L22.1,316.1z"/>
	<path fill="#FFFFFF" d="M-106.3,269.4c0,0.3,0,0.7,0,1.1c0,0.5-0.1,1.1-0.2,1.7l0,0.2c-1.7-1-4.7-2.8-8.5-5.2c0,0,0-0.1,0-0.1
		c0.2-0.5,0.3-1.1,0.3-1.6c0.1-0.4,0.1-0.8,0.1-1.1C-111.2,266.5-108.4,268.2-106.3,269.4z"/>
	<path fill="#FFFFFF" d="M14.8,309.8c-2,0.6-3.9,1.3-5.8,2c-11.4,4.1-22.3,8-65.7,8c-27.5,0-84.7-0.5-139.9-1
		c-15.3-0.1-30.3-0.3-44.6-0.4c0.9-2.4,3-7,7.3-11.5c5.6-6.1,16.1-13.3,34.3-13.3c16.3,0,32.3,1.2,46.5,2.2
		c17.1,1.2,30.6,2.2,37.4,0.6c12.8-2.9,21-13.3,20.6-25.6c7.9,5.1,24.5,14.1,50.5,20.7C-16.4,298.7,7.4,306.3,14.8,309.8z"/>
	<path fill="#FFFFFF" d="M22.1,316.1l0.2,0.2c0-0.1,0-0.3,0-0.4L22.1,316.1z"/>
	<path fill="#CCCCCC" d="M22.1,316.1l0.2,0.2c0-0.1,0-0.3,0-0.4L22.1,316.1z"/>
	<path fill="#FFFFFF" d="M24.2,363.3c-4.7,3.4-41.8,10.7-95.6,12.5c-13.8,0.4-22.9,0.9-31.7,1.4c-12.6,0.7-24.3,1.3-47.8,1.8
		c4.7-34.9,38.2-42,53-43.5c16.4,0.2,29.3,0.4,36.8,0.4c32.1,0,74-6.2,86.1-14.8c2.6,6,3,12.8,3,16.4v3.2
		C28.1,349,28.1,360.5,24.2,363.3z"/>
	<path fill="#FFFFFF" d="M-106.3,335.4c-16.8,3.2-42,13.2-46,43.6c-24.6,0.5-62,0.8-125.8,0.8c-154.7,0-176.2-6.7-178.5-7.6
		c-1.1-3.2-7-20.6-8.7-26.7c-0.9-3.3-1.1-8.7-0.5-14c2.8,0.3,32.5,4,116.1,2.3c60.9-1.3,160.8,0.3,226.9,1.3
		C-117,335.2-111.5,335.3-106.3,335.4z"/>
	<path fill="#CCCCCC" d="M22.3,315.9c0,0.1,0,0.3,0,0.4l-0.2-0.2L22.3,315.9z"/>
	<path fill="#FFFFFF" d="M-206.1,213.1L-206.1,213.1C-206.1,213.1-206.1,213.1-206.1,213.1L-206.1,213.1z"/>
	<path fill="#FFFFFF" d="M-199.1,213.4c-0.3-0.1-0.7-0.2-1-0.2c0,0,0,0,0,0c-0.1-0.1-0.3-0.2-0.4-0.2
		C-200.1,213-199.6,213.2-199.1,213.4z"/>
	<path fill="#FFFFFF" d="M-188.8,221.5C-188.8,221.5-188.8,221.5-188.8,221.5c-0.2-0.1-0.3-0.2-0.5-0.2
		C-189.1,221.4-189,221.5-188.8,221.5z"/>
	<path fill="#CCCCCC" d="M-186.3,219.4C-186.3,219.4-186.3,219.4-186.3,219.4C-186.3,219.4-186.3,219.4-186.3,219.4L-186.3,219.4z
		 M-189.3,221.3c0.1,0.1,0.3,0.2,0.5,0.3c0,0,0,0,0,0C-189,221.5-189.1,221.4-189.3,221.3z M-200.6,212.9c0.1,0.1,0.3,0.2,0.4,0.2
		c0,0,0,0,0,0c0.3,0.1,0.7,0.1,1,0.2C-199.6,213.2-200.1,213-200.6,212.9z"/>
	<path fill="#CCCCCC" d="M-184.7,220.3L-184.7,220.3c0.1,0.1,0.1,0.1,0.1,0.1L-184.7,220.3z"/>
	<path fill="#FFFFFF" d="M-172.8,227.4c-0.1,0.1-0.3,0.3-0.9,0.8c0,0-0.1,0.1-0.1,0.1c-0.1,0.1-0.2,0.2-0.4,0.3
		c-0.2,0.2-0.4,0.4-0.6,0.7c-0.1,0.1-0.2,0.2-0.3,0.4c-0.3,0.3-0.6,0.7-0.9,1.2c-0.1,0.1-0.2,0.3-0.3,0.4c-0.2,0.3-0.4,0.5-0.7,0.9
		c-0.2,0.3-0.5,0.6-0.8,1c-1.4,1.8-3.2,4-5.1,6c-0.4,0.4-0.7,0.7-1.1,1c-0.9,0.9-1.9,1.7-2.8,2.2c-0.4,0.2-0.7,0.4-1.1,0.6
		c-1,0.5-2,0.7-2.8,0.4c-0.3-0.2-1-1-1.6-2.2c-0.2-0.4-0.4-0.8-0.6-1.3c-0.4-1.1-0.6-2.3-0.6-3.7c0-0.5,0-0.9,0.1-1.4
		c0-0.4,0.1-0.8,0.2-1.2c0.5-2.1,1.7-4.3,3.1-6.2c0.2-0.3,0.5-0.7,0.8-1c0.6-0.8,1.2-1.5,1.8-2.1c0.4-0.4,0.8-0.8,1.1-1.1
		c0,0,0.1-0.1,0.1-0.1c0.4-0.4,0.8-0.7,1.1-0.9c0.1-0.1,0.1-0.1,0.2-0.1c0.2-0.1,0.3-0.2,0.4-0.2c1.4-0.1,8.3,3,10.7,4.8
		C-173,227.1-172.9,227.4-172.8,227.4z"/>
	<path fill="#FFFFFF" d="M-153.5,239.8c-0.1,0.2-0.2,0.5-0.4,0.8c0,0,0,0,0,0.1c-0.1,0.2-0.2,0.3-0.4,0.5c-0.2,0.2-0.3,0.4-0.5,0.6
		c-0.3,0.4-0.6,0.8-1,1.2c-0.1,0.1-0.2,0.3-0.4,0.4c-0.3,0.3-0.6,0.6-0.9,0.9c-1.5,1.5-3.2,3.1-5,4.2c-0.4,0.2-0.7,0.5-1.1,0.7
		c-1.1,0.6-2.2,1.1-3.2,1.3c-0.3,0-0.6,0.1-0.9,0.1c-0.6,0-1.2-0.2-1.7-0.5c-0.2-0.2-0.6-0.6-1-1.2c-0.5-0.9-1-2.1-1.1-3.4
		c0,0,0,0,0-0.1c0-0.4,0-0.8,0-1.2c0.1-0.5,0.2-1,0.6-1.5c0.6-0.7,1.4-1.5,2.3-2.4c0.5-0.5,0.9-0.9,1.3-1.4h0
		c0.3-0.3,0.6-0.6,0.9-0.9c0.2-0.2,0.5-0.5,0.7-0.7c0.4-0.4,0.8-0.8,1.1-1.2c0.2-0.2,0.3-0.4,0.5-0.5c0.2-0.2,0.3-0.4,0.5-0.6
		c0.2-0.2,0.4-0.4,0.5-0.6c0.3-0.3,0.5-0.6,0.6-0.8c0.1-0.2,0.2-0.3,0.4-0.4c0.3-0.2,0.7-0.2,1.2-0.2c1,0,2.2,0.4,3.1,1
		c1.5,0.9,3,2.3,3.6,3.8c0.1,0.2,0.2,0.5,0.2,0.7C-153.4,239-153.4,239.4-153.5,239.8z"/>
	<path fill="#FFFFFF" d="M-117.3,259.3c0,0.3-0.1,0.7-0.1,0.9c0,0.3-0.1,0.5-0.1,0.8c-0.1,0.5-0.1,0.9-0.1,1.2c0,0.2,0,0.3,0,0.5
		c0,0.1,0,0.2,0,0.3c0,0.2,0,0.5,0,0.9c0,0.5-0.1,1.1-0.2,1.7c0,0,0,0,0,0.1c-0.1,0.4-0.2,0.8-0.4,1.2c0,0.1-0.1,0.2-0.1,0.3
		c-0.2,0.4-0.4,0.7-0.6,1.1c-0.1,0.1-0.1,0.2-0.2,0.3c-0.7,0.7-1.7,1.1-2.9,1c-0.8,0-1.6-0.2-2.6-0.6c-0.8-0.3-1.6-0.9-2.3-1.6
		c-0.9-0.9-1.7-2.1-2.1-3.3c-0.2-0.4-0.3-0.8-0.3-1.2c-0.1-0.3-0.1-0.6-0.1-0.9c0-0.5,0.1-1.1,0.2-1.6c0.1-0.4,0.2-0.8,0.3-1.3
		c0,0,0,0,0-0.1c0.1-0.5,0.3-1,0.5-1.5c0.1-0.3,0.2-0.6,0.3-1c0-0.1,0.1-0.3,0.2-0.4c0.1-0.4,0.3-0.7,0.4-1c0.2-0.5,0.4-1,0.6-1.5
		c0.1-0.3,0.2-0.6,0.4-0.9c1-2.2,1.5-2.5,1.5-2.5s0.1,0,0.4,0.3c0.9,0.9,2.4,1.8,3.9,2.8c1.3,0.8,3.1,2,3.5,2.5
		C-117.1,256.3-117.2,258-117.3,259.3z"/>
	<path fill="#FFFFFF" d="M-393.5,318.1c-26.3,0-55.8-0.2-67.2-1.4c-1-4.5-2.7-14-1.4-24.7c1.5-13,3.8-28.3,5.5-36.3
		c2.9,0.7,5.8,1.6,8.7,2.7l0,0c4.5,1.7,9,3.8,13.2,6.3l0,0c7.1,4.1,13.6,9.2,19.2,15.2c2.4,2.5,4.8,5.8,7.1,9.3l0,0
		c2.5,3.9,4.9,8.1,7,12.1C-397.8,308.4-394.9,314.9-393.5,318.1z"/>
</g>
</svg>
