<?xml version="1.0" encoding="utf-8"?>
<!-- Generator: Adobe Illustrator 19.1.0, SVG Export Plug-In . SVG Version: 6.00 Build 0)  -->
<svg version="1.1" id="Layer_1" xmlns="http://www.w3.org/2000/svg" xmlns:xlink="http://www.w3.org/1999/xlink" x="0px" y="0px"
	 viewBox="44 -40 568.6 560" style="enable-background:new 44 -40 568.6 560;" xml:space="preserve">
<style type="text/css">
	.st0{fill:#FFFFFF;}
</style>
<g>
	<g>
		<path class="st0" d="M511,273c0,0-1.5-3.9-3.3-10.3c-2.9-10-6.8-26-7.5-42.4c2.4-8.6,3.3-18.2,1.9-29
			C479-36.2,365.5-7.1,338.3,3.4c-3.7,1.4-5.9,2.5-5.9,2.5c0,0-2.4-1.2-6.6-2.8c-20.2-7.6-82.4-23.3-125,49.1
			c-12.4,12.9-22.1,28.4-28.2,46.3c-1.1,3.4-2.2,6.9-3,10.4c-10,41.1-11.6,68.2-12,88.2c-0.3,17.1,0.3,28.9-2.5,39.7
			c-2.1,7.9-7.8,20.3-14.9,35.2c-3.1,3.2-5.2,4.8-5.2,4.8c1.1-0.2,2.1-0.3,3.1-0.5c16.8-2.9,30.5-8.6,41.4-16.1
			c-7.2,14.2-15.7,24.3-15.7,24.3c14.1-4.7,24.8-11.4,32.9-19.4c-0.3-0.7-0.5-1.5-0.7-2.3c-1.7-3.5-3.1-7-4.2-10.5
			c0,0-20.8-2.7-27.1-20.2c-1.2-3.2-1.9-6.8-1.9-11.1c0-2.3,0.1-4.5,0.4-6.5c2.8-25.6,22.1-26.5,22.1-26.5c-0.3,7.4,0.6,13,1.8,17.1
			c2.2,7.5,5.5,10.2,5.5,10.2s-1.3-8.5,7.3-18c0.7-0.8,1.5-1.6,2.4-2.4c2.1,2.4,4.3,6,6.3,9.7c-0.2-4.8-0.3-9.6-0.3-14.3
			c9.8-6.6,23.3-12.4,39.6-25.8c0.1-0.1,0.2-0.1,0.3-0.2c21.5-18,31.3-55.8,31.3-55.8s0.7,2.9,3.2,8.2c1.3,2.6,3.1,5.8,5.5,9.5
			c0.8,1.2,1.7,2.5,2.6,3.9c0.9,1.3,2,2.7,3.1,4.2c0.6,0.7,1.1,1.5,1.7,2.2c1.2,1.5,2.5,3.1,3.8,4.7c2,2.4,4.3,4.9,6.8,7.5
			c1.6,1.7,3.4,3.5,5.2,5.3c1.8,1.8,3.8,3.7,5.9,5.6c14.4,13.2,29.1,17.4,41.1,18c3.7-3.5,8.5-6,15-6c4,0,7.2,0.7,9.9,1.9
			c1-0.4,1.6-0.7,1.6-0.7s-11.3-1-23.3-10.5S347.2,138,347.2,138s3.3,16.8,33.8,27.3s47.3,8.5,59.3,17c0.8,0.5,1.5,1.2,2.1,1.9
			c0.3,0.4,0.6,0.7,1,1.1c0.9,1.2,1.8,2.6,2.5,4.1c1,2,1.8,4.3,2.5,6.6c0.4,1.2,0.7,2.4,1,3.6c0.6,2.4,1.1,4.9,1.4,7.4
			c0.2,1.2,0.4,2.4,0.5,3.6c0.3,2.3,0.5,4.5,0.6,6.5c0.1,1.5,0.2,2.8,0.2,3.9c0,0.4,0,0.7,0,1.1c0,0.7,0,1.3,0.1,1.7
			c0,1,0,1.5,0,1.5s7-9.3,11.5-17.8c0.8-1.4,1.6-4.4,2.3-7.5c0.1-0.5,0.2-1.1,0.4-1.6c0.5-2.1,0.9-4.2,1.2-5.9
			c0.1-0.4,0.1-0.8,0.2-1.1c0.3-1.5,0.4-2.4,0.4-2.4s19.3,2.8,19.3,33.5c0,4.7-1,8.7-2.5,12.1c-0.3,0.6-0.5,1.1-0.8,1.7
			c-0.6,1.1-1.2,2.1-1.9,3c-2.8,3.8-6.3,6.7-9.7,8.8c-0.5,0.3-0.9,0.6-1.4,0.8c-3.2,2.2-10.5,3.6-11.4,5.4
			c-2.8,5.3-3.7,8.1-6.6,13.4c9.7,7.4,38,17.9,54.1,20.3c0,0-10.9-15.4-16.4-36.8C496.1,258.8,502.7,266.1,511,273z"/>
		<path class="st0" d="M207,280.1c-6.3,17.5-14.7,30-14.7,30c11.2-4.1,20.7-9.2,28.6-15.1C215.8,290.3,211.1,285.3,207,280.1z"/>
	</g>
</g>
</svg>
