<?xml version="1.0" encoding="utf-8"?>
<!-- Generator: Adobe Illustrator 18.1.1, SVG Export Plug-In . SVG Version: 6.00 Build 0)  -->
<svg version="1.1" id="Layer_1" xmlns="http://www.w3.org/2000/svg" xmlns:xlink="http://www.w3.org/1999/xlink" x="0px" y="0px"
	 viewBox="-173 146 612 476" enable-background="new -173 146 612 476" xml:space="preserve">
<g>
	<path fill="#FFFFFF" d="M145.2,498.8c-1-15.9-25.9-16-24.9,0c2.3,35.9-16.4,74.5-12.6,110.4c-13.5,0.1-27,0.2-40.3,0.5l102.3-0.6
		c-0.9-2.1-2-4.2-3.3-6.2C160.7,568.8,147.4,532.6,145.2,498.8z"/>
	<path fill="#FFFFFF" d="M-167.4,569.6c1.7-226.9,94.7-413.2,94.7-413.2l-100.3,5.4v449.3l106.1-0.6
		C-127.2,608.2-167.6,599-167.4,569.6z"/>
	<path fill="#FFFFFF" d="M339.5,161.4c0,0,92.3,125,94,351.9c0.8,109.4,8.4,95.1-263.8,95.8l269.3,2V161.7L339.5,161.4z"/>
	<path fill="#99BAC6" d="M67.4,609.7l-134.3,0.8C-28.4,611.9,18.2,610.5,67.4,609.7z"/>
	<path fill="#99BAC6" d="M433.5,513.2c-1.7-226.9-94-351.9-94-351.9l-206.7,11.4l-205.5-16.4c0,0-93,186.3-94.7,413.2
		c-0.2,29.4,40.2,38.6,100.5,40.9l134.3-0.8c13.3-0.2,26.7-0.4,40.3-0.5c-3.8-35.9,14.9-74.4,12.6-110.4c-1-16,23.9-15.9,24.9,0
		c2.2,33.8,15.5,70,21.2,104c1.4,2,2.5,4.1,3.3,6.2C441.9,608.3,434.3,622.7,433.5,513.2z"/>
</g>
</svg>
