<?xml version="1.0" encoding="utf-8"?>
<!-- Generator: Adobe Illustrator 19.1.0, SVG Export Plug-In . SVG Version: 6.00 Build 0)  -->
<svg version="1.1" id="Layer_1" xmlns="http://www.w3.org/2000/svg" xmlns:xlink="http://www.w3.org/1999/xlink" x="0px" y="0px"
	 viewBox="0 0 480 480" style="enable-background:new 0 0 480 480;" xml:space="preserve">
<style type="text/css">
	.st0{fill:#FFFFFF;}
</style>
<path class="st0" d="M455.7,135.9c-7-4.7-13.8-8.7-20.3-12.6C367.3,81.6,326.9,81,322.7,81c-0.2,0-0.4,0-0.4,0l0-0.4
	c0,0,0-0.1-0.1-0.1c0,0,0,0,0,0c-1.5,4-3,8-4.7,12c-0.2,0.4-0.4,0.8-0.5,1.3c0,0.1,0.1,0.1,0.1,0.2v0l-0.1,0c0,0-0.1,0-0.1,0
	c0,0,0,0,0,0c0,0,0.1,0,0.1,0c0,0,0.1,0,0.1,0c0,0,0,0,0,0v0.1c0,0-0.1,0.1-0.1,0.1c0,0.1-0.2,0.2-0.2,0.3c0,0-0.1,0-0.1,0.1
	c-2.5,5.9-5.3,11.7-8.9,18.2c-0.1,0-0.3-0.1-0.4-0.1c-0.1,0-0.2-0.1-0.2-0.1h0c-1.1,0-2.2,0-3.2,3h0c0,0-0.1-0.9-0.1-0.9
	c0,0,0-0.4,0-0.4s0-0.2-0.1-0.2c-5,1-9.9,1.7-14.6,2.4c-0.1,0-0.1-0.1-0.2-0.1c0,0,0,0,0,0c-27.2,4.2-52,4.8-78.2,1.6
	c-1.1-0.1-2.1-0.4-3.2-0.4h0c0,0-0.1,0-0.2,0c-2.3-0.3-4.6-0.6-6.9-1c-0.9-0.1-1.8-0.3-2.7-0.4c-2.1-0.4-4.2-0.7-6.4-1.1
	c-1.1-0.2-2.2-0.4-3.2-0.6c-0.1,0-0.1,0-0.2,0c-1-0.2-2.1-0.4-3.1-0.6c-0.1,0-0.2,0-0.2,0c-0.1,0-0.3,0-0.4-0.1c-0.1,0-0.1,0-0.2,0
	c-0.1,0-0.1,0-0.2,0c-0.5-0.1-1-0.2-1.5-0.3c-0.5-0.1-1-0.2-1.5-0.3c-0.3-0.6-0.6-1.3-1-1.9c-0.3-0.7-0.7-1.3-1-2
	c-1.8-3.3-3.7-6.9-5.7-10.4c-0.1-0.2-0.2-0.3-0.3-0.5c0,0,0-0.1,0-0.1c-0.4-0.7-0.7-1.3-1-2c-0.2-0.3-0.3-0.7-0.5-1l-0.3-0.6
	c-0.1-0.1-0.2-0.3-0.2-0.4c-0.2-0.5-0.6-0.9-0.9-1.4c0,0,0.1-0.1,0.1-0.1c-0.4-0.6-0.7-1.1-0.7-1.7v0c0,0-0.2,0-0.2,0
	c0,0-0.1,0-0.1,0c0,0,0.2-0.1,0.2-0.1c-0.1-0.2,0.1-0.4,0.1-0.5v-0.1c0-0.3-0.5-0.6-0.8-0.9c-0.1-0.2-0.4-0.3-0.5-0.5
	c-0.4-0.8-0.9-1.7-1.2-2.5c-0.3-0.6-0.6-1.1-0.8-1.7c-0.4-0.9-0.8-1.8-1.2-2.7c0-0.1-0.5-0.2-0.5-0.2c-0.3-0.5-1-1.1-1-1.7v-0.1
	c0-0.6-0.3-1.2-0.5-1.8c0,0-54.9-2.3-118.5,38.7c0,0,0,0,0,0.1c-6.4,4.1-12.9,8.7-19.4,13.7c0,0,0,0,0,0c-1,0.8-2,1.5-3,2.3
	c0,0,0.4,1.3,1.5,3.2c0,0,0,0,0,0c2.4,4,7.9,10.8,19.1,13c0,0,0.1,0,0.1,0c0.6,0.1,1.3,0.2,2,0.3c3.8,0.6,8.2,0.6,13.4-0.1
	c0,0-10.7,18.7,1.3,30.8c13.1,11.8,26.2,3,26.7,2.7c-0.4,0.6-8.1,12.4-3.1,24c0,0,0,0,0,0.1c1,2.3,2.5,4.6,4.7,6.7
	c1.3,1.3,2.7,2.7,4,2.7c1.4,60.3,29.8,47.9,17.6,155.9c-11.6,31-7.7,63.2-1.3,69.5c0,0,0,0.3,0,0.3c0.2,0.2,0.4-0.4,0.6,0.7h259.3
	c0.2-1.1,0.5-0.8,0.8-1.1c0.1-0.1,0.1-0.2,0.1-0.3c5.1-7.2,10.1-37.5,0-69c-7.1-83.7,16.3-88.5,22.3-151.2c1.3-1.3,2.7-1.4,4-2.7
	c2.5-2.2,4-4.6,4.9-7.1c3-8.2-1.1-17.1-3.4-21.3c-0.8-1.5-1.5-2.4-1.5-2.4s0.6,0.4,1.6,0.9c3.9,2,14.6,5.9,25.1-3.6
	c12-10.7,1.3-30.8,1.3-30.8c0.5,0.1,1,0.1,1.5,0.2c0.1,0,0.3,0,0.4,0c0.2,0,0.3,0,0.5,0c0,0,0.1,0,0.1,0c0.1,0,0.1,0,0.2,0
	c0.1,0,0.1,0,0.2,0c0.3,0,0.6,0.1,1,0.1c0.6,0,1.2,0.1,1.8,0.1c0.6,0,1.2,0,1.8,0c0.7,0,1.3,0,2,0c0.6,0,1.2-0.1,1.8-0.1
	c0,0,0.1,0,0.1,0c0.5-0.1,0.9-0.5,1.4-0.5c0.3,0,0.6,0.2,0.8,0.2c0.1,0,0.2,0,0.3,0c0.1,0,0.2,0,0.3-0.1c0.1-0.1,0.1-0.3,0.2-0.3h0
	c0.2,0,0.4,0.1,0.6,0.1c11.2-2.1,16.9-8.4,19.4-12.5c0,0,0-0.1,0-0.1c1.3-2.1,1.8-3.5,1.8-3.5C457.9,137.3,456.8,136.6,455.7,135.9z
	 M193.5,139.5c0.9,0.1,1.7,0.2,2.5,0.4c1.6,0.2,3.1,0.5,4.5,0.7c1,0.1,1.9,0.3,2.8,0.4c0.5,0.1,0.9,0.1,1.3,0.2
	c11.6,1.6,19.5,2.3,34,2.3c7.2,0,13.9-0.1,20.5-0.4c6-0.3,11.9-0.1,17.8-0.9c3.5-0.5,7-1,10.5-1h0.2c0.8,0,1.7-0.8,2.5-1
	c0,0.1-0.1-0.2-0.1-0.2c-6.1,10.1-12.1,19.1-17.8,27.1c-1.8,2.5-3.5,4.8-5.2,7.1c-0.7,1-1.4,1.9-2.1,2.8c-1.1,1.5-2.2,2.9-3.3,4.3
	c-6.5,8.4-12,14.9-16.1,19.5c-0.2,0.2-0.4,0.5-0.6,0.7c-0.4,0.5-0.8,0.9-1.2,1.3c-0.6,0.7-1.2,1.3-1.7,1.9c-1.1,1.2-2,2.1-2.6,2.8
	c-0.3,0.3-0.5,0.5-0.7,0.7c-0.1,0.1-0.2,0.2-0.2,0.2c0,0,0,0,0,0c0,0,0,0,0,0c-0.1,0.1-0.5,0.1-0.5,0.1s-1.1-1.2-3.1-3.5
	c0,0,0,0,0,0c0-0.6-0.3-1.4-0.7-2.2c0,0,0.1,0,0.1,0c0,0,0-0.1,0-0.2c0,0,0,0,0,0c-0.2-0.4-0.4-0.9-0.4-1.3c0,0,0,0,0,0
	c-1-0.7-1.3-1.5-1.9-2.4c-0.2-0.2-0.3-0.4-0.4-0.6c-1.1-1.5-2.4-3.2-3.6-5.1c-0.7-1.1-1.6-2.2-2.4-3.3c-0.4-0.6-0.9-1.2-1.3-1.8
	c-0.8-1.2-1.7-2.5-2.6-3.8c-0.4-0.7-0.9-1.3-1.3-2c-0.5-0.8-1-1.6-1.6-2.4c-0.2-0.3-0.3-0.5-0.5-0.8c-0.4-0.5-0.7-1.1-1.1-1.6
	c-0.4-0.6-0.7-1.1-1.1-1.7c-2-3.1-4.1-6.3-6.3-9.7C204.9,158,199.4,149.2,193.5,139.5z M259.2,142.9c6-0.3,11.9-0.8,17.8-1.6
	C271.1,142,265.2,142.5,259.2,142.9z"/>
</svg>
