<?xml version="1.0" encoding="utf-8"?>
<!-- Generator: Adobe Illustrator 19.1.0, SVG Export Plug-In . SVG Version: 6.00 Build 0)  -->
<svg version="1.1" id="Layer_1" xmlns="http://www.w3.org/2000/svg" xmlns:xlink="http://www.w3.org/1999/xlink" x="0px" y="0px"
	 viewBox="0 0 709.5 560" style="enable-background:new 0 0 709.5 560;" xml:space="preserve">
<style type="text/css">
	.st0{fill:#FFFFFF;}
</style>
<g>
	<path class="st0" d="M659.9,394.6c-0.1,0-0.2,0.1-0.3,0.1c-5.3-81.1-16.8-165.9-41.3-233.9c-59.8,16-130.4,25.3-202.1,28.6
		c3.2-3.8,5.8-8.1,7.5-12.9c68-4,131.9-14,186.5-29.4c1.4,0,2.7-1.4,4.1-2.7c1.4-1.4,1.4-2.7,0-4.1l-9.6-30
		c-1.4-2.7-4.1-4.1-6.8-4.1c-38.4,9.9-97.1,21.5-178.3,25.7c-2.8-4.5-6.4-8.5-10.6-11.8c76.6-3.4,139.2-13.8,186.1-26.1
		c-4.1-21.8-14.6-43.7-22.8-65.5c-91.4,25.9-139.6,36.8-216,38.2c-76.4-1.4-126-12.3-216-38.2C132,49,121.5,70.8,117.4,94
		c47.1,13.5,110,23.2,186.9,26.3c-4.2,3.3-7.8,7.2-10.6,11.7c-80.5-4.2-139.3-15.8-177.8-25.7c-2.7-1.4-5.3,1.4-6.7,4.1l-9.4,30
		c0,1.4,0,2.7,0,4.1c1,1.4,2.6,2.7,4,2.7c55.8,15.5,118.7,25.5,186.3,29.5c0,0,0,0,0,0c1.7,4.7,4.3,9.1,7.5,12.9
		c-72.1-3.2-143-12.6-202.1-28.7c-24.5,68-41.3,137.3-45.4,233.8c-0.1,0-0.2-0.1-0.3-0.1c0,0-20.1,26.8-9.4,67.1
		c115.4,45.6,204,65.8,297.9,69.8c14-29.1,12.8-63.2,12.2-71.8l5.6-90.1l2.9,89.5c-0.5,7.4-2.1,42.6,12.2,72.4
		c93.9-4,182.5-24.2,297.9-69.8C680,421.5,659.9,394.6,659.9,394.6z M379.4,165h28.7c0,5-1.5,9.3-4,13.1
		c-4.8,7.2-13.5,11.9-23.3,11.9H333c-10.3,0-18.8-5.1-23.7-12.1c-2.9-4.1-4.5-9.2-4.5-14.3v-10.9c0-8.1,3.4-14.9,9.2-19.6
		c4.9-4,11.4-6.1,18.9-6.1h47.8c7.4,0,13.8,2.4,18.6,6.3c4.9,4,8,9.7,8.7,15.7h-28.7c-4.1,0-8.2,3.9-8.2,8
		C371.2,161.1,375.3,165,379.4,165z"/>
</g>
</svg>
