<?xml version="1.0" encoding="utf-8"?>
<!-- Generator: Adobe Illustrator 19.1.0, SVG Export Plug-In . SVG Version: 6.00 Build 0)  -->
<svg version="1.1" id="Layer_1" xmlns="http://www.w3.org/2000/svg" xmlns:xlink="http://www.w3.org/1999/xlink" x="0px" y="0px"
	 viewBox="0 0 960 560" style="enable-background:new 0 0 960 560;" xml:space="preserve">
<style type="text/css">
	.st0{fill:#FFDFBE;}
</style>
<path class="st0" d="M575.2,166.8c0,0-1.7,9.9-3,12.4c-3,5.8-7.7,11.9-7.7,11.9s0-23.1-8.1-28.8s-19.4-4.4-39.8-11.4
	c-19.8-6.7-22.4-17.6-22.6-18.3c0.1,0.6,1.9,10.3,9.7,16.4c8.1,6.3,15.6,7,15.6,7s-0.3,0.1-0.7,0.3c3.7,1.6,6,4.5,7.9,6.9
	c0.7,0.9,1.4,1.8,2.1,2.5c3.1,3.2,8.1,2.1,8.2,2.1h0.4c-0.2,0-6,3.2-9.8-0.3c1.1,2.8,1.7,6,1.7,9.6v0.1h0.1c0,0-7.2,8.3-17,8.3
	c-1,0-1.9-0.1-3-0.3c-11.2-2-14.5-13-14.5-13l0,0l0,0c0,0,0.3-1.2,1-2.9c-0.2,0.4-0.4,0.8-0.6,1.2l-0.2,0.4l0.4-1.3
	c1.5-3.2,3.4-7.2,6.6-10.2c-8.1-0.3-18-3.1-27.7-12c-22-20.2-25.3-34.2-25.3-34.2s-6.5,25.3-21,37.3s-25.7,14.8-32.3,22.1
	c-5.7,6.3-4.8,12-4.8,12s-5.4-4.4-4.8-18.3c0,0-15.1,0.6-15.1,22.1c0,18.3,19.4,20.9,19.4,20.9c8.5,28.5,48.5,53.5,78.8,59v-0.1
	c0.4,0.1,1,0.2,1.7,0.3c2.8,0.4,7.9,0.8,12.7,0.9c4.4-0.3,9.7-1.2,15.4-2.7h0.1c0.1,0,0.1,0,0.2,0c24.8-6.6,58.3-25.1,70.9-56.6
	c0,0,18.3-3.8,18.3-20.5C588.1,168.8,575.2,166.8,575.2,166.8z M472,203c0,0,0.7,0,2.4,0h8.4c0.9,0,1.6,0,2.1-0.2
	c0.5-0.1,0.8-0.2,1-0.4c0.1-0.1,0.2-0.2,0.2-0.3c0.1-0.1,0.1-0.3,0.1-0.7c0-0.5-0.1-1.3-0.4-2.2s-0.6-2.1-1.1-3.5
	c-0.9-2.8-2.1-6.3-3.2-10.9l1.9-0.5c1.7,6.8,3.5,11.3,4.3,14.4c0.3,1,0.5,1.9,0.5,2.7c0,0.6-0.1,1.1-0.3,1.6
	c-0.3,0.5-0.7,0.9-1.2,1.2c-1,0.5-2.3,0.7-4,0.7h-8.4c-1.7,0-2.4,0-2.4,0V203H472z M448.8,185.5c-9.8,0-16.9-8.3-16.9-8.3h0.1v-0.1
	c0-3.5,0.5-6.8,1.6-9.6c-3.9,3.6-9.6,0.4-9.8,0.3h0.4c0.1,0,5.1,1.1,8.2-2.1c0.7-0.7,1.4-1.6,2.1-2.5c2.9-3.7,6.5-8.2,14.5-8.2
	c9.9,0,14,8.6,16.7,14.3l0.4,1.3l-0.2-0.4c-0.2-0.4-0.4-0.8-0.6-1.2c0.7,1.7,1,2.9,1,2.9l0,0l0,0c0,0-3.4,11.1-14.5,13
	C450.8,185.5,449.8,185.5,448.8,185.5z M480,243.8c-14.6-1.2-23.6-22.3-23.8-22.9c0.4,0.2,14.1,6.9,25,7.8c10.4,0.8,26-3.7,26-3.7
	S494.4,245,480,243.8z"/>
<path class="st0" d="M744.9,387.8l-0.8-2.9l-7.9-19.6c-1.1,0.9-2.2,1.8-3.4,2.8c-0.7,0.6-1.5,1.2-2.2,1.8c0,0,0,0,0,0.1l9.6,24.3
	c1.8-1.8,3.6-3.7,5.5-5.6l-0.4-0.9C745.1,387.8,745,387.8,744.9,387.8z"/>
<path class="st0" d="M666.4,411.4c-3.7,3.5-22.3-22.5-43.6-48.1c-1-0.2-1.9-0.4-2.8-0.6c-5.7,11-19.8,19.4-32.6,23.9
	c17.3,21.7,66.3,58.9,80.4,58.6c3,0.1,19.7,1.4,69.2-47.9l-9.8-24.9C706.8,388,671.6,409.5,666.4,411.4z"/>
<path class="st0" d="M460.4,320.8c5.7,4,14.9,9.1,29.6,8.3c12.1-0.7,23.1-6.3,29.4-13.4c4.5-5.1,6.6-16.6,6.6-16.6v-0.4
	c-6.8-2.9-18.9-7.7-27-10.8V269c-1,0.6-7.9,3-15.6,3h-0.2c-5.9,0-11.2-1-14.2-1.4v16.8c-7,1.6-27.2,10.4-27.8,10.6
	c0,0-0.1,0-0.1,0.1l-0.1,0.2C442.6,301,451,314.2,460.4,320.8z"/>
<path class="st0" d="M339.6,362.9c-22.1,24.4-41.2,49-44.8,45.4c-5.1-2.1-40-24.8-60.1-41l-10.9,24.5c48.3,51,65.2,50.2,68.2,50.2
	c14.1,0.7,64.1-34.1,83-55.2C361.1,382.9,345.3,374.6,339.6,362.9z"/>
<path class="st0" d="M231.6,364.6c-0.8-0.6-1.5-1.3-2.2-1.9c-1.2-1-2.3-2-3.3-2.9l-8.7,19.2l-1,3c-0.1,0-0.2,0-0.4,0l-0.4,0.9
	c1.8,2,3.6,3.9,5.3,5.8L231.6,364.6C231.5,364.6,231.5,364.6,231.6,364.6z"/>
<path class="st0" d="M223,356.8l-0.1,0.2l-10.2,22.6l-1.9,4.2c-0.7,0.2-1.4,0.4-2.1,0.6c-2.5,0.6-4.2,0.7-5.1,0.4l-31.7-11.5
	c-0.3-0.1-0.6-0.5-0.9-1.2c-0.3-0.7-0.5-1.2-0.4-1.3c0-0.4,0.1-0.7,0.1-0.9c0.1-0.4,0.5-0.8,1.2-1.4s1.2-0.8,1.7-0.6l14,5.1
	c0.6,0.2,1-0.1,1.3-1s0.2-1.5-0.4-1.7l-22.1-8c-0.5-0.2-1-0.7-1.3-1.5s-0.3-1.5-0.2-2.1c0.2-0.6,0.7-1.1,1.4-1.5s1.4-0.5,2-0.2
	l21.2,7.7c0.6,0.2,1-0.2,1.4-1.2c0.1-0.2,0-0.5-0.1-1c-0.1-0.4-0.3-0.7-0.6-0.8L166,353c-0.5-0.2-0.9-0.7-1-1.6s-0.1-1.6,0.1-2.2
	c0.2-0.7,0.7-1.3,1.4-1.8s1.3-0.7,1.9-0.5l23.5,8.5c0.5,0.2,0.9-0.2,1.2-1.1c0.3-1,0.2-1.6-0.4-1.8l-20.3-7.4
	c-0.5-0.2-0.9-0.7-1.1-1.4c-0.2-0.8-0.2-1.4,0-2c0.1-0.4,0.5-0.9,1.1-1.4s1.2-0.7,1.8-0.5l23.4,8.5c1.2,0.4,2.6,0.5,4.3,0.4
	c2-0.2,3.2-0.9,3.5-2c0.1-0.3,0-0.6-0.3-0.9c-0.9-1-2.5-2.5-4.6-4.5c-2.2-2-3.7-3.5-4.7-4.6c-0.5-0.5-0.7-1.7-0.6-3.5
	c0-0.6,0-1,0.1-1.5c0.3-1,1-1.3,2-0.9c0.8,0.3,3.3,1.8,7.5,4.3c4.6,2.9,7.2,4.8,8,5.9c1.4,2,3.7,5.9,7,11.9c0.6,1.1,1.1,1.9,1.6,2.4
	c0.4,0.5,0.8,0.9,1.2,1.3C222.8,356.5,222.9,356.7,223,356.8z"/>
<path class="st0" d="M770.7,369.2c-0.1,0.4-0.2,0.8-0.1,1c0.3,1,0.7,1.4,1.3,1.2l21.2-7c0.6-0.2,1.2-0.1,1.9,0.3s1.2,0.9,1.4,1.6
	c0.1,0.5,0.1,1.2-0.2,2s-0.8,1.3-1.3,1.5l-22.1,7.2c-0.5,0.2-0.7,0.7-0.4,1.7c0.3,0.9,0.7,1.3,1.3,1.1l14.1-4.6
	c0.5-0.1,1,0.1,1.6,0.6c0.6,0.6,1,1.1,1.1,1.4c0,0.1,0.1,0.4,0.1,0.9c0,0.2-0.1,0.6-0.5,1.3c-0.3,0.7-0.6,1.1-0.9,1.2L757.5,391
	c-0.9,0.3-2.5,0.1-5-0.6c-0.8-0.2-1.4-0.4-2.1-0.7l-1.7-4.3l-9.3-22.9l-0.1-0.2c0.1-0.1,0.2-0.2,0.4-0.4c0.4-0.4,0.8-0.8,1.2-1.3
	c0.5-0.4,1-1.2,1.7-2.3c3.5-5.8,5.9-9.7,7.4-11.7c0.8-1,3.5-2.8,8.1-5.6c4.2-2.4,6.7-3.8,7.5-4.1c1-0.3,1.7,0,1.9,1
	c0.1,0.4,0.1,0.9,0.1,1.5c0,1.8-0.3,2.9-0.8,3.4c-1,1-2.6,2.5-4.8,4.4s-3.8,3.4-4.8,4.4c-0.3,0.4-0.4,0.7-0.3,0.9
	c0.3,1.1,1.5,1.8,3.4,2.1c1.7,0.2,3.1,0.2,4.3-0.2L788,347c0.5-0.2,1.1,0,1.7,0.6c0.6,0.6,1,1.1,1.1,1.5c0.2,0.6,0.1,1.3-0.1,2
	c-0.2,0.8-0.6,1.2-1.1,1.4l-20.4,6.7c-0.6,0.2-0.7,0.8-0.5,1.8c0.3,0.9,0.7,1.3,1.2,1.2l23.5-7.7c0.5-0.2,1.2,0,1.8,0.5
	c0.7,0.5,1.1,1.2,1.3,1.8c0.2,0.6,0.2,1.3,0,2.2c-0.2,0.9-0.5,1.4-1.1,1.6l-24.2,7.9C771.1,368.5,770.8,368.8,770.7,369.2z"/>
</svg>
