<?xml version="1.0" encoding="utf-8"?>
<!-- Generator: Adobe Illustrator 19.1.0, SVG Export Plug-In . SVG Version: 6.00 Build 0)  -->
<svg version="1.1" id="Layer_1" xmlns="http://www.w3.org/2000/svg" xmlns:xlink="http://www.w3.org/1999/xlink" x="0px" y="0px"
	 viewBox="0 0 709.5 560" style="enable-background:new 0 0 709.5 560;" xml:space="preserve">
<style type="text/css">
	.st0{fill:#FFFFFF;}
</style>
<path class="st0" d="M545.8,87.8c1.5-45.8-17-60-17-60s-63.2,37.9-174.2,37.9S175.8,27.8,175.8,27.8c-18.5,17.4-13.9,60-13.9,60
	c-37,53.7-91,145.3-89.4,336.3c0,0,30.8,45.8,123.3,60c-1.5,12.6-1.5,20.5,0,26.8c0,0,72.5,34.7,148,11.1c0,0,1.5-1.6,1.5-3.2
	c0,6.3,1.5,9.5,3.1,11.1c7.7,9.5,124.9,18.9,158.8-15.8c0,0,1.5,1.6,1.5-15.8c92.5,12.6,124.9-50.5,124.9-50.5
	C633.7,436.7,655.3,286.7,545.8,87.8z"/>
</svg>
