<?xml version="1.0" encoding="utf-8"?>
<!-- Generator: Adobe Illustrator 19.1.0, SVG Export Plug-In . SVG Version: 6.00 Build 0)  -->
<svg version="1.1" id="Layer_1" xmlns="http://www.w3.org/2000/svg" xmlns:xlink="http://www.w3.org/1999/xlink" x="0px" y="0px"
	 viewBox="104 -28 568.6 560" style="enable-background:new 104 -28 568.6 560;" xml:space="preserve">
<style type="text/css">
	.st0{display:none;fill:#020202;}
	.st1{fill:#FFFFFF;}
</style>
<path class="st0" d="M473.8,327.8v-3.3c-45.3-8-105-45.5-117.9-88c0,0-29-3.8-29-31.3c0-32,22.5-33,22.5-33
	c-0.8,20.8,7.3,27.3,7.3,27.3s-1.3-8.5,7.3-18c9.7-10.7,26.4-15,48-32.8c0.1-0.1,0.2-0.1,0.3-0.2c21.5-18,31.3-55.8,31.3-55.8
	s0.7,2.9,3.2,8.2c1.3,2.6,3.1,5.8,5.5,9.5c0.8,1.2,1.7,2.5,2.6,3.9c0.9,1.3,2,2.7,3.1,4.2c0.6,0.7,1.1,1.5,1.7,2.2
	c1.2,1.5,2.5,3.1,3.8,4.7c2,2.4,4.3,4.9,6.8,7.5c1.6,1.7,3.4,3.5,5.2,5.3c1.8,1.8,3.8,3.7,5.9,5.6c14.4,13.2,29.1,17.4,41.1,18
	c3.7-3.5,8.5-6,15-6c4,0,7.2,0.7,9.9,1.9c1-0.4,1.6-0.7,1.6-0.7s-11.3-1-23.3-10.5S511.2,122,511.2,122s3.3,16.8,33.8,27.3
	s47.3,8.5,59.3,17c0.8,0.5,1.5,1.2,2.1,1.9c0.3,0.4,0.6,0.7,1,1.1c0.9,1.2,1.8,2.6,2.5,4.1c1,2,1.8,4.3,2.5,6.6
	c0.4,1.2,0.7,2.4,1,3.6c0.6,2.4,1.1,4.9,1.4,7.4c0.2,1.2,0.4,2.4,0.5,3.6c0.3,2.3,0.5,4.5,0.6,6.5c0.1,1.5,0.2,2.8,0.2,3.9
	c0,0.4,0,0.7,0,1.1c0,0.7,0,1.3,0.1,1.7c0,1,0,1.5,0,1.5s7-9.3,11.5-17.8l0,0c0.8-1.4,1.6-4.4,2.3-7.5c0.1-0.5,0.2-1.1,0.4-1.6
	c0.5-2.1,0.9-4.2,1.2-5.9c0.4-2.1,0.6-3.5,0.6-3.5s19.3,2.8,19.3,33.5l0,0l0,0l0,0c0,4.7-1,8.7-2.5,12.1c-0.3,0.6-0.5,1.1-0.8,1.7
	c-0.6,1.1-1.2,2.1-1.9,3c-2.8,3.8-6.3,6.7-9.7,8.8c-0.8,0.5-1.7,1-2.5,1.4c-3.3,1.7-6.3,2.8-8.1,3.3c-0.4,0.1-0.8,0.2-1.1,0.3
	c-0.4,0.1-0.7,0.2-0.7,0.2c-6,15.1-15.3,28.2-26.3,39.4c-23.2,23.6-54.2,38.4-79.4,45.2c0,0,0,0,0.1,0s0.2,0,0.3,0
	c0.2,0,0.3,0,0.5,0h-0.5v3.7v28.3c11.8,4.6,29.9,11.8,40,16v-1.3c30,0,34.3,3.8,37.5,4.8c17.5,5.3,23,9,31,16.3
	c5.4,4.8,28.4,24.3,48.7,44.2c2.2-23.9,0.6-60.5,0.6-60.5c13.6,24.9,17.7,62.6,19,80.9c1.6,1.8,3,3.5,4.4,5.2
	c7.1-11.4,21.4-38.9,20.5-73.9c-1.5-56.1-32.8-92.3-60.1-167.2c-7.3-20,9-52.6-13-124.4C621.5,8.7,545.4-12.9,491.8-12.9
	c-70.6,0-140.9,35.8-158.2,105.9c-18.5,76.3-8.3,104.4-14.5,127.9c-8,29.8-66.3,121.9-59.1,177.7c5,38.3,16.6,56,21.8,62.1
	c0.9-1.3,1.9-2.5,2.9-3.9c1.2-16.8,5.5-61.5,19.1-81.8c2.5-3.9-1.7,27.1,1.5,57.6c18.4-20.2,38.4-39.5,43.3-44.6
	c7.5-7.5,18.3-13,33.8-16c19.3-3.5,23.3-3.8,46.8-3.5c1-0.3,1.8-0.3,1.8-0.3s0.3,0,0.3,0.3c0,0,0.3,0,0.5,0l-0.3,0.5
	c0,0,0.1,0.1,0.1,0.2c0.1-0.2,0.2-0.3,0.4-0.4c0.8-0.5,31-13.5,41.3-16v-25"/>
<path class="st1" d="M372.4,370.8v-3.3c-45.3-8-105-45.5-117.9-88c0,0-29-3.8-29-31.3c0-32,22.5-33,22.5-33
	c-0.8,20.8,7.3,27.3,7.3,27.3s-1.3-8.5,7.3-18c9.7-10.7,26.4-15,48-32.8c0.1-0.1,0.2-0.1,0.3-0.2c21.5-18,31.3-55.8,31.3-55.8
	s0.7,2.9,3.2,8.2c1.3,2.6,3.1,5.8,5.5,9.5c0.8,1.2,1.7,2.5,2.6,3.9c0.9,1.3,2,2.7,3.1,4.2c0.6,0.7,1.1,1.5,1.7,2.2
	c1.2,1.5,2.5,3.1,3.8,4.7c2,2.4,4.3,4.9,6.8,7.5c1.6,1.7,3.4,3.5,5.2,5.3c1.8,1.8,3.8,3.7,5.9,5.6c14.4,13.2,29.1,17.4,41.1,18
	c3.7-3.5,8.5-6,15-6c4,0,7.2,0.7,9.9,1.9c1-0.4,1.6-0.7,1.6-0.7s-11.3-1-23.3-10.5S409.8,165,409.8,165s3.3,16.8,33.8,27.3
	s47.3,8.5,59.3,17c0.8,0.5,1.5,1.2,2.1,1.9c0.3,0.4,0.6,0.7,1,1.1c0.9,1.2,1.8,2.6,2.5,4.1c1,2,1.8,4.3,2.5,6.6
	c0.4,1.2,0.7,2.4,1,3.6c0.6,2.4,1.1,4.9,1.4,7.4c0.2,1.2,0.4,2.4,0.5,3.6c0.3,2.3,0.5,4.5,0.6,6.5c0.1,1.5,0.2,2.8,0.2,3.9
	c0,0.4,0,0.7,0,1.1c0,0.7,0,1.3,0.1,1.7c0,1,0,1.5,0,1.5s7-9.3,11.5-17.8l0,0c0.8-1.4,1.6-4.4,2.3-7.5c0.1-0.5,0.2-1.1,0.4-1.6
	c0.5-2.1,0.9-4.2,1.2-5.9c0.4-2.1,0.6-3.5,0.6-3.5s19.3,2.8,19.3,33.5l0,0l0,0l0,0c0,4.7-1,8.7-2.5,12.1c-0.3,0.6-0.5,1.1-0.8,1.7
	c-0.6,1.1-1.2,2.1-1.9,3c-2.8,3.8-6.3,6.7-9.7,8.8c-0.8,0.5-1.7,1-2.5,1.4c-3.3,1.7-6.3,2.8-8.1,3.3c-0.4,0.1-0.8,0.2-1.1,0.3
	c-0.4,0.1-0.7,0.2-0.7,0.2c-6,15.1-15.3,28.2-26.3,39.4c-23.2,23.6-54.2,38.4-79.4,45.2c0,0,0,0,0.1,0s0.2,0,0.3,0
	c0.2,0,0.3,0,0.5,0h-0.5v3.7v28.3c11.8,4.6,29.9,11.8,40,16v-1.3c30,0,34.3,3.8,37.5,4.8c17.5,5.3,23,9,31,16.3
	c5.4,4.8,4.7-3.5,29.7,26.2c4.9,5.8,11.8-137.3,9.4-191.5c-1.2-26.4,3-58.6-19-130.4C520.1,51.7,444,30.1,390.4,30.1
	c-70.6,0-140.9,35.8-158.2,105.9c-15.6,48-17.1,94.1-20.5,128.9c-3,30.7,3.6,198.2,8.5,193.1c7.5-7.5,45.3-40,60.8-43
	c19.3-3.5,23.3-3.8,46.8-3.5c1-0.3,1.8-0.3,1.8-0.3s0.3,0,0.3,0.3c0,0,0.3,0,0.5,0l-0.3,0.5c0,0,0.1,0.1,0.1,0.2
	c0.1-0.2,0.2-0.3,0.4-0.4c0.8-0.5,31-13.5,41.3-16v-25"/>
<path class="st1" d="M518.8,325.6"/>
</svg>
