<?xml version="1.0" encoding="utf-8"?>
<!-- Generator: Adobe Illustrator 18.1.1, SVG Export Plug-In . SVG Version: 6.00 Build 0)  -->
<svg version="1.1" id="Layer_1" xmlns="http://www.w3.org/2000/svg" xmlns:xlink="http://www.w3.org/1999/xlink" x="0px" y="0px"
	 viewBox="0 0 768 1024" enable-background="new 0 0 768 1024" xml:space="preserve">
<g>
	<path fill="#A3550B" d="M529.4,305.3c-0.9-37.5-22-61.9-40.2-112c-4.9-13.5,6-35.2-8.7-83.2c-17.4-57.2-68.4-71.5-104.2-71.5
		c-47.2,0-94.4,24-105.8,70.9c-12.4,51.1-5.5,69.9-9.8,85.6c-5.4,19.9-44.5,81.6-39.6,119c4.3,33.4,16.3,43.4,16.3,43.4
		s1.6-42.2,13-59.2c1.9-2.8-1.7,21.9,1.6,44c4.3,28.7,26.6,29.3,26.6,29.3s-4.4-8.4-4.6-14c-0.3-14.1,5.3-21.8,5.3-21.8
		s5.2,14.5,6.8,17.6c13,24.1,17.9,18.8,17.9,18.8s-5.4-22.3,0-23.5c5.4-1.2,140.6,1.8,140.6,1.8s6,16,2.7,23
		c-1.7,3.6,8.5-2,15.4-11.6c6.4-8.7,9.5-21.3,9.5-21.3s4.4,11.8,4.8,15.7c0.4,4.5-1.5,18-1.5,18s19.5-6.8,23.3-31.4
		c2.3-15,1.1-45.7,1.1-45.7c12.5,22.9,13,61.6,13,61.6S530.2,336.3,529.4,305.3z M464.8,205.8c-16.1,40.5-66.7,59.4-89.3,59.4
		c-30.7,0-80.7-27.8-90.4-60.1c0,0-19.4-2.5-19.4-20.9c0-21.5,15.1-22.1,15.1-22.1c-0.5,13.9,4.8,18.3,4.8,18.3s-0.9-5.7,4.8-12
		c6.6-7.3,17.7-10.1,32.3-22.1c14.5-12,21-37.3,21-37.3s3.2,13.9,25.3,34.1c22.1,20.2,45.2,8.9,45.2,8.9s-7.5-0.6-15.6-7
		c-8.1-6.3-9.7-16.4-9.7-16.4s2.2,11.4,22.6,18.3s31.7,5.7,39.8,11.4c8.1,5.7,8.1,28.8,8.1,28.8s4.7-6.1,7.7-11.9
		c1.3-2.5,3-12.4,3-12.4s12.9,1.9,12.9,22.4C483.1,202.1,464.8,205.8,464.8,205.8z"/>
	<path fill="#FFDFBE" d="M470.2,162.8c0,0-1.7,9.9-3,12.4c-3.1,5.8-7.7,11.9-7.7,11.9s0-23.1-8.1-28.8c-8.1-5.7-19.4-4.4-39.8-11.4
		S389,128.7,389,128.7s1.6,10.1,9.7,16.4c8.1,6.3,15.6,7,15.6,7s-23.1,11.4-45.2-8.9c-22.1-20.2-25.3-34.1-25.3-34.1
		s-6.5,25.3-21,37.3c-14.5,12-25.7,14.8-32.3,22.1c-5.7,6.3-4.8,12-4.8,12s-5.4-4.4-4.8-18.3c0,0-15.1,0.6-15.1,22.1
		c0,18.3,19.4,20.9,19.4,20.9c9.7,32.2,59.7,60.1,90.4,60.1c22.6,0,73.2-19,89.3-59.4c0,0,18.3-3.8,18.3-20.6
		C483.1,164.7,470.2,162.8,470.2,162.8z"/>
	<g>
		<path fill="#FFFFFF" stroke="#FFFFFF" stroke-width="0.25" stroke-miterlimit="10" d="M424,173.2c0,0-8.7,9.9-19.9,8
			c-11.1-1.9-14.4-13-14.4-13s4-15.5,17.2-15.4C417.1,152.8,424.1,161.2,424,173.2z"/>
		<path fill="#29ABE2" stroke="#29ABE2" stroke-miterlimit="10" d="M406.9,177.6L406.9,177.6c6.8,0,12.4-5.5,12.4-12.4v0
			c0-6.8-5.5-12.4-12.4-12.4h0c-6.8,0-12.4,5.5-12.4,12.4v0C394.5,172,400,177.6,406.9,177.6z"/>
		<path stroke="#000000" stroke-width="0.5" stroke-miterlimit="10" d="M406.4,170.9L406.4,170.9c4.5,0,8.2-3.7,8.2-8.2v0
			c0-4.5-3.7-8.2-8.2-8.2l0,0c-4.5,0-8.2,3.7-8.2,8.2v0C398.2,167.3,401.9,170.9,406.4,170.9z"/>
		<path fill="#FFFFFF" d="M412.4,171.8L412.4,171.8c1.3,0,2.4-1.1,2.4-2.4l0,0c0-1.3-1.1-2.4-2.4-2.4l0,0c-1.3,0-2.4,1.1-2.4,2.4
			l0,0C410.1,170.8,411.1,171.8,412.4,171.8z"/>
		<g>
			<path d="M431.7,163.9c-0.1,0-5.1,1.1-8.2-2.1c-0.7-0.7-1.4-1.6-2.1-2.5c-2.9-3.7-6.5-8.2-14.5-8.2c-9.9,0-14,8.6-16.7,14.3
				l-0.4,1.3l0.2-0.4c2.6-5.6,8.2-13.2,16.9-13.2c7.1,0,10.2,4,13,7.5c0.8,1,1.5,1.9,2.2,2.7c3.9,4,9.8,0.6,10,0.6"/>
		</g>
	</g>
	<g>
		<path fill="#FFFFFF" stroke="#FFFFFF" stroke-width="0.25" stroke-miterlimit="10" d="M326.8,173.2c0,0,8.7,9.9,19.9,8
			c11.1-1.9,14.4-13,14.4-13s-4-15.5-17.2-15.4C333.7,152.8,326.8,161.2,326.8,173.2z"/>
		<path fill="#29ABE2" stroke="#29ABE2" stroke-miterlimit="10" d="M344,177.6L344,177.6c-6.8,0-12.4-5.5-12.4-12.4v0
			c0-6.8,5.5-12.4,12.4-12.4h0c6.8,0,12.4,5.5,12.4,12.4v0C356.4,172,350.9,177.6,344,177.6z"/>
		<path stroke="#000000" stroke-width="0.5" stroke-miterlimit="10" d="M344.5,170.9L344.5,170.9c-4.5,0-8.2-3.7-8.2-8.2v0
			c0-4.5,3.7-8.2,8.2-8.2l0,0c4.5,0,8.2,3.7,8.2,8.2v0C352.6,167.3,349,170.9,344.5,170.9z"/>
		<path fill="#FFFFFF" d="M338.5,171.8L338.5,171.8c-1.3,0-2.4-1.1-2.4-2.4l0,0c0-1.3,1.1-2.4,2.4-2.4h0c1.3,0,2.4,1.1,2.4,2.4l0,0
			C340.8,170.8,339.8,171.8,338.5,171.8z"/>
		<g>
			<path d="M319.1,163.9c0.1,0,5.1,1.1,8.2-2.1c0.7-0.7,1.4-1.6,2.1-2.5c2.9-3.7,6.5-8.2,14.5-8.2c9.9,0,14,8.6,16.7,14.3l0.4,1.3
				l-0.2-0.4c-2.6-5.6-8.2-13.2-16.9-13.2c-7.1,0-10.2,4-13,7.5c-0.8,1-1.5,1.9-2.2,2.7c-3.9,4-9.8,0.6-10,0.6"/>
		</g>
	</g>
</g>
<path fill="none" d="M381.2,349.6c-0.3,0-0.6,0.1-0.9,0.1C380.6,349.6,380.9,349.6,381.2,349.6z"/>
<path fill="none" d="M379.9,349.7c-1,0.1-2,0.1-3,0.1C377.9,349.8,378.9,349.8,379.9,349.7z"/>
<path fill="none" d="M387.8,348.2c7.1-2,13.5-5.9,18.8-11.9C401.4,341.6,395.2,346,387.8,348.2z"/>
<path fill="none" d="M373.4,349.6c0,0-0.1,0-0.1,0C373.4,349.6,373.4,349.6,373.4,349.6z"/>
<path fill="none" d="M372.1,349.4c-28.1-5.1-33.7-55.4-33.7-55.4c2.6,28.9,11.4,39.8,17.9,46.8C360.6,345.5,366.1,348.4,372.1,349.4
	z"/>
<path fill="#ED93A4" d="M296,829.8c2.7-2.1,7.6-3.8,10.5-4.5c4.7-1.1,26.2-1.5,33.8-0.4c5.8,0.8,12.1,3.9,15.2,7.7
	c1.9-21.9,5.4-73.7,4.7-155.5c-24.6-2.5-52.4-14.3-65.1-22.2C292.2,709.8,294.8,795.2,296,829.8z"/>
<path fill="none" stroke="#F9AE5C" stroke-width="10" stroke-linecap="round" stroke-miterlimit="10" d="M355.9,823.8
	c-0.1-0.8-0.8-1.7-1.8-2.4c-3-2.3-9.1-4.3-14.8-4.8c-7.9-0.7-27.8-0.4-33,0.4c-2.9,0.5-7.6,1.5-10.3,2.9c-1,0.5-1.8,1.1-2,1.6"/>
<path fill="#ED93A4" d="M385.7,674.5c0.9,83.1,5.4,135.6,7.7,157.7c2.9-3.8,9-7.1,14.7-8c7.5-1.2,28.4-1.3,33-0.2
	c2.9,0.6,7.6,2.2,10.4,4.3c0.5-33,1.2-111.9-2-167.2c-11.8,3.7-23.1,4.9-27.9,5C415.3,666.1,404.1,671.5,385.7,674.5z"/>
<path fill="#A40062" d="M380.3,349.7c-0.1,0-0.2,0-0.3,0C380.1,349.7,380.2,349.7,380.3,349.7z"/>
<path fill="#A40062" d="M373.3,349.6c-0.4-0.1-0.8-0.1-1.2-0.2C372.5,349.5,372.9,349.5,373.3,349.6z"/>
<path fill="#A40062" d="M381.2,349.6c2.3-0.3,4.5-0.7,6.6-1.4c-1.7,0.5-3.3,0.9-5.1,1.1C382.2,349.4,381.7,349.5,381.2,349.6z"/>
<path fill="#A40062" d="M376.9,349.8C376.9,349.8,376.9,349.8,376.9,349.8c-1.1,0-2.3-0.1-3.4-0.2
	C374.6,349.7,375.7,349.8,376.9,349.8z"/>
<path fill="#A40062" d="M406.6,336.3c14.2-14.3,20.4-34.8,20.4-34.8s-0.1-0.1-0.3-0.2c-1.7,3.5-11.4,23.3-17.6,31.8
	C408.3,334.3,407.5,335.4,406.6,336.3z"/>
<path fill="#F5D6CB" stroke="#F5D6CB" stroke-width="3" stroke-miterlimit="10" d="M436.7,506"/>
<path fill="#FFDFBE" d="M650.1,376.1c0,0-4.5,3.3-4.5,3.3c-60.1,63.4-79.6,61.9-82.8,61.8l0,0c-14.9,0.3-68.9-41.4-83.1-62.2
	c-8.8-12.9-33.7-48.2-26.8-60.8l6,1.9c9.8,5.6,27.7,17.2,34,23.4c6.4,6.2,13.5,12.6,19.4,14.5c1.7,0.6,3.6,1,5.4,1.3
	c21.3,25.5,39.9,51.6,43.6,48.1c5.7-2.1,47.6-27.8,66.3-43.3c2.8-2.3,5.2-4.3,7.1-5.9"/>
<line fill="#F9AE5C" stroke="#F9AE5C" stroke-width="4" stroke-linecap="round" stroke-miterlimit="10" x1="623.7" y1="366.7" x2="634.3" y2="393.5"/>
<g>
	<path fill="#FFDFBE" d="M394.2,262.5c0.1-0.1,0.3-0.1,0.4-0.1v0l-30.9,1.3v0.3c2.7,0.4,8.8,1.1,14.8,1.1
		C387,265.2,394.1,262.6,394.2,262.5z"/>
	<path fill="#FFDFBE" d="M394.3,284V265c-1.7,0.6-8.2,2.7-15.9,2.7c-0.1,0-0.2,0-0.2,0c-5.9,0-11.6-0.7-14.4-1.1v16.8
		c-6.9,1.6-27.1,10.4-27.7,10.6c-2.7,1.2,3.8,18.2,4.5,20.2c4.1,12.3,10.6,26.2,22.5,32.6c30.8,16.6,52.9-23.3,62.9-49.7
		C423.7,295.5,405.1,288.2,394.3,284z"/>
	<path fill="#EFD0B4" d="M378.4,268c7.7,0,13.6-2.4,15.6-3v-2.6c0,0-0.1,0-0.3,0.1c-0.1,0-6.9,2.6-15.3,2.7c-6,0-12.5-0.7-14.5-1.1
		v2.5c3,0.4,8.3,1.4,14.2,1.4C378.3,268,378.4,268,378.4,268z"/>
</g>
<path fill="#FFDFBE" d="M101.3,370c0,0,4.4,3.5,4.4,3.5c58.4,65.4,78.1,64.6,81.4,64.6l0,0c15,0.8,71.3-39.1,86.4-59.4
	c9.4-12.6,35.9-47.1,29.4-59.9l-6.1,1.7c-10.1,5.3-28.6,16.2-35.3,22.2c-6.7,5.9-14.1,12.1-20.2,13.9c-1.8,0.5-3.6,0.9-5.6,1.1
	c-22.5,24.8-42.3,50.3-45.9,46.6c-5.6-2.3-47.1-29.4-65.5-45.5c-2.7-2.4-5.1-4.5-7-6.1"/>
<line fill="#F9AE5C" stroke="#F9AE5C" stroke-width="4" stroke-linecap="round" stroke-miterlimit="10" x1="128.4" y1="361.4" x2="116.6" y2="387.9"/>
<path fill="#DD3858" d="M467,307.9c-5.4-4.8-9-7.4-20.9-10.9c-2.2-0.6-5.2-3.1-25.2-3.2v1.2c0,0-2.1,11.6-6.6,16.6
	c-6.3,7.1-17.3,12.7-29.4,13.4c-14.7,0.8-23.9-4.3-29.6-8.3c-9.4-6.6-17.8-19.8-19.4-22.5l0.2-0.3c-0.1,0-0.3,0-0.4,0
	c-0.1-0.1-0.1-0.2-0.1-0.2s-0.4,0.1-1.2,0.2c-15.8-0.1-18.4,0-31.4,2.4c-10.3,1.9-17.5,5.6-22.6,10.8c-5,5.1-34.2,33.1-46.2,50.8
	c5.5,12.8,23,21.7,37.8,25.4l8.3-8.6c2.1,29.9,11.4,44.8,12.8,51.1c1.5,6.8,2.7,7.7,4.6,35.4c0.5,6.8-1.6,51.5-4.6,60.6
	c-3,9.1-2.8,25.7-4.4,36.3c-1.5,10.6-5.3,49.9-5.3,49.9s34.8,10.6,63.5,12.8c28.7,2.3,94.6-2.2,105.9-4.5
	c11.3-2.3,15.9-9.8,16.7-12.9c0.8-10.6-7.6-73.4-12.8-87c-5.3-13.6-2.8-43.6-1.8-55c1.7-19.6,3-23,6.4-33.5
	c1.4-4.5,10-17.8,13.4-49.8l5.7,5.2c14.5-4.6,31.5-14.5,36.2-27.7C503.2,338.9,472.4,312.7,467,307.9z"/>
<path fill="#FFFFFF" d="M431.6,355.8h-103c-9.3,9.5-18.6,18.9-28,28.4c26.5,30.5,53,61,79.5,91.5c26.5-30.5,53-61,79.5-91.5
	C450.2,374.7,440.9,365.3,431.6,355.8 M304.7,384.3c8.4-8.6,16.8-17.1,25.2-25.6h100.5c8.4,8.5,16.7,17,25.2,25.6
	c-25.1,28.9-50.2,57.8-75.4,86.8C355,442.2,329.9,413.3,304.7,384.3"/>
<path fill="#FFFFFF" d="M339.7,388.4c0-3.1,0.8-5,3-7.2l13.8-13.8c1.4-1.4,2.7-2.2,4.2-2.7h-27.9l-19.1,19.4l26,29.5
	c0-0.2,0-0.5,0-0.7V388.4z"/>
<path fill="#FFFFFF" d="M359.2,435.9l21,23.8l20.2-23h-36.7C361.9,436.8,360.5,436.5,359.2,435.9"/>
<path fill="#FFFFFF" d="M416.7,374.1c2.2,2.2,2.2,3.8,0,6L405.8,391c-2.2,2.2-3.7,2.3-5.9,0l-5-5.3h-24.8l-6.5,6.5v17l6.5,6.4h25.1
	l4.8-4.9c2.3-2.3,3.7-2.4,5.9-0.2l9.4,9.5l31.4-35.7l-19.4-19.4h-21.4c1.5,0.4,2.8,1.2,4.2,2.7L416.7,374.1z"/>
<path fill="#DD3858" d="M496.7,666.8c-0.7-91.1-37.7-141.3-37.7-141.3l-83,4.6V530h-0.2h0.2v0.1l-82.5-6.6c0,0-37.2,52.2-37.9,143.3
	c-0.2,22.6,59.4,38.1,120.4,38.6v0c0,0,0.3,0,0.5,0c0.2,0,0.5,0,0.5,0v0C437,704.9,496.9,689.4,496.7,666.8z"/>
<polygon fill="#F9AE5C" points="292,525.5 380.1,561.8 459,525.5 453.5,496.7 380.7,531.9 296.3,496.7 "/>
<path fill="#FFDFBE" d="M119.1,353.7c-0.2-0.1-0.7-0.5-1.5-1.3c-0.4-0.4-0.8-0.9-1.2-1.3c-0.4-0.5-1-1.2-1.6-2.4
	c-3.3-6-5.6-9.9-7-11.9c-0.7-1-3.4-3-8-5.9c-4.1-2.6-6.6-4-7.5-4.3c-1-0.4-1.7-0.1-2,0.9c-0.1,0.4-0.2,0.9-0.1,1.5
	c0,1.8,0.2,2.9,0.6,3.5c0.9,1.1,2.5,2.6,4.7,4.6c2.2,2,3.7,3.5,4.6,4.5c0.3,0.4,0.4,0.7,0.3,0.9c-0.4,1.1-1.6,1.8-3.6,2
	c-1.7,0.2-3.1,0.1-4.3-0.4l-23.4-8.5c-0.5-0.2-1.1,0-1.8,0.5c-0.6,0.5-1,1-1.1,1.4c-0.2,0.6-0.2,1.2,0,2c0.2,0.8,0.6,1.2,1.1,1.4
	l20.3,7.4c0.6,0.2,0.7,0.8,0.4,1.8c-0.4,0.9-0.8,1.3-1.2,1.1l-23.5-8.5c-0.5-0.2-1.2,0-1.9,0.5c-0.7,0.5-1.2,1.1-1.4,1.8
	c-0.2,0.6-0.2,1.3-0.1,2.2c0.1,0.9,0.5,1.4,1,1.6l24.2,8.7c0.3,0.1,0.5,0.4,0.6,0.8c0.1,0.4,0.1,0.8,0.1,1c-0.3,1-0.8,1.4-1.4,1.2
	L63.4,353c-0.6-0.2-1.3-0.1-2,0.3c-0.7,0.4-1.2,0.9-1.4,1.5c-0.2,0.5-0.1,1.2,0.2,2c0.3,0.8,0.7,1.3,1.3,1.5l22.1,8
	c0.5,0.2,0.7,0.8,0.4,1.7c-0.3,0.9-0.7,1.2-1.3,1l-14-5.1c-0.5-0.2-1,0-1.7,0.6c-0.7,0.6-1,1-1.2,1.4c0,0.1-0.1,0.4-0.1,0.8
	c0,0.2,0.1,0.6,0.4,1.4c0.3,0.7,0.6,1.1,0.9,1.2l31.7,11.5c0.9,0.3,2.6,0.2,5.1-0.4c2.1-0.5,3.8-1.1,5-1.7c1.3-0.7,2.3-0.9,2.8-0.7"
	/>
<line fill="#F9AE5C" stroke="#F9AE5C" stroke-width="4" stroke-linecap="round" stroke-miterlimit="10" x1="119.9" y1="353.4" x2="107.3" y2="381.1"/>
<path fill="#FFDFBE" d="M633.1,359.3c0.2-0.1,0.7-0.5,1.5-1.3c0.4-0.4,0.8-0.8,1.3-1.3c0.4-0.4,1-1.2,1.6-2.3
	c3.5-5.8,5.9-9.7,7.4-11.7c0.8-1,3.5-2.8,8.1-5.6c4.2-2.4,6.7-3.8,7.5-4.1c1-0.3,1.7,0,1.9,1c0.1,0.4,0.1,0.9,0.1,1.5
	c0,1.8-0.3,2.9-0.7,3.4c-1,1.1-2.6,2.5-4.8,4.4c-2.2,1.9-3.8,3.4-4.7,4.4c-0.3,0.3-0.4,0.7-0.4,0.9c0.3,1.1,1.5,1.8,3.4,2.1
	c1.7,0.2,3.1,0.2,4.3-0.2L683,343c0.5-0.2,1.1,0,1.7,0.6c0.6,0.6,1,1.1,1.1,1.5c0.2,0.6,0.1,1.3-0.1,2c-0.2,0.7-0.6,1.2-1.1,1.4
	l-20.4,6.7c-0.6,0.2-0.7,0.8-0.5,1.8c0.3,0.9,0.7,1.3,1.2,1.2l23.5-7.7c0.5-0.2,1.2,0,1.8,0.5c0.7,0.5,1.1,1.1,1.3,1.8
	c0.2,0.6,0.2,1.3,0,2.2c-0.2,0.9-0.5,1.4-1.1,1.6l-24.2,7.9c-0.3,0.1-0.5,0.4-0.6,0.8c-0.1,0.4-0.2,0.8-0.1,1c0.3,1,0.7,1.4,1.3,1.2
	l21.2-7c0.6-0.2,1.2-0.1,1.9,0.3c0.7,0.4,1.2,0.9,1.3,1.6c0.2,0.5,0.1,1.2-0.2,2c-0.3,0.8-0.8,1.3-1.3,1.5l-22.1,7.3
	c-0.5,0.2-0.7,0.7-0.4,1.7c0.3,0.9,0.7,1.3,1.3,1.1l14-4.6c0.5-0.2,1,0.1,1.6,0.6c0.6,0.6,1,1.1,1.1,1.4c0,0.1,0.1,0.4,0.1,0.9
	c0,0.2-0.2,0.6-0.5,1.3c-0.3,0.7-0.6,1.1-0.9,1.2l-31.7,10.4c-0.9,0.3-2.5,0.1-5-0.6c-2.1-0.6-3.7-1.2-4.9-1.9
	c-1.3-0.7-2.2-1-2.7-0.8"/>
<line fill="#F9AE5C" stroke="#F9AE5C" stroke-width="4" stroke-linecap="round" stroke-miterlimit="10" x1="632.3" y1="359" x2="643.7" y2="387.1"/>
<path fill="none" stroke="#EFD0B4" stroke-width="2" stroke-miterlimit="10" d="M377.5,180.6c3.9,15.5,8.3,19.4,0.3,19.4
	c-8,0-10.8,0-10.8,0"/>
<g>
	<path fill="#F9AE5C" stroke="#F9AE5C" stroke-miterlimit="10" d="M460.4,616.9L424.6,634l-24-50.2l44.6-21.3L460.4,616.9z
		 M426,630.3l31.2-14.9l-13.7-49l-39.1,18.7L426,630.3z"/>
</g>
<circle fill="#F9AE5C" stroke="#F9AE5C" stroke-miterlimit="10" cx="421.6" cy="590.4" r="2.2"/>
<circle fill="#F9AE5C" stroke="#F9AE5C" stroke-miterlimit="10" cx="425.9" cy="601.8" r="2.2"/>
<circle fill="#F9AE5C" stroke="#F9AE5C" stroke-miterlimit="10" cx="430.1" cy="614.2" r="2.2"/>
<circle fill="#F9AE5C" stroke="#F9AE5C" stroke-miterlimit="10" cx="434.3" cy="584.3" r="2.3"/>
<circle fill="#F9AE5C" stroke="#F9AE5C" stroke-miterlimit="10" cx="438.3" cy="595.9" r="2.3"/>
<circle fill="#F9AE5C" stroke="#F9AE5C" stroke-miterlimit="10" cx="442" cy="608.5" r="2.3"/>
<path fill="#DD3858" stroke="#DD3858" stroke-width="5" stroke-miterlimit="10" d="M354,862.5c2.6-11.9,1.9-31.3,1.9-31.3
	c-0.1-0.8-0.8-1.7-1.8-2.4c-3-2.3-9.1-4.3-14.8-4.8c-7.5-0.6-28.4-0.3-33,0.4c-2.9,0.5-7.6,1.5-10.3,2.9c-1,0.5-1.8,1.1-2,1.6
	c-0.7,2.1,0.5,8.5,1.3,12.9c0.8,4.4,0.5,23.8,0.9,31c0.4,7.1-1.7,40-2.7,47.9c-1,7.9-3.7,10.5-5.2,12.9
	c-1.6,2.5-11.2,18.4-14.9,23.1c-3.7,4.7-4.9,4.7-6.3,5.2c-1.4,0.4-8.4,2.2-10.6,3.1c-2.2,0.8-7.4,0.5-10.6-0.4
	c-3.2-0.8-6.4,3.3-7.1,5.4c-0.7,2.1,0.4,9.2,0.1,10.3c-0.4,1.3,0.1,2.4,1,3c0.9,0.6,7.4,4.6,15.2,7.2c7.8,2.6,21,4.5,27.3,4.8
	c6.3,0.3,9.3-0.9,12.4-2.5c3-1.6,8.4-9.3,10.2-11.6c1.9-2.5,6.1-3.5,8.1-3.6c3.7-0.1,3.5,2.2,3.5,2.2s0.3,4.8,1.1,9.1
	c13.2,6.7,28.9-1,34.2-3.4c-0.6-15.3,0.7-24.7-0.2-29.1c-1.7-8.2-3.5-17.8-3.5-17.8s-0.9-9.1-0.8-13.5c0.1-4.4-1.1-20.4-0.7-25.8
	C346.9,894.1,351.8,872.2,354,862.5z"/>
<path fill="none" stroke="#F9AE5C" stroke-width="10" stroke-linecap="round" stroke-miterlimit="10" d="M453.4,819.9
	c-0.2-0.6-1-1.1-2-1.6c-2.7-1.3-7.5-2.3-10.4-2.7c-4.6-0.6-25.6-0.5-33,0.3c-5.7,0.6-11.8,2.7-14.7,5.1c-1,0.8-1.6,1.6-1.7,2.5"/>
<path fill="#DD3858" stroke="#DD3858" stroke-width="5" stroke-miterlimit="10" d="M511.6,967.3c-0.8-2.1-4.1-6.2-7.2-5.3
	c-3.2,0.9-8.3,1.3-10.5,0.6c-2.3-0.8-9.3-2.4-10.7-2.9c-1.4-0.4-2.5-0.4-6.4-5s-13.8-20.3-15.4-22.8c-1.6-2.5-4.4-5-5.5-12.8
	c-1.1-7.9-3.9-40.7-3.7-47.8c0.3-7.1-0.5-26.6,0.3-31c0.7-4.4,1.8-10.8,1-12.9c-0.2-0.6-1-1.1-2-1.6c-2.7-1.3-7.5-2.3-10.4-2.7
	c-4.6-0.6-25.6-0.5-33,0.3c-5.7,0.6-11.8,2.7-14.7,5.1c-1,0.8-1.6,1.6-1.7,2.5c0,0-0.4,19.4,2.5,31.2c2.4,9.7,7.7,31.4,8.2,36.7
	c0.5,5.4-0.4,21.5-0.2,25.8c0.2,4.4-0.5,13.5-0.5,13.5s-1.6,9.6-3.1,17.8c-0.8,4.5,0.6,13.8,0.3,29.1c5.3,2.3,21.2,9.7,34.2,2.7
	c0.7-4.4,0.9-9.2,0.9-9.2s-0.2-2.3,3.5-2.2c2,0,6.1,0.9,8.1,3.4c1.8,2.3,7.3,9.9,10.4,11.4c3.1,1.5,6.2,2.6,12.4,2.2
	c6.3-0.4,19.4-2.6,27.2-5.3c7.8-2.7,14.2-6.9,15.1-7.5c0.9-0.7,1.3-1.7,1-3C511.4,976.5,512.4,969.4,511.6,967.3z"/>
<g>
	<path fill="#F26E7B" d="M402.2,221.1c0,0-12.8,19.9-27.2,18.7c-14.8-1.2-23.8-22.9-23.8-22.9s13.9,6.9,25,7.8
		C386.6,225.6,402.2,221.1,402.2,221.1z"/>
</g>
</svg>
