<?xml version="1.0" encoding="utf-8"?>
<!-- Generator: Adobe Illustrator 18.1.1, SVG Export Plug-In . SVG Version: 6.00 Build 0)  -->
<svg version="1.1" id="Layer_1" xmlns="http://www.w3.org/2000/svg" xmlns:xlink="http://www.w3.org/1999/xlink" x="0px" y="0px"
	 viewBox="0 0 1600 2400" enable-background="new 0 0 1600 2400" xml:space="preserve">
<g>
	<path fill="#A3550B" d="M1161.2,687.8c-2.3-90.3-53-149-96.7-269.6c-11.8-32.5,14.4-84.7-20.9-200.4
		C1001.6,80,878.9,45.6,792.7,45.6c-113.7,0-227.4,57.9-254.8,170.8c-29.9,123-13.2,168.3-23.5,206.1
		c-13.1,48-107.1,196.4-95.4,286.5c10.5,80.4,39.2,104.4,39.2,104.4s3.9-101.6,31.4-142.5c4.6-6.8-4.1,52.8,3.9,105.9
		c10.5,69.2,64,70.6,64,70.6s-10.6-20.2-11-33.8c-0.8-33.9,12.8-52.4,12.8-52.4s12.5,35,16.5,42.4c31.2,58,43.1,45.2,43.1,45.2
		s-13.1-53.6,0-56.5c13.1-2.8,338.4,4.2,338.4,4.2s14.4,38.6,6.5,55.3c-4.1,8.7,20.4-4.9,37.2-28c15.3-21,22.9-51.3,22.9-51.3
		s10.6,28.4,11.5,37.8c1,10.8-3.7,43.4-3.7,43.4s47-16.3,56.2-75.6c5.6-36.1,2.6-110.1,2.6-110.1c30.1,55,31.4,148.2,31.4,148.2
		S1163,762.6,1161.2,687.8z M1005.6,448.4C966.8,545.9,845,591.5,790.7,591.5c-73.8,0.1-194.2-67-217.5-144.6
		c0,0-46.6-6.1-46.6-50.2c0-51.8,36.3-53.3,36.3-53.3c-1.3,33.5,11.7,44.1,11.7,44.1s-2.1-13.7,11.7-28.9
		c15.8-17.5,42.7-24.4,77.7-53.3c35-28.9,50.5-89.8,50.5-89.8s7.8,33.5,60.9,82.2c53.1,48.7,108.8,21.3,108.8,21.3
		s-18.1-1.5-37.6-16.7c-19.4-15.2-23.3-39.6-23.3-39.6s5.2,27.4,54.4,44.1s76.4,13.7,95.8,27.4c19.4,13.7,19.4,69.3,19.4,69.3
		s11.2-14.8,18.6-28.7c3.2-6.1,7.3-29.9,7.3-29.9s31.1,4.6,31.1,54C1049.6,439.3,1005.6,448.4,1005.6,448.4z"/>
	<path fill="#FFDFBE" d="M1018.6,344.9c0,0-4.1,23.9-7.3,29.9c-7.4,13.9-18.6,28.7-18.6,28.7s0-55.6-19.4-69.3
		c-19.4-13.7-46.6-10.7-95.8-27.4S823,262.7,823,262.7s3.9,24.4,23.3,39.6c19.4,15.2,37.6,16.7,37.6,16.7s-55.7,27.4-108.8-21.3
		c-53.1-48.7-60.9-82.2-60.9-82.2s-15.5,60.9-50.5,89.8c-35,28.9-61.9,35.7-77.7,53.3c-13.7,15.2-11.7,28.9-11.7,28.9
		s-12.9-10.7-11.7-44.1c0,0-36.3,1.5-36.3,53.3c0,44.1,46.6,50.2,46.6,50.2c23.3,77.6,143.7,144.7,217.5,144.6
		c54.4,0,176.1-45.7,214.9-143.1c0,0,44-9.1,44-49.5C1049.6,349.5,1018.6,344.9,1018.6,344.9z"/>
	<g>
		<path fill="#FFFFFF" stroke="#FFFFFF" stroke-width="0.25" stroke-miterlimit="10" d="M907.5,369.8c0,0-21,23.9-48,19.2
			c-26.7-4.7-34.8-31.2-34.8-31.2s9.6-37.3,41.4-37.2C890.8,320.8,907.5,341,907.5,369.8z"/>
		<path fill="#29ABE2" stroke="#29ABE2" stroke-miterlimit="10" d="M866.1,380.3L866.1,380.3c16.5,0,29.8-13.4,29.8-29.8v0
			c0-16.5-13.4-29.8-29.8-29.8h0c-16.5,0-29.8,13.4-29.8,29.8v0C836.2,367,849.6,380.3,866.1,380.3z"/>
		<path stroke="#000000" stroke-width="0.5" stroke-miterlimit="10" d="M865,364.4L865,364.4c10.9,0,19.7-8.8,19.7-19.7v0
			c0-10.9-8.8-19.7-19.7-19.7h0c-10.9,0-19.7,8.8-19.7,19.7v0C845.3,355.6,854.1,364.4,865,364.4z"/>
		<path fill="#FFFFFF" d="M879.4,366.5L879.4,366.5c3.1,0,5.7-2.5,5.7-5.7l0,0c0-3.1-2.5-5.7-5.7-5.7h0c-3.1,0-5.7,2.5-5.7,5.7l0,0
			C873.8,363.9,876.3,366.5,879.4,366.5z"/>
		<g>
			<path d="M925.9,347.5c-0.1,0-12.3,2.6-19.7-5c-1.7-1.7-3.3-3.8-5.1-6c-7-8.8-15.7-19.8-35-19.8c-23.9,0-33.8,20.8-40.3,34.5
				l-0.9,3.1l0.4-0.9c6.4-13.4,19.9-31.7,40.8-31.7c17,0,24.6,9.5,31.2,18c1.8,2.3,3.6,4.5,5.4,6.4c9.3,9.6,23.5,1.5,24.1,1.3"/>
		</g>
	</g>
	<g>
		<path fill="#FFFFFF" stroke="#FFFFFF" stroke-width="0.25" stroke-miterlimit="10" d="M673.4,369.8c0,0,21,23.9,48,19.2
			c26.7-4.7,34.8-31.2,34.8-31.2s-9.6-37.3-41.4-37.2C690.1,320.8,673.3,341,673.4,369.8z"/>
		<path fill="#29ABE2" stroke="#29ABE2" stroke-miterlimit="10" d="M714.8,380.3L714.8,380.3c-16.5,0-29.8-13.4-29.8-29.8v0
			c0-16.5,13.4-29.8,29.8-29.8h0c16.5,0,29.8,13.4,29.8,29.8v0C744.6,367,731.2,380.3,714.8,380.3z"/>
		<path stroke="#000000" stroke-width="0.5" stroke-miterlimit="10" d="M715.8,364.4L715.8,364.4c-10.9,0-19.7-8.8-19.7-19.7v0
			c0-10.9,8.8-19.7,19.7-19.7h0c10.9,0,19.7,8.8,19.7,19.7v0C735.5,355.6,726.7,364.4,715.8,364.4z"/>
		<path fill="#FFFFFF" d="M701.4,366.5L701.4,366.5c-3.1,0-5.7-2.5-5.7-5.7l0,0c0-3.1,2.5-5.7,5.7-5.7l0,0c3.1,0,5.7,2.5,5.7,5.7
			l0,0C707.1,363.9,704.5,366.5,701.4,366.5z"/>
		<g>
			<path d="M654.9,347.5c0.1,0,12.3,2.6,19.7-5c1.7-1.7,3.3-3.8,5.1-6c7-8.8,15.7-19.8,35-19.8c23.9,0,33.8,20.8,40.3,34.5l0.9,3.1
				l-0.4-0.9c-6.4-13.4-19.9-31.7-40.8-31.7c-17,0-24.6,9.5-31.2,18c-1.8,2.3-3.6,4.5-5.4,6.4c-9.3,9.6-23.5,1.5-24.1,1.3"/>
		</g>
	</g>
</g>
<path fill="none" d="M804.3,794.4c-0.8,0.1-1.5,0.2-2.3,0.2C802.8,794.6,803.6,794.5,804.3,794.4z"/>
<path fill="none" d="M801.3,794.7c-2.4,0.2-4.8,0.3-7.3,0.3C796.4,795,798.8,794.9,801.3,794.7z"/>
<path fill="none" d="M820.1,791.1c17-4.9,32.6-14.2,45.3-28.6C853,775.2,838,785.7,820.1,791.1z"/>
<path fill="none" d="M785.6,794.5c-0.1,0-0.2,0-0.3,0C785.4,794.5,785.5,794.5,785.6,794.5z"/>
<path fill="none" d="M782.5,794c-67.7-12.3-81.1-133.3-81.1-133.3c6.2,69.7,27.5,95.8,43,112.7C754.7,784.6,767.9,791.5,782.5,794z"
	/>
<path fill="#ED93A4" d="M599.2,1950.6c6.6-5.1,18.3-9.2,25.4-10.9c11.3-2.7,63-3.5,81.4-1c14.1,1.9,29.2,9.5,36.5,18.5
	c4.6-52.6,13.1-177.3,11.3-374.3c-59.2-6-126.1-34.4-156.8-53.6C590,1661.6,596.2,1867.3,599.2,1950.6z"/>
<path fill="none" stroke="#F9AE5C" stroke-width="10" stroke-linecap="round" stroke-miterlimit="10" d="M743.3,1936.1
	c-0.3-2-1.8-4-4.2-5.9c-7.1-5.6-21.9-10.4-35.6-11.5c-19-1.6-66.8-1.1-79.5,0.9c-6.9,1.1-18.3,3.7-24.8,6.9c-2.5,1.2-4.2,2.6-4.7,4"
	/>
<path fill="#ED93A4" d="M815.1,1576.6c2.1,200,12.9,326.4,18.5,379.6c7-9.2,21.6-17.1,35.3-19.3c18-2.9,68.4-3.1,79.5-0.6
	c6.9,1.6,18.4,5.4,25,10.4c1.2-79.4,3-269.3-4.8-402.4c-28.3,8.9-55.6,11.9-67.3,12C886.3,1556.4,859.5,1569.5,815.1,1576.6z"/>
<path fill="#A40062" d="M802,794.7c-0.3,0-0.5,0-0.8,0.1C801.5,794.7,801.8,794.7,802,794.7z"/>
<path fill="#A40062" d="M785.4,794.4c-1-0.1-1.9-0.3-2.9-0.4C783.4,794.2,784.4,794.3,785.4,794.4z"/>
<path fill="#A40062" d="M804.3,794.4c5.5-0.6,10.8-1.7,15.8-3.3c-4,1.1-8.1,2.1-12.2,2.8C806.7,794.1,805.5,794.3,804.3,794.4z"/>
<path fill="#A40062" d="M793.8,795c0,0,0.1,0,0.1,0c-2.8,0-5.6-0.2-8.3-0.5C788.3,794.8,791,795,793.8,795z"/>
<path fill="#A40062" d="M865.5,762.6c34.1-34.4,49.1-83.7,49.1-83.7s-0.2-0.2-0.6-0.4c-4,8.3-27.5,56.1-42.4,76.6
	C869.6,757.7,867.6,760.2,865.5,762.6z"/>
<path fill="#F5D6CB" stroke="#F5D6CB" stroke-width="3" stroke-miterlimit="10" d="M938,1170.9"/>
<path fill="#FFDFBE" d="M1009.1,1176.4c0.1,0,10-9,10-9.1c178.1-112,183.8-158.5,185-166.1l0,0c7.7-35-65.1-182.1-107.6-225.5
	c-26.3-26.9-97.9-102.3-130.9-92l1.7,15c8.7,25.8,27.4,73.4,39,91.3c11.5,17.9,23.3,37.7,25.1,52.8c0.5,4.3,0.7,8.9,0.6,13.5
	c50.2,62.4,103,118.5,92.8,125.6c-7.6,12.4-88.1,99.1-133.6,136.1c-6.7,5.5-12.6,10.2-17.2,14"/>
<line fill="#F9AE5C" stroke="#F9AE5C" stroke-width="4" stroke-linecap="round" stroke-miterlimit="10" x1="999.3" y1="1109.6" x2="1057.6" y2="1147.3"/>
<g>
	<path fill="#FFDFBE" d="M835.6,584.9c0.3-0.1,0.7-0.2,1.1-0.2v0l-74.4,3.1v0.8c6.6,0.9,21.2,2.7,35.7,2.7
		C818.2,591.2,835.5,585,835.6,584.9z"/>
	<path fill="#FFDFBE" d="M835.9,636.5v-45.6c-4.1,1.4-19.8,6.5-38.3,6.5c-0.2,0-0.4,0-0.6,0c-14.1,0-27.9-1.7-34.8-2.7v40.4
		c-16.7,3.9-65.3,25-66.6,25.6c-6.6,2.9,9.2,43.7,10.8,48.6c9.8,29.5,25.6,63,54.2,78.5c74.1,40,127.2-56.1,151.4-119.7
		C906.7,664.3,861.9,646.6,835.9,636.5z"/>
	<path fill="#EFD0B4" d="M797.6,598c18.5,0,32.4-5.6,38.4-7.1v-6.2c0,0-0.7,0-1.1,0.2c-0.2,0.1-17.4,6.3-37.4,6.4
		c-14.4,0-29.5-1.8-35.5-2.7v6.1c7,1,20.9,3.3,35,3.3C797.2,598,797.4,598,797.6,598z"/>
</g>
<path fill="#FFDFBE" d="M575.3,1178.2c-0.1,0-10-9.2-10-9.2c-178.1-113.4-183.8-160.5-185-168.3l0,0
	c-7.7-35.4,65.1-184.5,107.6-228.4c26.3-27.2,97.9-103.6,130.9-93.2l-1.7,15.2c-8.7,26.1-27.4,74.3-39,92.5
	c-11.5,18.2-23.3,38.2-25.1,53.4c-0.5,4.4-0.7,9-0.6,13.7c-50.2,63.2-103,120-92.8,127.3c7.6,12.5,88.1,100.4,133.6,137.9
	c6.7,5.5,12.6,10.3,17.2,14.1"/>
<line fill="#F9AE5C" stroke="#F9AE5C" stroke-width="4" stroke-linecap="round" stroke-miterlimit="10" x1="585" y1="1110.6" x2="526.7" y2="1148.7"/>
<path fill="#DD3858" d="M1011,694.1c-12.9-11.5-21.8-17.8-50.3-26.2c-5.3-1.6-12.7-7.5-60.7-7.6v3c0,0-5.1,27.9-15.8,40.1
	c-15.1,17.1-41.7,30.6-70.7,32.2c-35.3,2-57.5-10.4-71.2-20c-22.6-15.8-42.8-47.7-46.8-54.2l0.4-0.7c-0.3,0-0.6,0-0.9,0
	c-0.2-0.3-0.3-0.5-0.3-0.5s-1.1,0.2-2.8,0.5c-38-0.3-44.3-0.1-75.6,5.8c-24.9,4.6-42.2,13.6-54.5,25.9
	c-12.1,12.3-82.2,79.7-111.3,122.3c13.2,30.8,55.4,52.2,91,61.1l19.9-20.6c5,72,27.4,107.7,30.8,123c3.7,16.4,6.5,18.6,11,85.1
	c1.1,16.3-3.8,123.9-11.1,145.8c-7.2,21.8-6.8,61.9-10.5,87.4c-3.6,25.5-12.7,120.2-12.7,120.2s83.7,25.5,152.9,30.9
	c69.1,5.5,227.6-5.4,254.9-10.8c27.3-5.5,38.2-23.6,40.1-30.9c1.8-25.5-18.2-176.6-30.9-209.4c-12.8-32.8-6.7-105-4.4-132.4
	c4-47.1,7.1-55.4,15.3-80.6c3.5-10.7,24-43,32.2-119.9l13.7,12.5c35-11.1,75.8-35,87-66.6C1098,768.6,1023.8,705.7,1011,694.1z"/>
<path fill="#FFFFFF" d="M925.7,809.5H677.8c-22.4,22.8-44.9,45.6-67.3,68.4c63.8,73.5,127.5,146.8,191.3,220.2
	c63.8-73.5,127.5-146.8,191.3-220.2C970.4,854.9,948.1,832.2,925.7,809.5 M620.2,878.2c20.3-20.6,40.5-41.1,60.6-61.6h241.9
	c20.1,20.4,40.3,40.9,60.6,61.6c-60.5,69.6-120.9,139.2-181.5,209C741.2,1017.5,680.7,947.9,620.2,878.2"/>
<path fill="#FFFFFF" d="M704.4,887.9c0-7.5,1.9-12,7.2-17.4l33.1-33.1c3.4-3.4,6.5-5.4,10.2-6.4h-67.1l-46.1,46.8l62.7,71.1
	c0-0.6,0-1.2,0-1.8V887.9z"/>
<path fill="#FFFFFF" d="M751.4,1002.3l50.5,57.4l48.6-55.3h-88.5C757.7,1004.4,754.5,1003.8,751.4,1002.3"/>
<path fill="#FFFFFF" d="M889.8,853.5c5.3,5.3,5.3,9.1,0,14.4l-26.2,26.2c-5.3,5.3-8.8,5.6-14.2,0l-12-12.8h-59.8L761.9,897v40.9
	l15.8,15.5H838l11.5-11.8c5.6-5.6,8.8-5.9,14.2-0.5l22.6,22.8l75.7-86l-46.8-46.8h-51.5c3.7,1,6.8,3,10.2,6.4L889.8,853.5z"/>
<path fill="#DD3858" d="M582.9,1248.7c0,0-81.9,104.4-83.5,313.7c-0.4,52.8,130.3,88.5,275.8,88.6c136.4,0,285.4-29.9,284.8-79.5
	c-2.5-211.3-60.8-323.2-60.8-323.2L582.9,1248.7z"/>
<polygon fill="#F9AE5C" points="594.5,1209.5 801.7,1305.3 985.8,1209.5 978.3,1148.7 803.2,1233.3 600,1148.7 "/>
<path fill="#FFDFBE" d="M606.9,1129.6c0.3,0.6,1.6,1.5,3.8,2.9c1.2,0.7,2.4,1.5,3.6,2.4c1.2,0.9,3.3,1.8,6.2,2.8
	c15.4,5.5,25.7,9.5,31,12c2.7,1.4,8.4,7,17,16.7c7.7,8.8,12.2,14.1,13.2,16c1.3,2.3,0.8,4-1.4,5.1c-0.9,0.5-2.1,0.8-3.4,0.9
	c-4.3,0.8-7.1,0.7-8.4-0.1c-3-1.8-7.2-4.9-12.8-9.3c-5.6-4.4-9.8-7.5-12.6-9.3c-1-0.6-1.8-0.7-2.4-0.4c-2.5,1.3-3.6,4.4-3.4,9.2
	c0.2,4.1,1.1,7.5,2.5,10.1l29.2,52.4c0.7,1.2,0.5,2.7-0.6,4.4c-1.1,1.7-2,2.8-2.9,3.3c-1.3,0.7-2.9,0.9-4.8,0.7
	c-1.9-0.2-3.1-0.9-3.8-2l-25.4-45.5c-0.7-1.3-2.2-1.4-4.4-0.2c-2,1.2-2.8,2.3-2.2,3.3l29.3,52.5c0.7,1.2,0.6,2.8-0.4,4.7
	c-1,1.9-2.2,3.2-3.7,4c-1.3,0.7-3,1.1-5.2,1.1c-2.2,0.1-3.6-0.5-4.3-1.8l-30.2-54c-0.4-0.7-1.1-1-2.2-1.1c-1.1-0.1-1.9,0-2.4,0.2
	c-2.2,1.2-3,2.4-2.2,3.7l26.5,47.4c0.7,1.3,0.8,2.9,0.2,4.8c-0.6,1.9-1.7,3.2-3,4c-1.2,0.6-2.8,0.8-4.9,0.4
	c-2.1-0.4-3.5-1.2-4.2-2.4l-27.6-49.4c-0.7-1.2-2.1-1.3-4.2-0.2c-2,1-2.6,2.2-1.9,3.6l17.5,31.4c0.6,1,0.3,2.4-0.7,4.2
	c-1.1,1.8-2,2.9-2.8,3.3c-0.3,0.2-1,0.4-2,0.7c-0.5,0.1-1.6-0.1-3.4-0.5c-1.8-0.5-2.9-1-3.3-1.7l-39.5-70.8c-1.1-2-1.4-6-1-12.2
	c0.4-5.3,1.1-9.5,2.1-12.6c1.1-3.4,1.3-5.8,0.6-6.9"/>
<line fill="#F9AE5C" stroke="#F9AE5C" stroke-width="4" stroke-linecap="round" stroke-miterlimit="10" x1="607.3" y1="1127.6" x2="546.5" y2="1168.1"/>
<path fill="#FFDFBE" d="M977.4,1128.4c-0.3,0.5-1.6,1.5-3.8,2.9c-1.2,0.7-2.4,1.5-3.6,2.3c-1.2,0.8-3.3,1.8-6.2,2.8
	c-15.4,5.5-25.7,9.4-31,11.8c-2.7,1.4-8.4,6.9-17,16.5c-7.7,8.7-12.2,14-13.2,15.8c-1.3,2.2-0.8,3.9,1.4,5c0.9,0.5,2.1,0.8,3.4,0.9
	c4.3,0.7,7.1,0.7,8.4-0.1c3-1.8,7.2-4.9,12.8-9.2c5.6-4.3,9.8-7.4,12.6-9.1c1-0.6,1.8-0.7,2.4-0.4c2.5,1.3,3.6,4.3,3.4,9.1
	c-0.2,4.1-1.1,7.4-2.5,10l-29.2,51.7c-0.7,1.2-0.5,2.6,0.6,4.3c1.1,1.7,2,2.8,2.9,3.2c1.3,0.7,2.9,0.9,4.8,0.7
	c1.9-0.2,3.1-0.9,3.8-2l25.4-44.9c0.7-1.3,2.2-1.4,4.4-0.2c2,1.2,2.8,2.3,2.2,3.3l-29.3,51.8c-0.7,1.2-0.6,2.7,0.4,4.6
	c1,1.9,2.2,3.2,3.7,4c1.3,0.7,3,1,5.2,1.1c2.2,0.1,3.6-0.5,4.3-1.7l30.2-53.4c0.4-0.6,1.1-1,2.2-1.1c1.1-0.1,1.9,0,2.4,0.2
	c2.2,1.1,3,2.4,2.2,3.7l-26.5,46.8c-0.7,1.3-0.8,2.9-0.2,4.7c0.6,1.9,1.7,3.2,3,3.9c1.2,0.6,2.8,0.8,4.9,0.4
	c2.1-0.4,3.5-1.1,4.2-2.4l27.6-48.8c0.7-1.2,2.1-1.3,4.2-0.2c2,1,2.6,2.2,1.9,3.5l-17.5,31c-0.6,1-0.3,2.4,0.7,4.2
	c1.1,1.8,2,2.9,2.8,3.3c0.3,0.2,1,0.4,2,0.7c0.5,0.1,1.6-0.1,3.4-0.5c1.8-0.5,2.9-1,3.3-1.6l39.5-69.9c1.1-1.9,1.4-6,1-12.1
	c-0.4-5.2-1.1-9.4-2.1-12.4c-1.1-3.4-1.3-5.7-0.6-6.8"/>
<line fill="#F9AE5C" stroke="#F9AE5C" stroke-width="4" stroke-linecap="round" stroke-miterlimit="10" x1="977" y1="1126.4" x2="1037.8" y2="1166.5"/>
<path fill="none" stroke="#EFD0B4" stroke-width="2" stroke-miterlimit="10" d="M794.8,387.4c9.3,37.3,20.5,46.6,1.2,46.6
	c-19.3,0-27,0-27,0"/>
<g>
	<path fill="#F9AE5C" stroke="#F9AE5C" stroke-miterlimit="10" d="M995.1,1438.1l-86.2,41.2L851,1358.3l107.4-51.4L995.1,1438.1z
		 M912,1470.3l75.1-35.9l-33-118l-94.2,45L912,1470.3z"/>
</g>
<circle fill="#F9AE5C" stroke="#F9AE5C" stroke-miterlimit="10" cx="901.7" cy="1374.2" r="5.3"/>
<circle fill="#F9AE5C" stroke="#F9AE5C" stroke-miterlimit="10" cx="912" cy="1401.6" r="5.3"/>
<circle fill="#F9AE5C" stroke="#F9AE5C" stroke-miterlimit="10" cx="922" cy="1431.5" r="5.3"/>
<circle fill="#F9AE5C" stroke="#F9AE5C" stroke-miterlimit="10" cx="932.1" cy="1359.6" r="5.6"/>
<circle fill="#F9AE5C" stroke="#F9AE5C" stroke-miterlimit="10" cx="941.7" cy="1387.4" r="5.6"/>
<circle fill="#F9AE5C" stroke="#F9AE5C" stroke-miterlimit="10" cx="950.7" cy="1417.8" r="5.6"/>
<path fill="#DD3858" stroke="#DD3858" stroke-width="5" stroke-miterlimit="10" d="M738.7,2029.3c6.4-28.6,4.6-75.2,4.6-75.2
	c-0.3-2-1.8-4-4.2-5.9c-7.1-5.6-21.9-10.4-35.6-11.5c-18-1.5-68.4-0.8-79.5,0.9c-6.9,1.1-18.3,3.7-24.8,6.9c-2.5,1.2-4.2,2.6-4.7,4
	c-1.8,5.1,1.1,20.5,3.1,31c2,10.6,1.2,57.4,2.2,74.6c1,17.2-4.2,96.3-6.6,115.3c-2.4,19-8.9,25.2-12.6,31.2
	c-3.8,6-27,44.4-35.9,55.6c-9,11.3-11.7,11.4-15.1,12.4c-3.4,1-20.2,5.4-25.6,7.4c-5.4,2-17.8,1.1-25.4-0.8c-7.7-2-15.4,8-17.2,13.1
	c-1.8,5,0.9,22.1,0.1,24.9c-0.9,3.1,0.3,5.7,2.5,7.2c2.1,1.5,17.7,11.2,36.6,17.4c18.9,6.2,50.6,10.7,65.8,11.4
	c15.1,0.7,22.5-2.2,29.8-6c7.3-3.7,20.2-22.3,24.5-27.8c4.7-6.1,14.6-8.5,19.4-8.6c8.9-0.2,8.5,5.2,8.5,5.2s0.7,11.5,2.6,22
	c31.7,16.1,69.5-2.5,82.2-8.2c-1.4-36.8,1.7-59.4-0.6-70.1c-4.2-19.7-8.4-42.8-8.4-42.8s-2.1-22-1.8-32.6
	c0.3-10.6-2.6-49.2-1.7-62.2C721.7,2105.4,733.5,2052.7,738.7,2029.3z"/>
<path fill="none" stroke="#F9AE5C" stroke-width="10" stroke-linecap="round" stroke-miterlimit="10" d="M978.2,1926.6
	c-0.5-1.4-2.3-2.7-4.8-3.9c-6.5-3.1-18-5.5-24.9-6.4c-11.1-1.5-61.5-1.2-79.5,0.7c-13.7,1.4-28.4,6.4-35.4,12.2
	c-2.3,1.9-3.8,3.9-4.1,5.9"/>
<path fill="#DD3858" stroke="#DD3858" stroke-width="5" stroke-miterlimit="10" d="M1118.2,2281.6c-1.9-5-9.8-14.9-17.4-12.8
	c-7.6,2.1-20,3.2-25.4,1.4c-5.4-1.9-22.4-5.9-25.8-6.9c-3.4-1-6.1-1.1-15.3-12.1s-33.1-49-37-54.9c-3.9-5.9-10.5-11.9-13.3-30.9
	c-2.7-19-9.5-98-8.9-115.2c0.6-17.2-1.1-64,0.7-74.6c1.7-10.6,4.4-26,2.5-31c-0.5-1.4-2.3-2.7-4.8-3.9c-6.5-3.1-18-5.5-24.9-6.4
	c-11.1-1.5-61.5-1.2-79.5,0.7c-13.7,1.4-28.4,6.4-35.4,12.2c-2.3,1.9-3.8,3.9-4.1,5.9c0,0-0.8,46.7,6.1,75.1
	c5.7,23.3,18.6,75.7,19.7,88.4c1.2,13-1,51.6-0.5,62.2c0.5,10.6-1.2,32.6-1.2,32.6s-3.8,23.2-7.5,43c-2,10.7,1.5,33.2,0.8,70.1
	c12.8,5.5,51,23.3,82.4,6.6c1.8-10.6,2.2-22,2.2-22s-0.5-5.4,8.4-5.4c4.8,0,14.8,2.2,19.6,8.2c4.4,5.4,17.6,23.7,25,27.3
	c7.4,3.6,14.8,6.4,29.9,5.4c15.1-1,46.8-6.2,65.5-12.8c18.7-6.6,34.1-16.6,36.2-18.1c2.2-1.6,3.2-4.2,2.3-7.3
	C1117.7,2303.8,1120,2286.6,1118.2,2281.6z"/>
<g>
	<path fill="#F26E7B" d="M854.8,485.1c0,0-30.7,47.9-65.4,45.1c-35.5-2.9-57.4-55-57.4-55s33.5,16.7,60.3,18.8
		C817.2,496,854.8,485.1,854.8,485.1z"/>
</g>
</svg>
