<?xml version="1.0" encoding="utf-8"?>
<!-- Generator: Adobe Illustrator 19.1.0, SVG Export Plug-In . SVG Version: 6.00 Build 0)  -->
<svg version="1.1" id="Layer_1" xmlns="http://www.w3.org/2000/svg" xmlns:xlink="http://www.w3.org/1999/xlink" x="0px" y="0px"
	 viewBox="0 0 704 405.6" style="enable-background:new 0 0 704 405.6;" xml:space="preserve">
<style type="text/css">
	.st0{fill:#FFFFFF;}
</style>
<g id="hSUzf8.tif">
	<g>
		<path class="st0" d="M409.6,29.4c9.8,7.6,18.6,22.7,12,38.3c-2.7,6.4-6.9,11.8-9.9,17.9c-3.7,7.5-2.5,9.3,6.1,9.8
			c1.8,0.1,3.6,0,5.4,0c27.7,0.1,51.4,20.1,57.7,47.2c2.5,10.9-0.2,20.5-2.4,30.6c-0.8,3.5-2.6,6.7-2.5,10.4
			c0.2,4.3,2.5,6.7,6.3,7.6c3.6,0.8,5.1-2.2,6.1-4.8c1.7-4.3,2.6-8.8,2.7-13.6c0.5-17.6,19.9-31,36.6-25.9c9.8,3,17.2,8.7,23.2,16.6
			c1.1,1.4,1.9,3.1,3,4.4c5.1,5.9,7.1,6.4,13.8,2.3c8.8-5.4,18.2-8.2,28.5-8c13.3,0.4,25.4,11.5,26.4,24.9c0.3,4.3,0,8.5-1.2,12.8
			c-2.3,8.7-0.9,10.5,8,12.2c24.4,4.6,37.5,24.3,36.5,45.1c-0.5,12.1-5.5,21.3-15.1,28.3c-9,6.6-8.9,14.1,0.2,20.5
			c1.8,1.2,3.9,1.9,5.7,3.1c6.7,4.5,12.4,9.7,15.3,17.5c6.5,16.9-0.2,31.8-11.1,42.1c-6,5.7-12.6,11.6-21.7,13.4
			c-0.2-3.7,1-6.6,2.2-9.5c3.7-8.6,3.1-17.7,2.4-26.6c-0.5-6.6-3.7-12.1-10.4-15.2c-11.2-5.2-22.7-9-34.8-10.7
			c-13.8-2-27.5-4.6-41.3-6c-9.6-1-19.3-1.8-28.9-2.4c-102.1-6.6-236.9-8.6-323.2-2c-18.9,1.4-37.9,1.9-56.7,4.1
			c-21.6,2.6-43.4,4.7-64.4,10.8c-6.9,2-13.9,4-19.7,8.3c-10,7.4-14.2,17.7-14.5,29.8c-0.1,3.4,1.8,8.5-1.7,9.9
			c-4.3,1.8-6.5-3.5-9-6.2c-4.9-5.2-10.9-20.5-10.9-27.7c0-26,20.1-31.4,20.1-31.4c1.6-0.8,3.1-1.9,4.5-2.9c7.7-5.7,8.3-13.5,0-18.2
			c-15.5-8.8-19.5-28.7-14.1-45.7c5.2-16.6,18-25.1,34.7-28.5c7.6-1.5,9.4-3.7,7.6-10.7c-1.3-5-1.1-10-0.9-15
			c0.4-11.7,12-23.1,23.6-24.1c11.3-1,21.2,2.6,30.9,7.8c8,4.3,10.2,3.8,15.3-3.4c2.9-4.2,6-8.1,9.8-11.4
			c7.3-6.2,15.9-10.9,25.4-9.7c12.7,1.6,27.6,13.1,26.8,30.2c-0.2,4.1,0.4,7.9,2.8,11.3c1.6,2.3,2.9,5.3,6.7,3.9
			c3.8-1.4,6.1-4,5.3-8.2c-0.5-2.8-1.7-5.5-2.4-8.3c-2.6-10.8-5.3-21.3-2.5-32.8c3-12.5,9.5-22.2,18.6-30.8
			c10.7-10,22.8-16,37.7-15.7c3.6,0.1,7.2,0.2,10.8-0.3c4.3-0.6,5.5-3.1,3.4-7c-2.2-4.1-5.1-7.8-7.6-11.8
			c-7.8-12.4-5.4-32.6,5.5-41.7c14.7-12.3,29.7-8.3,29.7-8.3c5.9,2.9,12.6,4.3,17.8,8.8c2.7,2.3,6,3.8,8.8,6
			c3.3,2.7,6.2,2.6,9.5-0.1c8-6.4,16.6-11.9,26.6-14.8C383,26.2,398.6,20.9,409.6,29.4z M262,161.5c-0.9,7.7,1.4,15.2,5.3,22.2
			c7.8,14.3,17.8,27.1,29.6,38c13.9,12.8,28.8,24.7,44.5,35.4c8.8,6,9.9,5.9,19.2,0c22.7-14.2,42.2-32.3,60.1-51.9
			c8.7-9.5,15.2-20.5,19.2-33.2c8.2-25.8-15.4-52.6-37.3-51.2c-9.9,0.7-18.1,3.8-26.3,8.1c-5.2,2.7-10.5,5.7-10.4,12.5
			c0.1,7.5-2,14.8,6.8,20.8c16.5,11.4,14.6,44.3-7.8,52.4c-7.4,2.7-15.1,2.5-22.3,1.2c-16.3-2.9-26.5-22.6-23-35.9
			c2.4-9.2,7.4-15.5,14.2-20.8c3.5-2.7,4.2-5.6,3.9-9.3c-1.1-10.7-3.6-20.5-15.9-23.8c-3.4-0.9-6.6-2.9-10.1-3.7
			c-7.8-1.8-16.1-2.8-23.3,0.2C273.4,128.9,260.2,143.4,262,161.5z M352.1,123.4c3,0.1,5.7-1.1,8.1-2.7c19.4-13,32.8-30.7,40.8-52.6
			c0.9-2.5,1.1-4.7,0.3-7.3c-4.3-13.9-14.1-18.2-27.6-13.5c-6.1,2.1-11.6,5.9-16.4,10.2c-3.9,3.6-7.2,4-11.2,0.4
			c-2.1-1.9-4.6-3.4-6.9-5.1c-4.7-3.4-9.5-6.2-15.4-7.2c-15.2-2.7-25.8,9-21.9,23.9c1.8,6.8,5.7,12.4,9.3,18.1
			c8,12.9,18.1,24.1,30.9,32.4C345.1,122,348.3,123.7,352.1,123.4z M601.2,207.2c0.2-21-15.5-31.2-31.7-25.2
			c-8.1,3-10.7,10.4-5.4,17.5c3,4,2.8,8,2.7,12.3c-0.4,11.6-13,18.9-23.3,13.6c-6-3.1-8.9-8.1-9.1-14.8c-0.2-6.7,2-12.1,8.6-14.7
			c5.2-2,6.9-5.7,6.4-11c-0.6-6.7-9-14.8-16.9-15.9c-15.7-2.2-28.8,12.2-25.3,27.6c1.3,5.6,3.3,10.9,5.8,16.1
			c5.9,12.4,14.6,22.9,23.3,33.4c4.4,5.4,5.6,6,11.7,3.2c14.4-6.6,28.6-13.5,40.6-24C595.3,219.5,601,212.4,601.2,207.2z
			 M123.1,179.7c-7.5,0.2-14.8,4.7-18.1,11.4c-5.2,10.2-3.5,20.3,4.7,29.7c5.8,6.6,13.1,11.2,20.4,15.6c8.2,5,16.1,10.8,25.7,13.4
			c3.6,1,6.2,0.6,8.7-2c13.7-14.4,25.7-29.7,30.7-49.6c1.5-6.1,0.8-11.2-1.5-16.5C190,173.1,182.5,170,174,169
			c-8.6-1-14.1,4.7-18.6,10.9c-3.4,4.6-1.7,11.3,3.2,14.9c2.6,1.9,5.2,4,7.1,6.6c6.4,8.8,3.4,19.7-6.6,24.3
			c-7,3.2-14.5,1.6-19.6-4.1c-5.3-6-5.9-13.3-1.1-20.7c1.7-2.6,4-4.3,3-8.5C139.3,183.9,133.6,179.5,123.1,179.7z M105.2,285.7
			c8.7,0.6,20.8-0.6,32.5-3.9c11-3.1,12.4-10.3,4-17.8c-2.9-2.6-6.2-4.7-9.3-7.2c-11.5-9.2-23.9-17.1-38.1-21.4
			c-5.7-1.7-11.6-3.9-17.7-2.7c-15,2.8-20.5,15.3-21.9,25.9c-0.6,4.1,0.4,8,3,11.2c4.5,5.6,9.3,10.4,16.6,13
			C83.2,286,92.4,285.3,105.2,285.7z M261.9,234.1c-2.7-17.4-16.5-32.7-37.2-23.9c-8.6,3.6-14.9,9.8-21.2,16.2
			c-9.5,9.4-16.7,20.6-23.7,31.8c-2.4,3.8-3.4,8.4-0.4,12.1c2.8,3.5,6.9,4.9,11.6,4.1c13.8-2.4,27.3-5.6,40.4-10.6
			c8.8-3.3,17.1-7.5,23.2-15C258.2,244.2,260.8,239.2,261.9,234.1z M467.3,207.8c-11.6-0.7-17.8,6.8-23.2,15.9
			c-4.5,7.6-2.8,14.7,1.4,21.3c3.2,5.1,7.6,9.5,13.1,12.5c17.3,9.4,36.1,14,55.3,17c9,1.4,14.5-6.8,10.2-14.7
			c-8.3-15.2-18.6-29.1-31.7-40.4C485.4,213.3,477.8,207.2,467.3,207.8z M601.2,285.3c11.8,0.8,23.1,0.5,33.5-5.7
			c6.4-3.8,11.2-8.7,13.2-16.1c1.9-7.4-2.1-13.1-4.7-19.3c-2.4-5.8-7-8.9-12.9-10.3c-10.3-2.6-19.7,0.3-29,4.2
			c-13.7,5.8-25.4,14.6-37.2,23.4c-4.3,3.2-8.8,7.6-7.5,13.4c1.5,6.7,8.4,7.3,13.9,8.3C580.6,284.9,590.9,286.6,601.2,285.3z
			 M404.4,270.4c6.4,0.7,13.4-1.1,20.1-3.7c7.5-2.8,10.3-9.7,7.5-16.5c-2.8-6.8-9.6-9.5-17-6.4c-7,2.9-13.4,6.8-18.7,12.4
			c-2.8,3-8,5.3-6.1,10.4c2.1,5.8,7.9,3.3,12.3,3.9C402.8,270.4,403.2,270.4,404.4,270.4z M298,270.6c3.2-0.2,6.5,0,9.7-0.7
			c6.4-1.5,7.5-5,3.1-9.9c-6-6.9-13.3-12.1-21.6-15.8c-8.1-3.5-15.1-1-17.9,6.2c-2.8,7.3,0.5,14.4,8.8,16.9
			C285.8,269,291.7,271.2,298,270.6z"/>
	</g>
</g>
</svg>
