<?xml version="1.0" encoding="utf-8"?>
<!-- Generator: Adobe Illustrator 19.1.0, SVG Export Plug-In . SVG Version: 6.00 Build 0)  -->
<svg version="1.1" id="Layer_1" xmlns="http://www.w3.org/2000/svg" xmlns:xlink="http://www.w3.org/1999/xlink" x="0px" y="0px"
	 viewBox="0 0 686 560" style="enable-background:new 0 0 686 560;" xml:space="preserve">
<style type="text/css">
	.st0{fill:#FFFFFF;}
</style>
<g>
	<path class="st0" d="M146.1,539.2h398.1c0,0,8.5-46.1,15.8-82.5H131.6C137.7,491.9,146.1,539.2,146.1,539.2z"/>
	<path class="st0" d="M484.8,212.7h-42.5h-12.1c-2.4-7.3-3.6-15.8-6.1-23.1C399.8,86.5,384,18.5,345.2,18.5s-54.6,69.2-78.9,173.6
		l-4.9,21.8h-12.1h-69.2h-77.7c0,0,0,100.7,21.8,212.4c1.2,4.9,2.4,10.9,3.6,17h433.3c1.2-6.1,2.4-12.1,2.4-17
		c21.8-137.1,21.8-213.4,21.8-213.4L484.8,212.7z M397.4,212.7H295.4h-12.1c3.6-23.1,12.1-71.6,19.4-95.9
		c21.8-72.8,34-81.3,42.5-81.3c9.7,0,21.8,9.7,41.3,80.1c7.3,23.1,15.8,73,20.6,97.3L397.4,212.7z"/>
</g>
</svg>
