<?xml version="1.0" encoding="utf-8"?>
<!-- Generator: Adobe Illustrator 19.1.0, SVG Export Plug-In . SVG Version: 6.00 Build 0)  -->
<svg version="1.1" id="Layer_1" xmlns="http://www.w3.org/2000/svg" xmlns:xlink="http://www.w3.org/1999/xlink" x="0px" y="0px"
	 viewBox="0 0 262 209.9" enable-background="new 0 0 262 209.9" xml:space="preserve">
<path fill="#FFFFFF" d="M196.4,109.8c-9.5-39.6-0.7-65.6-0.7-65.6s3.3-5.4-27.5-14.1c0.4-9.1,6.5-20.8,6.5-20.8h-24.8
	c0,0-9.9,4.3-18.3,47.7c-9.2-43.8-18.3-47.7-18.3-47.7H85.4c0,0,8.8,9.5,9.2,20.8c-20.7,1.8-28.2,9.4-28.2,9.4s10,39.2,0,69.8
	c-6.1,18.5,4.3,91.3,4.3,91.3h118.6C189.3,200.7,201.1,129.2,196.4,109.8z"/>
</svg>
