<?xml version="1.0" encoding="utf-8"?>
<!-- Generator: Adobe Illustrator 19.1.0, SVG Export Plug-In . SVG Version: 6.00 Build 0)  -->
<svg version="1.1" id="Layer_1" xmlns="http://www.w3.org/2000/svg" xmlns:xlink="http://www.w3.org/1999/xlink" x="0px" y="0px"
	 viewBox="-455 257 48 48" style="enable-background:new -455 257 48 48;" xml:space="preserve">
<style type="text/css">
	.st0{fill:#FFFFFF;}
</style>
<path class="st0" d="M-409.2,274.1l-4.1-5.5l2.2-6.5c0.1-0.4,0-0.8-0.2-1c-0.3-0.3-0.7-0.4-1-0.2l-6.5,2.2l-5.5-4.1
	c-0.3-0.2-0.7-0.3-1.1-0.1c-0.3,0.2-0.6,0.5-0.5,0.9l0.1,6.8l-5.6,3.9c-0.3,0.2-0.5,0.6-0.4,1s0.3,0.7,0.7,0.8l5.6,1.7l-27.3,27.3
	c-0.4,0.4-0.4,1,0,1.4c0.2,0.2,0.5,0.3,0.7,0.3s0.5-0.1,0.7-0.3l27.2-27.2l1.6,5.3c0.1,0.4,0.4,0.6,0.8,0.7c0.1,0,0.1,0,0.2,0
	c0.3,0,0.6-0.2,0.8-0.4l3.9-5.6l6.8,0.1c0.4,0,0.7-0.2,0.9-0.5C-408.9,274.8-409,274.4-409.2,274.1z M-417.3,273.6
	c-0.3,0-0.6,0.2-0.8,0.4l-3.1,4.4l-1.6-5.1c-0.1-0.3-0.3-0.6-0.7-0.7l-5.1-1.6l4.4-3.1c0.3-0.2,0.4-0.5,0.4-0.8l-0.1-5.3l4.3,3.2
	c0.3,0.2,0.6,0.3,0.9,0.1l5.1-1.7l-1.7,5.1c-0.1,0.3-0.1,0.7,0.1,0.9l3.2,4.3L-417.3,273.6z"/>
</svg>
