<?xml version="1.0" encoding="utf-8"?>
<!-- Generator: Adobe Illustrator 19.1.0, SVG Export Plug-In . SVG Version: 6.00 Build 0)  -->
<svg version="1.1" id="Layer_1" xmlns="http://www.w3.org/2000/svg" xmlns:xlink="http://www.w3.org/1999/xlink" x="0px" y="0px"
	 viewBox="0 0 527.3 495.6" style="enable-background:new 0 0 527.3 495.6;" xml:space="preserve">
<style type="text/css">
	.st0{fill:#FFFFFF;}
</style>
<g>
	<polygon class="st0" points="378.2,102.9 369.7,73 339.8,64.5 369.7,55.9 378.2,26 386.8,55.9 416.7,64.4 386.8,73 	"/>
	<polygon class="st0" points="270.5,133.7 265.4,115.8 247.4,110.6 265.4,105.5 270.5,87.6 275.7,105.5 293.6,110.6 275.7,115.8 	
		"/>
	<polygon class="st0" points="171.4,179 201.3,187.5 171.4,196.1 162.8,226 154.3,196.1 124.4,187.5 154.3,179 162.8,149.1 	"/>
	<polygon class="st0" points="178.2,133.7 166.2,91.8 124.3,79.8 166.2,67.9 178.2,26 190.2,67.9 232,79.8 190.2,91.8 	"/>
	<path class="st0" d="M65.8,438.3c15,15,32,22.3,38.1,16.3l249-249c6-6-1.3-23.1-16.3-38.1c-15-15-32-22.3-38.1-16.3l-249,249
		C43.6,406.3,50.8,423.3,65.8,438.3z M231.4,240.2l61.7-61.7l10.9-10.9c3-3,12.8,1.8,21.8,10.9c9,9,13.9,18.8,10.9,21.8l-3.2,3.2
		l-69.2,69.1c-0.1,0.1-0.2,0.3-0.3,0.3c0,0,0,0-0.1,0l0.3-0.3c2.4-3.4-2.3-12.8-11.1-21.5C244.2,242.1,234.4,237.2,231.4,240.2z"/>
	<polygon class="st0" points="332,318.3 337.2,336.2 355.1,341.3 337.2,346.5 332,364.4 326.9,346.5 309,341.3 326.9,336.2 	"/>
	<path class="st0" d="M263.9,272.9l0.3-0.3C264.2,272.7,264.1,272.8,263.9,272.9C264,272.9,264,272.9,263.9,272.9z"/>
	<polygon class="st0" points="409,233.7 419.2,269.6 455.2,279.9 419.2,290.1 409,326.1 398.7,290.1 362.8,279.9 398.7,269.6 	"/>
	<polygon class="st0" points="450.1,162 432.2,156.8 450.1,151.7 455.2,133.8 460.4,151.7 478.3,156.8 460.3,162 455.2,179.9 	"/>
</g>
</svg>
