<?xml version="1.0" encoding="utf-8"?>
<!-- Generator: Adobe Illustrator 19.1.0, SVG Export Plug-In . SVG Version: 6.00 Build 0)  -->
<svg version="1.1" id="Layer_1" xmlns="http://www.w3.org/2000/svg" xmlns:xlink="http://www.w3.org/1999/xlink" x="0px" y="0px"
	 viewBox="-195 0 568.6 560" style="enable-background:new -195 0 568.6 560;" xml:space="preserve">
<style type="text/css">
	.st0{fill:#FFFFFF;}
</style>
<g>
	<path class="st0" d="M173.7,418.8c-0.5,1.9-0.9,4.1-1.4,6.3c-1.4-0.1-2.9-0.2-4.6-0.2C169.8,422.9,171.8,420.9,173.7,418.8z"/>
	<path class="st0" d="M19.9,424.4c-0.9,0-1.7,0-2.6,0c-0.2-1.1-0.5-2.2-0.7-3.3C17.7,422.3,18.8,423.4,19.9,424.4z"/>
	<path class="st0" d="M278.2,401c-3.6,26.2-23.5,29.4-37.8,45.1c-2.2,2.5-4.2,5.3-6,8.2c-4.7-4.1-8.2-7.2-10-8.7
		c-8-7.3-13.5-11-31-16.3c-2.5-0.8-5.7-3.2-21.1-4.3c0.5-2.2,0.9-4.4,1.4-6.3c-2,2.1-4,4.1-6,6.1c-1.7-0.1-3.5-0.1-5.4-0.2
		c-2,0-4.1-0.1-6.4-0.1v1.3c-10.1-4.2-28.2-11.4-40-16v-32h-0.3c-0.1,0-0.1,0-0.1,0c25.2-6.8,56.2-21.6,79.4-45.2
		c11-11.2,20.3-24.3,26.3-39.4c0,0,0.3-0.1,0.7-0.2c0.3-0.1,0.7-0.2,1.1-0.3c1.8-0.5,4.8-1.6,8.1-3.3c0.8-0.4,1.7-0.9,2.5-1.4
		c3.4-2.1,6.9-5,9.7-8.8c0.7-0.9,1.3-1.9,1.9-3c0.3-0.6,0.5-1.1,0.8-1.7c1.1-2.6,2-5.5,2.3-8.8c0.1-1,0.2-2.1,0.2-3.3
		c0-30.7-19.3-33.5-19.3-33.5s-0.2,1.4-0.6,3.5c-0.3,1.7-0.7,3.8-1.2,5.9c-0.2,0.5-0.3,1.1-0.4,1.6c-0.7,3.1-1.5,6.1-2.3,7.5
		c-1.6,3-3.5,6.2-5.3,8.9c-3.3,5-6.2,8.9-6.2,8.9s0-0.5,0-1.5c-0.1-0.4-0.1-1-0.1-1.7V261c0-1.1-0.1-2.4-0.2-3.9
		c-0.1-2-0.3-4.2-0.6-6.5c-0.1-1.2-0.3-2.4-0.5-3.6c-0.3-2.5-0.8-5-1.4-7.4c-0.3-1.2-0.6-2.4-1-3.6c-0.7-2.3-1.5-4.6-2.5-6.6
		c-0.7-1.5-1.6-2.9-2.5-4.1c-0.4-0.4-0.7-0.7-1-1.1c-0.6-0.7-1.3-1.4-2.1-1.9c-12-8.5-28.8-6.5-59.3-17c-4.3-1.5-8-3.1-11.3-4.7
		c-0.4-0.2-0.7-0.4-1.1-0.6c-0.3-0.2-0.7-0.4-1-0.6c-0.3-0.2-0.7-0.4-1-0.6c-0.1,0-0.1-0.1-0.2-0.1c-0.6-0.4-1.2-0.7-1.7-1
		c0,0,0,0-0.1,0c-0.6-0.4-1.1-0.7-1.7-1.1c-0.6-0.4-1.2-0.8-1.7-1.2c-0.3-0.2-0.5-0.4-0.8-0.6c-0.5-0.4-1-0.8-1.5-1.1
		c-0.5-0.4-0.9-0.8-1.4-1.1c-0.2-0.2-0.4-0.4-0.6-0.6c-2.2-2-4-3.9-5.3-5.7c-0.1-0.1-0.2-0.3-0.3-0.5c-0.6-0.8-1-1.5-1.5-2.2
		c-0.1-0.1-0.2-0.3-0.2-0.4c-1.2-2.1-1.9-3.7-2.1-4.6c0-0.1,0-0.1-0.1-0.2c0,0,0,0,0,0c0,0,0-0.1,0-0.1c0-0.1,0-0.2-0.1-0.2
		c0,0,0,0,0,0.1c0,0.1,0,0.2,0,0.2c0.2,1.1,0.9,3.9,2.3,7.4c0.1,0.2,0.2,0.5,0.3,0.7c0.8,1.9,1.9,4,3.2,6.2c0.2,0.3,0.3,0.5,0.5,0.8
		c0.2,0.3,0.4,0.7,0.7,1c0,0,0,0,0,0c0.2,0.3,0.4,0.6,0.6,0.9c0.3,0.4,0.6,0.8,1,1.2c0.2,0.3,0.5,0.6,0.8,0.9
		c0.2,0.2,0.4,0.4,0.6,0.6c0.2,0.2,0.4,0.4,0.6,0.6c0.4,0.4,0.7,0.8,1.1,1.2c0.2,0.2,0.5,0.4,0.7,0.7c0.6,0.6,1.3,1.2,2,1.7
		C134.7,212,146,213,146,213s-0.6,0.3-1.6,0.7c-2.7-1.2-5.9-1.9-9.9-1.9c-6.5,0-11.3,2.5-15,6c-12-0.6-26.7-4.8-41.1-18
		c-2.1-1.9-4.1-3.8-5.9-5.6s-3.6-3.6-5.2-5.3c-2.5-2.6-4.8-5.1-6.8-7.5c-1.3-1.6-2.6-3.2-3.8-4.7c-0.6-0.7-1.1-1.5-1.7-2.2
		c-1.1-1.5-2.2-2.9-3.1-4.2c-0.9-1.4-1.8-2.7-2.6-3.9c-2.4-3.7-4.2-6.9-5.5-9.5c-2.5-5.3-3.2-8.2-3.2-8.2s-9.8,37.8-31.3,55.8
		c-0.1,0.1-0.2,0.1-0.3,0.2c-16.5,13.6-30.2,19.3-40,26c-3,2.1-5.7,4.2-8,6.8c-8.6,9.5-7.3,18-7.3,18s-8.1-6.5-7.3-27.3
		c0,0-22.5,1-22.5,33c0,8.4,2.7,14.6,6.5,19.1c8.5,10.3,22.5,12.2,22.5,12.2c12.9,42.5,72.6,80,117.9,88v3.3h-0.5v25
		c-10.3,2.5-40.5,15.5-41.3,16c-0.2,0.1-0.3,0.2-0.4,0.4c0-0.1-0.1-0.2-0.1-0.2l0.3-0.5c-0.2,0-0.5,0-0.5,0c0-0.3-0.3-0.3-0.3-0.3
		s-0.8,0-1.8,0.3c-0.4,0-0.7,0-1.1,0c-1.9,0-3.6,0-5.2-0.1c-1.1-1.1-2.2-2.1-3.3-3.3c0.2,1.1,0.5,2.1,0.7,3.3
		C1.3,424.3-4,425-20.6,428c-15.5,3-26.3,8.5-33.8,16c-2.2,2.3-7.6,7.6-14.5,14.6c-11.8-16.1-5.6-30.9-13.6-48.8
		c-9.6-21.4-26.3-38.9-29.9-59c-0.5-2.9-0.7-5.7-0.7-8.4c0.2-16.1,8.7-29.3,9.1-44.2c0.5-17.4-10.9-31-8.9-60
		c1.7-26.5,23.9-21.5,26.8-46.4c0.5-4.4,1.2-8.6,2-12.7c-3.4-10.1-7-21.4-4.5-33c7-32.3,15.4-30.1,33.4-40.7
		C-37.3,94.7-40.7,64-21.1,54c23.3-11.9,42.4-3.6,68.3-9.7c25.9-6.1,35.5-21.4,61.7-17.8c26.2,3.7,23.3,17.8,50.2,22.7
		c21.1,3.9,36.7,0,61.5,21.4c17,14.7,8.2,39.2,15.1,53.8c0.7,1.6,1.6,3.1,2.4,4.6c7.6,8.8,16.3,18.8,19.5,25.9
		c6,13.2,8,30.9,8.5,56.8c0.5,29.9,13.2,32,19.1,72.1c2.1,14.1-3.3,25.5-7.9,38.8c-2.4,7.1-4.6,14.7-5.3,23.5
		C270.1,371.2,281.5,375.6,278.2,401z"/>
</g>
</svg>
