<?xml version="1.0" encoding="utf-8"?>
<!-- Generator: Adobe Illustrator 19.1.0, SVG Export Plug-In . SVG Version: 6.00 Build 0)  -->
<svg version="1.1" id="Layer_1" xmlns="http://www.w3.org/2000/svg" xmlns:xlink="http://www.w3.org/1999/xlink" x="0px" y="0px"
	 viewBox="-74 170.6 209.1 165.4" style="enable-background:new -74 170.6 209.1 165.4;" xml:space="preserve">
<style type="text/css">
	.st0{fill:#FFFFFF;}
	.st1{enable-background:new    ;}
	.st2{fill:#FFF200;}
	.st3{fill:#F8AE5D;}
	.st4{fill:none;stroke:#FFFFFF;stroke-width:1.6023;stroke-miterlimit:10;}
</style>
<g>
	<polygon class="st0" points="7.9,183.5 35.6,215.7 84.9,180 67.6,225.3 130.7,219.3 75.5,242.7 118.5,278.5 63.7,273.4 73.8,321.5 
		23.5,295 -21.6,326.3 -7.4,284.4 -67.4,287 -26.5,254.9 -55.2,227.8 -8.6,232 	"/>
</g>
<g>
	<g class="st1">
		<path class="st2" d="M-25.1,275.8c0.4,1.5,0.9,2.9,1.3,4.9c0.5,1.8,0.7,6.2-5.5,7.7c-2.3,0.6-4-1.2-4.5-3.2c-1-4-1.3-7.3-2.3-11.2
			c-0.7-2.7-1.4-5.2-2-7.7c-0.6-2.6-1.8-6-2.5-8.7c-0.4-1.8-0.8-3.1-0.6-4.4c0.6-3.5,13.5-7.9,21.3-9.9c7.5-1.9,14.7-1.4,16.4,5.6
			c2.1,8.5-8.9,18.9-22.5,23.4C-25.6,273.5-25.4,274.6-25.1,275.8z M-28,264.1c6.5-2.2,14.9-8.3,14.1-11.4c-0.2-0.6-0.5-0.8-1.3-0.8
			c-1.1,0-2.3,0.4-3.4,0.7c-4,1-7.8,2.4-11.2,4.5L-28,264.1z"/>
	</g>
	<g class="st1">
		<path class="st2" d="M19.1,276.6C8.6,279.3-1.5,275.6-4.2,265c-3.2-12.7,6.2-27.4,20-30.8c10-2.5,19.5,2.5,22.1,13.2
			C41.2,260.2,32.5,273.3,19.1,276.6z M17.3,243c-7.8,2-13.4,11.3-11.3,19.5c1.4,5.5,5.2,7,10.6,5.7c8.8-2.2,13.4-11.3,11.5-18.8
			C27,245.1,23.5,241.4,17.3,243z"/>
	</g>
	<g class="st1">
		<path class="st2" d="M46.1,261.9c-2-3.5-5.1-8.4-7.7-12.9c-2.6-4.4-5-8.6-5.4-10.6c-0.6-2.6-1.5-7.9,3.3-9.1
			c2-0.5,3.8,0.2,4.7,2.5c0.4,1,2.8,5.4,5.3,9.9c1.6,2.8,3.2,5.7,4.3,7.8c1.2-5.3,3-10.3,3.9-15.6c-0.6-1.2-1.1-2.3-1.4-3.3
			c-0.8-3.4,0.7-5.7,4.9-6.7c2.3-0.6,4.7,0.2,5.4,2.8c0.4,1.5,1.9,5.1,2.8,7c1.2,2.3,5,8.1,7.2,11.2c1-3.7,2.3-9.7,2.7-11.9
			c0.2-1.5,0.8-3.8,0.6-5.2c-0.9-5.5,0.2-8.7,5.2-9.9c2-0.5,4.9,0.3,5.5,2.7c0.5,2-0.5,8.9-3.4,22.9c-0.5,2.2-0.7,4-1.1,5.7
			c-0.7,3.4-1.5,11.5-5.7,12.5c-2.2,0.6-3.3-0.7-4.2-1.8c-3.3-4.4-4.7-6.4-6.5-8.7c-1.1-1.5-3.4-4.2-5.2-6.7c-0.6,1.9-1,3.3-1.2,4.4
			c-1.5,6.4-1.4,7.8-2.8,13.5c-0.8,3.4-2.7,4.8-4.6,5.3c-2.7,0.7-4.1-1.3-5.2-3.2L46.1,261.9z"/>
	</g>
	<g class="st1">
		<path class="st2" d="M92.6,238.9c-0.3-1.1-1-4.6-1.9-8.2c-1.1-4.4-1.1-4.7-1.6-6.8c-0.1-0.6-0.5-1.1-0.7-1.5
			c-0.3-0.7-0.8-1.5-1.1-2.6c-0.7-3,1.6-5.9,4.1-6.6c2.9-0.7,5.1,1.3,6.3,6c0.5,2.2,1.4,9.6,3,16.1c0.8,3,1.1,6.7-2.3,7.5
			C94.1,243.8,93.4,242.1,92.6,238.9z M94,252.1c-1-4.2,1.6-7.6,4.9-8.4c3.6-0.9,5.4,1.7,6,4.1c1.1,4.3-0.6,7.5-4.6,8.5
			C96.7,257.2,94.6,254.5,94,252.1z"/>
	</g>
	<g class="st1">
		<path class="st3" d="M-25.1,275.8c0.4,1.5,0.9,2.9,1.3,4.9c0.5,1.8,0.7,6.2-5.5,7.7c-2.3,0.6-4-1.2-4.5-3.2c-1-4-1.3-7.3-2.3-11.2
			c-0.7-2.7-1.4-5.2-2-7.7c-0.6-2.6-1.8-6-2.5-8.7c-0.4-1.8-0.8-3.1-0.6-4.4c0.6-3.5,13.5-7.9,21.3-9.9c7.5-1.9,14.7-1.4,16.4,5.6
			c2.1,8.5-8.9,18.9-22.5,23.4C-25.6,273.5-25.4,274.6-25.1,275.8z M-28,264.1c6.5-2.2,14.9-8.3,14.1-11.4c-0.2-0.6-0.5-0.8-1.3-0.8
			c-1.1,0-2.3,0.4-3.4,0.7c-4,1-7.8,2.4-11.2,4.5L-28,264.1z"/>
	</g>
	<g class="st1">
		<path class="st4" d="M-25.1,275.8c0.4,1.5,0.9,2.9,1.3,4.9c0.5,1.8,0.7,6.2-5.5,7.7c-2.3,0.6-4-1.2-4.5-3.2c-1-4-1.3-7.3-2.3-11.2
			c-0.7-2.7-1.4-5.2-2-7.7c-0.6-2.6-1.8-6-2.5-8.7c-0.4-1.8-0.8-3.1-0.6-4.4c0.6-3.5,13.5-7.9,21.3-9.9c7.5-1.9,14.7-1.4,16.4,5.6
			c2.1,8.5-8.9,18.9-22.5,23.4C-25.6,273.5-25.4,274.6-25.1,275.8z M-28,264.1c6.5-2.2,14.9-8.3,14.1-11.4c-0.2-0.6-0.5-0.8-1.3-0.8
			c-1.1,0-2.3,0.4-3.4,0.7c-4,1-7.8,2.4-11.2,4.5L-28,264.1z"/>
	</g>
	<g class="st1">
		<path class="st3" d="M19.1,276.6C8.6,279.3-1.5,275.6-4.2,265c-3.2-12.7,6.2-27.4,20-30.8c10-2.5,19.5,2.5,22.1,13.2
			C41.2,260.2,32.5,273.3,19.1,276.6z M17.3,243c-7.8,2-13.4,11.3-11.3,19.5c1.4,5.5,5.2,7,10.6,5.7c8.8-2.2,13.4-11.3,11.5-18.8
			C27,245.1,23.5,241.4,17.3,243z"/>
	</g>
	<g class="st1">
		<path class="st4" d="M19.1,276.6C8.6,279.3-1.5,275.6-4.2,265c-3.2-12.7,6.2-27.4,20-30.8c10-2.5,19.5,2.5,22.1,13.2
			C41.2,260.2,32.5,273.3,19.1,276.6z M17.3,243c-7.8,2-13.4,11.3-11.3,19.5c1.4,5.5,5.2,7,10.6,5.7c8.8-2.2,13.4-11.3,11.5-18.8
			C27,245.1,23.5,241.4,17.3,243z"/>
	</g>
	<g class="st1">
		<path class="st3" d="M46.1,261.9c-2-3.5-5.1-8.4-7.7-12.9c-2.6-4.4-5-8.6-5.4-10.6c-0.6-2.6-1.5-7.9,3.3-9.1
			c2-0.5,3.8,0.2,4.7,2.5c0.4,1,2.8,5.4,5.3,9.9c1.6,2.8,3.2,5.7,4.3,7.8c1.2-5.3,3-10.3,3.9-15.6c-0.6-1.2-1.1-2.3-1.4-3.3
			c-0.8-3.4,0.7-5.7,4.9-6.7c2.3-0.6,4.7,0.2,5.4,2.8c0.4,1.5,1.9,5.1,2.8,7c1.2,2.3,5,8.1,7.2,11.2c1-3.7,2.3-9.7,2.7-11.9
			c0.2-1.5,0.8-3.8,0.6-5.2c-0.9-5.5,0.2-8.7,5.2-9.9c2-0.5,4.9,0.3,5.5,2.7c0.5,2-0.5,8.9-3.4,22.9c-0.5,2.2-0.7,4-1.1,5.7
			c-0.7,3.4-1.5,11.5-5.7,12.5c-2.2,0.6-3.3-0.7-4.2-1.8c-3.3-4.4-4.7-6.4-6.5-8.7c-1.1-1.5-3.4-4.2-5.2-6.7c-0.6,1.9-1,3.3-1.2,4.4
			c-1.5,6.4-1.4,7.8-2.8,13.5c-0.8,3.4-2.7,4.8-4.6,5.3c-2.7,0.7-4.1-1.3-5.2-3.2L46.1,261.9z"/>
	</g>
	<g class="st1">
		<path class="st4" d="M46.1,261.9c-2-3.5-5.1-8.4-7.7-12.9c-2.6-4.4-5-8.6-5.4-10.6c-0.6-2.6-1.5-7.9,3.3-9.1
			c2-0.5,3.8,0.2,4.7,2.5c0.4,1,2.8,5.4,5.3,9.9c1.6,2.8,3.2,5.7,4.3,7.8c1.2-5.3,3-10.3,3.9-15.6c-0.6-1.2-1.1-2.3-1.4-3.3
			c-0.8-3.4,0.7-5.7,4.9-6.7c2.3-0.6,4.7,0.2,5.4,2.8c0.4,1.5,1.9,5.1,2.8,7c1.2,2.3,5,8.1,7.2,11.2c1-3.7,2.3-9.7,2.7-11.9
			c0.2-1.5,0.8-3.8,0.6-5.2c-0.9-5.5,0.2-8.7,5.2-9.9c2-0.5,4.9,0.3,5.5,2.7c0.5,2-0.5,8.9-3.4,22.9c-0.5,2.2-0.7,4-1.1,5.7
			c-0.7,3.4-1.5,11.5-5.7,12.5c-2.2,0.6-3.3-0.7-4.2-1.8c-3.3-4.4-4.7-6.4-6.5-8.7c-1.1-1.5-3.4-4.2-5.2-6.7c-0.6,1.9-1,3.3-1.2,4.4
			c-1.5,6.4-1.4,7.8-2.8,13.5c-0.8,3.4-2.7,4.8-4.6,5.3c-2.7,0.7-4.1-1.3-5.2-3.2L46.1,261.9z"/>
	</g>
	<g class="st1">
		<path class="st3" d="M92.6,238.9c-0.3-1.1-1-4.6-1.9-8.2c-1.1-4.4-1.1-4.7-1.6-6.8c-0.1-0.6-0.5-1.1-0.7-1.5
			c-0.3-0.7-0.8-1.5-1.1-2.6c-0.7-3,1.6-5.9,4.1-6.6c2.9-0.7,5.1,1.3,6.3,6c0.5,2.2,1.4,9.6,3,16.1c0.8,3,1.1,6.7-2.3,7.5
			C94.1,243.8,93.4,242.1,92.6,238.9z M94,252.1c-1-4.2,1.6-7.6,4.9-8.4c3.6-0.9,5.4,1.7,6,4.1c1.1,4.3-0.6,7.5-4.6,8.5
			C96.7,257.2,94.6,254.5,94,252.1z"/>
	</g>
	<g class="st1">
		<path class="st4" d="M92.6,238.9c-0.3-1.1-1-4.6-1.9-8.2c-1.1-4.4-1.1-4.7-1.6-6.8c-0.1-0.6-0.5-1.1-0.7-1.5
			c-0.3-0.7-0.8-1.5-1.1-2.6c-0.7-3,1.6-5.9,4.1-6.6c2.9-0.7,5.1,1.3,6.3,6c0.5,2.2,1.4,9.6,3,16.1c0.8,3,1.1,6.7-2.3,7.5
			C94.1,243.8,93.4,242.1,92.6,238.9z M94,252.1c-1-4.2,1.6-7.6,4.9-8.4c3.6-0.9,5.4,1.7,6,4.1c1.1,4.3-0.6,7.5-4.6,8.5
			C96.7,257.2,94.6,254.5,94,252.1z"/>
	</g>
</g>
</svg>
