<?xml version="1.0" encoding="utf-8"?>
<!-- Generator: Adobe Illustrator 17.0.0, SVG Export Plug-In . SVG Version: 6.00 Build 0)  -->
<!DOCTYPE svg PUBLIC "-//W3C//DTD SVG 1.1//EN" "http://www.w3.org/Graphics/SVG/1.1/DTD/svg11.dtd">
<svg version="1.1" id="Arrow_1_" xmlns="http://www.w3.org/2000/svg" xmlns:xlink="http://www.w3.org/1999/xlink" x="0px" y="0px"
	 width="500px" height="500px" viewBox="0 0 500 500" enable-background="new 0 0 500 500" xml:space="preserve">
<path fill="#F9AE5C" d="M418.8,195.1c-3.6-19.7-11-49.1-25.9-74.9c-41.1-71.2-101.6-62-104.2-61.6c-3.3,0.5-6.2,2.3-8.4,4.8
	c-1.5,1.8-33.8,42.4-7.1,104.3c-12.9-3.1-26.2-4.6-39.8-4.6c-66.7,0-124.5,38.5-152.6,94.4c-1.5-0.1-3-0.2-4.5-0.2
	C34.4,257.4,0,291.7,0,334c0,37.5,27.1,68.8,62.8,75.3v18.9c0,7.6,6.2,13.8,13.8,13.8h331.6c24.9,0,45.2-20.3,45.2-45.2
	c0-9.3-2.8-17.9-7.6-25.1C479,358.1,500,327,500,286.9C500,243.8,474.8,200.5,418.8,195.1z M27.6,334c0-24.7,18.5-45,42.3-48.4
	c-4.5,15.3-7.1,31.5-7.1,48.4v46.8C42.5,374.8,27.6,356.2,27.6,334z M90.4,349.7c0-35.7,29-64.7,64.7-64.7s64.7,29,64.7,64.7
	c0,7.6,6.2,13.8,13.8,13.8h26.7c14,0,25.5,11.4,25.5,25.5c0,14-11.4,25.5-25.5,25.5H90.4V349.7z M406.4,351.6
	c-17.3,0-33.6-6.7-45.8-18.9c-5.4-5.4-14.1-5.4-19.5,0s-5.4,14.1,0,19.5c17.4,17.4,40.6,27,65.3,27c0.5,0,1-0.1,1.5-0.1
	c0.1,0,0.2,0.1,0.3,0.1c9.7,0,17.6,7.9,17.6,17.6s-7.9,17.6-17.6,17.6H306.6c4.2-7.6,6.8-16.2,6.8-25.5c0-29.2-23.8-53-53.1-53
	h-13.9c-6.7-44.4-45.1-78.5-91.3-78.5c-18.7,0-36.1,5.6-50.7,15.3c23-48.4,72.2-81.9,129.3-81.9c21.7,0,42.5,4.8,61.9,14.2
	c24.1,31.2,54.1,52.1,55.6,53.1c2.4,1.6,5.1,2.4,7.8,2.4c4.4,0,8.7-2.1,11.4-6c4.3-6.3,2.7-14.9-3.6-19.2
	c-0.3-0.2-29.4-20.4-51.1-49.4c-0.3-0.5-0.6-0.9-1-1.3c-3.3-4.5-6.3-9.1-9.1-13.9c-25.1-43.4-13.1-74-6.8-85.1
	c12.7,0.1,45.2,5,70.3,48.4c21.2,36.8,25.3,84.9,25.3,85.4c0.6,7.6,7.3,13.3,14.8,12.6c5.4-0.4,9.8-4,11.6-8.7
	c48.7,7.5,51.5,53.7,51.5,63.6C472.4,326.2,446.5,351.6,406.4,351.6z"/>
</svg>
