<?xml version="1.0" encoding="utf-8"?>
<!-- Generator: Adobe Illustrator 17.0.0, SVG Export Plug-In . SVG Version: 6.00 Build 0)  -->
<!DOCTYPE svg PUBLIC "-//W3C//DTD SVG 1.1//EN" "http://www.w3.org/Graphics/SVG/1.1/DTD/svg11.dtd">
<svg version="1.1" id="Arrow_1_" xmlns="http://www.w3.org/2000/svg" xmlns:xlink="http://www.w3.org/1999/xlink" x="0px" y="0px"
	 width="500px" height="500px" viewBox="0 0 500 500" enable-background="new 0 0 500 500" xml:space="preserve">
<g>
	<path fill="none" d="M365.51,325.21c15.8,13.2,36.8,21,49.7,21c11.5,0,13.9-4.7,13.9-11.7c0-9.8-12.2-33.9-40.6-35.4
		C382.21,308.609,374.41,317.31,365.51,325.21z"/>
	<path fill="none" d="M388.41,200.91c28.5-1.4,40.7-25.6,40.7-35.4c0-7-2.4-11.7-13.9-11.7c-12.9,0-33.9,7.8-49.7,21
		C374.41,182.71,382.21,191.41,388.41,200.91z"/>
	<path fill="none" d="M211.71,184.21c-0.1,0.1-0.1,0.2-0.1,0.2c-0.1,0.1-0.2,0.1-0.3,0.2c-14.9,15.6-23.7,38.3-23.7,65.4
		c0,26.9,8.7,49.5,23.5,65.2c0.2,0.2,0.4,0.3,0.6,0.5c0.1,0.1,0.2,0.3,0.3,0.5c13.7,14,32.4,22.1,54.2,22.1
		c50.3,0,111.8-40.7,111.8-88.2s-61.5-88.2-111.8-88.2C244.21,161.809,225.41,170.01,211.71,184.21z"/>
	<path fill="none" d="M130.81,123.51c0,25.8,6.8,37.4,13.9,49.8c6.6,11.4,13.4,23.1,13.4,42.8c0,3.9-1.8,7.6-4.8,10.1
		s-7,3.5-10.9,2.7c-12.1-2.4-50.2-6.5-65.5,6c-2.7,2.3-6.4,6.3-6.4,15.1c0,8.8,3.7,12.9,6.4,15.1c15.4,12.6,53.4,8.5,65.5,6
		c3.8-0.8,7.8,0.2,10.9,2.7c3,2.5,4.8,6.2,4.8,10.1c0,19.7-6.8,31.4-13.4,42.8c-7.1,12.4-13.9,24-13.9,49.8
		c0,34.9,27.1,63.2,38.8,73.7c13.7,12.4,26.3,19.3,34,22.1c-2.8-6.1-7.8-14.6-11.6-20.9c-11.9-19.9-25.4-42.5-25.4-64.5
		c0-30.3,10.5-51,18.4-62.3c-14.9-19.6-23.6-45.4-23.6-74.8s8.7-55.1,23.6-74.8c-7.8-11.2-18.4-31.9-18.4-62.3
		c0-22,13.5-44.6,25.4-64.5c3.8-6.3,8.8-14.8,11.6-20.9c-7.7,2.8-20.2,9.7-34,22.1C157.91,60.309,130.81,88.61,130.81,123.51z"/>
	<path fill="#F9AE5C" d="M403.01,236.809c-0.6-3.7-1.5-7.4-2.6-11.1c35.5-6.9,54.9-38,54.9-60.3c0-23-15.7-37.9-40.1-37.9
		c-19.3,0-49.5,10.8-71.3,31.4c-24-14.7-52-23.5-77.8-23.5c-23.9,0-45.2,7.6-62.3,20.7c-5.1-8.6-11.1-22.8-11.1-43.3
		c0-14.8,12-34.9,21.7-51.1c8.9-14.8,17.4-29.1,17.4-41.1c0-5.5-1.8-10.6-6.2-15c-5.1-4.8-15.1-9.2-34.4-1.2
		c-34.9,14.5-86.6,62.3-86.6,119.1c0,32.8,9.7,49.5,17.5,62.9c3,5.1,5.5,9.5,7.3,14.3c-19.7-1.7-50.3-1.3-69,14
		c-10.5,8.6-16,20.8-16,35.4c0,14.6,5.5,26.8,16,35.4c18.7,15.3,49.3,15.7,69,14c-1.8,4.8-4.3,9.2-7.3,14.3
		c-7.8,13.4-17.5,30.1-17.5,62.9c0,56.8,51.7,104.6,86.6,119.1c19.2,8,29.3,3.6,34.4-1.5c14-14,1.8-34.4-11.2-56.1
		c-9.6-16.3-21.6-36.4-21.6-51.2c0-20.5,6-34.8,11.1-43.3c17.1,13.1,38.4,20.7,62.3,20.7c25.8,0,53.8-8.8,77.8-23.5
		c21.8,20.6,52,31.4,71.3,31.4c24.3,0,40.1-14.9,40.1-37.9c0-22.3-19.4-53.4-54.9-60.3c1.1-3.6,2-7.3,2.6-11.1
		c0,0,1.033-8.83,1.033-13.5C404.143,244.843,403.01,236.809,403.01,236.809z M429.109,334.509c0,7-2.4,11.7-13.9,11.7
		c-12.9,0-33.9-7.8-49.7-21c8.9-7.8,16.7-16.6,22.9-26.1C416.91,300.509,429.109,324.609,429.109,334.509z M378.01,250.01
		c0,47.5-61.5,88.2-111.8,88.2c-21.8,0-40.5-8.1-54.2-22.1c-0.1-0.1-0.2-0.3-0.3-0.5c-0.2-0.2-0.4-0.3-0.6-0.5
		c-14.8-15.6-23.5-38.3-23.5-65.2c0-27,8.8-49.7,23.7-65.4c0.1-0.1,0.2-0.1,0.3-0.2s0.1-0.2,0.1-0.2c13.7-14.1,32.5-22.4,54.4-22.4
		C316.51,161.809,378.01,202.51,378.01,250.01z M415.21,153.809c11.5,0,13.9,4.7,13.9,11.7c0,9.8-12.2,33.9-40.7,35.4
		c-6.2-9.5-14-18.3-22.9-26.1C381.31,161.61,402.31,153.809,415.21,153.809z M192.01,48.51c-11.9,19.9-25.4,42.5-25.4,64.5
		c0,30.3,10.5,51,18.4,62.3c-14.9,19.6-23.6,45.4-23.6,74.8s8.7,55.2,23.6,74.8c-7.8,11.2-18.4,31.9-18.4,62.3
		c0,22,13.5,44.6,25.4,64.5c3.8,6.3,8.8,14.8,11.6,20.9c-7.7-2.8-20.2-9.7-34-22.1c-11.7-10.5-38.8-38.8-38.8-73.7
		c0-25.8,6.8-37.4,13.9-49.8c6.6-11.4,13.4-23.1,13.4-42.8c0-3.9-1.8-7.6-4.8-10.1s-7-3.5-10.9-2.7c-12.1,2.4-50.1,6.6-65.5-6
		c-2.8-2.3-6.4-6.3-6.4-15.1c0-8.8,3.7-12.8,6.4-15.1c15.3-12.5,53.4-8.5,65.5-6c3.8,0.8,7.8-0.2,10.9-2.7c3-2.5,4.8-6.2,4.8-10.1
		c0-19.7-6.8-31.4-13.4-42.8c-7.2-12.4-13.9-24-13.9-49.8c0-34.9,27.1-63.2,38.8-73.7c13.7-12.4,26.3-19.3,34-22.1
		C200.81,33.71,195.71,42.21,192.01,48.51z"/>
</g>
</svg>
