<?xml version="1.0" encoding="utf-8"?>
<!-- Generator: Adobe Illustrator 18.1.1, SVG Export Plug-In . SVG Version: 6.00 Build 0)  -->
<svg version="1.1" id="Arrow_1_" xmlns="http://www.w3.org/2000/svg" xmlns:xlink="http://www.w3.org/1999/xlink" x="0px" y="0px"
	 viewBox="-469 39 500 500" enable-background="new -469 39 500 500" xml:space="preserve">
<g>
	<path fill="none" d="M-103.5,364.2c15.8,13.2,36.8,21,49.7,21c11.5,0,13.9-4.7,13.9-11.7c0-9.8-12.2-33.9-40.6-35.4
		C-86.8,347.6-94.6,356.3-103.5,364.2z"/>
	<path fill="none" d="M-80.6,239.9c28.5-1.4,40.7-25.6,40.7-35.4c0-7-2.4-11.7-13.9-11.7c-12.9,0-33.9,7.8-49.7,21
		C-94.6,221.7-86.8,230.4-80.6,239.9z"/>
	<path fill="none" d="M-257.3,223.2c-0.1,0.1-0.1,0.2-0.1,0.2c-0.1,0.1-0.2,0.1-0.3,0.2c-14.9,15.6-23.7,38.3-23.7,65.4
		c0,26.9,8.7,49.5,23.5,65.2c0.2,0.2,0.4,0.3,0.6,0.5c0.1,0.1,0.2,0.3,0.3,0.5c13.7,14,32.4,22.1,54.2,22.1
		c50.3,0,111.8-40.7,111.8-88.2s-61.5-88.2-111.8-88.2C-224.8,200.8-243.6,209-257.3,223.2z"/>
	<path fill="none" d="M-338.2,162.5c0,25.8,6.8,37.4,13.9,49.8c6.6,11.4,13.4,23.1,13.4,42.8c0,3.9-1.8,7.6-4.8,10.1
		s-7,3.5-10.9,2.7c-12.1-2.4-50.2-6.5-65.5,6c-2.7,2.3-6.4,6.3-6.4,15.1s3.7,12.9,6.4,15.1c15.4,12.6,53.4,8.5,65.5,6
		c3.8-0.8,7.8,0.2,10.9,2.7c3,2.5,4.8,6.2,4.8,10.1c0,19.7-6.8,31.4-13.4,42.8c-7.1,12.4-13.9,24-13.9,49.8
		c0,34.9,27.1,63.2,38.8,73.7c13.7,12.4,26.3,19.3,34,22.1c-2.8-6.1-7.8-14.6-11.6-20.9c-11.9-19.9-25.4-42.5-25.4-64.5
		c0-30.3,10.5-51,18.4-62.3c-14.9-19.6-23.6-45.4-23.6-74.8c0-29.4,8.7-55.1,23.6-74.8c-7.8-11.2-18.4-31.9-18.4-62.3
		c0-22,13.5-44.6,25.4-64.5c3.8-6.3,8.8-14.8,11.6-20.9c-7.7,2.8-20.2,9.7-34,22.1C-311.1,99.3-338.2,127.6-338.2,162.5z"/>
	<path fill="#F9AE5C" d="M-13.6,373.4c0,23-15.8,37.9-40.1,37.9c-19.3,0-49.5-10.8-71.3-31.4c-24,14.7-52,23.5-77.8,23.5
		c-23.9,0-45.2-7.6-62.3-20.7c-5.1,8.5-11.1,22.8-11.1,43.3c0,14.8,12,34.9,21.6,51.2c13,21.7,25.2,42.1,11.2,56.1
		c-5.1,5.1-15.2,9.5-34.4,1.5c-34.9-14.5-86.6-62.3-86.6-119.1c0-32.8,9.7-49.5,17.5-62.9c3-5.1,5.5-9.5,7.3-14.3
		c-19.7,1.7-50.3,1.3-69-14c-10.5-8.6-16-20.8-16-35.4c0-14.6,5.5-26.8,16-35.4c18.7-15.3,49.3-15.7,69-14
		c-1.8-4.8-4.3-9.2-7.3-14.3c-7.8-13.4-17.5-30.1-17.5-62.9c0-56.8,51.7-104.6,86.6-119.1c19.3-8,29.3-3.6,34.4,1.2
		c4.4,4.4,6.2,9.5,6.2,15c0,12-8.5,26.3-17.4,41.1c-9.7,16.2-21.7,36.3-21.7,51.1c0,20.5,6,34.7,11.1,43.3
		c17.1-13.1,38.4-20.7,62.3-20.7c25.8,0,53.8,8.8,77.8,23.5c21.8-20.6,52-31.4,71.3-31.4c24.4,0,40.1,14.9,40.1,37.9
		c0,22.3-19.4,53.4-54.9,60.3c1.1,3.7,2,7.4,2.6,11.1c0,0,1.1,8,1.1,12.7s-1,13.5-1,13.5c-0.6,3.8-1.5,7.5-2.6,11.1
		C-33,320-13.6,351.1-13.6,373.4z"/>
</g>
</svg>
